<svg width="80" height="115" viewBox="0 0 80 115" fill="none" xmlns="http://www.w3.org/2000/svg">
<path d="M20.6472 21.9648C18.9298 21.047 18.7702 15.0463 22.6361 8.11719C27.4011 -0.423616 46.2025 -2.98741 53.8939 16.2411C55.0718 23.0139 51.2434 23.5565 48.0986 20.6794C53.1823 29.3919 57.9365 37.2842 59.9683 40.6119C65.6631 45.9724 73.0392 57.2065 56.9854 59.2589C40.9315 61.3114 29.7468 60.6981 26.1612 60.135C24.0521 58.0492 20.5207 51.6749 23.2687 42.8645C23.186 41.238 22.5965 36.6474 22.6359 32.1018C22.678 27.2468 23.2738 22.4607 20.6472 21.9648Z" fill="white"/>
<path opacity="0.968" fill-rule="evenodd" clip-rule="evenodd" d="M32.5868 0.0321096C39.2682 -0.307539 44.7932 2.04736 49.1617 7.0968C51.8588 10.0738 53.9119 13.455 55.3206 17.241C56.1474 19.466 55.8154 21.4887 54.3243 23.3094C52.637 24.6214 50.9463 24.6214 49.2523 23.3094C45.853 19.7401 44.0718 15.4831 43.9084 10.5386C44.4158 10.0723 44.9292 10.0723 45.4482 10.5386C46.0009 13.9179 47.1783 17.0577 48.9805 19.9582C49.683 21.0849 50.6493 21.8698 51.8789 22.3131C53.2221 21.9258 53.8561 21.02 53.7809 19.5959C53.7615 19.0403 53.6709 18.4969 53.5092 17.9656C51.6678 13.5869 49.0412 9.75277 45.6293 6.46279C40.8049 2.13214 35.31 0.984756 29.145 3.02102C27.6676 3.71426 26.3393 4.61999 25.1598 5.73821C23.9318 5.71375 23.5998 5.14006 24.1635 4.01732C26.5771 1.82908 29.3849 0.500734 32.5868 0.0321096Z" fill="#242424"/>
<path opacity="0.964" fill-rule="evenodd" clip-rule="evenodd" d="M22.8037 6.7368C23.9205 6.61525 24.3734 7.09837 24.1623 8.18597C21.0213 11.2678 19.6326 15.0116 19.996 19.417C20.0454 19.7483 20.1965 20.0201 20.4488 20.2322C21.7549 20.4298 22.0569 21.0941 21.3546 22.2248C19.6866 22.5842 18.63 21.9502 18.1845 20.3228C17.4339 14.9967 18.9736 10.468 22.8037 6.7368Z" fill="#242424"/>
<path opacity="0.953" fill-rule="evenodd" clip-rule="evenodd" d="M27.1508 9.08931C27.8485 9.07554 28.2712 9.40758 28.4188 10.0856C28.2907 10.6653 28.1398 11.239 27.9659 11.8065C27.4225 12.5311 26.879 12.5311 26.3356 11.8065C26.0411 10.6923 26.3128 9.78654 27.1508 9.08931Z" fill="#242424"/>
<path opacity="0.953" fill-rule="evenodd" clip-rule="evenodd" d="M40.0131 9.81425C40.5918 9.71661 41.0447 9.89776 41.3717 10.3577C41.4925 11.022 41.4925 11.686 41.3717 12.3503C40.6844 13.1185 40.0806 13.0582 39.5602 12.1691C39.3504 11.2984 39.5015 10.5135 40.0131 9.81425Z" fill="#242424"/>
<path opacity="0.976" fill-rule="evenodd" clip-rule="evenodd" d="M35.6978 19.5422C35.3133 19.3457 34.9227 19.1597 34.5258 18.9841C34.3492 19.2532 34.2375 19.5509 34.191 19.8771C34.1538 20.3607 34.1165 20.8445 34.0794 21.3281C33.3315 21.7737 32.978 21.5505 33.019 20.6584C33.0978 20.0134 33.1908 19.3809 33.298 18.7609C33.1293 18.8454 32.9804 18.957 32.8516 19.0957C32.0855 20.3877 31.8623 21.7644 32.1819 23.2256C32.6289 24.0072 33.2428 24.1746 34.0236 23.7279C34.3838 23.2536 34.5698 22.7141 34.5817 22.1095C34.806 21.9229 35.0664 21.8485 35.363 21.8862C35.8144 22.9607 35.5911 23.9094 34.6933 24.7325C33.3958 25.4628 32.261 25.2581 31.2889 24.1186C30.6155 22.5185 30.6713 20.9372 31.4563 19.3748C30.5762 19.404 29.8135 19.125 29.1681 18.5377C29.0937 18.2772 29.0937 18.0167 29.1681 17.7563C29.2579 17.6108 29.3881 17.5363 29.5588 17.5331C29.9436 17.6696 30.3156 17.837 30.675 18.0354C31.3697 18.1538 32.0394 18.0793 32.6841 17.8121C32.7903 17.732 32.8088 17.639 32.7399 17.5331C31.764 16.7326 31.671 15.8581 32.4609 14.91C33.6227 14.3354 34.7389 14.4099 35.8095 15.1333C36.1664 15.5344 36.2967 15.9996 36.2001 16.5285C35.9447 16.8944 35.6285 16.9502 35.2514 16.6959C34.9323 15.7917 34.2998 15.494 33.3538 15.803C33.2794 15.8774 33.2051 15.9518 33.1306 16.0262C33.3725 16.4169 33.6887 16.7331 34.0794 16.975C34.2812 17.4744 34.6346 17.8279 35.1398 18.0354C36.4989 18.6511 37.764 18.5023 38.9348 17.5889C39.6932 17.4538 39.9723 17.7329 39.7719 18.426C39.3552 18.8113 38.8901 19.1276 38.3767 19.3748C38.5256 19.6717 38.6187 19.988 38.6557 20.3236C38.664 21.5889 38.664 22.8538 38.6557 24.1186C38.6714 24.4024 38.7457 24.663 38.879 24.8999C39.022 24.071 39.1151 23.2339 39.158 22.3885C39.062 21.476 39.0062 20.5644 38.9906 19.6538C39.5752 19.1395 39.9845 19.2511 40.2184 19.9887C40.4765 21.7466 40.4393 23.4952 40.1068 25.2348C39.6067 26.4562 38.8627 26.6423 37.8744 25.7929C37.5263 24.9749 37.3588 24.1193 37.3721 23.2256C37.4692 22.2591 37.4279 20.3236 37.4279 20.3236L37.3721 19.8186L36.7024 19.7097C36.7024 19.7097 36.0352 19.5762 35.6978 19.5422Z" fill="#242424"/>
<path opacity="0.987" fill-rule="evenodd" clip-rule="evenodd" d="M35.6962 19.546C35.5725 20.3252 35.4609 21.1066 35.3613 21.89C35.0647 21.8523 34.8043 21.9267 34.58 22.1132C34.5681 22.7179 34.3821 23.2573 34.0219 23.7317C33.2411 24.1784 32.6272 24.011 32.1802 23.2294C31.8606 21.7682 32.0838 20.3915 32.8499 19.0995C32.9787 18.9608 33.1276 18.8492 33.2964 18.7647C33.1891 19.3847 33.0961 20.0172 33.0173 20.6622C32.9763 21.5543 33.3298 21.7775 34.0777 21.3319C34.1149 20.8483 34.1521 20.3645 34.1893 19.8809C34.2359 19.5547 34.3475 19.257 34.5242 18.9879C34.921 19.1635 35.3116 19.3495 35.6962 19.546Z" fill="#C1F703"/>
<path opacity="0.966" fill-rule="evenodd" clip-rule="evenodd" d="M21.8976 22.2225C22.3389 22.1993 22.7314 22.284 23.075 22.4764C22.4615 31.6487 23.639 40.7055 26.6074 49.647C26.4273 50.3708 25.8536 50.5825 24.8865 50.2818C24.1677 48.3978 23.564 46.4933 23.075 44.5684C22.2046 49.8418 23.3821 54.8781 26.6074 59.6773C26.3174 60.3736 25.7437 60.5428 24.8865 60.1851C20.5698 53.9043 19.6941 47.408 22.2599 40.696C21.0555 34.7325 20.7232 28.7441 21.2636 22.7304C21.3886 22.4955 21.5998 22.3261 21.8976 22.2225Z" fill="#242424"/>
<path opacity="0.965" fill-rule="evenodd" clip-rule="evenodd" d="M49.9746 23.4961C50.2878 23.5744 50.5595 23.7014 50.7897 23.877C51.3794 24.5763 51.9228 25.2958 52.42 26.0354C54.0007 28.8513 55.5104 31.6869 56.9487 34.542C59.2822 37.9414 61.9391 41.2002 64.9191 44.3184C66.3453 46.0207 67.3113 47.8405 67.8175 49.7779C68.3933 52.4591 67.6082 54.9138 65.4626 57.1419C63.1196 59.1599 60.1307 59.9851 56.4958 59.6177C56.0127 59.2368 56.0127 58.8559 56.4958 58.475C61.3136 58.4853 64.3628 56.8558 65.6437 53.5869C66.1712 51.5506 65.9296 49.5614 64.9191 47.6195C64.3043 46.6307 63.64 45.6572 62.9265 44.6993C59.9155 41.7073 57.319 38.5332 55.1372 35.1769C53.4442 31.4049 51.3611 27.7441 48.8877 24.1944C49.1158 23.8434 49.4781 23.6107 49.9746 23.4961Z" fill="#242424"/>
<path opacity="0.967" fill-rule="evenodd" clip-rule="evenodd" d="M46.1731 35.2919C46.6752 35.2412 47.1281 35.3621 47.5317 35.6542C48.4387 43.3962 48.3179 51.1252 47.1694 58.8409C46.9361 60.6044 46.2418 62.1441 45.0862 63.4601C44.3638 64.0175 43.5487 64.3496 42.6408 64.4565C41.5803 64.2445 41.3689 63.6708 42.0068 62.7356C43.7179 62.3684 44.7142 61.3118 44.9957 59.5655C46.2669 51.8027 46.4782 44.0134 45.6297 36.1977C45.6762 35.8006 45.8574 35.4986 46.1731 35.2919Z" fill="#242424"/>
<path opacity="0.973" fill-rule="evenodd" clip-rule="evenodd" d="M27.8777 38.1896C28.2724 38.2512 28.6044 38.4323 28.874 38.733C29.1046 45.2742 29.7989 51.7654 30.9571 58.2062C30.8472 59.2221 30.3037 59.5844 29.3268 59.2931C28.4908 55.8774 27.9173 52.4054 27.6059 48.8772C27.256 45.5019 27.0748 42.1205 27.0625 38.733C27.3177 38.501 27.5895 38.3198 27.8777 38.1896Z" fill="#242424"/>
<path opacity="0.96" fill-rule="evenodd" clip-rule="evenodd" d="M36.9324 39.4591C37.7408 39.4528 38.1635 39.8451 38.2004 40.6366C36.9335 48.5724 34.9711 56.3314 32.3132 63.9138C31.9835 64.4035 31.5306 64.5544 30.9546 64.3667C30.6162 64.2038 30.435 63.9321 30.4111 63.5515C33.0265 55.9276 34.9891 48.1384 36.2984 40.1837C36.4234 39.8486 36.6346 39.6069 36.9324 39.4591Z" fill="#242424"/>
<path opacity="0.962" fill-rule="evenodd" clip-rule="evenodd" d="M36.0287 59.023C36.8136 58.8482 37.3571 59.1199 37.659 59.8382C36.6861 61.512 35.9918 63.2933 35.5759 65.182C34.8083 66.1207 34.1743 66 33.6738 64.8197C34.0368 62.7014 34.8218 60.7693 36.0287 59.023Z" fill="#242424"/>
<path opacity="0.963" fill-rule="evenodd" clip-rule="evenodd" d="M48.3462 59.5674C50.8323 59.7347 53.308 60.0065 55.7732 60.3825C56.4056 60.7124 56.6168 61.2256 56.4072 61.9223C56.1087 62.199 55.7464 62.3199 55.3203 62.2845C53.1131 62.0393 50.9091 61.7676 48.7085 61.4694C47.8966 60.9763 47.7758 60.3423 48.3462 59.5674Z" fill="#242424"/>
<path opacity="0.955" fill-rule="evenodd" clip-rule="evenodd" d="M39.4697 60.1096C40.2096 59.9573 40.7531 60.1988 41.1 60.8342C40.6185 62.4312 40.0146 63.9709 39.2885 65.4534C38.459 65.7391 37.9156 65.4674 37.6582 64.6383C38.1232 63.0596 38.7271 61.5501 39.4697 60.1096Z" fill="#242424"/>
<path d="M38.02 27.7364C37.5262 28.2438 37.5371 29.0554 38.0445 29.5492C38.5518 30.043 39.3634 30.032 39.8572 29.5247C40.351 29.0173 40.34 28.2057 39.8327 27.7119" stroke="#242424" stroke-linecap="round"/>
<rect x="0.5" y="35.5" width="79" height="79" rx="15.5" fill="#FAFAFA" stroke="#242424" stroke-dasharray="4 4"/>
<rect x="33" y="74" width="14" height="2" rx="1" fill="#242424"/>
<rect x="39" y="82" width="14" height="2" rx="1" transform="rotate(-90 39 82)" fill="#242424"/>
</svg>
