<svg width="353" height="132" viewBox="0 0 353 132" fill="none" xmlns="http://www.w3.org/2000/svg">
<rect x="0.5" y="0.5" width="352" height="131" rx="7.5" fill="#FAFAFA" stroke="#242424" stroke-dasharray="4 4"/>
<path opacity="0.6" d="M159.54 75.79C159.28 75.5633 158.987 75.3167 158.66 75.05C158.333 74.7767 158.063 74.57 157.85 74.43L158.41 73.66C158.603 73.8 158.867 74.0033 159.2 74.27C159.533 74.5367 159.83 74.78 160.09 75L159.54 75.79ZM162.08 76.15C162.213 75.79 162.327 75.3633 162.42 74.87H160.34V74.03H165.8V74.87H163.36C163.267 75.3633 163.153 75.79 163.02 76.15H166.31V77.01H164.33C164.557 77.39 164.827 77.69 165.14 77.91C165.453 78.13 165.897 78.3667 166.47 78.62L166.04 79.47C165.4 79.1433 164.863 78.7933 164.43 78.42C163.997 78.04 163.64 77.57 163.36 77.01H162.65C162.39 77.4967 162.053 77.94 161.64 78.34C161.227 78.74 160.687 79.1633 160.02 79.61L159.45 78.83C159.99 78.51 160.43 78.21 160.77 77.93C161.117 77.6433 161.4 77.3367 161.62 77.01H159.9V76.15H162.08ZM159.17 78.22C158.523 77.64 157.977 77.1833 157.53 76.85L158.08 76.08L159.73 77.42L159.17 78.22ZM162.21 78.13H163.08V81.56C163.08 81.8467 163.047 82.0667 162.98 82.22C162.913 82.3733 162.8 82.48 162.64 82.54C162.487 82.6067 162.267 82.64 161.98 82.64H161.13L160.97 81.79H161.64C161.88 81.79 162.033 81.7567 162.1 81.69C162.173 81.6233 162.21 81.4833 162.21 81.27V78.13ZM157.66 82.38L158.61 78.83L159.05 78.94L159.51 79.06L158.59 82.62L157.66 82.38ZM165.32 79.2C165.453 79.4867 165.633 79.89 165.86 80.41C166.087 80.93 166.273 81.37 166.42 81.73L165.7 82.03C165.32 81.0767 164.96 80.2367 164.62 79.51L165.32 79.2ZM161.61 79.5C161.45 79.9267 161.253 80.38 161.02 80.86C160.793 81.34 160.58 81.75 160.38 82.09L159.62 81.69C160.14 80.9167 160.547 80.1033 160.84 79.25L161.61 79.5ZM164 79.29C164.387 80.3633 164.663 81.1867 164.83 81.76L164.11 81.97C164.03 81.6633 163.907 81.26 163.74 80.76C163.58 80.26 163.44 79.85 163.32 79.53L164 79.29ZM169.8 73.55C169.8 73.81 169.787 74.3667 169.76 75.22H171.88C171.873 75.92 171.853 76.9033 171.82 78.17C171.793 79.4367 171.77 80.4167 171.75 81.11C171.743 81.4567 171.693 81.7267 171.6 81.92C171.507 82.1067 171.357 82.24 171.15 82.32C170.943 82.4 170.657 82.44 170.29 82.44H169.5L169.31 81.46H170.06C170.307 81.46 170.48 81.44 170.58 81.4C170.687 81.36 170.753 81.29 170.78 81.19C170.807 81.09 170.823 80.9133 170.83 80.66C170.843 80.3867 170.883 78.8867 170.95 76.16H169.73C169.69 77.3133 169.627 78.2367 169.54 78.93C169.453 79.6233 169.307 80.26 169.1 80.84C168.893 81.42 168.583 82.0467 168.17 82.72L167.44 82.01C167.8 81.4167 168.073 80.87 168.26 80.37C168.447 79.8633 168.58 79.2967 168.66 78.67C168.747 78.0367 168.803 77.2 168.83 76.16H167.69V75.22H168.85L168.87 73.55H169.8ZM172.67 82.51V74.6H176.01V82.51H175.12V81.67H173.57V82.51H172.67ZM173.57 75.56V80.75H175.12V75.56H173.57ZM178 82.7V73.92H185.99V82.7H185.09V82.21H178.9V82.7H178ZM178.9 74.75V81.4H185.09V74.75H178.9ZM182.77 77.49C183.317 77.71 184.03 77.89 184.91 78.03L184.61 78.79C183.543 78.55 182.677 78.26 182.01 77.92C181.663 78.0933 181.223 78.28 180.69 78.48C182.083 78.74 183.033 78.9267 183.54 79.04L183.44 79.73C182.6 79.5233 181.63 79.3267 180.53 79.14L180.66 78.49C180.12 78.67 179.693 78.8033 179.38 78.89L179.07 78.13C179.923 77.93 180.653 77.7067 181.26 77.46C180.933 77.2267 180.623 76.95 180.33 76.63C180.11 76.8567 179.85 77.08 179.55 77.3L179.11 76.74C179.717 76.3 180.287 75.69 180.82 74.91L181.54 75.11L181.2 75.61H184.29V76.25C183.743 76.77 183.237 77.1833 182.77 77.49ZM180.89 76.25C181.21 76.59 181.58 76.88 182 77.12C182.5 76.8467 182.91 76.5567 183.23 76.25H180.89ZM179.85 79.67C180.37 79.7567 181.067 79.8867 181.94 80.06C182.82 80.2267 183.513 80.37 184.02 80.49L183.88 81.2C183.387 81.0867 182.703 80.9433 181.83 80.77C180.963 80.5967 180.27 80.4633 179.75 80.37L179.85 79.67ZM196.35 77H190.05C190.05 77.56 190.04 78.0667 190.02 78.52H194.52V82.62H193.54V79.46H189.95C189.877 80.14 189.74 80.7267 189.54 81.22C189.34 81.7133 189.037 82.23 188.63 82.77L187.69 82.25C188.09 81.75 188.387 81.27 188.58 80.81C188.78 80.35 188.913 79.8267 188.98 79.24C189.053 78.6533 189.09 77.8767 189.09 76.91V73.74H190.05V76.06H193.17V73.58H194.13V76.06H196.35V77Z" fill="#242424"/>
<path d="M184.359 62.0723V55.1602L176.418 60.0996L173.691 58.5137L169.742 62.1719" fill="#C7FF02"/>
<path d="M169.742 62.7578C169.584 62.7578 169.428 62.6953 169.312 62.5703C169.092 62.332 169.107 61.9629 169.344 61.7422L173.293 58.084C173.482 57.9082 173.764 57.877 173.986 58.0078L176.408 59.416L184.051 54.6621C184.232 54.5488 184.459 54.5449 184.644 54.6484C184.83 54.752 184.945 54.9473 184.945 55.1602V62.0723C184.945 62.3965 184.684 62.6582 184.359 62.6582C184.035 62.6582 183.773 62.3965 183.773 62.0723V56.2149L176.727 60.5977C176.543 60.7129 176.311 60.7149 176.123 60.6074L173.771 59.2402L170.141 62.6016C170.027 62.7051 169.885 62.7578 169.742 62.7578Z" fill="#242424"/>
<path d="M183.562 63.207H170.295C169.541 63.207 168.928 62.5938 168.928 61.8398V52.1523C168.928 51.3984 169.541 50.7852 170.295 50.7852H183.562C184.316 50.7852 184.93 51.3984 184.93 52.1523V61.8398C184.93 62.5938 184.316 63.207 183.562 63.207ZM170.295 51.957C170.189 51.957 170.1 52.0469 170.1 52.1523V61.8398C170.1 61.9453 170.189 62.0352 170.295 62.0352H183.562C183.668 62.0352 183.758 61.9453 183.758 61.8398V52.1523C183.758 52.0469 183.668 51.957 183.562 51.957H170.295Z" fill="#242424"/>
<path d="M176.072 55.0215H173.012C172.689 55.0215 172.426 54.7578 172.426 54.4355C172.426 54.1133 172.689 53.8496 173.012 53.8496H176.072C176.395 53.8496 176.658 54.1133 176.658 54.4355C176.658 54.7578 176.395 55.0215 176.072 55.0215Z" fill="#242424"/>
</svg>
