<svg width="87" height="89" viewBox="0 0 87 89" fill="none" xmlns="http://www.w3.org/2000/svg">
<rect x="0.5" y="40.5" width="82" height="48" rx="7.5" fill="#FBFFED"/>
<path d="M25.916 68.614C26.672 68.9967 27.5913 69.2907 28.674 69.496L28.114 70.826C26.658 70.462 25.468 69.9487 24.544 69.286C23.6293 68.6233 22.878 67.7413 22.29 66.64H21.352V69.412L23.452 68.656L23.592 69.93L20.036 71.106L19.574 69.958C19.7047 69.874 19.7933 69.7947 19.84 69.72C19.8867 69.636 19.91 69.5473 19.91 69.454V66.64H18.776C18.7013 67.4613 18.566 68.1987 18.37 68.852C18.174 69.496 17.8753 70.2193 17.474 71.022L16.158 70.196C16.5407 69.4867 16.8207 68.8427 16.998 68.264C17.1847 67.676 17.306 66.9993 17.362 66.234C17.4273 65.4687 17.46 64.3907 17.46 63V58.66H28.016V61.992H18.874V63.168H21.1V62.286H22.486V63.168H24.684V62.286H26.07V63.168H28.128V64.33H26.07V65.436H28.562V66.64H27.134L27.834 67.438L27.19 67.83C26.4527 68.2873 26.028 68.5487 25.916 68.614ZM26.616 60.816V59.892H18.874V60.816H26.616ZM18.874 64.33C18.874 64.6007 18.8647 64.9693 18.846 65.436H21.1V64.33H18.874ZM24.684 65.436V64.33H22.486V65.436H24.684ZM23.76 66.64C24.0867 67.144 24.4507 67.564 24.852 67.9C25.6267 67.4427 26.2893 67.0227 26.84 66.64H23.76ZM42.674 59.192V60.606H39.132C39.468 60.8113 39.8927 61.0913 40.406 61.446C40.9287 61.7913 41.3813 62.0993 41.764 62.37L40.882 63.504C40.6113 63.2893 40.2053 62.9907 39.664 62.608C39.1227 62.2253 38.642 61.894 38.222 61.614L39.006 60.606H38.068C37.6667 61.418 37.1907 62.1973 36.64 62.944L35.408 62.02C35.8653 61.432 36.276 60.7833 36.64 60.074C37.0133 59.3647 37.298 58.674 37.494 58.002L38.992 58.45C38.9173 58.6647 38.824 58.912 38.712 59.192H42.674ZM33.756 58.156H35.296V62.93H33.756V58.156ZM30.9 58.604H32.37V62.846H30.9V58.604ZM41.05 63.532V67.928H39.468V64.974H33.378V68.054H31.81V63.532H41.05ZM41.036 68.544C41.0827 67.9653 41.0967 67.4893 41.078 67.116L42.66 67.396C42.6507 67.732 42.618 68.264 42.562 68.992C42.5433 69.4587 42.4593 69.8133 42.31 70.056C42.17 70.2987 41.9507 70.4667 41.652 70.56C41.3533 70.6627 40.9427 70.714 40.42 70.714H38.152C37.48 70.714 37.004 70.5833 36.724 70.322C36.444 70.07 36.304 69.6127 36.304 68.95V68.516C35.884 69.1133 35.24 69.608 34.372 70C33.504 70.4013 32.2953 70.77 30.746 71.106L30.312 69.552C31.46 69.356 32.3793 69.132 33.07 68.88C33.77 68.628 34.302 68.334 34.666 67.998C35.03 67.662 35.282 67.256 35.422 66.78C35.478 66.5933 35.534 66.346 35.59 66.038C35.646 65.7207 35.6693 65.492 35.66 65.352H37.2C37.1627 65.7627 37.0927 66.2153 36.99 66.71H37.802V68.53C37.802 68.838 37.858 69.0433 37.97 69.146C38.0913 69.2487 38.3293 69.3 38.684 69.3H40.014C40.3127 69.3 40.5273 69.2813 40.658 69.244C40.798 69.2067 40.8913 69.1413 40.938 69.048C40.9847 68.9453 41.0173 68.7773 41.036 68.544Z" fill="#242424"/>
<circle cx="58.5" cy="64.5" r="9" fill="#C7FF02"/>
<rect x="54" y="63.5" width="9" height="2" rx="1" fill="white"/>
<rect x="57.5" y="69" width="9" height="2" rx="1" transform="rotate(-90 57.5 69)" fill="white"/>
<rect x="0.5" y="40.5" width="82" height="48" rx="7.5" stroke="#C7FF02"/>
<path d="M76.4971 34.8459C78.5063 34.4679 82.7507 33.0315 83.6548 30.31C84.785 26.908 81.2061 21.6161 81.0177 21.0491" stroke="white" stroke-width="2" stroke-linecap="round"/>
<path d="M80.0062 20.6711C79.5039 18.9701 79.2527 15.228 82.2665 13.8672C85.2803 12.5065 85.7826 12.1663 85.6571 12.1663" stroke="#C6FC09" stroke-width="2" stroke-linecap="round"/>
<path d="M72.9178 38.0588C72.9178 40.2314 58.1714 41.9558 48.8076 38.0588C45.6055 36.7262 48.4274 33.1567 46.7357 31.066C44.4936 28.295 44.287 30.688 38.8245 27.286C36.6774 25.9488 17.6067 33.5229 15.2794 33.5229C11.8325 33.5229 23.9439 23.8841 30.3482 20.4821C27.8995 17.4582 27.1461 13.1059 27.1461 11.0323C27.1461 5.50013 31.804 0.826447 37.3176 0.826447C45.4171 1.39344 44.2336 4.6241 51.4446 7.25234C55.258 8.64222 58.9791 6.49635 64.4415 10.0873C74.2226 17.6887 78.3084 30.1388 72.9178 38.0588Z" fill="white"/>
<path opacity="0.965" fill-rule="evenodd" clip-rule="evenodd" d="M36.6552 0.0321903C41.6381 -0.283241 45.3428 1.7195 47.7693 6.0404C47.8937 6.36566 48.0298 6.68428 48.1776 6.99625C47.9361 7.42083 47.6185 7.49667 47.225 7.22384C45.4037 3.27435 42.319 1.21089 37.9708 1.03356C36.7676 1.00224 35.6033 1.19951 34.4778 1.62528C34.091 1.76538 33.849 1.64403 33.752 1.26114C33.8171 1.08026 33.9078 0.913304 34.0241 0.760458C34.8878 0.424181 35.7648 0.181394 36.6552 0.0321903Z" fill="#221F20"/>
<path opacity="0.962" fill-rule="evenodd" clip-rule="evenodd" d="M32.2101 1.21562C32.7089 1.22008 32.9357 1.46287 32.8906 1.94389C32.8452 2.05013 32.7697 2.12596 32.6638 2.17147C30.7063 2.53433 28.7406 2.80743 26.7665 2.99078C26.4102 2.60616 26.4707 2.30274 26.948 2.08044C28.7193 1.81954 30.4734 1.53133 32.2101 1.21562Z" fill="#221F20"/>
<path opacity="0.969" fill-rule="evenodd" clip-rule="evenodd" d="M30.8494 6.40448C30.1933 6.29124 29.5733 6.07886 28.9895 5.76725C28.8332 5.96907 28.6971 6.18145 28.5812 6.40448C27.4865 8.48123 27.3958 10.6054 28.3091 12.7768C28.2515 13.2139 28.0097 13.3808 27.5832 13.2775C26.3775 10.7844 26.4379 8.31127 27.7647 5.85828C28.0092 5.73229 28.0999 5.55022 28.0369 5.31208C27.2613 4.90817 26.5051 4.48331 25.7687 4.03761C25.1443 3.67029 24.5546 3.24544 23.9995 2.76314C23.9239 2.23214 24.1508 2.00456 24.68 2.08039C26.54 3.56032 28.5964 4.71344 30.8494 5.53966C31.0864 5.82769 31.0864 6.116 30.8494 6.40448Z" fill="#231F20"/>
<path opacity="0.97" fill-rule="evenodd" clip-rule="evenodd" d="M84.0153 12.1397C84.0153 12.1397 84.0452 12.1397 83.1081 12.4128C82.1134 12.7374 79.871 14.4342 79.2975 16.1451C78.77 17.7186 78.8456 19.2662 79.5243 20.7878C80.0328 21.692 80.5771 22.572 81.1574 23.4278C82.6272 25.874 82.658 28.3319 81.2481 30.8015C79.8743 32.7353 77.9992 33.7974 75.6231 33.9877C75.4919 35.5993 74.8718 36.98 73.7631 38.1297C73.1586 38.2814 72.9016 38.0538 72.992 37.447C73.9548 36.4403 74.5143 35.2417 74.6704 33.8511C73.9103 33.693 73.1845 33.435 72.493 33.0774C72.202 32.5983 72.3381 32.2948 72.9012 32.167C73.45 32.4517 74.0245 32.6641 74.6251 32.8043C74.395 28.464 73.5482 24.2461 72.0847 20.1506C70.6135 15.9769 68.0882 12.6239 64.509 10.0914C62.9603 9.07237 61.2668 8.40482 59.4282 8.08866C57.6478 7.91643 55.8635 7.79508 54.0753 7.72453C51.8309 7.66235 49.8803 6.88857 48.2234 5.40317C47.9403 5.10458 47.7134 4.77076 47.543 4.40181C47.6671 3.98505 47.9393 3.8485 48.3595 3.99215C49.4079 5.39844 50.7991 6.24815 52.533 6.54109C62.0265 5.8618 68.6949 9.85207 72.5383 18.512C74.3403 23.1373 75.3837 27.9318 75.6684 32.8953C78.6057 32.7248 80.4353 31.2075 81.1574 28.3436C81.4679 26.7312 81.1655 25.2443 80.2501 23.883C79.7436 23.1398 79.2598 22.3812 78.7985 21.6071C77.2727 18.2485 77.8323 15.29 80.477 12.7314C81.4303 11.9346 82.5192 11.4035 83.7431 11.1383C84.2294 11.3626 84.0153 12.1397 84.0153 12.1397Z" fill="#221E1F"/>
<path opacity="0.866" fill-rule="evenodd" clip-rule="evenodd" d="M25.7686 4.03766C26.505 4.48336 27.2611 4.90821 28.0367 5.31213C28.0998 5.55027 28.0091 5.73234 27.7646 5.85833C26.985 5.3764 26.3196 4.76957 25.7686 4.03766Z" fill="#BAED07"/>
<path opacity="0.924" fill-rule="evenodd" clip-rule="evenodd" d="M30.8492 6.40449C30.7844 6.7882 30.5575 7.00058 30.1688 7.04173C29.6026 6.91674 29.0733 6.70436 28.5811 6.40449C28.6969 6.18146 28.833 5.96908 28.9893 5.76726C29.5732 6.07887 30.1931 6.29125 30.8492 6.40449Z" fill="#C3FA03"/>
<path opacity="0.972" fill-rule="evenodd" clip-rule="evenodd" d="M44.6397 11.1383C42.9753 10.7124 41.3724 10.1056 39.8311 9.3176C39.3228 9.09284 38.839 8.81974 38.3795 8.4983C38.1964 7.97003 38.3779 7.71214 38.9239 7.72452C41.1565 9.0364 43.5154 9.94673 46.0006 10.4555C46.3478 10.7373 46.3478 11.0104 46.0006 11.2748C45.5373 11.3267 45.0836 11.2812 44.6397 11.1383Z" fill="#232020"/>
<path opacity="0.964" fill-rule="evenodd" clip-rule="evenodd" d="M39.832 9.31764C41.3733 10.1056 42.9762 10.7125 44.6406 11.1383C44.4759 11.4029 44.234 11.5244 43.9148 11.5024C42.6561 11.3448 41.5069 10.92 40.4671 10.228C40.4671 10.1673 40.4369 10.1369 40.3764 10.1369C40.3764 10.0762 40.3462 10.0459 40.2857 10.0459C40.1321 9.80158 39.9808 9.55879 39.832 9.31764Z" fill="#BFF504"/>
<path opacity="0.974" fill-rule="evenodd" clip-rule="evenodd" d="M40.2846 10.0458C40.3451 10.0458 40.3753 10.0761 40.3753 10.1369C40.4359 10.1369 40.4661 10.1672 40.4661 10.2279C41.5058 10.9199 42.6551 11.3447 43.9137 11.5024C44.1 12.0142 43.9185 12.2873 43.3693 12.3217C41.7546 12.1257 40.3181 11.5187 39.0598 10.501C38.8585 9.91565 39.055 9.65775 39.6495 9.72721C39.866 9.83581 40.0778 9.94205 40.2846 10.0458Z" fill="#231F20"/>
<path opacity="0.971" fill-rule="evenodd" clip-rule="evenodd" d="M81.0219 17.0554C81.2316 16.1965 81.6851 15.4834 82.3828 14.9162C83.5008 14.0072 84.3824 13.8838 85.3768 13.3686C85.8242 13.0596 86.099 12.2881 85.9665 11.7755C85.8383 11.3838 85.352 11.2923 85.0592 11.0472C85.0021 10.4755 85.2588 10.2479 85.8304 10.3645C86.4664 10.5779 86.8438 11.0178 86.9645 11.6845C87.1142 12.6738 86.7967 13.4779 86.0119 14.0969C84.9232 14.6734 83.7685 14.9162 82.7457 15.8265C82.0317 16.5833 81.774 17.4785 81.9745 18.512C82.0779 19.1134 82.2594 19.6899 82.5189 20.2416C83.3735 21.5622 84.2509 22.8669 85.15 24.1561C86.9001 27.7667 86.3703 30.9984 83.5622 33.8511C82.6223 34.6412 81.5644 35.2177 80.3868 35.5808C79.7424 35.6543 79.5306 35.3812 79.7517 34.7615C83.0533 33.7941 84.8678 31.5942 85.1953 28.1615C85.1663 26.6339 84.7281 25.2381 83.8798 23.974C82.8872 22.7344 82.0398 21.3993 81.3394 19.9685C80.9658 19.025 80.86 18.0539 81.0219 17.0554Z" fill="#231F20"/>
<path opacity="0.958" fill-rule="evenodd" clip-rule="evenodd" d="M29.3982 11.6845C29.6581 11.644 29.8849 11.7047 30.0786 11.8666C30.1401 12.522 30.3367 13.1289 30.6683 13.6872C30.5235 14.0634 30.2514 14.1999 29.8518 14.0969C29.4236 13.552 29.1817 12.9298 29.126 12.2307C29.183 12.0267 29.2738 11.8446 29.3982 11.6845Z" fill="#221F20"/>
<path opacity="0.964" fill-rule="evenodd" clip-rule="evenodd" d="M36.2927 13.05C36.5526 13.0095 36.7794 13.0702 36.9731 13.232C37.0671 13.5282 37.1277 13.8316 37.1546 14.1424C37.3158 14.4355 37.4519 14.7389 37.5629 15.0527C37.3818 15.4921 37.0794 15.5983 36.6556 15.3713C36.2906 14.816 36.0789 14.2091 36.0205 13.5507C36.0861 13.3669 36.1768 13.2 36.2927 13.05Z" fill="#221F20"/>
<path opacity="0.971" fill-rule="evenodd" clip-rule="evenodd" d="M45.819 14.1424C46.4087 14.0513 46.6355 14.294 46.4994 14.8707C45.352 16.72 43.8247 18.1614 41.9177 19.1948C42.6658 19.5625 43.4066 19.9418 44.1405 20.3327C44.2939 20.778 44.1426 21.0511 43.6869 21.152C42.7001 20.6341 41.687 20.179 40.6475 19.7865C39.7666 20.1291 38.8593 20.3263 37.9257 20.3782C37.5813 20.1623 37.5209 19.8892 37.7443 19.5589C38.2277 19.4376 38.7116 19.3162 39.1959 19.1948C37.8647 18.7015 36.5037 18.307 35.1132 18.0114C34.7065 17.7922 34.646 17.4887 34.9317 17.101C36.9242 17.3525 38.8445 17.8835 40.6929 18.6941C42.8419 17.6756 44.5507 16.1585 45.819 14.1424Z" fill="#221F20"/>
<path opacity="0.971" fill-rule="evenodd" clip-rule="evenodd" d="M25.4054 14.8706C26.3061 14.9027 27.183 15.0695 28.0365 15.3713C28.2817 15.537 28.3573 15.7646 28.2633 16.0541C28.1701 16.2376 28.0188 16.3286 27.8097 16.3272C27.0349 16.0928 26.2485 15.941 25.4508 15.872C24.6089 15.9582 23.7772 16.0948 22.9558 16.2817C22.5929 15.9782 22.5929 15.6747 22.9558 15.3713C23.7617 15.0913 24.5783 14.9243 25.4054 14.8706Z" fill="#221F20"/>
<path opacity="0.973" fill-rule="evenodd" clip-rule="evenodd" d="M30.5774 17.4196C30.7409 17.9712 31.1038 18.2291 31.6662 18.1934C31.4607 18.0334 31.3094 17.8361 31.2125 17.6017C31.2926 17.0815 31.5648 16.945 32.0291 17.192C32.5012 17.6436 32.8944 18.1442 33.2085 18.6941C33.1457 19.1175 32.9038 19.254 32.4827 19.1037C32.3778 18.9567 32.2569 18.9567 32.1198 19.1037C30.411 19.2704 29.5794 18.4966 29.6248 16.7824C30.3354 16.389 30.6529 16.6015 30.5774 17.4196Z" fill="#231F1F"/>
<path opacity="0.963" fill-rule="evenodd" clip-rule="evenodd" d="M27.0383 17.1465C27.5113 17.0793 27.7835 17.2765 27.8549 17.7382C27.8419 17.934 27.7512 18.0858 27.5827 18.1934C25.623 18.2249 23.7026 18.5131 21.8215 19.0582C21.6663 19.0637 21.5453 19.003 21.4586 18.8761C21.3104 18.3993 21.4767 18.111 21.9576 18.0113C23.6335 17.5438 25.327 17.2555 27.0383 17.1465Z" fill="#221F20"/>
<path opacity="0.941" fill-rule="evenodd" clip-rule="evenodd" d="M30.5762 17.4195C30.8102 17.4099 31.0218 17.4706 31.2113 17.6016C31.3082 17.836 31.4594 18.0333 31.6649 18.1933C31.1026 18.229 30.7397 17.9711 30.5762 17.4195Z" fill="#B6E807"/>
<path opacity="0.962" fill-rule="evenodd" clip-rule="evenodd" d="M34.1163 18.512C34.2704 18.4974 34.4216 18.5125 34.5699 18.5575C36.2599 20.1614 37.6359 21.9973 38.698 24.065C38.8186 24.6416 38.5917 24.8996 38.0175 24.8388C36.986 22.8017 35.6403 20.9963 33.9802 19.4223C33.7741 19.0761 33.8195 18.7726 34.1163 18.512Z" fill="#221F20"/>
<path opacity="0.971" fill-rule="evenodd" clip-rule="evenodd" d="M20.143 27.7974C19.8164 27.9731 19.5442 28.2159 19.3265 28.5257C19.266 28.5257 19.2358 28.556 19.2358 28.6167C18.6827 29.0346 18.1686 29.505 17.6934 30.0277C17.3925 30.1167 17.1505 30.0408 16.9676 29.8001C16.956 29.604 17.0013 29.4219 17.1037 29.2539C20.7496 25.5064 24.9684 22.5781 29.7601 20.4692C30.3484 20.3467 30.5904 20.5743 30.486 21.152C27.4133 22.5554 24.5402 24.2699 21.8669 26.2953C21.2518 26.7547 20.6773 27.2554 20.143 27.7974Z" fill="#231F1F"/>
<path opacity="0.973" fill-rule="evenodd" clip-rule="evenodd" d="M60.3355 35.8084C60.0992 36.1979 59.8875 36.6076 59.7004 37.0373C59.8772 37.1268 60.0436 37.233 60.1994 37.3559C60.2466 37.5188 60.2164 37.6705 60.1087 37.8111C59.5847 38.1881 59.0857 38.5977 58.6117 39.0401C57.7752 39.1573 57.5938 38.869 58.0674 38.1752C58.0674 38.1449 58.0674 38.1145 58.0674 38.0842C58.5422 37.4954 58.8749 36.8278 59.0654 36.0815C59.1259 36.0815 59.1561 36.0512 59.1561 35.9904C59.3755 35.6281 59.5268 35.2337 59.6097 34.807C60.8758 30.7247 60.6641 26.7192 58.9746 22.7906C59.1241 22.3527 59.4114 22.2314 59.8365 22.4264C61.7631 26.8191 61.9294 31.2797 60.3355 35.8084Z" fill="#231F1F"/>
<path opacity="0.974" fill-rule="evenodd" clip-rule="evenodd" d="M55.1642 33.4415C55.221 33.7984 55.3722 34.1018 55.6178 34.3518C55.6178 34.3822 55.6178 34.4126 55.6178 34.4429C56.1574 35.7924 56.2028 37.1579 55.7539 38.5394C55.3836 38.9272 55.0661 38.8969 54.8012 38.4484C55.3426 36.816 55.146 35.2685 54.2115 33.8056C53.8788 33.3505 53.5462 32.8953 53.2135 32.4401C51.9104 31.163 50.6402 29.8583 49.403 28.5257C48.5764 27.535 47.9867 26.4122 47.6338 25.1575C47.7984 24.7487 48.0857 24.6274 48.4957 24.7933C48.8685 25.8452 49.3826 26.8163 50.0381 27.7064C51.3056 29.0693 52.606 30.4045 53.9393 31.7119C54.3931 32.2591 54.8013 32.8356 55.1642 33.4415Z" fill="#231F1F"/>
<path opacity="0.964" fill-rule="evenodd" clip-rule="evenodd" d="M21.0506 32.076C21.9422 31.7489 22.7889 31.3544 23.591 30.8925C27.697 29.2311 31.931 28.0021 36.2928 27.2057C37.1135 27.1322 37.93 27.1625 38.7424 27.2967C40.2142 27.8985 41.696 28.4751 43.188 29.0264C43.9789 29.1506 44.7349 29.0445 45.4562 28.7077C46.0361 28.896 46.1268 29.2146 45.7284 29.6636C44.3609 30.2119 43 30.1816 41.6457 29.5726C40.8367 29.1908 40.0201 28.8266 39.196 28.4802C38.0196 28.0599 36.8098 27.9991 35.567 28.2981C30.764 29.2874 26.1369 30.8047 21.6857 32.8498C21.2418 33.0036 20.9697 32.8519 20.8691 32.3946C20.8971 32.2618 20.9576 32.1555 21.0506 32.076Z" fill="#221F20"/>
<path opacity="0.98" fill-rule="evenodd" clip-rule="evenodd" d="M20.1434 27.7974C22.016 28.0385 23.1653 29.0703 23.591 30.8925C22.789 31.3544 21.9423 31.7489 21.0507 32.0759C20.6361 31.7923 20.1824 31.5798 19.6898 31.4387C18.4565 30.6159 17.5492 30.889 16.968 32.258C16.9074 32.258 16.8772 32.2883 16.8772 32.349C16.7053 32.4586 16.5238 32.5647 16.3329 32.6677C15.9708 32.7261 15.6079 32.7716 15.2441 32.8042C15.3869 32.0332 15.7649 31.3959 16.3782 30.8925C16.4231 30.7438 16.4381 30.592 16.4236 30.4373C16.605 30.225 16.7865 30.0125 16.968 29.8001C17.1509 30.0408 17.3928 30.1166 17.6938 30.0277C18.169 29.505 18.6831 29.0346 19.2361 28.6167C19.2967 28.6167 19.3269 28.5864 19.3269 28.5256C19.5446 28.2158 19.8168 27.9731 20.1434 27.7974Z" fill="#C5FD02"/>
<path opacity="0.97" fill-rule="evenodd" clip-rule="evenodd" d="M46.9079 29.8001C47.1217 29.7853 47.3334 29.8004 47.543 29.8456C47.6149 29.9444 47.6754 30.0507 47.7244 30.1643C46.9013 32.9278 47.869 34.7029 50.6277 35.4897C50.935 36.0709 50.7535 36.3895 50.0833 36.4456C49.6228 36.1988 49.139 36.0319 48.6317 35.9449C48.1644 36.2312 47.8318 36.6256 47.6337 37.1283C47.6954 37.433 47.8768 37.6151 48.1781 37.6745C49.2668 37.7048 50.3555 37.7352 51.4442 37.7656C51.8629 37.8636 51.999 38.1215 51.8525 38.5393C51.8071 38.5849 51.7618 38.6304 51.7164 38.6759C50.5068 38.7366 49.297 38.7366 48.0873 38.6759C46.5554 38.2252 46.2379 37.33 47.1347 35.9904C47.3917 35.7325 47.6488 35.4745 47.9059 35.2166C46.5423 33.8866 46.1039 32.2935 46.5903 30.4374C46.6496 30.1971 46.7555 29.9847 46.9079 29.8001Z" fill="#221F20"/>
<path opacity="0.977" fill-rule="evenodd" clip-rule="evenodd" d="M16.4239 30.4374C16.4384 30.592 16.4234 30.7438 16.3786 30.8925C15.7652 31.396 15.3872 32.0332 15.2445 32.8042C15.1634 33.6219 15.4053 33.7281 15.9703 33.1229C16.5583 32.9993 16.7851 33.2269 16.6507 33.8056C16.0143 34.6177 15.2885 34.7088 14.4733 34.0787C14.0833 33.4295 14.0531 32.7619 14.3826 32.076C14.7026 31.2704 15.2168 30.6332 15.9249 30.1643C16.1141 30.2211 16.2804 30.3121 16.4239 30.4374Z" fill="#231F20"/>
<path opacity="0.969" fill-rule="evenodd" clip-rule="evenodd" d="M5.17345 30.3463C5.7659 30.3229 5.96251 30.596 5.76318 31.1656C5.71782 31.2111 5.67245 31.2567 5.62709 31.3022C4.35246 31.3332 3.3091 31.8339 2.497 32.8042C2.28161 33.1911 2.0548 33.5704 1.81655 33.9421C1.4266 34.0751 1.15442 33.9536 1 33.578C1.74968 31.6566 3.1408 30.5794 5.17345 30.3463Z" fill="#221F20"/>
<path opacity="0.979" fill-rule="evenodd" clip-rule="evenodd" d="M19.6892 31.4388C20.1598 32.2934 20.0086 33.0066 19.2356 33.5781C18.7927 33.7377 18.5205 33.6012 18.419 33.1684C18.5304 32.8894 18.7269 32.6769 19.0088 32.5312C19.0158 32.0237 18.7586 31.8264 18.2376 31.9395C17.9157 32.1753 17.7947 32.494 17.8747 32.8953C18.0654 33.5796 17.8234 33.8527 17.1489 33.7146C17.0304 33.5861 16.9547 33.4343 16.922 33.2595C16.8769 32.9575 16.8617 32.6541 16.8767 32.3491C16.9372 32.3491 16.9674 32.3188 16.9674 32.2581C17.5487 30.889 18.456 30.6159 19.6892 31.4388Z" fill="#242120"/>
<path opacity="0.962" fill-rule="evenodd" clip-rule="evenodd" d="M18.4198 33.1684C18.2399 33.08 18.0584 32.9889 17.8755 32.8953C17.7954 32.4939 17.9165 32.1753 18.2384 31.9394C18.7594 31.8264 19.0165 32.0236 19.0095 32.5311C18.7277 32.6769 18.5311 32.8894 18.4198 33.1684Z" fill="#BEF304"/>
<path opacity="0.975" fill-rule="evenodd" clip-rule="evenodd" d="M8.25794 40.9062C8.40464 40.8573 8.55589 40.827 8.71157 40.8152C8.77209 40.8152 8.8023 40.7849 8.8023 40.7242C8.83251 40.7242 8.86282 40.7242 8.89303 40.7242C10.7521 40.106 11.5687 38.8315 11.3427 36.9008C11.2225 35.9773 10.7688 35.2643 9.98176 34.7615C8.33614 33.8388 6.70305 33.8692 5.08248 34.8525C3.41918 36.2632 3.13194 37.9169 4.22057 39.8138C4.64527 40.4077 5.20478 40.8023 5.89903 40.9973C6.21004 41.6431 5.99838 41.9314 5.26394 41.8621C3.17794 40.7254 2.34624 38.9806 2.76894 36.6277C3.60572 34.3048 5.26902 33.1516 7.75894 33.1684C10.2398 33.2013 11.7821 34.4151 12.386 36.8097C12.5359 39.4963 11.3111 41.1653 8.71157 41.8166C8.22337 41.6866 8.07222 41.3832 8.25794 40.9062ZM8.89303 40.7242C10.7521 40.106 11.5687 38.8315 11.3427 36.9008C11.2635 38.6494 10.4469 39.9239 8.89303 40.7242Z" fill="#231F20"/>
<path opacity="0.972" fill-rule="evenodd" clip-rule="evenodd" d="M55.1642 33.4414C56.7629 33.5461 58.2448 34.0013 59.6098 34.8069C59.5269 35.2336 59.3757 35.628 59.1562 35.9904C59.0957 35.9904 59.0655 36.0207 59.0655 36.0814C58.875 36.8277 58.5423 37.4953 58.0675 38.0841C57.9465 38.1144 57.9465 38.1448 58.0675 38.1752C57.5939 38.8689 57.7753 39.1572 58.6118 39.04C59.0858 38.5977 59.5848 38.188 60.1088 37.811C60.2165 37.6705 60.2467 37.5187 60.1996 37.3559C60.0437 37.233 59.8773 37.1267 59.7006 37.0372C59.8876 36.6075 60.0993 36.1978 60.3357 35.8083C60.748 37.6628 60.0222 38.8615 58.1582 39.4041C57.4954 39.5252 56.8301 39.6314 56.1622 39.7227C55.6092 40.804 54.7322 41.4109 53.5311 41.5434C52.4349 41.2447 52.2535 40.653 52.9867 39.7682C53.3806 39.4795 53.804 39.2367 54.2569 39.04C54.31 38.9215 54.3704 38.8152 54.4384 38.7214C54.5953 38.6735 54.7164 38.5824 54.8013 38.4483C55.0661 38.8968 55.3837 38.9271 55.7539 38.5393C56.2028 37.1578 56.1575 35.7923 55.6178 34.4428C55.7388 34.4125 55.7388 34.3821 55.6178 34.3518C55.3722 34.1017 55.2211 33.7983 55.1642 33.4414Z" fill="#C4FC02"/>
<path opacity="0.993" fill-rule="evenodd" clip-rule="evenodd" d="M11.3433 36.9007C11.2641 38.6494 10.4475 39.9239 8.89366 40.7241C8.86345 40.7241 8.83314 40.7241 8.80293 40.7241C8.74242 40.7241 8.7122 40.7545 8.7122 40.8152C8.55652 40.8269 8.40527 40.8572 8.25857 40.9062C7.48022 41.1074 6.69389 41.1378 5.89966 40.9972C5.20541 40.8022 4.6459 40.4077 4.22121 39.8138C3.13257 37.9168 3.41981 36.2631 5.08311 34.8525C6.70368 33.8691 8.33678 33.8387 9.98239 34.7614C10.7694 35.2642 11.2231 35.9773 11.3433 36.9007Z" fill="#C5FD02"/>
<path opacity="0.955" fill-rule="evenodd" clip-rule="evenodd" d="M19.0553 34.1698C19.6669 34.1597 19.8635 34.4328 19.645 34.9891C18.9268 35.7886 18.0952 35.9252 17.15 35.3987C16.6661 35.0346 16.6661 34.6704 17.15 34.3063C17.2407 34.2456 17.3315 34.2456 17.4222 34.3063C18.0268 34.8876 18.5711 34.842 19.0553 34.1698Z" fill="#221F20"/>
<path opacity="0.972" fill-rule="evenodd" clip-rule="evenodd" d="M16.0605 38.0842C16.4286 38.135 16.6251 38.3475 16.6502 38.7214C16.9508 40.6369 16.2552 42.063 14.5635 43C14.3187 42.8909 14.1524 42.7089 14.0645 42.4538C14.3864 42.0103 14.7643 41.6157 15.1985 41.2704C15.734 40.4659 15.8701 39.6011 15.6068 38.6759C15.6231 38.3571 15.7744 38.1598 16.0605 38.0842Z" fill="#221F20"/>
<path opacity="0.974" fill-rule="evenodd" clip-rule="evenodd" d="M54.4383 38.7214C54.3704 38.8153 54.31 38.9215 54.2569 39.0401C53.804 39.2368 53.3806 39.4796 52.9867 39.7683C52.2535 40.6531 52.4349 41.2448 53.5311 41.5435C54.9785 41.8434 56.2184 41.4338 57.2509 40.3145C57.9038 40.2105 58.1306 40.4685 57.9313 41.0883C56.4104 42.6011 54.6412 43.0108 52.6238 42.3173C51.5595 41.6105 51.3327 40.685 51.9433 39.5407C52.5052 38.7813 53.2462 38.3717 54.1662 38.3118C54.2916 38.4275 54.3824 38.564 54.4383 38.7214Z" fill="#231F1F"/>
<path opacity="0.971" fill-rule="evenodd" clip-rule="evenodd" d="M72.7649 38.6304C73.1562 38.6438 73.3982 38.8411 73.4907 39.2221C73.422 39.3597 73.3313 39.4812 73.2185 39.5862C68.8047 40.6798 64.3591 40.8315 59.8816 40.0414C59.6308 39.4627 59.8123 39.1744 60.4259 39.1766C63.8437 39.7356 67.2611 39.7204 70.6781 39.1311C71.3951 39.0042 72.0907 38.8373 72.7649 38.6304Z" fill="#221F20"/>
<path opacity="0.964" fill-rule="evenodd" clip-rule="evenodd" d="M18.3287 39.0856C18.5886 39.045 18.8154 39.1058 19.0091 39.2676C19.4105 40.8589 18.8964 42.0423 17.4668 42.8179C17.1588 42.7668 16.9924 42.5847 16.9678 42.2717C17.3586 41.8935 17.7065 41.4687 18.0111 40.9973C18.1695 40.501 18.1847 40.0003 18.0565 39.4952C18.1304 39.3456 18.2212 39.2091 18.3287 39.0856Z" fill="#221F20"/>
</svg>
