<svg width="23" height="21" viewBox="0 0 23 21" fill="none" xmlns="http://www.w3.org/2000/svg">
<g clip-path="url(#clip0_987_1625)">
<path d="M11.5029 20.6322H17.5074C21.3585 20.6322 23.1011 16.776 21.6498 12.7227C21.6473 12.7174 21.6199 12.7096 21.6199 12.7017C21.6249 12.6386 21.4456 11.9189 16.9298 3.88325C15.5059 1.53745 13.5044 0.355352 11.5029 0.368486" fill="#E0E0E0"/>
<path d="M7.02758 4.17221C3.42789 11.7954 3.24118 12.6124 3.23621 12.6991C3.23621 12.7096 3.21629 12.6886 3.2138 12.6991C2.1334 16.2059 3.43038 20.6322 6.55708 20.6322H16.3828C19.5145 20.6322 20.9309 16.776 19.751 12.7227C19.7485 12.7174 19.7261 12.7096 19.7286 12.7017C19.7311 12.6386 19.5867 11.9189 15.9148 3.88326C13.5797 -0.850379 9.33278 -0.850379 7.02758 4.17221Z" fill="white"/>
<path d="M17.508 21H5.42195C3.78392 21 2.38736 20.2303 1.48868 18.8328C0.948476 17.9896 0.614895 16.9572 0.525276 15.8461C0.435657 14.7349 0.59498 13.6001 0.985817 12.5651C0.998265 12.5309 1.01818 12.4968 1.0381 12.4679C1.1078 12.2735 1.27957 11.8952 1.70277 11.0835C2.48195 9.59672 3.82624 7.20626 5.69828 3.98046C6.41523 2.71167 7.29399 1.71871 8.30967 1.03047C9.27805 0.373753 10.3609 0.0191245 11.4438 0.000736337C13.6694 -0.03604 15.7754 1.30629 17.2193 3.68625C17.2218 3.68887 17.2243 3.69413 17.2267 3.69675C19.1386 7.09593 20.5003 9.58884 21.277 11.1098C21.7002 11.9399 21.867 12.3155 21.9317 12.5073C21.9492 12.5336 21.9641 12.5625 21.9741 12.594C22.3823 13.7367 22.5616 14.9162 22.4894 16.0089C22.4172 17.0886 22.1035 18.0842 21.5782 18.8854C20.687 20.2513 19.2407 21 17.508 21ZM1.59074 12.9539C0.93105 14.8032 1.11527 16.9362 2.06871 18.4204C2.60891 19.261 3.62957 20.2645 5.42444 20.2645H17.5105C19.0067 20.2645 20.2489 19.6261 21.0082 18.4677C21.9367 17.0492 22.0662 14.9871 21.3567 12.9407C21.3094 12.8829 21.287 12.8146 21.277 12.7516C21.2247 12.5782 20.7567 11.4145 16.6368 4.07765C15.3398 1.94988 13.4876 0.736262 11.5384 0.736262H11.4588C9.45978 0.770412 7.58027 2.09173 6.29822 4.35873C6.29822 4.36135 6.29573 4.36135 6.29573 4.36398C2.11601 11.5643 1.7177 12.6308 1.68036 12.7569C1.67041 12.8304 1.63804 12.8987 1.59074 12.9539Z" fill="#242424"/>
<path d="M11.5029 12.045H15.6802C16.3648 12.045 16.9249 12.636 16.9249 13.3584V19.3109C16.9249 20.0333 16.3648 20.6244 15.6802 20.6244H11.5029" fill="#99AA80"/>
<path d="M14.0622 20.6244H8.94392C8.25934 20.6244 7.69922 20.0333 7.69922 19.3109V13.3584C7.69922 12.636 8.25934 12.045 8.94392 12.045H14.0597C14.7443 12.045 15.3044 12.636 15.3044 13.3584V19.3109C15.3069 20.0333 14.7467 20.6244 14.0622 20.6244Z" fill="#ADC195"/>
<path d="M15.6801 20.9921H7.32565C6.44688 20.9921 5.73242 20.2382 5.73242 19.3109V13.3584C5.73242 12.4311 6.44688 11.6772 7.32565 11.6772H15.6776C16.5564 11.6772 17.2708 12.4311 17.2708 13.3584V19.3109C17.2733 20.2382 16.5589 20.9921 15.6801 20.9921ZM7.32565 12.4127C6.83025 12.4127 6.42946 12.8357 6.42946 13.3584V19.3109C6.42946 19.8337 6.83025 20.2566 7.32565 20.2566H15.6776C16.173 20.2566 16.5738 19.8337 16.5738 19.3109V13.3584C16.5738 12.8357 16.173 12.4127 15.6776 12.4127H7.32565ZM9.07819 6.35516C9.00849 6.35516 8.93878 6.33414 8.87655 6.28686L8.07247 5.68531C7.91564 5.5671 7.87829 5.33856 7.99032 5.17306C8.10234 5.00757 8.31892 4.96817 8.47575 5.08638L9.27983 5.68793C9.43667 5.80614 9.47401 6.03468 9.36198 6.20017C9.29477 6.30262 9.18773 6.35516 9.07819 6.35516ZM10.9652 4.16697C10.8631 4.16697 10.7585 4.11969 10.6913 4.02512C10.5718 3.86488 10.5992 3.63371 10.7511 3.50762L11.7344 2.69329C11.8862 2.5672 12.1053 2.5961 12.2248 2.75634C12.3443 2.91658 12.3169 3.14774 12.1651 3.27383L11.1817 4.08816C11.1145 4.14333 11.0398 4.16697 10.9652 4.16697ZM13.7707 6.0557H12.9169C12.7252 6.0557 12.5683 5.8902 12.5683 5.68793C12.5683 5.48566 12.7252 5.32017 12.9169 5.32017H13.7707C13.9624 5.32017 14.1193 5.48566 14.1193 5.68793C14.1193 5.8902 13.9624 6.0557 13.7707 6.0557ZM11.9485 8.75875C11.8315 8.75875 11.7145 8.69571 11.6498 8.58013L11.1569 7.72376C11.0573 7.55039 11.1096 7.32448 11.2739 7.2194C11.4382 7.11433 11.6522 7.16949 11.7518 7.34287L12.2422 8.20185C12.3418 8.37523 12.2895 8.60114 12.1252 8.70622C12.0705 8.74037 12.0082 8.75875 11.9485 8.75875ZM15.4511 9.01619C15.3739 9.01619 15.2967 8.98992 15.232 8.93475C15.0827 8.80604 15.0602 8.57487 15.1822 8.41726L15.9116 7.47421C16.0336 7.3166 16.2527 7.29296 16.402 7.42167C16.5514 7.55039 16.5738 7.78155 16.4518 7.93917L15.7199 8.87959C15.6527 8.9689 15.5507 9.01619 15.4511 9.01619ZM6.82527 9.01619C6.75557 9.01619 6.68338 8.99255 6.62114 8.94526C6.46431 8.82705 6.42946 8.59589 6.54397 8.43039L7.13396 7.5714C7.24598 7.40591 7.46505 7.36913 7.62189 7.48997C7.77872 7.60818 7.81357 7.83935 7.69906 8.00484L7.10907 8.86383C7.03936 8.96365 6.93481 9.01619 6.82527 9.01619Z" fill="#242424"/>
</g>
<defs>
<clipPath id="clip0_987_1625">
<rect width="22" height="21" fill="white" transform="translate(0.5)"/>
</clipPath>
</defs>
</svg>
