<svg width="12" height="13" viewBox="0 0 12 13" fill="none" xmlns="http://www.w3.org/2000/svg">
<path d="M7.54907 6.8169L6.5 6.21142V4C6.5 3.86739 6.44732 3.74021 6.35356 3.64645C6.25979 3.55268 6.13261 3.5 6 3.5C5.86739 3.5 5.74022 3.55268 5.64645 3.64645C5.55268 3.74021 5.5 3.86739 5.5 4V6.5C5.49998 6.58779 5.52307 6.67403 5.56696 6.75006C5.61084 6.82609 5.67397 6.88922 5.75 6.9331L7.04907 7.6831C7.10595 7.71598 7.16875 7.73732 7.23388 7.74591C7.299 7.7545 7.36519 7.75018 7.42865 7.73319C7.4921 7.7162 7.55159 7.68687 7.60371 7.64688C7.65583 7.60689 7.69956 7.55702 7.7324 7.50013C7.76524 7.44323 7.78655 7.38042 7.79511 7.31529C7.80367 7.25016 7.79931 7.18398 7.78229 7.12053C7.76526 7.05708 7.73591 6.99761 7.69589 6.94551C7.65587 6.89341 7.60598 6.84971 7.54907 6.8169ZM6 1.5C5.0111 1.5 4.0444 1.79324 3.22215 2.34265C2.39991 2.89206 1.75904 3.67295 1.3806 4.58658C1.00217 5.50021 0.90315 6.50555 1.09608 7.47545C1.289 8.44536 1.76521 9.33627 2.46447 10.0355C3.16373 10.7348 4.05465 11.211 5.02455 11.4039C5.99446 11.5969 6.99979 11.4978 7.91342 11.1194C8.82705 10.741 9.60794 10.1001 10.1573 9.27785C10.7068 8.45561 11 7.48891 11 6.5C10.9985 5.17437 10.4713 3.90346 9.53391 2.96609C8.59655 2.02873 7.32563 1.50147 6 1.5ZM6 10.5C5.20888 10.5 4.43552 10.2654 3.77772 9.82588C3.11992 9.38635 2.60723 8.76164 2.30448 8.03073C2.00173 7.29983 1.92252 6.49556 2.07686 5.71964C2.2312 4.94371 2.61216 4.23098 3.17158 3.67157C3.73099 3.11216 4.44372 2.7312 5.21964 2.57686C5.99557 2.42252 6.79983 2.50173 7.53074 2.80448C8.26164 3.10723 8.88635 3.61992 9.32588 4.27772C9.76541 4.93552 10 5.70887 10 6.5C9.99879 7.56049 9.57697 8.5772 8.82709 9.32709C8.07721 10.077 7.0605 10.4988 6 10.5Z" fill="#D06400"/>
</svg>
