<svg width="83" height="86" viewBox="0 0 83 86" fill="none" xmlns="http://www.w3.org/2000/svg">
<path d="M17.8157 23.3614C15.9888 22.3851 15.819 16.0018 19.9314 8.63085C25.0003 -0.454538 45.0004 -3.18181 53.1822 17.2727C54.4352 24.4774 50.3628 25.0546 47.0174 21.9941C52.4252 31.2621 57.4826 39.6576 59.644 43.1974C65.7019 48.8997 73.5483 60.8502 56.4708 63.0335C39.3934 65.2168 27.4956 64.5644 23.6813 63.9654C21.4377 61.7466 17.6811 54.9659 20.6043 45.5937C20.5164 43.8635 19.8893 38.9802 19.9312 34.1448C19.976 28.9802 20.6098 23.8889 17.8157 23.3614Z" fill="white"/>
<path opacity="0.968" fill-rule="evenodd" clip-rule="evenodd" d="M30.5159 0.034157C37.6233 -0.327148 43.5005 2.1779 48.1476 7.54931C51.0166 10.7161 53.2006 14.3129 54.6992 18.3403C55.5787 20.7072 55.2255 22.8588 53.6394 24.7956C51.8444 26.1913 50.046 26.1913 48.2439 24.7956C44.628 20.9987 42.7332 16.4704 42.5594 11.2105C43.0991 10.7145 43.6452 10.7145 44.1973 11.2105C44.7852 14.8053 46.0377 18.1453 47.9549 21.2307C48.7022 22.4293 49.73 23.2643 51.038 23.7358C52.4669 23.3238 53.1413 22.3603 53.0613 20.8453C53.0407 20.2543 52.9444 19.6763 52.7723 19.1111C50.8135 14.4532 48.0194 10.3746 44.39 6.87487C39.2579 2.26808 33.4127 1.04755 26.8546 3.21364C25.283 3.95109 23.87 4.91457 22.6153 6.10409C21.309 6.07807 20.9558 5.4678 21.5555 4.27347C24.123 1.9457 27.1098 0.532662 30.5159 0.034157Z" fill="#242424"/>
<path opacity="0.964" fill-rule="evenodd" clip-rule="evenodd" d="M20.11 7.16393C21.298 7.03463 21.7798 7.54856 21.5553 8.7055C18.2139 11.9838 16.7367 15.9663 17.1232 20.6527C17.1759 21.0051 17.3366 21.2942 17.605 21.5198C18.9943 21.73 19.3156 22.4367 18.5685 23.6395C16.7941 24.0218 15.6701 23.3473 15.1963 21.6161C14.3978 15.9505 16.0357 11.1331 20.11 7.16393Z" fill="#242424"/>
<path opacity="0.953" fill-rule="evenodd" clip-rule="evenodd" d="M24.7355 9.66897C25.4777 9.65433 25.9273 10.0075 26.0843 10.7288C25.9481 11.3454 25.7876 11.9557 25.6026 12.5594C25.0245 13.3302 24.4464 13.3302 23.8683 12.5594C23.555 11.3741 23.844 10.4107 24.7355 9.66897Z" fill="#242424"/>
<path opacity="0.953" fill-rule="evenodd" clip-rule="evenodd" d="M38.415 10.4397C39.0306 10.3359 39.5124 10.5286 39.8602 11.0178C39.9887 11.7244 39.9887 12.4309 39.8602 13.1375C39.1291 13.9547 38.4869 13.8905 37.9332 12.9448C37.7101 12.0185 37.8708 11.1835 38.415 10.4397Z" fill="#242424"/>
<path opacity="0.976" fill-rule="evenodd" clip-rule="evenodd" d="M33.8238 20.7879C33.4148 20.5789 32.9992 20.381 32.5771 20.1943C32.3891 20.4805 32.2704 20.7972 32.2209 21.1442C32.1813 21.6586 32.1417 22.1732 32.1021 22.6877C31.3066 23.1617 30.9306 22.9242 30.9741 21.9753C31.058 21.2891 31.1569 20.6164 31.271 19.9568C31.0915 20.0467 30.9331 20.1654 30.796 20.313C29.9812 21.6874 29.7437 23.1519 30.0836 24.7062C30.5592 25.5376 31.2122 25.7157 32.0428 25.2405C32.4259 24.7359 32.6239 24.1621 32.6364 23.5189C32.8751 23.3205 33.1521 23.2413 33.4676 23.2814C33.9478 24.4244 33.7103 25.4336 32.7552 26.3092C31.375 27.0861 30.1678 26.8683 29.1337 25.6561C28.4174 23.954 28.4768 22.2719 29.3118 20.6098C28.3756 20.641 27.5643 20.3441 26.8778 19.7193C26.7986 19.4423 26.7986 19.1652 26.8778 18.8882C26.9732 18.7333 27.1118 18.6541 27.2933 18.6507C27.7026 18.7959 28.0984 18.974 28.4807 19.185C29.2197 19.311 29.9321 19.2318 30.6179 18.9475C30.7309 18.8623 30.7506 18.7634 30.6773 18.6507C29.6391 17.7991 29.5402 16.869 30.3805 15.8604C31.6164 15.2492 32.8037 15.3284 33.9425 16.0979C34.3223 16.5246 34.4608 17.0194 34.3581 17.5821C34.0865 17.9713 33.7501 18.0307 33.3489 17.7602C33.0094 16.7983 32.3366 16.4816 31.3304 16.8103C31.2512 16.8895 31.1721 16.9686 31.0929 17.0478C31.3502 17.4633 31.6866 17.7997 32.1021 18.057C32.3168 18.5882 32.6927 18.9643 33.2301 19.185C34.676 19.84 36.0217 19.6817 37.2671 18.7101C38.074 18.5664 38.3708 18.8632 38.1577 19.6006C37.7143 20.0105 37.2197 20.3468 36.6735 20.6098C36.8319 20.9257 36.9309 21.2622 36.9703 21.6191C36.9791 22.9651 36.9791 24.3107 36.9703 25.6561C36.9869 25.9581 37.066 26.2352 37.2078 26.4873C37.3599 25.6055 37.4589 24.715 37.5046 23.8157C37.4025 22.845 37.3431 21.8753 37.3265 20.9067C37.9483 20.3595 38.3837 20.4783 38.6326 21.2629C38.9071 23.1329 38.8676 24.993 38.5139 26.8435C37.9819 28.1428 37.1904 28.3407 36.1392 27.4372C35.7688 26.5671 35.5907 25.6568 35.6048 24.7062C35.7081 23.6781 35.6642 21.6191 35.6642 21.6191L35.6048 21.082L34.8924 20.9661C34.8924 20.9661 34.1826 20.824 33.8238 20.7879Z" fill="#242424"/>
<path opacity="0.987" fill-rule="evenodd" clip-rule="evenodd" d="M33.8239 20.788C33.6923 21.6169 33.5736 22.448 33.4677 23.2814C33.1522 23.2413 32.8752 23.3205 32.6365 23.5189C32.6239 24.1621 32.426 24.7359 32.0428 25.2406C31.2123 25.7157 30.5592 25.5376 30.0837 24.7063C29.7438 23.1519 29.9812 21.6874 30.7961 20.313C30.9331 20.1654 31.0915 20.0467 31.2711 19.9568C31.1569 20.6164 31.058 21.2892 30.9742 21.9753C30.9306 22.9243 31.3067 23.1617 32.1022 22.6877C32.1417 22.1733 32.1814 21.6587 32.2209 21.1442C32.2705 20.7972 32.3892 20.4806 32.5771 20.1943C32.9993 20.3811 33.4148 20.5789 33.8239 20.788Z" fill="#C1F703"/>
<path opacity="0.966" fill-rule="evenodd" clip-rule="evenodd" d="M19.1457 23.6404C19.6151 23.6156 20.0326 23.7057 20.3982 23.9105C19.7455 33.6675 20.9981 43.3018 24.1558 52.8135C23.9642 53.5835 23.354 53.8086 22.3252 53.4888C21.5605 51.4846 20.9183 49.4587 20.3982 47.4111C19.4723 53.0207 20.7248 58.3782 24.1558 63.4833C23.8473 64.224 23.237 64.404 22.3252 64.0236C17.7332 57.3422 16.8017 50.4317 19.5311 43.2917C18.2498 36.948 17.8964 30.5778 18.4712 24.1806C18.6042 23.9307 18.8289 23.7506 19.1457 23.6404Z" fill="#242424"/>
<path opacity="0.965" fill-rule="evenodd" clip-rule="evenodd" d="M49.0126 24.991C49.3458 25.0743 49.6348 25.2093 49.8798 25.3961C50.507 26.14 51.0851 26.9054 51.614 27.6922C53.2955 30.6877 54.9014 33.704 56.4314 36.7412C58.9137 40.3574 61.74 43.824 64.9101 47.1409C66.4272 48.9518 67.4548 50.8877 67.9932 52.9486C68.6058 55.8008 67.7706 58.4119 65.4881 60.7821C62.9958 62.9287 59.8163 63.8066 55.9497 63.4158C55.4358 63.0106 55.4358 62.6054 55.9497 62.2002C61.0746 62.2112 64.3183 60.4778 65.6808 57.0004C66.242 54.8343 65.9849 52.7183 64.9101 50.6525C64.256 49.6007 63.5494 48.5652 62.7904 47.5461C59.5874 44.3634 56.8253 40.9869 54.5045 37.4166C52.7035 33.404 50.4875 29.5098 47.8564 25.7338C48.099 25.3605 48.4844 25.1129 49.0126 24.991Z" fill="#242424"/>
<path opacity="0.967" fill-rule="evenodd" clip-rule="evenodd" d="M44.9675 37.5415C45.5017 37.4876 45.9834 37.6161 46.4128 37.9269C47.3776 46.1626 47.2491 54.3843 46.0274 62.592C45.7792 64.4679 45.0406 66.1059 43.8114 67.5058C43.0429 68.0987 42.1758 68.4519 41.21 68.5656C40.0819 68.3402 39.857 67.7299 40.5355 66.735C42.3557 66.3444 43.4156 65.2204 43.715 63.3628C45.0673 55.105 45.292 46.8191 44.3894 38.505C44.439 38.0826 44.6317 37.7614 44.9675 37.5415Z" fill="#242424"/>
<path opacity="0.973" fill-rule="evenodd" clip-rule="evenodd" d="M25.5048 40.6247C25.9247 40.6902 26.2779 40.8829 26.5647 41.2028C26.81 48.161 27.5486 55.0661 28.7807 61.9176C28.6637 62.9982 28.0856 63.3836 27.0464 63.0738C26.1571 59.4403 25.547 55.7469 25.2158 51.9937C24.8435 48.4032 24.6508 44.8062 24.6377 41.2028C24.9092 40.9559 25.1982 40.7632 25.5048 40.6247Z" fill="#242424"/>
<path opacity="0.96" fill-rule="evenodd" clip-rule="evenodd" d="M35.1402 41.9736C36.0002 41.9668 36.4498 42.3842 36.4891 43.2261C35.1413 51.6679 33.0539 59.9217 30.2264 67.9875C29.8757 68.5084 29.394 68.6689 28.7812 68.4693C28.4213 68.2961 28.2286 68.007 28.2031 67.6022C30.9853 59.4921 33.0729 51.2062 34.4658 42.7443C34.5987 42.3879 34.8234 42.1308 35.1402 41.9736Z" fill="#242424"/>
<path opacity="0.962" fill-rule="evenodd" clip-rule="evenodd" d="M34.1769 62.7847C35.0119 62.5988 35.59 62.8878 35.9112 63.6519C34.8762 65.4324 34.1376 67.3274 33.6952 69.3364C32.8787 70.335 32.2043 70.2066 31.6719 68.951C32.058 66.6976 32.893 64.6423 34.1769 62.7847Z" fill="#242424"/>
<path opacity="0.963" fill-rule="evenodd" clip-rule="evenodd" d="M47.2799 63.3628C49.9244 63.5409 52.558 63.8299 55.1804 64.2299C55.8531 64.5808 56.0778 65.1267 55.8548 65.8679C55.5373 66.1623 55.1519 66.2908 54.6987 66.2533C52.3507 65.9923 50.0061 65.7033 47.6653 65.3861C46.8016 64.8616 46.6731 64.1872 47.2799 63.3628Z" fill="#242424"/>
<path opacity="0.955" fill-rule="evenodd" clip-rule="evenodd" d="M37.8381 63.9409C38.6253 63.7789 39.2033 64.0357 39.5724 64.7117C39.0602 66.4105 38.4177 68.0484 37.6454 69.6255C36.763 69.9293 36.185 69.6403 35.9111 68.7583C36.4058 67.079 37.0482 65.4732 37.8381 63.9409Z" fill="#242424"/>
<path d="M36.295 29.5034C35.7697 30.0431 35.7814 30.9065 36.321 31.4317C36.8607 31.957 37.7241 31.9454 38.2493 31.4057C38.7746 30.866 38.763 30.0027 38.2233 29.4774" stroke="#242424" stroke-linecap="round"/>
<rect x="0.5" y="37.5" width="82" height="48" rx="7.5" fill="#FBFFED"/>
<path d="M21.086 58.152H19.616V57.424H16.368V56.164H19.616V55.17H21.086V56.164H23.9V55.17H25.384V56.164H28.646V57.424H25.384V57.998H23.9V57.424H21.086V58.152ZM28.156 67.602C26.252 66.958 24.614 66.0807 23.242 64.97V67.994H21.744V64.984C20.4093 66.0853 18.776 66.986 16.844 67.686L16.158 66.216C18.0153 65.7027 19.588 64.97 20.876 64.018H16.48V62.716H21.744V62.03H22.472C21.9773 61.2367 21.562 60.63 21.226 60.21L22.066 59.678C20.3207 59.7527 18.6453 59.8087 17.04 59.846L16.886 58.614C18.5007 58.5953 20.372 58.5393 22.5 58.446C24.6373 58.3433 26.4153 58.2313 27.834 58.11L27.96 59.314C26.6907 59.4167 24.8847 59.5287 22.542 59.65C22.822 60.0233 23.2093 60.5787 23.704 61.316L22.584 62.03H23.242V62.716H28.576V64.018H24.096C25.4587 65.0073 27.036 65.7447 28.828 66.23L28.156 67.602ZM24.418 61.82C24.9313 61.2787 25.5613 60.5133 26.308 59.524L27.484 60.378C26.8493 61.218 26.2147 61.988 25.58 62.688L24.418 61.82ZM18.692 59.818C18.916 60.098 19.126 60.3547 19.322 60.588C19.8353 61.2227 20.1293 61.5867 20.204 61.68L19.014 62.59C18.706 62.1233 18.216 61.484 17.544 60.672L18.692 59.818ZM39.93 60.196H42.842V61.358H33.462V60.196H36.29V57.76H33.826V56.556H35.982C35.73 56.136 35.4967 55.7673 35.282 55.45L36.57 55.03L36.794 55.38C36.878 55.52 36.9853 55.6927 37.116 55.898C37.2467 56.094 37.382 56.3133 37.522 56.556H38.67C39.174 55.8467 39.524 55.338 39.72 55.03L41.008 55.45C40.8867 55.646 40.63 56.0147 40.238 56.556H42.52V57.76H39.93V60.196ZM32.384 58.586C32.1413 58.222 31.8613 57.8207 31.544 57.382C31.236 56.934 30.9467 56.528 30.676 56.164L31.866 55.352C32.482 56.1547 33.0653 56.9433 33.616 57.718L32.384 58.586ZM35.212 60.084C34.6707 59.2907 34.2833 58.7447 34.05 58.446L34.946 57.76L36.15 59.342L35.212 60.084ZM38.656 57.76H37.578V60.196H38.656V57.76ZM40.196 59.356C40.7467 58.712 41.1527 58.18 41.414 57.76L42.366 58.446C41.722 59.3327 41.302 59.8927 41.106 60.126L40.196 59.356ZM32.706 65.026L33.63 64.116L34.05 65.544L31.908 67.658L30.998 66.524C31.1287 66.3933 31.2173 66.2627 31.264 66.132C31.3107 66.0013 31.334 65.8333 31.334 65.628V61.022H30.256V59.496H32.706V65.026ZM35.954 68.022H34.54V62.212H41.736V68.022H40.322V67.448H35.954V68.022ZM40.322 64.326V63.388H35.954V64.326H40.322ZM35.954 65.362V66.286H40.322V65.362H35.954Z" fill="#242424"/>
<circle cx="58.5" cy="61.5" r="9" fill="#C7FF02"/>
<rect x="53" y="60" width="10" height="3" rx="1.5" fill="white"/>
<rect x="57" y="66" width="10" height="3" rx="1.5" transform="rotate(-90 57 66)" fill="white"/>
<rect x="0.5" y="37.5" width="82" height="48" rx="7.5" stroke="#C7FF02"/>
</svg>
