<svg width="87" height="89" viewBox="0 0 87 89" fill="none" xmlns="http://www.w3.org/2000/svg">
<rect x="0.5" y="40.5" width="82" height="48" rx="7.5" fill="#FBFFED"/>
<path d="M18.132 58.31C18.4027 58.6273 18.7433 59.0473 19.154 59.57C19.5647 60.0927 19.896 60.5267 20.148 60.872L18.944 61.88C18.6453 61.46 18.2953 60.9887 17.894 60.466C17.4927 59.9433 17.1707 59.5327 16.928 59.234L18.132 58.31ZM21.142 58.884H27.876V64.736H22.724V68.194C22.724 68.502 22.752 68.726 22.808 68.866C22.864 69.006 22.962 69.104 23.102 69.16C23.2513 69.2067 23.4847 69.23 23.802 69.23H26.014C26.35 69.23 26.588 69.2113 26.728 69.174C26.868 69.1273 26.9613 69.0433 27.008 68.922C27.0547 68.8007 27.0873 68.5813 27.106 68.264L27.176 66.556L28.688 66.878L28.576 68.782C28.5387 69.3327 28.4687 69.7387 28.366 70C28.2633 70.2613 28.0767 70.4433 27.806 70.546C27.5447 70.658 27.1387 70.714 26.588 70.714H23.242C22.71 70.714 22.304 70.6533 22.024 70.532C21.744 70.42 21.5433 70.2193 21.422 69.93C21.31 69.6313 21.254 69.202 21.254 68.642V63.224H26.392V60.438H21.142V58.884ZM16.284 62.468H19.112V68.082L20.442 66.99L20.876 68.558L18.258 70.672L17.306 69.496C17.4367 69.3747 17.5207 69.258 17.558 69.146C17.5953 69.0247 17.614 68.8567 17.614 68.642V63.98H16.284V62.468ZM38.152 64.736V68.838L39.594 68.068L39.706 69.636L36.934 71.008L36.304 69.706C36.4533 69.594 36.5513 69.4867 36.598 69.384C36.654 69.272 36.682 69.16 36.682 69.048V64.736H35.828V63.336H36.682V58.198H38.152V61.348C38.656 61.0213 39.2207 60.5873 39.846 60.046C40.4713 59.4953 41.0127 58.9727 41.47 58.478L42.45 59.598C41.9367 60.1113 41.3673 60.6387 40.742 61.18C40.1167 61.712 39.538 62.1647 39.006 62.538L38.152 61.404V63.336H42.604V64.736H40.28C40.504 65.772 40.8213 66.6493 41.232 67.368C41.652 68.0867 42.198 68.7447 42.87 69.342L41.806 70.672C41.022 69.8787 40.406 69.0247 39.958 68.11C39.51 67.186 39.146 66.0613 38.866 64.736H38.152ZM34.274 60.032H31.852V67.088H30.662V58.674H35.464V67.032H34.274V60.032ZM33.532 67.032C34.3907 67.844 35.1793 68.628 35.898 69.384L35.002 70.532C34.3953 69.804 33.7653 69.0993 33.112 68.418C32.9067 68.8473 32.6313 69.2673 32.286 69.678C31.95 70.0793 31.5113 70.5227 30.97 71.008L30.144 69.748C30.788 69.2627 31.2733 68.8053 31.6 68.376C31.936 67.9373 32.1647 67.466 32.286 66.962C32.4167 66.4487 32.482 65.8 32.482 65.016V60.774H33.658V65.352C33.658 65.968 33.616 66.528 33.532 67.032Z" fill="#242424"/>
<circle cx="58.5" cy="64.5" r="9" fill="#C7FF02"/>
<rect x="53" y="63" width="10" height="3" rx="1.5" fill="white"/>
<rect x="57" y="69" width="10" height="3" rx="1.5" transform="rotate(-90 57 69)" fill="white"/>
<rect x="0.5" y="40.5" width="82" height="48" rx="7.5" stroke="#C7FF02"/>
<path d="M76.4971 34.8459C78.5063 34.4679 82.7507 33.0315 83.6548 30.31C84.785 26.908 81.2061 21.6161 81.0177 21.0491" stroke="white" stroke-width="2" stroke-linecap="round"/>
<path d="M80.0062 20.6711C79.5039 18.9701 79.2527 15.228 82.2665 13.8672C85.2803 12.5065 85.7826 12.1663 85.6571 12.1663" stroke="#C6FC09" stroke-width="2" stroke-linecap="round"/>
<path d="M72.9183 38.0588C72.9183 40.2314 58.1719 41.9558 48.8081 38.0588C45.606 36.7262 48.4278 33.1567 46.7362 31.066C44.4941 28.295 44.2875 30.688 38.825 27.286C36.6779 25.9488 17.6072 33.5229 15.2798 33.5229C11.833 33.5229 23.9444 23.8841 30.3487 20.4821C27.9 17.4582 27.1465 13.1059 27.1465 11.0323C27.1465 5.50013 31.8045 0.826447 37.318 0.826447C45.4176 1.39344 44.2341 4.6241 51.4451 7.25234C55.2585 8.64222 58.9796 6.49635 64.442 10.0873C74.2231 17.6887 78.3089 30.1388 72.9183 38.0588Z" fill="white"/>
<path opacity="0.965" fill-rule="evenodd" clip-rule="evenodd" d="M36.6552 0.0321903C41.6381 -0.283241 45.3428 1.7195 47.7693 6.0404C47.8937 6.36566 48.0298 6.68428 48.1776 6.99625C47.9361 7.42083 47.6185 7.49667 47.225 7.22384C45.4037 3.27435 42.319 1.21089 37.9708 1.03356C36.7676 1.00224 35.6033 1.19951 34.4778 1.62528C34.091 1.76538 33.849 1.64403 33.752 1.26114C33.8171 1.08026 33.9078 0.913304 34.0241 0.760458C34.8878 0.424181 35.7648 0.181394 36.6552 0.0321903Z" fill="#221F20"/>
<path opacity="0.962" fill-rule="evenodd" clip-rule="evenodd" d="M32.2101 1.21562C32.7089 1.22008 32.9357 1.46287 32.8906 1.94389C32.8452 2.05013 32.7697 2.12596 32.6638 2.17147C30.7063 2.53433 28.7406 2.80743 26.7665 2.99078C26.4102 2.60616 26.4707 2.30274 26.948 2.08044C28.7193 1.81954 30.4734 1.53133 32.2101 1.21562Z" fill="#221F20"/>
<path opacity="0.969" fill-rule="evenodd" clip-rule="evenodd" d="M30.8494 6.40448C30.1933 6.29124 29.5733 6.07886 28.9895 5.76725C28.8332 5.96907 28.6971 6.18145 28.5812 6.40448C27.4865 8.48123 27.3958 10.6054 28.3091 12.7768C28.2515 13.2139 28.0097 13.3808 27.5832 13.2775C26.3775 10.7844 26.4379 8.31127 27.7647 5.85828C28.0092 5.73229 28.0999 5.55022 28.0369 5.31208C27.2613 4.90817 26.5051 4.48331 25.7687 4.03761C25.1443 3.67029 24.5546 3.24544 23.9995 2.76314C23.9239 2.23214 24.1508 2.00456 24.68 2.08039C26.54 3.56032 28.5964 4.71344 30.8494 5.53966C31.0864 5.82769 31.0864 6.116 30.8494 6.40448Z" fill="#231F20"/>
<path opacity="0.97" fill-rule="evenodd" clip-rule="evenodd" d="M84.0153 12.1397C84.0153 12.1397 84.0452 12.1397 83.1081 12.4128C82.1134 12.7374 79.871 14.4342 79.2975 16.1451C78.77 17.7186 78.8456 19.2662 79.5243 20.7878C80.0328 21.692 80.5771 22.572 81.1574 23.4278C82.6272 25.874 82.658 28.3319 81.2481 30.8015C79.8743 32.7353 77.9992 33.7974 75.6231 33.9877C75.4919 35.5993 74.8718 36.98 73.7631 38.1297C73.1586 38.2814 72.9016 38.0538 72.992 37.447C73.9548 36.4403 74.5143 35.2417 74.6704 33.8511C73.9103 33.693 73.1845 33.435 72.493 33.0774C72.202 32.5983 72.3381 32.2948 72.9012 32.167C73.45 32.4517 74.0245 32.6641 74.6251 32.8043C74.395 28.464 73.5482 24.2461 72.0847 20.1506C70.6135 15.9769 68.0882 12.6239 64.509 10.0914C62.9603 9.07237 61.2668 8.40482 59.4282 8.08866C57.6478 7.91643 55.8635 7.79508 54.0753 7.72453C51.8309 7.66235 49.8803 6.88857 48.2234 5.40317C47.9403 5.10458 47.7134 4.77076 47.543 4.40181C47.6671 3.98505 47.9393 3.8485 48.3595 3.99215C49.4079 5.39844 50.7991 6.24815 52.533 6.54109C62.0265 5.8618 68.6949 9.85207 72.5383 18.512C74.3403 23.1373 75.3837 27.9318 75.6684 32.8953C78.6057 32.7248 80.4353 31.2075 81.1574 28.3436C81.4679 26.7312 81.1655 25.2443 80.2501 23.883C79.7436 23.1398 79.2598 22.3812 78.7985 21.6071C77.2727 18.2485 77.8323 15.29 80.477 12.7314C81.4303 11.9346 82.5192 11.4035 83.7431 11.1383C84.2294 11.3626 84.0153 12.1397 84.0153 12.1397Z" fill="#221E1F"/>
<path opacity="0.866" fill-rule="evenodd" clip-rule="evenodd" d="M25.7686 4.03766C26.505 4.48336 27.2611 4.90821 28.0367 5.31213C28.0998 5.55027 28.0091 5.73234 27.7646 5.85833C26.985 5.3764 26.3196 4.76957 25.7686 4.03766Z" fill="#BAED07"/>
<path opacity="0.924" fill-rule="evenodd" clip-rule="evenodd" d="M30.8492 6.40449C30.7844 6.7882 30.5575 7.00058 30.1688 7.04173C29.6026 6.91674 29.0733 6.70436 28.5811 6.40449C28.6969 6.18146 28.833 5.96908 28.9893 5.76726C29.5732 6.07887 30.1931 6.29125 30.8492 6.40449Z" fill="#C3FA03"/>
<path opacity="0.972" fill-rule="evenodd" clip-rule="evenodd" d="M44.6397 11.1383C42.9753 10.7124 41.3724 10.1056 39.8311 9.3176C39.3228 9.09284 38.839 8.81974 38.3795 8.4983C38.1964 7.97003 38.3779 7.71214 38.9239 7.72452C41.1565 9.0364 43.5154 9.94673 46.0006 10.4555C46.3478 10.7373 46.3478 11.0104 46.0006 11.2748C45.5373 11.3267 45.0836 11.2812 44.6397 11.1383Z" fill="#232020"/>
<path opacity="0.964" fill-rule="evenodd" clip-rule="evenodd" d="M39.8315 9.31763C41.3728 10.1056 42.9757 10.7124 44.6401 11.1383C44.4754 11.4029 44.2335 11.5244 43.9143 11.5024C42.6556 11.3448 41.5064 10.92 40.4666 10.228C40.4666 10.1672 40.4364 10.1369 40.3759 10.1369C40.3759 10.0762 40.3457 10.0459 40.2852 10.0459C40.1316 9.80156 39.9803 9.55877 39.8315 9.31763Z" fill="#BFF504"/>
<path opacity="0.974" fill-rule="evenodd" clip-rule="evenodd" d="M40.2851 10.0458C40.3456 10.0458 40.3758 10.0761 40.3758 10.1369C40.4364 10.1369 40.4666 10.1672 40.4666 10.2279C41.5063 10.9199 42.6555 11.3447 43.9142 11.5024C44.1005 12.0142 43.919 12.2873 43.3698 12.3217C41.7551 12.1257 40.3186 11.5187 39.0603 10.501C38.859 9.91565 39.0555 9.65775 39.65 9.72721C39.8665 9.83581 40.0783 9.94205 40.2851 10.0458Z" fill="#231F20"/>
<path opacity="0.971" fill-rule="evenodd" clip-rule="evenodd" d="M81.0214 17.0554C81.2312 16.1965 81.6846 15.4834 82.3823 14.9161C83.5003 14.0072 84.3819 13.8838 85.3763 13.3686C85.8237 13.0596 86.0985 12.2881 85.966 11.7755C85.8378 11.3838 85.3515 11.2922 85.0588 11.0472C85.0016 10.4754 85.2584 10.2479 85.8299 10.3645C86.4659 10.5779 86.8434 11.0178 86.964 11.6845C87.1137 12.6738 86.7962 13.4779 86.0114 14.0968C84.9227 14.6734 83.768 14.9161 82.7452 15.8265C82.0312 16.5833 81.7735 17.4785 81.974 18.512C82.0775 19.1133 82.2589 19.6899 82.5184 20.2416C83.373 21.5621 84.2504 22.8669 85.1495 24.156C86.8996 27.7667 86.3698 30.9984 83.5618 33.8511C82.6218 34.6412 81.5639 35.2177 80.3863 35.5808C79.7419 35.6543 79.5301 35.3812 79.7512 34.7614C83.0528 33.7941 84.8673 31.5942 85.1948 28.1615C85.1658 26.6339 84.7276 25.2381 83.8793 23.974C82.8867 22.7344 82.0394 21.3993 81.3389 19.9685C80.9653 19.0249 80.8595 18.0539 81.0214 17.0554Z" fill="#231F20"/>
<path opacity="0.958" fill-rule="evenodd" clip-rule="evenodd" d="M29.3982 11.6845C29.6581 11.644 29.8849 11.7047 30.0786 11.8666C30.1401 12.522 30.3367 13.1289 30.6683 13.6872C30.5235 14.0634 30.2514 14.1999 29.8518 14.0969C29.4236 13.552 29.1817 12.9298 29.126 12.2307C29.183 12.0267 29.2738 11.8446 29.3982 11.6845Z" fill="#221F20"/>
<path opacity="0.964" fill-rule="evenodd" clip-rule="evenodd" d="M36.2932 13.05C36.5531 13.0095 36.7799 13.0702 36.9736 13.232C37.0676 13.5282 37.1281 13.8316 37.1551 14.1424C37.3163 14.4355 37.4524 14.7389 37.5634 15.0527C37.3823 15.4921 37.0799 15.5983 36.6561 15.3713C36.2911 14.816 36.0794 14.2091 36.021 13.5507C36.0866 13.3669 36.1773 13.2 36.2932 13.05Z" fill="#221F20"/>
<path opacity="0.971" fill-rule="evenodd" clip-rule="evenodd" d="M45.819 14.1424C46.4087 14.0513 46.6355 14.294 46.4994 14.8707C45.352 16.72 43.8247 18.1614 41.9177 19.1948C42.6658 19.5625 43.4066 19.9418 44.1405 20.3327C44.2939 20.778 44.1426 21.0511 43.6869 21.152C42.7001 20.6341 41.687 20.179 40.6475 19.7865C39.7666 20.1291 38.8593 20.3263 37.9257 20.3782C37.5813 20.1623 37.5209 19.8892 37.7443 19.5589C38.2277 19.4376 38.7116 19.3162 39.1959 19.1948C37.8647 18.7015 36.5037 18.307 35.1132 18.0114C34.7065 17.7922 34.646 17.4887 34.9317 17.101C36.9242 17.3525 38.8445 17.8835 40.6929 18.6941C42.8419 17.6756 44.5507 16.1585 45.819 14.1424Z" fill="#221F20"/>
<path opacity="0.971" fill-rule="evenodd" clip-rule="evenodd" d="M25.4054 14.8706C26.3061 14.9027 27.183 15.0695 28.0365 15.3713C28.2817 15.537 28.3573 15.7646 28.2633 16.0541C28.1701 16.2376 28.0188 16.3286 27.8097 16.3272C27.0349 16.0928 26.2485 15.941 25.4508 15.872C24.6089 15.9582 23.7772 16.0948 22.9558 16.2817C22.5929 15.9782 22.5929 15.6747 22.9558 15.3713C23.7617 15.0913 24.5783 14.9243 25.4054 14.8706Z" fill="#221F20"/>
<path opacity="0.973" fill-rule="evenodd" clip-rule="evenodd" d="M30.5774 17.4196C30.7409 17.9712 31.1038 18.2291 31.6662 18.1934C31.4607 18.0334 31.3094 17.8361 31.2125 17.6017C31.2926 17.0815 31.5648 16.945 32.0291 17.192C32.5012 17.6436 32.8944 18.1442 33.2085 18.6941C33.1457 19.1175 32.9038 19.254 32.4827 19.1037C32.3778 18.9567 32.2569 18.9567 32.1198 19.1037C30.411 19.2704 29.5794 18.4966 29.6248 16.7824C30.3354 16.389 30.6529 16.6015 30.5774 17.4196Z" fill="#231F1F"/>
<path opacity="0.963" fill-rule="evenodd" clip-rule="evenodd" d="M27.0383 17.1465C27.5113 17.0793 27.7835 17.2765 27.8549 17.7382C27.8419 17.934 27.7512 18.0858 27.5827 18.1934C25.623 18.2249 23.7026 18.5131 21.8215 19.0582C21.6663 19.0638 21.5453 19.003 21.4586 18.8761C21.3104 18.3993 21.4767 18.111 21.9576 18.0113C23.6335 17.5438 25.327 17.2555 27.0383 17.1465Z" fill="#221F20"/>
<path opacity="0.941" fill-rule="evenodd" clip-rule="evenodd" d="M30.5767 17.4195C30.8106 17.4099 31.0223 17.4706 31.2118 17.6016C31.3086 17.836 31.4599 18.0333 31.6654 18.1933C31.1031 18.229 30.7402 17.9711 30.5767 17.4195Z" fill="#B6E807"/>
<path opacity="0.962" fill-rule="evenodd" clip-rule="evenodd" d="M34.1158 18.512C34.2699 18.4974 34.4212 18.5125 34.5694 18.5575C36.2594 20.1614 37.6354 21.9973 38.6975 24.065C38.8181 24.6416 38.5913 24.8996 38.017 24.8388C36.9856 22.8017 35.6398 20.9963 33.9797 19.4223C33.7736 19.0761 33.819 18.7726 34.1158 18.512Z" fill="#221F20"/>
<path opacity="0.971" fill-rule="evenodd" clip-rule="evenodd" d="M20.143 27.7974C19.8164 27.9731 19.5442 28.2159 19.3265 28.5257C19.266 28.5257 19.2358 28.556 19.2358 28.6167C18.6827 29.0346 18.1686 29.505 17.6934 30.0277C17.3925 30.1167 17.1505 30.0408 16.9676 29.8001C16.956 29.604 17.0013 29.4219 17.1037 29.2539C20.7496 25.5064 24.9684 22.5781 29.7601 20.4692C30.3484 20.3467 30.5904 20.5743 30.486 21.152C27.4133 22.5554 24.5402 24.2699 21.8669 26.2953C21.2518 26.7547 20.6773 27.2554 20.143 27.7974Z" fill="#231F1F"/>
<path opacity="0.973" fill-rule="evenodd" clip-rule="evenodd" d="M60.3355 35.8084C60.0992 36.1979 59.8875 36.6076 59.7004 37.0373C59.8772 37.1268 60.0436 37.233 60.1994 37.3559C60.2466 37.5188 60.2164 37.6705 60.1087 37.8111C59.5847 38.1881 59.0857 38.5977 58.6117 39.0401C57.7752 39.1573 57.5938 38.869 58.0674 38.1752C58.0674 38.1449 58.0674 38.1145 58.0674 38.0842C58.5422 37.4954 58.8749 36.8278 59.0654 36.0815C59.1259 36.0815 59.1561 36.0512 59.1561 35.9904C59.3755 35.6281 59.5268 35.2337 59.6097 34.807C60.8758 30.7247 60.6641 26.7192 58.9746 22.7906C59.1241 22.3527 59.4114 22.2314 59.8365 22.4264C61.7631 26.8191 61.9294 31.2797 60.3355 35.8084Z" fill="#231F1F"/>
<path opacity="0.974" fill-rule="evenodd" clip-rule="evenodd" d="M55.1646 33.4415C55.2215 33.7984 55.3727 34.1018 55.6183 34.3518C55.6183 34.3822 55.6183 34.4126 55.6183 34.4429C56.1579 35.7924 56.2033 37.1579 55.7544 38.5394C55.3841 38.9272 55.0666 38.8969 54.8017 38.4484C55.3431 36.816 55.1465 35.2685 54.212 33.8056C53.8793 33.3505 53.5467 32.8953 53.214 32.4401C51.9109 31.163 50.6407 29.8583 49.4035 28.5257C48.5769 27.535 47.9872 26.4122 47.6343 25.1575C47.7989 24.7487 48.0862 24.6274 48.4962 24.7933C48.869 25.8452 49.3831 26.8163 50.0385 27.7064C51.3061 29.0693 52.6065 30.4045 53.9398 31.7119C54.3935 32.2591 54.8018 32.8356 55.1646 33.4415Z" fill="#231F1F"/>
<path opacity="0.964" fill-rule="evenodd" clip-rule="evenodd" d="M21.0506 32.076C21.9422 31.7489 22.7889 31.3544 23.591 30.8925C27.697 29.2311 31.931 28.0021 36.2928 27.2057C37.1135 27.1322 37.93 27.1625 38.7424 27.2967C40.2142 27.8985 41.696 28.4751 43.188 29.0264C43.9789 29.1506 44.7349 29.0445 45.4562 28.7077C46.0361 28.896 46.1268 29.2146 45.7284 29.6636C44.3609 30.2119 43 30.1816 41.6457 29.5726C40.8367 29.1908 40.0201 28.8266 39.196 28.4802C38.0196 28.0599 36.8098 27.9991 35.567 28.2981C30.764 29.2874 26.1369 30.8047 21.6857 32.8498C21.2418 33.0036 20.9697 32.8519 20.8691 32.3946C20.8971 32.2618 20.9576 32.1555 21.0506 32.076Z" fill="#221F20"/>
<path opacity="0.98" fill-rule="evenodd" clip-rule="evenodd" d="M20.1434 27.7974C22.016 28.0385 23.1653 29.0703 23.591 30.8925C22.789 31.3544 21.9423 31.7489 21.0507 32.0759C20.6361 31.7923 20.1824 31.5798 19.6898 31.4387C18.4565 30.6159 17.5492 30.889 16.968 32.258C16.9074 32.258 16.8772 32.2883 16.8772 32.349C16.7053 32.4586 16.5238 32.5647 16.3329 32.6677C15.9708 32.7261 15.6079 32.7716 15.2441 32.8042C15.3869 32.0332 15.7649 31.3959 16.3782 30.8925C16.4231 30.7438 16.4381 30.592 16.4236 30.4373C16.605 30.225 16.7865 30.0125 16.968 29.8001C17.1509 30.0408 17.3928 30.1166 17.6938 30.0277C18.169 29.505 18.6831 29.0346 19.2361 28.6167C19.2967 28.6167 19.3269 28.5864 19.3269 28.5256C19.5446 28.2158 19.8168 27.9731 20.1434 27.7974Z" fill="#C5FD02"/>
<path opacity="0.97" fill-rule="evenodd" clip-rule="evenodd" d="M46.9084 29.8001C47.1222 29.7853 47.3339 29.8004 47.5435 29.8456C47.6154 29.9444 47.6759 30.0507 47.7249 30.1643C46.9017 32.9278 47.8695 34.7029 50.6282 35.4897C50.9355 36.0709 50.754 36.3895 50.0838 36.4456C49.6233 36.1988 49.1394 36.0319 48.6322 35.9449C48.1648 36.2312 47.8322 36.6256 47.6342 37.1283C47.6959 37.433 47.8773 37.6151 48.1785 37.6745C49.2673 37.7048 50.356 37.7352 51.4447 37.7656C51.8634 37.8636 51.9995 38.1215 51.853 38.5393C51.8076 38.5849 51.7623 38.6304 51.7169 38.6759C50.5072 38.7366 49.2975 38.7366 48.0878 38.6759C46.5559 38.2252 46.2383 37.33 47.1352 35.9904C47.3922 35.7325 47.6493 35.4745 47.9064 35.2166C46.5428 33.8866 46.1043 32.2935 46.5908 30.4374C46.6501 30.1971 46.7559 29.9847 46.9084 29.8001Z" fill="#221F20"/>
<path opacity="0.977" fill-rule="evenodd" clip-rule="evenodd" d="M16.4239 30.4374C16.4384 30.592 16.4234 30.7438 16.3786 30.8925C15.7652 31.396 15.3872 32.0332 15.2445 32.8042C15.1634 33.6219 15.4053 33.7281 15.9703 33.1229C16.5583 32.9993 16.7851 33.2269 16.6507 33.8056C16.0143 34.6177 15.2885 34.7088 14.4733 34.0787C14.0833 33.4295 14.0531 32.7619 14.3826 32.076C14.7026 31.2704 15.2168 30.6332 15.9249 30.1643C16.1141 30.2211 16.2804 30.3121 16.4239 30.4374Z" fill="#231F20"/>
<path opacity="0.969" fill-rule="evenodd" clip-rule="evenodd" d="M5.17345 30.3463C5.7659 30.3229 5.96251 30.596 5.76318 31.1656C5.71782 31.2111 5.67245 31.2567 5.62709 31.3022C4.35246 31.3332 3.3091 31.8339 2.497 32.8042C2.28161 33.1911 2.0548 33.5704 1.81655 33.9421C1.4266 34.0751 1.15442 33.9536 1 33.578C1.74968 31.6566 3.1408 30.5794 5.17345 30.3463Z" fill="#221F20"/>
<path opacity="0.979" fill-rule="evenodd" clip-rule="evenodd" d="M19.6892 31.4388C20.1598 32.2934 20.0086 33.0066 19.2356 33.5781C18.7927 33.7377 18.5205 33.6012 18.419 33.1684C18.5304 32.8894 18.7269 32.6769 19.0088 32.5312C19.0158 32.0237 18.7586 31.8264 18.2376 31.9395C17.9157 32.1753 17.7947 32.494 17.8747 32.8953C18.0654 33.5796 17.8234 33.8527 17.1489 33.7146C17.0304 33.5861 16.9547 33.4343 16.922 33.2595C16.8769 32.9575 16.8617 32.6541 16.8767 32.3491C16.9372 32.3491 16.9674 32.3188 16.9674 32.2581C17.5487 30.889 18.456 30.6159 19.6892 31.4388Z" fill="#242120"/>
<path opacity="0.962" fill-rule="evenodd" clip-rule="evenodd" d="M18.4198 33.1684C18.2399 33.08 18.0584 32.9889 17.8755 32.8953C17.7954 32.4939 17.9165 32.1753 18.2384 31.9394C18.7594 31.8263 19.0165 32.0236 19.0095 32.5311C18.7277 32.6769 18.5311 32.8893 18.4198 33.1684Z" fill="#BEF304"/>
<path opacity="0.975" fill-rule="evenodd" clip-rule="evenodd" d="M8.25794 40.9062C8.40464 40.8573 8.55589 40.827 8.71157 40.8152C8.77209 40.8152 8.8023 40.7849 8.8023 40.7242C8.83251 40.7242 8.86282 40.7242 8.89303 40.7242C10.7521 40.106 11.5687 38.8315 11.3427 36.9008C11.2225 35.9773 10.7688 35.2643 9.98176 34.7615C8.33614 33.8388 6.70305 33.8692 5.08248 34.8525C3.41918 36.2632 3.13194 37.9169 4.22057 39.8138C4.64527 40.4077 5.20478 40.8023 5.89903 40.9973C6.21004 41.6431 5.99838 41.9314 5.26394 41.8621C3.17794 40.7254 2.34624 38.9806 2.76894 36.6277C3.60572 34.3048 5.26902 33.1516 7.75894 33.1684C10.2398 33.2013 11.7821 34.4151 12.386 36.8097C12.5359 39.4963 11.3111 41.1653 8.71157 41.8166C8.22337 41.6866 8.07222 41.3832 8.25794 40.9062ZM8.89303 40.7242C10.7521 40.106 11.5687 38.8315 11.3427 36.9008C11.2635 38.6494 10.4469 39.9239 8.89303 40.7242Z" fill="#231F20"/>
<path opacity="0.972" fill-rule="evenodd" clip-rule="evenodd" d="M55.1642 33.4414C56.7629 33.5461 58.2448 34.0013 59.6098 34.8069C59.5269 35.2336 59.3757 35.628 59.1562 35.9903C59.0957 35.9903 59.0655 36.0207 59.0655 36.0814C58.875 36.8277 58.5423 37.4953 58.0675 38.0841C57.9465 38.1144 57.9465 38.1448 58.0675 38.1751C57.5939 38.8689 57.7753 39.1572 58.6118 39.04C59.0858 38.5976 59.5848 38.188 60.1088 37.811C60.2165 37.6705 60.2467 37.5187 60.1996 37.3558C60.0437 37.233 59.8773 37.1267 59.7006 37.0372C59.8876 36.6075 60.0993 36.1978 60.3357 35.8083C60.748 37.6628 60.0222 38.8615 58.1582 39.4041C57.4954 39.5252 56.8301 39.6314 56.1622 39.7227C55.6092 40.804 54.7322 41.4109 53.5311 41.5434C52.4349 41.2447 52.2535 40.653 52.9867 39.7682C53.3806 39.4795 53.804 39.2367 54.2569 39.04C54.31 38.9214 54.3704 38.8152 54.4384 38.7213C54.5953 38.6735 54.7164 38.5824 54.8013 38.4482C55.0661 38.8968 55.3837 38.9271 55.7539 38.5393C56.2028 37.1578 56.1575 35.7923 55.6178 34.4428C55.7388 34.4125 55.7388 34.3821 55.6178 34.3517C55.3722 34.1017 55.2211 33.7983 55.1642 33.4414Z" fill="#C4FC02"/>
<path opacity="0.993" fill-rule="evenodd" clip-rule="evenodd" d="M11.3428 36.9007C11.2636 38.6494 10.4471 39.9239 8.89317 40.7241C8.86296 40.7241 8.83266 40.7241 8.80244 40.7241C8.74193 40.7241 8.71172 40.7545 8.71172 40.8152C8.55603 40.8269 8.40479 40.8572 8.25808 40.9062C7.47973 41.1074 6.6934 41.1378 5.89917 40.9972C5.20493 40.8022 4.64541 40.4077 4.22072 39.8138C3.13208 37.9168 3.41932 36.2631 5.08263 34.8525C6.7032 33.8691 8.33629 33.8387 9.9819 34.7614C10.769 35.2642 11.2226 35.9773 11.3428 36.9007Z" fill="#C5FD02"/>
<path opacity="0.955" fill-rule="evenodd" clip-rule="evenodd" d="M19.0548 34.1698C19.6664 34.1597 19.863 34.4328 19.6445 34.9891C18.9263 35.7886 18.0947 35.9252 17.1495 35.3987C16.6657 35.0346 16.6657 34.6704 17.1495 34.3063C17.2402 34.2456 17.331 34.2456 17.4217 34.3063C18.0263 34.8876 18.5707 34.842 19.0548 34.1698Z" fill="#221F20"/>
<path opacity="0.972" fill-rule="evenodd" clip-rule="evenodd" d="M16.0609 38.0842C16.4291 38.135 16.6256 38.3474 16.6507 38.7214C16.9512 40.6368 16.2556 42.063 14.5639 43C14.3192 42.8909 14.1529 42.7089 14.0649 42.4538C14.3868 42.0103 14.7648 41.6157 15.199 41.2703C15.7345 40.4659 15.8706 39.6011 15.6073 38.6759C15.6236 38.3571 15.7749 38.1598 16.0609 38.0842Z" fill="#221F20"/>
<path opacity="0.974" fill-rule="evenodd" clip-rule="evenodd" d="M54.4383 38.7214C54.3704 38.8153 54.31 38.9215 54.2569 39.04C53.804 39.2368 53.3806 39.4795 52.9867 39.7683C52.2535 40.6531 52.4349 41.2448 53.5311 41.5435C54.9785 41.8434 56.2184 41.4338 57.2509 40.3145C57.9038 40.2105 58.1306 40.4684 57.9313 41.0883C56.4104 42.6011 54.6412 43.0107 52.6238 42.3172C51.5595 41.6105 51.3327 40.685 51.9433 39.5407C52.5052 38.7813 53.2462 38.3717 54.1662 38.3118C54.2916 38.4275 54.3824 38.564 54.4383 38.7214Z" fill="#231F1F"/>
<path opacity="0.971" fill-rule="evenodd" clip-rule="evenodd" d="M72.7653 38.6304C73.1567 38.6438 73.3987 38.8411 73.4912 39.2221C73.4225 39.3597 73.3318 39.4812 73.219 39.5862C68.8052 40.6798 64.3596 40.8315 59.8821 40.0414C59.6313 39.4627 59.8128 39.1744 60.4264 39.1766C63.8442 39.7356 67.2616 39.7204 70.6786 39.1311C71.3955 39.0042 72.0911 38.8373 72.7653 38.6304Z" fill="#221F20"/>
<path opacity="0.964" fill-rule="evenodd" clip-rule="evenodd" d="M18.3292 39.0856C18.5891 39.045 18.8159 39.1058 19.0096 39.2676C19.411 40.8589 18.8969 42.0423 17.4673 42.8179C17.1592 42.7668 16.9928 42.5847 16.9683 42.2717C17.3591 41.8935 17.707 41.4687 18.0116 40.9973C18.17 40.501 18.1852 40.0003 18.057 39.4952C18.1309 39.3456 18.2217 39.2091 18.3292 39.0856Z" fill="#221F20"/>
</svg>
