<svg width="12" height="13" viewBox="0 0 12 13" fill="none" xmlns="http://www.w3.org/2000/svg">
<path d="M2 4.1V8.9C2 9.46 2 9.74 2.109 9.954C2.20487 10.1422 2.35785 10.2951 2.546 10.391C2.7595 10.5 3.0395 10.5 3.5985 10.5H8.4015C8.9605 10.5 9.24 10.5 9.4535 10.391C9.642 10.295 9.795 10.142 9.891 9.954C10 9.74 10 9.461 10 8.902V4.0985C10 3.5395 10 3.2595 9.891 3.046C9.79497 2.85779 9.64182 2.70482 9.4535 2.609C9.24 2.5 8.96 2.5 8.4 2.5H3.6C3.04 2.5 2.76 2.5 2.546 2.609C2.35783 2.70484 2.20484 2.85783 2.109 3.046C2 3.26 2 3.54 2 4.1Z" stroke="#6B870A" stroke-linecap="round" stroke-linejoin="round"/>
<path d="M7.5 7.2V5.8C7.5 5.52 7.5 5.38 7.445 5.273C7.39725 5.17896 7.32093 5.10246 7.227 5.0545C7.12 5 6.98 5 6.7 5H5.3C5.02 5 4.88 5 4.773 5.0545C4.67892 5.10244 4.60244 5.17892 4.5545 5.273C4.5 5.38 4.5 5.52 4.5 5.8V7.2C4.5 7.48 4.5 7.62 4.5545 7.727C4.60244 7.82108 4.67892 7.89756 4.773 7.9455C4.88 8 5.0195 8 5.299 8H6.7005C6.98 8 7.1205 8 7.227 7.9455C7.32108 7.89756 7.39756 7.82108 7.4455 7.727C7.5 7.62 7.5 7.48 7.5 7.2Z" stroke="#6B870A" stroke-linecap="round" stroke-linejoin="round"/>
</svg>
