<svg width="22" height="21" viewBox="0 0 22 21" fill="none" xmlns="http://www.w3.org/2000/svg">
<g clip-path="url(#clip0_987_1452)">
<path d="M9.12328 0C9.61535 0 10.0889 0.514878 10.5371 0.675778C11.0107 0.846579 10.9807 1.38869 11.3803 1.71049C11.7985 2.04714 12.5747 2.30705 12.8819 2.77985C13.1384 3.17096 12.4661 3.58682 12.6278 4.05219C12.7526 4.4136 11.3041 5.01759 11.3618 5.41365C11.4104 5.73297 11.2764 6.19092 11.2764 6.52509C11.2764 6.82462 11.5236 7.7009 11.4843 7.98804C11.4358 8.34697 11.2094 8.63412 11.1054 8.96829C10.9529 9.46089 11.445 9.74061 11.1863 10.1589C10.313 11.5724 10.6619 11.8125 9.05859 11.8125" fill="#B1CC75"/>
<path d="M11.5564 6.02359C11.5564 6.32279 11.8708 7.59131 11.8404 7.87815C11.8239 8.04135 11.2034 9.40877 9.94323 9.15655C8.43759 8.85488 6.85199 6.37472 6.85199 6.17937C6.85199 5.62301 6.3832 5.08395 6.48523 4.57704C6.59002 4.05035 7.18014 3.94155 7.37593 3.49398C7.53587 3.12554 7.6765 2.09441 7.88884 1.79274C8.10944 1.4787 8.96429 1.24131 9.23177 1.01382C9.52408 0.766549 9.81914 1.99389e-08 10.128 0C10.5113 0 10.8808 0.51433 11.231 0.675058C11.6005 0.845677 11.5785 1.38721 11.8873 1.70866C12.2127 2.04496 12.6346 1.87681 12.8718 2.3491C13.0703 2.73979 12.8056 3.69427 12.5546 4.09733C12.3589 4.40642 11.8377 4.63886 11.686 5.00482C11.5399 5.34853 11.5564 5.68977 11.5564 6.02359Z" fill="#CEEA96"/>
<path d="M4.24302 5.25C4.11975 5.25 3.99904 5.18168 3.93227 5.06143C3.83212 4.87832 3.88862 4.64602 4.06068 4.5367C4.22504 4.43558 4.3894 4.32626 4.45874 4.20055C4.53321 4.06663 4.6231 3.77421 4.70785 3.49271C4.86193 2.98712 5.00575 2.50885 5.23945 2.24922C5.46801 1.99779 5.89688 1.83381 6.52351 1.61244C6.79573 1.51679 7.1039 1.40747 7.2246 1.32821C7.3453 1.24896 7.53021 1.04945 7.70998 0.855414C8.11574 0.418142 8.50096 0 8.9247 0C9.66945 0 10.0804 0.614914 10.3783 1.06312C10.5015 1.24623 10.6171 1.42113 10.7198 1.50312C10.8688 1.62337 11.1846 1.75455 11.4877 1.88027C12.0398 2.10984 12.6125 2.34761 12.877 2.75208C12.99 2.92426 12.9515 3.16476 12.7872 3.28501C12.6254 3.40526 12.3994 3.36426 12.2864 3.18935C12.1477 2.97618 11.6341 2.76301 11.2257 2.59357C10.8611 2.44053 10.5144 2.29841 10.2858 2.1153C10.0958 1.96226 9.94681 1.74089 9.79015 1.50859C9.49482 1.06039 9.27396 0.765226 8.92727 0.765226C8.78345 0.784357 8.40337 1.19703 8.22103 1.39654C8.00274 1.63431 7.79729 1.85567 7.60212 1.98412C7.40951 2.10984 7.1039 2.21916 6.7495 2.34214C6.4028 2.46512 5.88148 2.64823 5.75564 2.78488C5.6375 2.91333 5.49112 3.40526 5.39097 3.73048C5.28824 4.06936 5.19322 4.38912 5.07509 4.59682C4.91843 4.87559 4.66676 5.04776 4.42535 5.19807C4.36885 5.2336 4.30465 5.25 4.24302 5.25Z" fill="#242424"/>
<path d="M15.591 1.33047C16.0598 1.33047 17.1733 1.24302 17.6009 1.45394C18.0513 1.68029 17.8158 2.64485 18.1954 3.06925C18.5932 3.51424 19.2678 3.58883 19.5604 4.21386C19.8051 4.73344 19.8028 4.86976 19.956 5.48194C20.0749 5.96036 20.6488 6.55196 20.7037 7.07411C20.7494 7.49594 20.0223 8.44507 20.0223 8.89005C20.0223 9.28616 20.5436 9.82889 20.5071 10.207C20.4613 10.6828 19.9011 11.3825 19.8028 11.8223C19.6565 12.4731 19.7845 12.5142 19.5376 13.0647C18.7053 14.9346 17.059 15.75 15.5293 15.75" fill="#8AA839"/>
<path d="M20.152 9.07769C20.152 9.46297 20.5701 9.99085 20.541 10.3586C20.504 10.8214 20.0541 11.5019 19.9774 11.9297C19.8609 12.5627 19.9615 12.6027 19.7657 13.1381C19.0989 14.9569 17.7785 15.75 16.5507 15.75C15.4181 15.75 14.4047 14.7393 13.7325 13.1531C13.5235 12.6578 13.8463 12.1349 13.7087 11.542C13.5897 11.0266 12.9996 10.4487 12.944 9.87327C12.9017 9.43545 13.3912 8.98012 13.3912 8.51729C13.3912 7.80177 12.9334 7.10878 13.0313 6.45581C13.1345 5.77782 13.7114 5.63772 13.9045 5.0598C14.0633 4.58446 14.1983 3.256 14.4073 2.86822C14.6243 2.46543 15.2699 1.69237 15.5319 1.40216C15.8177 1.08193 16.3019 1.7224 16.6036 1.7224C16.9793 1.7224 17.8737 1.63733 18.2151 1.84248C18.5776 2.06264 18.3871 3.00082 18.6914 3.41361C19.0089 3.84643 19.5513 3.91898 19.7869 4.52692C19.9827 5.03228 19.9827 5.16488 20.1044 5.7603C20.1996 6.22564 20.6601 6.80105 20.7051 7.30892C20.7342 7.72172 20.152 8.64738 20.152 9.07769Z" fill="#95B758"/>
<path d="M20.307 13.125C20.2523 13.125 20.1976 13.1127 20.1429 13.0882C19.9632 13.0025 19.8903 12.7966 19.9789 12.6275C20.0362 12.5172 20.1117 12.3775 20.2262 12.2868L20.2653 12.1397C20.3174 11.9436 20.4424 11.7451 20.5856 11.5172C20.8069 11.1642 21.0569 10.7647 21.0413 10.3652C21.0387 10.2745 20.9111 10.0687 20.82 9.91914C20.6585 9.65444 20.4893 9.38238 20.4893 9.09807C20.4893 8.81376 20.6715 8.5417 20.8642 8.25494C21.0543 7.97308 21.2679 7.65446 21.2653 7.37014C21.2653 7.19368 21.0569 6.92162 20.872 6.68142C20.6898 6.44368 20.5023 6.19859 20.4268 5.94614C20.3486 5.68143 20.333 5.55643 20.3226 5.4731C20.3148 5.40202 20.3096 5.37996 20.1794 5.14222C19.9554 4.74271 19.5935 4.42654 19.2393 4.12017C19.1221 4.01723 18.9998 3.91184 18.8852 3.804C18.617 3.55155 18.5336 3.32116 18.4555 3.10057C18.3826 2.89224 18.3071 2.67656 18.0389 2.35058C18.0311 2.34322 17.9373 2.2795 17.5754 2.2746C17.2889 2.2697 16.9556 2.30401 16.6588 2.33342C16.4218 2.35793 16.2187 2.37754 16.0598 2.37754C15.8593 2.37754 15.5937 2.30401 15.2552 2.21087C15.0078 2.14225 14.7266 2.06627 14.487 2.02705C14.1928 1.97803 14.1016 2.01234 14.0886 2.01725C13.823 2.22313 13.409 2.6741 12.9819 3.22312C12.8543 3.38978 12.7085 3.9437 12.6043 4.35056C12.5054 4.72801 12.4142 5.08585 12.3075 5.30889C12.1486 5.64222 11.8622 5.8481 11.6096 6.02947C11.3231 6.2378 11.1435 6.37505 11.094 6.60299C11.0419 6.84564 11.1721 7.14956 11.3127 7.47063C11.4533 7.79416 11.6148 8.16426 11.6148 8.55396C11.6148 8.71327 11.5653 8.87748 11.4638 9.0564C11.3674 9.22307 11.1461 9.28679 10.969 9.19611C10.7919 9.10542 10.7268 8.89709 10.8206 8.73043C10.8622 8.6569 10.8857 8.59807 10.8857 8.55396C10.8857 8.29906 10.7659 8.0221 10.6383 7.73043C10.4638 7.32848 10.2815 6.91181 10.3805 6.46329C10.4873 5.9731 10.8648 5.70104 11.1669 5.4829C11.3778 5.33095 11.5601 5.19859 11.6434 5.02458C11.7242 4.85791 11.8127 4.51723 11.896 4.18635C12.0418 3.62508 12.1799 3.09322 12.3934 2.81626C12.6173 2.5295 13.1824 1.82607 13.6329 1.48049C14.0469 1.16186 14.7656 1.36039 15.4609 1.55156C15.6849 1.61284 15.9635 1.69127 16.0598 1.69127C16.1796 1.69127 16.3749 1.67166 16.5806 1.65205C17.3618 1.57362 18.2498 1.48784 18.6144 1.93146C18.9581 2.35058 19.0623 2.64714 19.1482 2.88489C19.2133 3.06871 19.2523 3.18145 19.4008 3.31871C19.5049 3.41675 19.6169 3.51478 19.7367 3.61772C20.1143 3.94615 20.5439 4.32115 20.8252 4.82115C20.997 5.12752 21.0283 5.2182 21.0491 5.39222C21.0569 5.46085 21.07 5.54908 21.1324 5.75986C21.1741 5.89712 21.3225 6.09074 21.4684 6.27947C21.7157 6.60299 21.997 6.97064 21.9996 7.36769C22.0022 7.85298 21.7157 8.27945 21.484 8.62259C21.3798 8.777 21.221 9.01229 21.221 9.09807C21.221 9.19856 21.3538 9.4167 21.4527 9.57601C21.6064 9.82356 21.7626 10.0785 21.773 10.3432C21.7939 10.9436 21.4736 11.4559 21.2158 11.8677C21.1116 12.0368 21.0022 12.2108 20.9736 12.3088C20.9241 12.4902 20.9007 12.5711 20.8799 12.6226C20.8356 12.7353 20.7627 12.8039 20.6846 12.8407C20.6715 12.8627 20.6533 12.8922 20.6325 12.9363C20.57 13.0564 20.4398 13.125 20.307 13.125Z" fill="#242424"/>
<path d="M3.88281 3.96059C4.36387 3.83871 4.9571 4.23667 5.43318 4.28641C5.93916 4.34113 6.04385 4.88832 6.51494 5.10968C7.00597 5.34348 7.83101 5.41063 8.24975 5.8061C8.59871 6.13441 8.41676 6.71145 8.69094 7.13428C8.90529 7.46508 8.90031 7.79339 9.05734 8.17393C9.18446 8.47986 8.97259 8.83305 9.05734 9.16633C9.13212 9.4648 10.3186 9.63144 10.351 9.92742C10.3933 10.298 9.86742 10.7308 9.84997 11.089C9.82255 11.6162 10.1441 11.9868 9.99703 12.4644C9.49852 14.0885 8.33949 15.357 6.77417 15.75" fill="#8AA839"/>
<path d="M7.63308 9.48768C7.68551 9.81079 7.81034 10.1716 7.73794 10.4812C6.95397 13.8443 3.98789 13.2169 3.86056 12.7538C3.76319 12.4011 1.95557 12.1453 1.89315 11.7575C1.79578 11.1571 1.29395 10.7343 1.29395 10.1527C1.29395 9.54961 1.78829 9.22919 1.88067 8.67721C1.95557 8.22486 1.89815 7.06166 2.03047 6.66316C2.16779 6.2485 2.87186 5.69921 3.06411 5.36533C3.27633 4.99644 3.39867 4.0675 3.66831 3.96249C4.00537 3.83056 4.41732 4.26137 4.74938 4.31522C5.10142 4.37446 5.17382 4.96683 5.50089 5.20647C5.84294 5.45957 5.71062 5.32225 6.00023 5.75037C6.24241 6.10579 6.35476 7.07781 6.54451 7.53555C6.69182 7.89367 7.63557 7.92867 7.74543 8.33794C7.83531 8.66913 7.57565 9.12687 7.63308 9.48768Z" fill="#95B758"/>
<path d="M9.96614 13.125C9.92987 13.125 9.89619 13.1201 9.85993 13.1102C9.66822 13.0533 9.562 12.8604 9.619 12.6774C9.63713 12.618 9.46874 12.44 9.36771 12.3336C9.16046 12.1135 8.90398 11.844 8.89362 11.4804C8.85735 11.4631 8.80554 11.4409 8.76668 11.426C8.55943 11.3419 8.2097 11.1985 8.16566 10.8177C8.13975 10.6099 8.2097 10.3923 8.27705 10.1821C8.31332 10.0659 8.38327 9.8507 8.36513 9.78393C8.30037 9.53168 8.36772 9.31405 8.41695 9.1533C8.45321 9.03707 8.47394 8.96288 8.45581 8.91837C8.35218 8.67848 8.35477 8.40645 8.35736 8.16409C8.35995 7.97367 8.36254 7.75604 8.30296 7.66701C8.12939 7.40981 8.09053 7.13283 8.05685 6.89048C8.02317 6.65059 7.99726 6.49974 7.90141 6.41071C7.71748 6.24501 7.11645 6.13125 6.67864 6.04964C6.29522 5.97793 5.92994 5.91115 5.68383 5.79739C5.45845 5.696 5.20975 5.48826 4.92478 5.25085C4.7253 5.08516 4.52064 4.91452 4.33412 4.79087C4.1191 4.64743 4.02842 4.63507 4.0077 4.63259C3.98956 4.64001 3.90926 4.67711 3.75123 4.85517C3.61651 5.00602 3.47921 5.1915 3.3445 5.37451C3.21497 5.55009 3.09062 5.71826 2.97922 5.83944C2.82896 5.99771 2.57508 6.1634 2.27716 6.35383C1.99219 6.53683 1.56215 6.81381 1.48443 6.95972C1.40671 7.10316 1.38599 7.58045 1.37303 7.89453C1.36008 8.2185 1.34713 8.52515 1.29013 8.73783C1.21759 9.00245 1.08547 9.20524 0.966304 9.3833C0.82641 9.5935 0.727966 9.74683 0.727966 9.96693C0.727966 10.192 0.849726 10.4121 0.989619 10.6668C1.1062 10.8795 1.23832 11.1194 1.30827 11.3939C1.34194 11.5027 1.63987 11.7821 1.81603 11.9503C2.08286 12.2026 2.31084 12.4177 2.40669 12.6279C2.48441 12.8035 2.39892 13.0063 2.21499 13.083C2.03105 13.1571 1.81862 13.0755 1.73831 12.9C1.69945 12.8134 1.4637 12.5908 1.30568 12.4424C0.984438 12.1383 0.678744 11.8514 0.603616 11.562C0.551803 11.3667 0.450769 11.1837 0.344553 10.9883C0.176163 10.6792 0.00259065 10.3626 0 9.96693C0 9.54652 0.186525 9.26212 0.349735 9.01234C0.45336 8.85654 0.541441 8.723 0.585482 8.55978C0.624341 8.42129 0.634703 8.13689 0.647657 7.86485C0.668382 7.37766 0.686516 6.92015 0.839363 6.63823C1.00257 6.33652 1.42484 6.06448 1.87043 5.77514C2.09323 5.6317 2.34711 5.46848 2.43778 5.37203C2.52327 5.283 2.63208 5.13215 2.75125 4.9714C3.08285 4.52131 3.4274 4.0539 3.83413 3.95746C4.33412 3.83628 4.87556 4.28884 5.40146 4.7241C5.62684 4.91205 5.86259 5.10742 5.9973 5.16924C6.16051 5.24343 6.4947 5.30526 6.81853 5.36461C7.42992 5.47837 8.06462 5.59708 8.4014 5.90126C8.69155 6.1634 8.73818 6.5121 8.77963 6.79155C8.80554 6.97951 8.83145 7.15756 8.91694 7.28369C9.09569 7.5483 9.09051 7.87474 9.08792 8.16409C9.08533 8.34709 9.08274 8.53752 9.13196 8.64633C9.24854 8.91837 9.17341 9.1632 9.11642 9.34373C9.07756 9.46738 9.05424 9.54404 9.07237 9.60834C9.13714 9.86059 9.05165 10.1351 8.97393 10.375C8.94025 10.4838 8.89362 10.6297 8.88844 10.7064C8.9273 10.7311 9.00502 10.7633 9.05683 10.783C9.26149 10.8671 9.6449 11.0229 9.62418 11.4433C9.619 11.5546 9.77443 11.7178 9.91174 11.8638C10.1423 12.1061 10.4584 12.44 10.3185 12.8752C10.2641 13.0286 10.1216 13.125 9.96614 13.125Z" fill="#242424"/>
<path d="M3.88281 6.5625C3.88281 6.5625 4.32343 7.71566 4.3085 9.1875L3.88281 6.5625Z" fill="white"/>
<path d="M4.77573 9.1875H4.77C4.54957 9.18541 4.37208 9.05341 4.37494 8.88999C4.39212 7.82148 3.91977 6.97714 3.91404 6.96876C3.82816 6.82001 3.92549 6.64821 4.13161 6.58535C4.33486 6.5225 4.56961 6.59373 4.65549 6.74458C4.67839 6.78439 5.19369 7.70834 5.17651 8.89628C5.17365 9.0597 4.99329 9.1875 4.77573 9.1875Z" fill="#242424"/>
<path d="M2.58789 9.1875C2.58789 9.1875 3.35758 9.79067 3.88201 10.5L2.58789 9.1875Z" fill="white"/>
<path d="M4.78601 9.1875C4.72193 9.1875 4.65785 9.17323 4.59655 9.1447C3.9056 8.81655 2.86639 8.52645 2.85804 8.52407C2.65186 8.467 2.54042 8.27915 2.60729 8.10556C2.67415 7.9296 2.89425 7.83449 3.09764 7.89155C3.14222 7.90344 4.21765 8.20306 4.97546 8.5645C5.16492 8.65485 5.23178 8.85697 5.12591 9.01629C5.05626 9.12567 4.92531 9.1875 4.78601 9.1875Z" fill="#242424"/>
<path d="M9.05859 2.625C9.05859 2.625 9.23162 5.08267 9.14135 9.1875L9.05859 2.625Z" fill="white"/>
<path d="M9.75335 10.5H9.74132C9.43263 10.4948 9.18408 10.329 9.19209 10.1296C9.33642 5.72884 9.06381 3.03762 9.0598 3.01172C9.03975 2.81227 9.27227 2.63873 9.58096 2.62578C9.88966 2.61283 10.1583 2.76306 10.1783 2.9625C10.1823 2.98841 10.4549 5.70812 10.3106 10.1451C10.3106 10.3446 10.058 10.5 9.75335 10.5Z" fill="#242424"/>
<path d="M10.3525 7.875L11.6467 6.5625L10.3525 7.875Z" fill="white"/>
<path d="M9.50724 7.875C9.34392 7.875 9.18379 7.8077 9.10693 7.68994C8.99484 7.5241 9.08451 7.32221 9.30549 7.23809L10.9964 6.59877C11.2174 6.51465 11.4864 6.58195 11.5985 6.74779C11.7106 6.91363 11.6209 7.11551 11.3999 7.19963L9.709 7.83895C9.64495 7.86298 9.5745 7.875 9.50724 7.875Z" fill="#242424"/>
<path d="M6.4707 3.9375C6.4707 3.9375 8.32036 5.21354 9.05894 5.25L6.4707 3.9375Z" fill="white"/>
<path d="M8.72452 6.5625H8.70307C8.51237 6.54648 8.16674 6.42797 7.35629 5.58876C6.93914 5.15634 6.59589 4.73674 6.57921 4.71752C6.44334 4.55096 6.4338 4.26588 6.55776 4.08331C6.68171 3.90073 6.89385 3.88792 7.02972 4.05448C7.03211 4.05768 7.37059 4.47088 7.76628 4.88088C8.48615 5.62399 8.72214 5.66563 8.74597 5.66884C8.92951 5.68485 9.07015 5.89946 9.05823 6.1461C9.04393 6.37992 8.89853 6.5625 8.72452 6.5625Z" fill="#242424"/>
<path d="M15.5293 3.9375C15.5293 3.9375 16.1432 4.66319 16.8234 7.875L15.5293 3.9375Z" fill="white"/>
<path d="M17.7458 7.875C17.5934 7.875 17.4516 7.78833 17.3991 7.65248C16.4196 5.10634 15.5372 4.47156 15.5293 4.46453L15.5345 4.46687L15.9679 3.9375C16.0755 4.00777 17.042 4.69408 18.0977 7.43932C18.1633 7.61031 18.0609 7.7977 17.8692 7.85626C17.8272 7.87032 17.7852 7.875 17.7458 7.875Z" fill="#242424"/>
<path d="M14.2354 6.5625L18.1177 7.875L14.2354 6.5625Z" fill="white"/>
<path d="M16.4906 9.1875C16.4381 9.1875 16.3856 9.17407 16.3378 9.14453L13.1217 7.27283C12.957 7.17615 12.8949 6.95058 12.9785 6.76529C13.0644 6.58 13.265 6.51018 13.4297 6.60417L16.6435 8.47856C16.8082 8.57523 16.8703 8.80081 16.7867 8.9861C16.727 9.11499 16.61 9.1875 16.4906 9.1875Z" fill="#242424"/>
<path d="M18.1172 7.875L19.4113 6.5625L18.1172 7.875Z" fill="white"/>
<path d="M18.5606 7.875C18.4215 7.875 18.2855 7.83313 18.1969 7.75735C18.0578 7.63173 18.1052 7.45625 18.3044 7.36851L20.009 6.61277C20.2082 6.52504 20.4865 6.55495 20.6257 6.68057C20.7648 6.8062 20.7174 6.98167 20.5182 7.06941L18.8136 7.82515C18.7377 7.85905 18.646 7.875 18.5606 7.875Z" fill="#242424"/>
<path d="M15.5293 10.5C16.2429 10.5 16.8234 11.3823 16.8234 12.4687C16.8234 13.5552 16.2446 14.4375 15.5293 14.4375" fill="#F7B42F"/>
<path d="M14.2355 10.5C13.5219 10.5 12.9414 11.3823 12.9414 12.4688C12.9414 13.5552 13.5202 14.4375 14.2355 14.4375" fill="white"/>
<path d="M16.8236 11.8748C16.8236 12.5643 16.2438 13.125 15.5295 13.125C14.8151 13.125 14.2354 12.5664 14.2354 11.8748C14.2354 11.1832 14.8151 10.5 15.5295 10.5C16.2438 10.5 16.8236 11.1853 16.8236 11.8748Z" fill="#FFCE61"/>
<path d="M16.7232 13.125L16.1446 12.925C16.1926 12.7849 16.2145 12.636 16.2145 12.4849C16.2145 11.7358 15.6184 11.1246 14.8847 11.1246C14.1511 11.1246 13.555 11.7336 13.555 12.4849C13.555 12.6338 13.579 12.7783 13.6227 12.9161L13.0418 13.1117C12.9763 12.9094 12.9414 12.6982 12.9414 12.4826C12.9414 11.3891 13.8126 10.5 14.8825 10.5C15.9524 10.5 16.8237 11.3891 16.8237 12.4826C16.8258 12.7027 16.7909 12.9183 16.7232 13.125Z" fill="#242424"/>
<path d="M18.1172 14.3361L18.8271 14.4375L19.4113 12.1336L18.8591 7.95668L18.2877 7.875" fill="#678767"/>
<path d="M17.7666 13.125L18.1174 10.8223L17.7632 6.73534L17.0448 6.5625L17.2378 10.5407L16.8232 12.941L17.7666 13.125Z" fill="#8FAA8F"/>
<path d="M17.236 13.125C17.1861 13.125 17.1361 13.1173 17.0862 13.1018C16.8747 13.0295 16.7689 12.8205 16.8512 12.6347L17.7413 10.614L16.9892 6.99064C16.9657 6.87709 17.0039 6.76354 17.0921 6.67837C17.1802 6.59321 17.3094 6.55192 17.4387 6.56482L19.5774 6.77128C19.7595 6.78934 19.9064 6.91064 19.9387 7.06806L20.6996 10.8953C20.7114 10.9546 20.7055 11.014 20.6849 11.0733L20.0034 12.8669C19.9299 13.0553 19.6978 13.1585 19.4834 13.094C19.2689 13.0295 19.1514 12.8256 19.2249 12.6372L19.8741 10.9314L19.1808 7.46033L17.897 7.33646L18.5727 10.583C18.5874 10.6475 18.5786 10.7172 18.5521 10.7791L17.6209 12.8953C17.5562 13.0373 17.4005 13.125 17.236 13.125Z" fill="#242424"/>
<path d="M11.6468 9.1875C10.2172 9.1875 9.05859 10.0704 9.05859 11.1562C9.05859 12.2421 10.2172 13.125 11.6468 13.125" fill="white"/>
<path d="M11.6475 9.1875C13.0771 9.1875 14.2357 10.0704 14.2357 11.1562C14.2357 12.2421 13.0771 13.125 11.6475 13.125" fill="#FF2929"/>
<path d="M12.9408 11.1147C12.9408 12.2236 12.3613 13.125 11.6467 13.125C10.932 13.125 10.3525 12.2236 10.3525 11.1147C10.3525 10.0058 10.932 9.18751 11.6467 9.18751C12.3613 9.18454 12.9408 10.0029 12.9408 11.1147Z" fill="#FF6464"/>
<path d="M11.6468 14.4375C10.2208 14.4375 9.05859 13.2597 9.05859 11.8125C9.05859 10.3653 10.2208 9.1875 11.6468 9.1875C13.0728 9.1875 14.2351 10.3653 14.2351 11.8125C14.2351 13.2597 13.0756 14.4375 11.6468 14.4375ZM11.6468 9.9625C10.644 9.9625 9.82792 10.7903 9.82792 11.8097C9.82792 12.8292 10.644 13.6569 11.6468 13.6569C12.6497 13.6569 13.4657 12.8292 13.4657 11.8097C13.4657 10.7903 12.6497 9.9625 11.6468 9.9625Z" fill="#242424"/>
<path d="M5.41269 13.125C5.99136 13.0464 6.56257 12.8411 7.08908 12.5014C9.05604 11.2341 9.64961 8.5751 8.41529 6.5625L5.17676 8.64861" fill="#FFC840"/>
<path d="M6.45742 12.5649C7.7627 11.5082 8.15613 9.55166 7.33686 7.875L2.58789 11.4663C3.40716 13.143 5.15215 13.6217 6.45742 12.5649Z" fill="#FFEC64"/>
<path d="M6.5805 13.125C6.45816 13.125 6.33582 13.0674 6.26402 12.9623C6.15497 12.7997 6.20551 12.582 6.38103 12.4794C8.2028 11.3958 8.82513 9.18114 7.8677 7.4044L0.899767 11.5435C1.18965 11.9063 1.54337 12.2141 1.95028 12.4593C2.12315 12.5645 2.17368 12.7822 2.06198 12.9448C1.95028 13.1075 1.7189 13.155 1.54603 13.0499C0.942319 12.6821 0.44233 12.2041 0.0566994 11.6285C-0.0523409 11.4659 0.000849453 11.2507 0.173718 11.1456L7.79856 6.61612C7.881 6.56607 7.98472 6.55106 8.08047 6.57108C8.17621 6.5911 8.26131 6.64866 8.3145 6.72623C9.74267 8.87333 9.05385 11.7211 6.7773 13.0724C6.71613 13.1075 6.64699 13.125 6.5805 13.125Z" fill="#242424"/>
<path d="M11.6475 21C17.3658 21 22.0004 17.473 22.0004 13.125H11.6475" fill="#D3D3D3"/>
<path d="M10.9997 21C15.6455 21 19.4114 17.473 19.4114 13.125H2.58789C2.58789 17.473 6.35385 21 10.9997 21Z" fill="#E8E8E8"/>
<path d="M11 21C8.08326 21 5.33824 20.2297 3.26765 18.8279C2.24977 18.139 1.44842 17.3352 0.885973 16.4358C0.298643 15.4956 0 14.4933 0 13.4599C0 13.2757 0.156787 13.125 0.348416 13.125H21.6516C21.8432 13.125 22 13.2757 22 13.4599C22 14.4933 21.7014 15.4956 21.114 16.4381C20.5516 17.3376 19.7502 18.1414 18.7324 18.8303C16.6618 20.2273 13.9167 21 11 21ZM0.709276 13.7948C0.973077 17.4285 5.48756 20.3302 11 20.3302C16.5124 20.3302 21.0269 17.4285 21.2907 13.7948H0.709276Z" fill="#242424"/>
</g>
<defs>
<clipPath id="clip0_987_1452">
<rect width="22" height="21" fill="white"/>
</clipPath>
</defs>
</svg>
