<svg width="22" height="22" viewBox="0 0 22 22" fill="none" xmlns="http://www.w3.org/2000/svg">
<g opacity="0.2">
<path d="M4.88251 7C3.84673 7 3 6.152 3 5.11467V3.88533C3 2.848 3.84673 2 4.88251 2C5.91829 2 6.76502 2.848 6.76502 3.88533V5.11467C6.76502 6.152 5.91829 7 4.88251 7ZM17.1175 7C16.0817 7 15.235 6.152 15.235 5.11467V3.88533C15.235 2.848 16.0817 2 17.1175 2C18.1533 2 19 2.848 19 3.88533V5.11467C19.0027 6.152 18.1533 7 17.1175 7Z" fill="#C7E94E"/>
<path d="M21.0296 15.4239H20.6089C20.5779 15.2278 20.534 15.0343 20.4824 14.8407H21.0321C21.5638 14.8407 22 14.4103 22 13.8856C22 13.361 21.5638 12.9305 21.0321 12.9305H19.7752V10.6231C19.7752 10.6129 19.7726 10.6052 19.7726 10.595V0H18.8048C16.4716 0 14.4481 1.29891 13.4209 3.20144C13.0028 3.13012 12.5744 3.08683 12.1356 3.08683H9.85922C9.42046 3.08683 8.9946 3.13267 8.57649 3.20144C7.54927 1.29891 5.52581 0 3.19263 0H2.22478V10.595C2.22478 10.6052 2.2222 10.6129 2.2222 10.6231V12.9305H0.967855C0.43618 12.9305 0 13.361 0 13.8856C0 14.4103 0.43618 14.8407 0.967855 14.8407H1.5176C1.46598 15.0317 1.4221 15.2253 1.39113 15.4239H0.970436C0.438761 15.4239 0.00258091 15.8544 0.00258091 16.379C0.00258091 16.9037 0.438761 17.3341 0.970436 17.3341H1.41694C1.90732 19.9829 4.25856 22 7.08212 22H14.9179C17.7414 22 20.0927 19.9829 20.5831 17.3341H21.0296C21.5612 17.3341 21.9974 16.9037 21.9974 16.379C22 15.8544 21.5638 15.4239 21.0296 15.4239ZM17.8369 2.02223V5.62352C17.1401 4.84927 16.2858 4.22019 15.3205 3.77958C15.8986 2.91364 16.7865 2.26928 17.8369 2.02223ZM4.16307 2.02223C5.21351 2.26928 6.10136 2.91618 6.67691 3.78213C5.71422 4.22019 4.85992 4.85182 4.16307 5.62352V2.02223V2.02223ZM14.9179 20.0898H11.9679V17.2475H12.7679C13.2377 17.2475 13.6197 16.868 13.6197 16.407V16.1804C13.6197 15.7168 13.2351 15.3399 12.7679 15.3399H9.22947C8.75974 15.3399 8.37776 15.7194 8.37776 16.1804V16.407C8.37776 16.8706 8.76232 17.2475 9.22947 17.2475H10.0296V20.0898H7.08212C5.33224 20.0898 3.85336 18.9234 3.40169 17.3367H4.87541C5.40709 17.3367 5.84327 16.9062 5.84327 16.3816C5.84327 15.8569 5.40709 15.4265 4.87541 15.4265H3.37588C3.42492 15.2278 3.49202 15.0343 3.57461 14.8433H4.87541C5.40709 14.8433 5.84327 14.4128 5.84327 13.8882C5.84327 13.3635 5.40709 12.9331 4.87541 12.9331H4.16049V10.6256C4.16049 7.5235 6.71821 4.99954 9.8618 4.99954H12.1382C15.2818 4.99954 17.8395 7.5235 17.8395 10.6256V12.9331H17.1272C16.5955 12.9331 16.1593 13.3635 16.1593 13.8882C16.1593 14.4128 16.5955 14.8433 17.1272 14.8433H18.428C18.5106 15.0317 18.5777 15.2253 18.6267 15.4265H17.1272C16.5955 15.4265 16.1593 15.8569 16.1593 16.3816C16.1593 16.9062 16.5955 17.3367 17.1272 17.3367H18.6009C18.1466 18.9208 16.6703 20.0898 14.9179 20.0898Z" fill="#242529"/>
</g>
</svg>
