<svg width="319" height="460" viewBox="0 0 319 460" fill="none" xmlns="http://www.w3.org/2000/svg">
<g opacity="0.6" filter="url(#filter0_b_340_338)">
<path d="M108.413 247.52C105.651 234.531 0 81.4233 0 81.4233L125.8 0.727295L178.677 136.755L174.279 86.128L219.383 50.945L275.43 123.152L201.791 297.226L186.654 333.023L81.3097 326.477L108.413 247.52Z" fill="#F9F9F9"/>
</g>
<path d="M156.176 130.618C158.63 139.107 165.176 135.221 160.165 148.21C155.153 161.199 176.017 158.949 176.631 154.653C177.347 150.255 156.176 130.618 156.176 130.618Z" fill="#13DDE2"/>
<mask id="mask0_340_338" style="mask-type:luminance" maskUnits="userSpaceOnUse" x="18" y="0" width="301" height="366">
<path d="M107.902 232.69C107.902 232.69 11.0459 13.0005 18.7166 4.00014C26.3874 -5.00018 103.708 4.00014 103.708 4.00014C113.936 4.00014 120.482 7.98893 124.061 17.7052L158.733 104.64C162.926 114.97 170.699 114.356 174.279 104.64L196.473 42.3538C198.314 36.6263 201.587 0.215923 205.473 4.10243C209.36 7.98893 295.783 1.23869 302.431 4.10243C309.079 6.96616 319 20.0575 319 20.0575L182.052 343.558C177.245 354.399 162.313 365.24 144.926 365.24H67.707L108.413 247.52C110.868 242.406 110.254 238.418 107.902 232.69Z" fill="white"/>
</mask>
<g mask="url(#mask0_340_338)">
<path d="M170.393 151.994C169.881 152.096 169.574 151.483 169.779 151.687V151.585L169.677 151.38C167.324 145.96 164.767 140.437 161.188 135.732C158.631 132.459 156.483 130.414 152.29 132.868C145.233 136.959 138.585 145.142 136.232 152.915C135.619 155.778 135.312 159.153 134.084 162.017C133.88 162.426 133.266 163.347 132.55 163.551C131.937 163.858 130.607 163.756 130.096 163.244C129.584 162.835 129.482 162.631 129.277 162.222C128.664 160.381 127.948 158.437 127.232 156.597C125.8 152.915 124.164 149.13 122.118 146.062C121.3 144.835 120.482 143.71 119.357 142.994C119.254 142.891 119.05 142.789 118.947 142.687L113.527 139.721L110.254 137.675C114.959 132.664 119.05 126.732 121.913 120.493C127.232 108.629 127.027 98.8104 118.845 88.3782C116.697 85.3099 110.152 76.2073 106.47 78.1506L106.572 77.7414C110.356 86.5372 113.629 98.9126 109.027 108.015C106.777 112.72 103.811 116.709 101.867 121.004C99.8218 125.402 99.2081 130.209 99.0036 135.016V135.528L98.5945 135.63C84.2758 137.573 72.514 142.482 64.741 155.165C60.9567 160.892 58.809 167.233 56.3544 173.677C53.6952 180.12 50.32 186.154 46.4335 191.882C43.5698 196.177 40.3992 200.166 37.6378 204.462C33.4444 211.723 30.0693 219.701 27.6147 227.679C26.2851 232.588 24.4441 238.009 25.9783 242.816C27.001 244.963 28.842 247.111 31.1943 247.725C34.774 249.259 49.6041 244.656 47.6609 239.134C47.354 237.804 46.3313 236.474 45.6153 235.247C44.6949 233.508 43.9789 231.565 43.5698 229.52C42.9562 226.247 43.263 221.849 47.0472 220.315C49.7064 219.496 51.8542 220.826 53.4906 222.36C55.8429 224.508 58.2976 226.042 60.8545 226.554C64.0251 227.269 69.0366 226.349 71.7981 224.303C71.7981 224.303 71.6958 224.61 71.6958 224.815C71.6958 225.019 71.7981 225.122 71.6958 225.019C71.2867 224.303 69.6502 223.281 68.832 222.769C65.866 220.724 61.9795 216.53 64.8433 212.746C68.423 209.064 74.6618 212.746 78.5483 214.076C82.4348 215.712 86.1167 217.349 89.7987 219.496C91.4351 220.417 91.5374 222.974 91.9465 224.508C92.867 229.826 93.2761 234.94 93.2761 240.361C92.7647 247.725 92.5602 257.646 99.7195 261.941C101.049 262.759 102.686 262.964 104.22 263.271C107.39 263.782 110.765 264.396 113.834 263.475C116.8 262.35 119.561 260.202 120.788 257.134L120.993 256.725H121.3C124.47 256.521 128.05 255.907 130.505 253.861C133.062 251.611 131.937 249.259 128.971 247.725C127.334 246.804 125.084 246.088 123.243 246.088H121.913L121.402 244.554C120.175 237.906 116.288 227.269 122.936 222.36C131.118 217.451 140.016 214.28 148.812 210.701L149.017 210.598L149.221 210.701C152.494 212.03 155.767 213.155 159.142 214.076C160.472 214.485 162.108 214.689 162.926 215.917C164.358 218.167 161.392 221.031 160.267 222.053C158.222 225.94 156.585 230.747 159.04 234.736C160.983 240.975 147.585 244.247 147.073 250.384C146.46 256.316 153.312 261.839 159.142 260.305C160.676 260.1 163.029 261.123 163.949 262.555C164.665 263.475 165.176 264.6 165.688 265.316C166.711 266.544 167.836 266.544 169.37 266.544C176.734 266.441 188.7 266.544 193.916 261.327C196.575 258.157 199.541 255.191 203.735 253.861C207.723 252.532 213.86 254.577 213.349 259.589C213.246 261.328 212.326 263.578 213.349 264.498C214.474 265.521 216.11 266.032 217.849 266.441C220.508 267.055 223.269 267.566 226.031 267.975C232.065 268.691 243.213 269.714 246.895 264.191L247.1 263.782L249.248 259.998C249.657 259.282 250.066 258.566 251.089 257.543C252.009 256.725 253.543 256.214 254.668 256.214C260.498 256.009 266.225 257.134 271.851 256.623C286.067 255.805 289.544 242.1 286.272 230.133C285.249 226.247 284.328 223.792 287.397 220.622C290.26 217.553 291.283 213.667 292.306 209.576C293.533 204.053 294.147 198.325 293.942 192.7C293.84 189.836 293.533 186.973 293.022 184.109C293.226 182.268 293.329 180.427 293.636 178.586C294.863 169.892 296.295 166.824 305.704 168.767C306.625 168.767 306.829 168.461 306.931 167.336C306.727 162.631 302.636 158.028 298.34 156.597C293.533 154.858 288.522 157.006 284.431 159.767C281.669 161.506 277.885 163.654 275.226 165.495C273.078 166.926 271.442 168.051 270.623 170.302C270.01 171.631 269.294 176.438 268.885 177.972C267.453 184.927 266.941 192.189 265.816 199.348C265.305 202.212 265.1 207.735 260.805 206.916C259.68 206.61 258.759 205.28 258.452 204.36C257.43 201.087 257.327 197.814 256.714 194.541C254.157 180.938 248.736 162.017 235.44 155.574C233.906 154.858 232.065 154.551 230.531 153.937C222.758 151.074 220.917 144.119 224.19 136.959C225.315 134.3 226.645 132.05 227.667 129.493C227.974 128.675 228.076 128.266 228.076 127.448C228.076 123.664 227.054 118.959 224.497 115.993C223.985 115.481 223.372 115.481 222.86 114.868C222.553 114.561 222.144 114.05 222.042 113.334C221.735 112.106 222.553 110.879 223.474 110.368C226.542 108.731 229.815 110.879 231.758 113.231C236.361 120.186 237.179 128.88 240.861 136.039C241.679 137.471 242.906 138.494 243.929 139.721C244.85 140.539 246.077 141.869 247.202 142.073C247.304 142.073 247.407 142.073 247.509 142.073C247.611 142.073 247.816 141.869 248.02 141.766C253.441 130.107 255.998 112.004 248.123 100.549C241.986 91.8556 230.94 89.1964 220.508 88.8896C214.883 86.4349 208.439 86.844 203.325 89.9123C202.814 90.2192 202.098 90.3214 201.484 90.3214C192.28 89.5032 182.87 91.0374 177.961 99.5263L175.915 99.8331C169.677 100.345 163.233 100.856 157.506 102.288C154.642 103.004 151.983 104.026 150.039 105.663C148.301 106.992 147.176 108.936 145.744 110.777C141.244 116.197 134.187 119.777 131.937 126.425C131.118 129.289 131.937 132.459 132.55 135.323C133.266 138.391 134.289 141.46 135.925 144.017L135.107 144.119C135.619 141.664 136.334 139.312 137.153 137.062C138.789 133.277 142.778 122.845 148.199 124.891C148.505 124.993 148.812 125.198 149.017 125.402C150.755 126.732 152.392 127.755 154.437 128.266C155.153 128.471 155.971 128.675 156.79 128.777C158.835 129.084 160.676 130.311 162.006 131.539C167.222 136.959 169.165 144.119 170.597 151.278C170.597 151.483 170.699 151.79 170.699 151.994V152.096C170.699 152.096 170.699 152.096 170.699 152.199C170.802 151.585 170.597 151.994 170.393 151.994ZM170.086 151.074C169.983 151.074 169.881 151.176 169.779 151.278C169.677 151.38 169.677 151.585 169.677 151.585V151.483C169.267 150.562 168.654 149.335 168.245 148.414C165.79 143.505 163.029 137.88 158.938 134.3C157.71 133.278 156.687 132.971 155.256 132.868C151.983 132.459 148.608 131.027 145.948 128.982L145.846 128.88C145.948 128.88 145.948 128.982 146.051 128.982C146.358 129.084 146.767 129.186 146.971 129.084C147.38 128.982 147.38 128.982 147.38 128.982C146.358 129.8 145.437 131.027 144.517 132.255C141.755 135.937 139.198 139.925 136.028 143.71L135.721 144.528L135.209 143.812C132.039 139.823 130.505 135.118 129.38 130.311C127.027 121.311 135.619 114.663 140.528 108.731C142.676 106.174 143.698 103.106 146.255 100.651C148.914 97.9922 152.29 96.3557 155.665 95.1284C162.006 92.8783 168.449 91.7533 175.097 90.6283L172.233 92.2647C179.393 83.2644 191.768 81.628 201.894 83.7758C201.791 83.7758 201.791 83.7758 201.689 83.7758H201.484C201.28 83.7758 200.973 83.9803 200.769 83.9803C200.769 83.9803 200.769 83.9803 200.871 83.9803L201.075 83.878C207.621 80.8097 215.701 81.0143 222.042 84.2871L221.326 84.0826C228.895 84.2871 236.565 85.5144 243.213 89.2987C261.214 99.5263 259.987 124.277 253.134 141.051C252.418 142.891 251.395 144.528 249.35 145.244C244.952 146.573 241.986 142.482 239.327 139.823C237.179 137.675 236.156 134.505 235.236 131.846C234.111 128.266 233.088 124.789 232.065 121.413C230.838 118.141 230.02 113.231 226.133 112.413C225.929 112.413 225.724 112.413 225.826 112.413C225.826 112.413 225.929 112.413 225.929 112.209C226.031 112.106 226.031 111.799 226.031 111.595C225.929 111.186 225.724 111.288 225.929 111.288C229.201 113.129 230.326 117.22 231.247 120.595C231.758 123.05 232.27 125.504 231.861 128.061C231.554 129.596 230.94 130.925 230.429 132.255C229.099 136.039 226.644 141.562 229.815 144.835C231.042 146.062 233.702 146.88 235.542 147.494C240.452 148.926 244.85 152.403 248.02 156.085C255.486 164.881 259.271 176.131 261.623 187.075C262.748 191.677 263.055 197.609 263.873 201.496C263.055 200.269 261.009 200.269 260.089 201.291C259.884 201.496 259.884 201.598 259.884 201.598C259.884 201.598 259.884 201.598 259.884 201.496C262.032 193.109 262.441 184.416 264.487 175.824C264.998 173.881 265.816 169.483 266.635 167.642C267.657 164.676 270.726 162.324 273.18 160.892C276.146 159.051 279.726 157.108 282.692 155.471L285.044 154.142C285.862 153.631 286.783 153.221 287.703 152.915C295.579 149.539 304.375 153.017 308.056 160.688C310.102 164.472 310.716 171.631 304.17 169.79C301.715 169.381 299.158 168.563 297.522 170.608C295.17 174.29 294.965 178.995 294.147 183.291C295.477 187.995 296.295 194.95 295.988 200.473C295.886 203.439 295.579 206.303 295.067 209.269C294.351 213.564 293.124 218.371 290.158 221.849C289.749 222.463 289.34 222.974 289.135 223.383C288.624 225.019 289.544 226.451 290.056 228.395C291.283 232.792 291.999 237.293 291.488 241.997C290.26 252.634 283.203 259.691 272.567 260.714C267.657 261.328 262.953 260.816 258.248 260.714C257.123 260.714 255.691 260.612 254.668 260.816H254.77C254.77 260.816 254.361 261.327 254.055 261.941L252.009 265.725L251.702 266.237C246.486 274.726 233.906 273.908 225.315 272.987C216.212 271.555 204.451 270.635 207.519 258.464C207.519 258.668 207.826 258.975 207.928 259.077C207.212 258.668 206.496 258.566 205.371 258.873C201.587 259.896 199.234 263.987 196.268 266.339C193.302 268.487 190.234 269.407 187.166 270.123C180.109 271.453 173.563 271.657 166.711 271.044C164.767 270.737 162.619 269.407 161.597 267.771C160.881 266.85 160.369 265.316 159.756 264.703C159.653 264.6 159.551 264.6 159.142 264.498C158.938 264.498 158.733 264.498 158.426 264.6C155.358 265.112 152.085 263.987 149.63 262.35C141.653 256.827 140.426 246.907 149.221 241.486C151.471 239.849 154.233 238.52 156.074 236.679C156.687 235.963 156.994 235.349 156.687 234.531L156.483 234.02C154.744 229.417 156.994 224.713 159.551 220.928C161.494 219.292 164.358 215.815 160.165 214.894C156.278 213.871 152.494 212.644 148.812 211.11H149.221C145.437 212.849 141.653 214.587 137.971 216.428C121.095 225.224 119.766 223.485 125.289 243.02L123.448 241.588C126.209 241.997 128.459 242.918 130.709 244.452C134.8 247.009 136.232 251.816 131.937 254.986C128.868 257.134 124.982 257.441 121.402 257.236L121.913 256.827C120.277 262.146 114.754 265.828 109.231 265.623C107.39 265.623 105.652 265.521 103.913 265.316C102.072 265.112 100.129 264.907 98.4922 264.089C89.5941 259.793 88.5714 248.441 88.8782 239.747C88.5714 234.122 87.8555 227.985 86.3213 222.565C86.3213 222.565 86.3213 222.462 86.4236 222.667L86.5259 222.872C86.5259 222.974 87.0372 223.383 86.935 223.281C83.7644 221.542 80.0825 220.11 76.6051 218.781C74.2527 217.962 70.7753 216.633 68.9343 216.53C69.0366 216.53 69.3434 216.326 69.548 216.121C69.7525 215.815 69.9571 215.508 69.9571 215.201C70.0594 214.689 69.9571 214.689 69.9571 214.792C70.5708 216.019 72.2071 217.144 73.4345 217.758C74.9686 218.781 76.0937 219.496 77.2187 221.44C80.9007 228.599 71.0821 231.974 65.7637 232.588C59.7294 233.611 53.4906 230.747 49.2973 226.554L48.8881 226.144C48.7859 226.042 48.6836 225.94 48.5813 225.94C48.2745 225.735 48.1722 225.735 48.5813 225.735C48.6836 225.735 48.8882 225.735 49.0927 225.633C49.5018 225.531 49.6041 225.224 49.7064 225.224C49.7064 225.122 49.5018 225.633 49.5018 226.247C49.3996 226.758 49.5018 227.474 49.5018 228.088C49.7064 230.338 50.8314 232.383 51.8542 234.429C53.3883 237.395 53.5929 241.588 51.3428 244.35C48.6836 247.725 45.0017 249.054 41.3197 250.282C35.8991 252.123 28.842 252.532 24.9555 247.418C23.7282 245.884 22.6031 244.043 22.194 242.1C21.2735 236.577 23.1145 231.258 24.6487 226.144C27.5124 217.86 31.0921 209.985 35.5922 202.519C38.456 198.223 41.8311 194.234 44.6948 190.041C48.5813 184.518 52.0588 178.586 54.8202 172.347C56.1498 169.279 57.2748 166.006 58.7067 162.835C64.4342 149.642 74.2527 139.21 88.5714 135.937C91.9465 135.016 95.3216 134.505 98.6967 133.993L98.2877 134.505C97.2649 129.493 97.3672 124.073 99.1059 119.163C101.049 113.231 105.14 108.322 106.981 102.492C108.822 94.2079 107.083 85.719 105.856 77.4346L105.754 77.1278L105.856 77.0255C110.868 72.1162 124.061 89.9123 126.311 94.0034C134.084 108.731 126.618 126.118 117.72 138.596L116.902 133.789L122.118 137.062C128.255 140.846 131.527 152.505 133.573 159.051C133.675 159.358 133.778 159.869 133.88 160.074C133.675 159.256 132.653 158.437 131.527 158.54C130.812 158.54 130.3 158.949 129.993 159.358C131.118 156.801 131.425 154.142 132.243 151.38C135.209 142.789 143.085 134.096 151.165 130.005C156.483 127.345 159.858 129.596 162.926 134.096C166.404 139.21 168.756 144.937 170.802 150.767C170.802 150.869 170.802 150.869 170.904 150.971C170.802 151.585 170.495 150.869 170.086 151.074Z" fill="#212121"/>
<path d="M176 99L198 38.5" stroke="#212121"/>
</g>
<path d="M78.2415 133.482C78.2415 133.482 62.5933 140.948 58.3999 154.449C54.2066 167.949 53.0815 153.733 56.7635 147.494C60.5477 141.153 65.0478 136.243 78.2415 133.482Z" fill="#C7E94E"/>
<path d="M109.436 9.20487L31.7056 61.8772L68.0137 42.4447L106.367 19.4325L123.754 6.64796L133.982 19.4325L126.311 0L109.436 9.20487Z" fill="#212121"/>
<path d="M106.367 245.975L29.1487 121.709L100.742 249.554L76.7072 333.421L129 331.5L80.2869 327.796L106.367 245.975Z" fill="#212121"/>
<path d="M226.61 232.702L288 84.5L264.5 72L220.406 48.0699L267 72L292.091 84.5L212 275L189.723 329.33L226.61 232.702Z" fill="#212121"/>
<path d="M176.938 131.937L138.073 35.7967L139.607 35.2853L176.938 131.937Z" fill="#212121"/>
<path d="M131.113 331L134 333.887L136.887 331L134 328.113L131.113 331ZM188 331.5C188.276 331.5 188.5 331.276 188.5 331C188.5 330.724 188.276 330.5 188 330.5V331.5ZM134 331.5H188V330.5H134V331.5Z" fill="#212121"/>
<ellipse cx="93.5" cy="446.8" rx="8.5" ry="9" fill="#C7E94E"/>
<ellipse cx="128" cy="443.8" rx="5" ry="6" fill="#13DDE2"/>
<path d="M102.72 432.68V458.96H83.44V432.68H102.72ZM88.52 452.56H90.92V448.68H88.52V452.56ZM97.52 448.68H95.16V452.56H97.52V448.68ZM95.16 439.04V442.72H97.52V439.04H95.16ZM88.52 439.04V442.72H90.92V439.04H88.52ZM73.04 436.32L68.72 432.32L73.44 427.28L70.72 422.08L75.4 419.64L77.24 423.16L80.2 420L83.04 422.68V422.52H85.92V419.52H91.4V422.52H94.76V419.52H100.24V422.52H104.32V429.08H100.24V431.76H94.76V429.08H91.4V431.76H85.92V429.08H83.04V425.6L79.96 428.92V459.32H72.64V452.52H74.92V446.68L73.2 448.52L68.8 444.44L74.92 437.88V434.32L73.04 436.32Z" fill="#111111"/>
<path d="M130.952 421.64L130.432 423H141.112V458.92H131.792V452.32H121.272V433.24H126.272L120.592 431.24L124.752 419.48L130.952 421.64ZM126.072 446.08H128.632V439.12H126.072V446.08ZM127.952 430.12L126.872 433.24H133.312V451.84H135.432V430.12H127.952ZM110.312 449.32L105.912 443.68L112.672 438.4V435.08L110.952 436.92L106.152 432.44L111.032 427.2L108.592 422.48L113.392 420L114.952 423.04L117.632 420.16L122.432 424.64L118.472 428.88V459.36H110.832V452.32H112.672V447.48L110.312 449.32Z" fill="#111111"/>
<path d="M146.824 458.36V420.44H174.144V458.36H146.824ZM167.984 451.08V442.68H152.784V451.08H167.984ZM152.784 427.88V435.64H167.984V427.88H152.784Z" fill="#111111"/>
<path d="M210.217 421.36L208.857 424.36H213.057V435.12H209.337V436.12H209.297V437.96H209.337V442.2H200.377V444.16H211.657V458.36H203.897V452.64H205.737V449.84H200.377V459.8H194.457V449.84H189.337V458.4H183.417V444.12H194.457V442.2H185.657V435.12H181.897V424.32H186.097L184.777 421.32L190.017 419L192.377 424.32H194.617V419.64H200.337V424.36H202.617L205.017 419L210.217 421.36ZM203.577 436.12H191.377V437.96H203.577V436.12ZM207.257 429.84H187.617V431.88H207.257V429.84Z" fill="#111111"/>
<defs>
<filter id="filter0_b_340_338" x="-60" y="-59.2727" width="395.43" height="452.296" filterUnits="userSpaceOnUse" color-interpolation-filters="sRGB">
<feFlood flood-opacity="0" result="BackgroundImageFix"/>
<feGaussianBlur in="BackgroundImageFix" stdDeviation="30"/>
<feComposite in2="SourceAlpha" operator="in" result="effect1_backgroundBlur_340_338"/>
<feBlend mode="normal" in="SourceGraphic" in2="effect1_backgroundBlur_340_338" result="shape"/>
</filter>
</defs>
</svg>
