<svg width="148" height="98" viewBox="0 0 148 98" fill="none" xmlns="http://www.w3.org/2000/svg">
<path opacity="0.4" d="M21 8H7C3.68629 8 1 10.6863 1 14V91C1 94.3137 3.68629 97 7 97H141C144.314 97 147 94.3137 147 91V14C147 10.6863 144.314 8 141 8H56.5" stroke="black"/>
<path opacity="0.2" d="M25.9 13.06V3.784H28.948C29.908 3.784 30.728 3.972 31.408 4.348C32.096 4.724 32.616 5.26 32.968 5.956C33.328 6.652 33.508 7.476 33.508 8.428C33.508 9.38 33.32 10.204 32.944 10.9C32.576 11.596 32.032 12.132 31.312 12.508C30.6 12.876 29.744 13.06 28.744 13.06H25.9ZM28.744 11.788C29.824 11.788 30.652 11.496 31.228 10.912C31.812 10.328 32.104 9.5 32.104 8.428C32.104 7.348 31.824 6.52 31.264 5.944C30.704 5.36 29.896 5.068 28.84 5.068H27.256V11.788H28.744ZM38.9286 13.228C38.0886 13.228 37.3566 13.032 36.7326 12.64C36.1086 12.248 35.6246 11.692 35.2806 10.972C34.9446 10.244 34.7766 9.396 34.7766 8.428C34.7766 7.452 34.9446 6.604 35.2806 5.884C35.6246 5.156 36.1086 4.596 36.7326 4.204C37.3566 3.812 38.0886 3.616 38.9286 3.616C39.7766 3.616 40.5126 3.812 41.1366 4.204C41.7606 4.596 42.2406 5.156 42.5766 5.884C42.9126 6.604 43.0806 7.452 43.0806 8.428C43.0806 9.396 42.9126 10.244 42.5766 10.972C42.2406 11.692 41.7566 12.248 41.1246 12.64C40.5006 13.032 39.7686 13.228 38.9286 13.228ZM38.9286 11.956C39.4806 11.956 39.9646 11.812 40.3806 11.524C40.7966 11.236 41.1166 10.828 41.3406 10.3C41.5726 9.764 41.6886 9.14 41.6886 8.428C41.6886 7.716 41.5726 7.096 41.3406 6.568C41.1166 6.032 40.7966 5.62 40.3806 5.332C39.9646 5.044 39.4806 4.9 38.9286 4.9C38.3686 4.9 37.8806 5.044 37.4646 5.332C37.0486 5.62 36.7286 6.032 36.5046 6.568C36.2806 7.096 36.1686 7.716 36.1686 8.428C36.1686 9.14 36.2806 9.764 36.5046 10.3C36.7286 10.828 37.0486 11.236 37.4646 11.524C37.8806 11.812 38.3686 11.956 38.9286 11.956ZM48.5748 4.9C48.0068 4.9 47.5068 5.044 47.0748 5.332C46.6508 5.62 46.3228 6.032 46.0908 6.568C45.8588 7.096 45.7428 7.716 45.7428 8.428C45.7428 9.148 45.8548 9.776 46.0788 10.312C46.3028 10.84 46.6228 11.248 47.0388 11.536C47.4548 11.816 47.9428 11.956 48.5028 11.956C48.9348 11.956 49.3148 11.872 49.6428 11.704C49.9788 11.536 50.2908 11.292 50.5788 10.972V9.28H48.4548V8.008H51.9108V11.464C51.4708 12.04 50.9628 12.48 50.3868 12.784C49.8188 13.08 49.1908 13.228 48.5028 13.228C47.6628 13.228 46.9308 13.032 46.3068 12.64C45.6828 12.248 45.1988 11.692 44.8548 10.972C44.5188 10.244 44.3508 9.396 44.3508 8.428C44.3508 7.452 44.5228 6.604 44.8668 5.884C45.2108 5.156 45.6988 4.596 46.3308 4.204C46.9708 3.812 47.7188 3.616 48.5748 3.616C49.2788 3.616 49.9068 3.776 50.4588 4.096C51.0188 4.408 51.4668 4.84 51.8028 5.392L50.7228 6.148C50.4748 5.772 50.1548 5.472 49.7628 5.248C49.3788 5.016 48.9828 4.9 48.5748 4.9Z" fill="#13DDE2"/>
<g opacity="0.2">
<path d="M76.7724 76.6814H69.9909C65.7608 76.6814 62.3022 73.3118 62.3022 69.1906C62.3022 65.0695 65.7608 61.6999 69.9909 61.6999H76.7724C81.0024 61.6999 84.461 65.0695 84.461 69.1906C84.461 73.3118 81.0024 76.6814 76.7724 76.6814Z" fill="#4AFFF4"/>
<path d="M93.5394 22H83.0704V32.819H64.9296V22H54.4691C48.6962 22 44 26.5754 44 32.1996V43.5967C44 48.139 47.0687 52.0041 51.2987 53.309V64.2436C51.2987 74.0385 59.8858 82 70.4312 82H77.5688C88.1226 82 96.7013 74.0303 96.7013 64.2436V53.3173C100.931 52.0041 104 48.1473 104 43.605V32.1996C104 26.5754 99.3038 22 93.5394 22ZM49.4676 43.5967V32.1996C49.4676 29.5155 51.7056 27.3269 54.4691 27.3269H59.4705V43.5967C59.4705 46.2808 57.2326 48.4694 54.4691 48.4694C51.7056 48.4694 49.4676 46.2891 49.4676 43.5967ZM82.299 70.8589C81.375 73.4026 78.9082 75.2443 75.9836 75.2443H70.6346C67.7101 75.2443 65.2433 73.4026 64.3193 70.8589C64.0735 70.1817 63.9124 69.4549 63.9124 68.6951C63.9124 66.3166 65.4552 64.0619 67.4049 62.914L74 70.1404L79.7982 62.914C81.2817 64.1198 82.7143 66.6717 82.7143 68.6951C82.7059 69.4549 82.5448 70.1817 82.299 70.8589ZM91.2337 64.2519C91.2337 65.5237 91.0218 66.7543 90.6233 67.9188H88.1311C87.7157 61.733 82.4346 56.819 75.9836 56.819H70.6346C64.1837 56.819 58.9025 61.733 58.4871 67.9188H57.419C57.0122 66.7626 56.7663 65.5403 56.7663 64.2519V53.5403C61.4371 52.5162 64.9296 48.4529 64.9296 43.5967V38.1459H83.0704V43.5967C83.0704 48.4446 86.5714 52.5079 91.2337 53.5403V64.2519ZM98.5324 43.5967C98.5324 46.2808 96.2944 48.4694 93.5309 48.4694C90.7759 48.4694 88.5295 46.2891 88.5295 43.5967V27.3269H93.5309C96.286 27.3269 98.5324 29.5072 98.5324 32.1996V43.5967Z" fill="#242529"/>
</g>
</svg>
