<svg width="19" height="19" viewBox="0 0 19 19" fill="none" xmlns="http://www.w3.org/2000/svg">
<path d="M16.9747 3.99694C17.915 5.28903 18.1123 7.05074 17.329 8.56781C16.546 10.0852 14.9962 10.9447 13.3976 10.9267C12.457 9.63432 12.26 7.8732 13.0434 6.35583C13.8266 4.83847 15.3761 3.97891 16.9747 3.99694Z" fill="#4F4B48"/>
<path d="M13.3976 10.9267C12.457 9.63432 12.26 7.8732 13.0434 6.35583C13.8266 4.83847 15.3761 3.97891 16.9747 3.99694" fill="#33363A"/>
<path d="M13.4486 11.1503L13.3953 11.15C13.3605 11.1496 13.3262 11.1411 13.2953 11.1252C13.2644 11.1092 13.2376 11.0862 13.2171 11.0581C12.1877 9.64371 12.0452 7.80242 12.845 6.25317C13.6366 4.71972 15.196 3.773 16.9239 3.773L16.9773 3.7733C17.0479 3.77419 17.1139 3.80817 17.1555 3.86523C18.1849 5.27964 18.3274 7.12092 17.5276 8.67017C16.7363 10.2038 15.1766 11.1503 13.4486 11.1503ZM16.8592 4.22058C15.325 4.24383 13.9464 5.0934 13.2421 6.45834C12.5375 7.82314 12.6433 9.43914 13.5131 10.7031C15.0475 10.6798 16.4261 9.83025 17.1303 8.4653C17.835 7.10051 17.7291 5.48466 16.8592 4.22058Z" fill="#33363A"/>
<path d="M16.287 5.61428C16.8658 6.40932 16.9871 7.49356 16.5049 8.42746C16.0231 9.36136 15.0691 9.89059 14.0853 9.87927C13.5064 9.08393 13.3853 7.99999 13.8673 7.06609C14.3491 6.13204 15.303 5.60296 16.287 5.61428Z" fill="#EFA3CC"/>
<path d="M14.1174 10.1029L14.0828 10.1028C14.048 10.1024 14.0138 10.0938 13.9829 10.0779C13.952 10.0619 13.9252 10.039 13.9047 10.0108C13.252 9.11388 13.1617 7.94635 13.6689 6.96358C14.1707 5.99109 15.1594 5.39064 16.2551 5.39064L16.2897 5.39079C16.3245 5.3912 16.3587 5.39972 16.3896 5.41568C16.4205 5.43164 16.4473 5.4546 16.4678 5.48272C17.1207 6.37967 17.2109 7.5472 16.7036 8.52997C16.2017 9.50261 15.2131 10.1029 14.1174 10.1029ZM16.1711 5.83897C15.277 5.86862 14.4778 6.37043 14.066 7.1686C13.654 7.96647 13.7081 8.90886 14.2012 9.65473C15.0951 9.62508 15.8944 9.12327 16.3064 8.3251C16.7185 7.52693 16.6646 6.58484 16.1711 5.83897Z" fill="#33363A"/>
<path d="M2.02509 3.99694C1.08464 5.28903 0.887366 7.05074 1.67078 8.56781C2.45375 10.085 4.0036 10.9447 5.60202 10.9267C6.54262 9.63432 6.73959 7.8732 5.95648 6.35583C5.17336 4.83847 3.62351 3.97891 2.02509 3.99694Z" fill="#4F4B48"/>
<path d="M5.60232 10.9267C6.54292 9.63432 6.73989 7.8732 5.95677 6.35583C5.17366 4.83847 3.62396 3.97891 2.02539 3.99694" fill="#33363A"/>
<path d="M5.5514 11.1503C3.82321 11.1503 2.26398 10.2036 1.47252 8.67017C0.672561 7.12122 0.81515 5.27994 1.84471 3.86538C1.86522 3.83726 1.89201 3.81431 1.92294 3.79836C1.95387 3.7824 1.9881 3.77387 2.0229 3.77345L2.07624 3.77315C3.80444 3.77315 5.36367 4.71987 6.15528 6.25332C6.95494 7.80257 6.8122 9.64371 5.78294 11.0581C5.76243 11.0862 5.73564 11.1092 5.70471 11.1251C5.67378 11.1411 5.63955 11.1496 5.60474 11.15C5.58701 11.1503 5.56914 11.1503 5.5514 11.1503ZM2.14076 4.22058C1.27093 5.48466 1.16499 7.10066 1.86974 8.46516C2.57404 9.82995 3.95254 10.6795 5.48674 10.7031C6.35643 9.43914 6.46251 7.82314 5.75806 6.45834C5.05376 5.09355 3.67496 4.24398 2.14076 4.22058Z" fill="#33363A"/>
<path d="M2.71279 5.61428C2.13394 6.40932 2.01266 7.49356 2.49466 8.42746C2.97651 9.36136 3.93053 9.89059 4.91434 9.87927C5.49319 9.08393 5.61447 7.99999 5.13247 7.06609C4.65047 6.13204 3.69675 5.60296 2.71279 5.61428Z" fill="#EFA3CC"/>
<path d="M4.88264 10.1029C3.78693 10.1029 2.79835 9.50276 2.29638 8.52982C1.78905 7.54705 1.87949 6.37937 2.53239 5.48272C2.55287 5.45461 2.57963 5.43166 2.61054 5.4157C2.64145 5.39974 2.67566 5.39121 2.71044 5.39079L2.74501 5.39064C3.84072 5.39064 4.8293 5.99079 5.33126 6.96373C5.83844 7.94635 5.748 9.11388 5.09525 10.0108C5.07478 10.039 5.04802 10.0619 5.01711 10.0779C4.9862 10.0938 4.95199 10.1024 4.91721 10.1028L4.88264 10.1029ZM2.82889 5.83897C2.33542 6.58469 2.28148 7.52693 2.69345 8.32495C3.10528 9.12312 3.90478 9.62493 4.79861 9.65473C5.29208 8.90871 5.34601 7.96662 4.93404 7.16875C4.52222 6.37043 3.72271 5.86862 2.82889 5.83897Z" fill="#33363A"/>
<path d="M16.8318 11.4953C16.8318 14.5759 13.5491 17.0738 9.49987 17.0738C5.45048 17.0738 2.16797 14.5757 2.16797 11.4953C2.16797 8.41405 5.45048 4.7221 9.49987 4.7221C13.5491 4.7221 16.8318 8.41405 16.8318 11.4953Z" fill="#FBFCF2"/>
<path d="M16.8318 11.4953C16.8318 14.5759 13.5491 17.0738 9.49987 17.0738C5.45048 17.0738 2.16797 14.5757 2.16797 11.4953C2.16797 8.41405 5.45048 6.29117 9.49987 6.29117C13.5491 6.29117 16.8318 8.41405 16.8318 11.4953Z" fill="#EAE4C5"/>
<path d="M16.8318 11.4953C16.8318 14.5759 13.5491 17.0738 9.49987 17.0738C5.45048 17.0738 2.16797 14.5757 2.16797 11.4953C2.16797 8.41375 3.10098 14.2278 9.49987 14.2278C15.8989 14.2278 16.8318 8.41375 16.8318 11.4953Z" fill="#DDD2B1"/>
<path d="M9.49973 17.2973C5.33368 17.2973 1.94434 14.6945 1.94434 11.4953C1.94434 8.32614 5.31446 4.49861 9.49973 4.49861C13.685 4.49861 17.0551 8.32614 17.0551 11.4953C17.0551 14.6946 13.6658 17.2973 9.49973 17.2973ZM9.49973 4.94559C5.56209 4.94559 2.39132 8.52863 2.39132 11.4953C2.39132 14.4481 5.58011 16.8503 9.49973 16.8503C13.4193 16.8503 16.6081 14.4481 16.6081 11.4953C16.6081 8.52863 13.4374 4.94559 9.49973 4.94559Z" fill="#33363A"/>
<path d="M7.0918 11.1737C7.09182 11.3313 7.0608 11.4873 7.0005 11.6329C6.94021 11.7784 6.85182 11.9107 6.74039 12.0221C6.62897 12.1335 6.49669 12.2219 6.35111 12.2821C6.20553 12.3424 6.0495 12.3734 5.89194 12.3733C5.5738 12.3733 5.26869 12.2469 5.04373 12.022C4.81876 11.797 4.69238 11.4919 4.69238 11.1737C4.69238 10.8556 4.81876 10.5505 5.04373 10.3255C5.26869 10.1006 5.5738 9.97418 5.89194 9.97418C6.0495 9.97414 6.20551 10.0051 6.35109 10.0654C6.49666 10.1257 6.62893 10.214 6.74035 10.3254C6.85177 10.4368 6.94016 10.5691 7.00046 10.7146C7.06076 10.8602 7.0918 11.0162 7.0918 11.1737Z" fill="#A35616"/>
<path d="M4.80664 10.7838C4.80663 10.848 4.81926 10.9116 4.84381 10.9709C4.86837 11.0302 4.90436 11.0841 4.94975 11.1294C4.99513 11.1748 5.04901 11.2108 5.1083 11.2354C5.1676 11.26 5.23116 11.2726 5.29534 11.2726C5.35953 11.2726 5.42309 11.26 5.48239 11.2354C5.54168 11.2108 5.59556 11.1748 5.64094 11.1294C5.68633 11.0841 5.72232 11.0302 5.74688 10.9709C5.77143 10.9116 5.78406 10.848 5.78405 10.7838C5.78406 10.7196 5.77143 10.6561 5.74688 10.5968C5.72232 10.5375 5.68633 10.4836 5.64094 10.4382C5.59556 10.3928 5.54168 10.3568 5.48239 10.3322C5.42309 10.3077 5.35953 10.295 5.29534 10.295C5.23116 10.295 5.1676 10.3077 5.1083 10.3322C5.04901 10.3568 4.99513 10.3928 4.94975 10.4382C4.90436 10.4836 4.86837 10.5375 4.84381 10.5968C4.81926 10.6561 4.80663 10.7196 4.80664 10.7838Z" fill="white"/>
<path d="M5.8918 9.75068C5.40861 9.75068 4.98144 9.99325 4.72413 10.3626C4.70862 10.3841 4.69429 10.4063 4.68122 10.4294C4.54249 10.6529 4.4689 10.9107 4.46875 11.1737C4.46875 11.9585 5.10705 12.5968 5.8918 12.5968C6.67671 12.5968 7.31515 11.9585 7.31515 11.1737C7.31515 10.389 6.67671 9.75068 5.8918 9.75068ZM5.8918 12.1498C5.69912 12.1496 5.51079 12.0924 5.35051 11.9855C5.19022 11.8785 5.06514 11.7266 4.99098 11.5488C5.09349 11.5461 5.2182 11.519 5.35885 11.4898C5.40794 11.4855 5.45644 11.476 5.50352 11.4614C5.62555 11.4394 5.75577 11.4217 5.8918 11.4217C6.25133 11.4217 6.57301 11.5428 6.79292 11.5488C6.71868 11.7266 6.59353 11.8785 6.4332 11.9855C6.27288 12.0924 6.08452 12.1496 5.8918 12.1498Z" fill="#33363A"/>
<path d="M5.03027 10.784C5.03027 10.8543 5.05822 10.9218 5.10795 10.9715C5.15769 11.0212 5.22515 11.0492 5.29548 11.0492C5.36582 11.0492 5.43328 11.0212 5.48302 10.9715C5.53275 10.9218 5.5607 10.8543 5.5607 10.784C5.5607 10.7136 5.53275 10.6462 5.48302 10.5964C5.43328 10.5467 5.36582 10.5188 5.29548 10.5188C5.22515 10.5188 5.15769 10.5467 5.10795 10.5964C5.05822 10.6462 5.03027 10.7136 5.03027 10.784Z" fill="white"/>
<path d="M14.307 11.1737C14.307 11.3313 14.276 11.4873 14.2158 11.6328C14.1555 11.7784 14.0671 11.9106 13.9557 12.022C13.8443 12.1334 13.7121 12.2218 13.5665 12.2821C13.421 12.3423 13.265 12.3733 13.1074 12.3733C12.9499 12.3733 12.7939 12.3423 12.6483 12.2821C12.5027 12.2218 12.3705 12.1334 12.2591 12.022C12.1477 11.9107 12.0593 11.7784 11.999 11.6328C11.9387 11.4873 11.9077 11.3313 11.9077 11.1737C11.9077 11.0162 11.9387 10.8602 11.999 10.7146C12.0593 10.5691 12.1477 10.4368 12.2591 10.3254C12.3705 10.214 12.5027 10.1257 12.6483 10.0654C12.7939 10.0051 12.9499 9.97414 13.1074 9.97418C13.265 9.97416 13.421 10.0052 13.5665 10.0654C13.712 10.1257 13.8443 10.2141 13.9557 10.3255C14.0671 10.4369 14.1554 10.5691 14.2157 10.7147C14.276 10.8602 14.307 11.0162 14.307 11.1737Z" fill="#A35616"/>
<path d="M12.0225 10.7838C12.0224 10.848 12.0351 10.9116 12.0596 10.9709C12.0842 11.0302 12.1202 11.0841 12.1656 11.1294C12.2109 11.1748 12.2648 11.2108 12.3241 11.2354C12.3834 11.26 12.447 11.2726 12.5112 11.2726C12.5754 11.2726 12.6389 11.26 12.6982 11.2354C12.7575 11.2108 12.8114 11.1748 12.8568 11.1294C12.9021 11.0841 12.9381 11.0302 12.9627 10.9709C12.9872 10.9116 12.9999 10.848 12.9999 10.7838C12.9999 10.7196 12.9872 10.6561 12.9627 10.5968C12.9381 10.5375 12.9021 10.4836 12.8568 10.4382C12.8114 10.3928 12.7575 10.3568 12.6982 10.3322C12.6389 10.3077 12.5754 10.295 12.5112 10.295C12.447 10.295 12.3834 10.3077 12.3241 10.3322C12.2648 10.3568 12.2109 10.3928 12.1656 10.4382C12.1202 10.4836 12.0842 10.5375 12.0596 10.5968C12.0351 10.6561 12.0224 10.7196 12.0225 10.7838Z" fill="white"/>
<path d="M13.1076 9.75068C12.6252 9.75068 12.1986 9.9925 11.9411 10.3608C11.9243 10.3833 11.9097 10.407 11.8957 10.4314C11.7578 10.6544 11.6847 10.9114 11.6846 11.1736C11.6846 11.9583 12.323 12.5966 13.1078 12.5966C13.8925 12.5966 14.5308 11.9583 14.5308 11.1736C14.5308 10.3888 13.8922 9.75068 13.1076 9.75068ZM13.1076 12.1498C12.9149 12.1496 12.7266 12.0924 12.5663 11.9855C12.406 11.8785 12.2809 11.7266 12.2066 11.5488C12.3092 11.5461 12.4339 11.519 12.5744 11.4898C12.6244 11.4853 12.6727 11.4759 12.7193 11.4614C12.8412 11.4394 12.9716 11.4217 13.1076 11.4217C13.467 11.4217 13.7887 11.5428 14.0084 11.5488C13.9343 11.7266 13.8092 11.8785 13.6489 11.9854C13.4886 12.0924 13.3003 12.1496 13.1076 12.1498Z" fill="#33363A"/>
<path d="M12.2461 10.784C12.2461 10.8188 12.2529 10.8533 12.2663 10.8855C12.2796 10.9177 12.2991 10.9469 12.3237 10.9715C12.3484 10.9962 12.3776 11.0157 12.4098 11.0291C12.442 11.0424 12.4765 11.0492 12.5113 11.0492C12.5461 11.0492 12.5806 11.0424 12.6128 11.0291C12.645 11.0157 12.6742 10.9962 12.6989 10.9715C12.7235 10.9469 12.743 10.9177 12.7563 10.8855C12.7697 10.8533 12.7765 10.8188 12.7765 10.784C12.7765 10.7491 12.7697 10.7146 12.7563 10.6825C12.743 10.6503 12.7235 10.621 12.6989 10.5964C12.6742 10.5718 12.645 10.5522 12.6128 10.5389C12.5806 10.5255 12.5461 10.5187 12.5113 10.5187C12.4765 10.5187 12.442 10.5255 12.4098 10.5389C12.3776 10.5522 12.3484 10.5718 12.3237 10.5964C12.2991 10.621 12.2796 10.6503 12.2663 10.6825C12.2529 10.7146 12.2461 10.7491 12.2461 10.784Z" fill="white"/>
<path d="M11.9179 12.6258C11.9179 12.8331 10.8353 12.8703 9.49988 12.8703C8.16429 12.8703 7.08154 12.8331 7.08154 12.6258C7.08154 12.4183 8.16444 11.8762 9.49988 11.8762C10.8355 11.8762 11.9179 12.4183 11.9179 12.6258Z" fill="#FBFCF2"/>
<path d="M15.6838 12.6957L18.653 10.404L15.23 11.3838" fill="#EAE4C5"/>
<path d="M15.684 12.9192C15.6374 12.9193 15.5918 12.9047 15.5539 12.8775C15.5159 12.8504 15.4874 12.8121 15.4723 12.7679C15.4573 12.7237 15.4564 12.6759 15.4699 12.6312C15.4833 12.5866 15.5104 12.5472 15.5474 12.5187L17.5929 10.9398L15.2916 11.5987C15.2633 11.6069 15.2337 11.6095 15.2044 11.6063C15.1751 11.6031 15.1468 11.5941 15.121 11.5799C15.0952 11.5657 15.0725 11.5465 15.0541 11.5235C15.0357 11.5004 15.0221 11.474 15.014 11.4457C15.0059 11.4174 15.0035 11.3877 15.0069 11.3585C15.0102 11.3292 15.0194 11.3009 15.0337 11.2752C15.0481 11.2495 15.0674 11.2269 15.0905 11.2086C15.1136 11.1904 15.1401 11.1769 15.1685 11.169L18.5917 10.1892C18.6416 10.1749 18.6951 10.1784 18.7427 10.1992C18.7904 10.22 18.8293 10.2568 18.8527 10.3032C18.8762 10.3496 18.8827 10.4028 18.8712 10.4535C18.8597 10.5042 18.8309 10.5493 18.7897 10.581L15.8204 12.8726C15.7814 12.9028 15.7334 12.9193 15.684 12.9192Z" fill="#33363A"/>
<path d="M3.316 12.6957L0.34668 10.404L3.76984 11.3838" fill="#EAE4C5"/>
<path d="M3.31576 12.9192C3.26808 12.9192 3.21995 12.904 3.17943 12.8726L0.210105 10.5809C0.168921 10.5491 0.140093 10.504 0.128587 10.4533C0.117081 10.4026 0.123617 10.3495 0.147068 10.3031C0.17052 10.2567 0.20942 10.2199 0.257069 10.1991C0.304718 10.1783 0.358134 10.1747 0.408119 10.189L3.83128 11.1688C3.88797 11.1854 3.9358 11.2237 3.96431 11.2755C3.99282 11.3272 3.99969 11.3881 3.98343 11.4449C3.96717 11.5017 3.92909 11.5497 3.87752 11.5785C3.82595 11.6073 3.76508 11.6145 3.70821 11.5985L1.40668 10.9398L3.45224 12.5187C3.48919 12.5472 3.5163 12.5865 3.52977 12.6312C3.54324 12.6759 3.54239 12.7236 3.52734 12.7678C3.51229 12.812 3.48379 12.8503 3.44585 12.8775C3.40791 12.9046 3.36242 12.9192 3.31576 12.9192Z" fill="#33363A"/>
<path d="M15.7671 12.7041L18.7765 15.0266L15.3071 14.0334" fill="#DDD2B1"/>
<path d="M18.7765 15.2501C18.7561 15.2501 18.7355 15.2473 18.7149 15.2415L15.2457 14.2483C15.1891 14.2317 15.1412 14.1933 15.1127 14.1416C15.0842 14.0899 15.0773 14.029 15.0936 13.9722C15.1099 13.9154 15.1479 13.8674 15.1995 13.8386C15.2511 13.8098 15.3119 13.8026 15.3688 13.8185L17.7162 14.4907L15.6308 12.8811C15.6075 12.8631 15.588 12.8408 15.5734 12.8153C15.5588 12.7899 15.5494 12.7618 15.5456 12.7327C15.5419 12.7036 15.5439 12.674 15.5516 12.6457C15.5593 12.6174 15.5724 12.5908 15.5904 12.5676C15.6083 12.5444 15.6306 12.5249 15.6561 12.5103C15.6816 12.4957 15.7096 12.4862 15.7388 12.4825C15.7679 12.4787 15.7974 12.4807 15.8258 12.4884C15.8541 12.4961 15.8806 12.5093 15.9039 12.5272L18.9131 14.8497C18.95 14.8783 18.9771 14.9176 18.9905 14.9623C19.0039 15.0069 19.003 15.0547 18.988 15.0988C18.9729 15.1429 18.9444 15.1812 18.9065 15.2084C18.8686 15.2355 18.8231 15.2501 18.7765 15.2501Z" fill="#33363A"/>
<path d="M3.23289 12.7041L0.223633 15.0266L3.69268 14.0334" fill="#DDD2B1"/>
<path d="M0.223332 15.2501C0.176712 15.2501 0.131269 15.2354 0.0933657 15.2083C0.0554626 15.1812 0.0269969 15.1428 0.011954 15.0987C-0.00308883 15.0546 -0.00395575 15.0069 0.00947464 14.9622C0.022905 14.9176 0.0499603 14.8782 0.0868526 14.8497L3.09611 12.5272C3.14303 12.491 3.20242 12.4749 3.26121 12.4825C3.32 12.49 3.37337 12.5207 3.40959 12.5676C3.44581 12.6145 3.4619 12.6739 3.45433 12.7327C3.44676 12.7915 3.41614 12.8449 3.36921 12.8811L1.28373 14.4905L3.63085 13.8184C3.68772 13.8024 3.74859 13.8097 3.80016 13.8384C3.85173 13.8672 3.8898 13.9153 3.90607 13.9721C3.92233 14.0288 3.91545 14.0897 3.88694 14.1415C3.85843 14.1932 3.81061 14.2315 3.75392 14.2481L0.284867 15.2413C0.26489 15.2472 0.244161 15.2502 0.223332 15.2501Z" fill="#33363A"/>
<path d="M13.1695 6.59676L13.2643 2.84744L11.8652 6.12161" fill="#EAE4C5"/>
<path d="M13.1701 6.82025H13.1643C13.105 6.81869 13.0488 6.79368 13.0079 6.75072C12.9671 6.70776 12.945 6.65035 12.9464 6.59109L13.0118 4.00812L12.0711 6.20937C12.0596 6.2364 12.0429 6.2609 12.0219 6.28145C12.0009 6.302 11.9761 6.31821 11.9488 6.32913C11.9216 6.34006 11.8924 6.34548 11.863 6.34511C11.8337 6.34473 11.8047 6.33855 11.7777 6.32693C11.7507 6.3154 11.7263 6.29866 11.7057 6.27767C11.6852 6.25668 11.669 6.23185 11.6581 6.20461C11.6472 6.17736 11.6418 6.14823 11.6421 6.11888C11.6425 6.08953 11.6486 6.06053 11.6601 6.03355L13.0594 2.75939C13.0799 2.71171 13.1164 2.67264 13.1625 2.64883C13.2086 2.62503 13.2616 2.61797 13.3124 2.62887C13.3631 2.63996 13.4085 2.6684 13.4406 2.70929C13.4727 2.75018 13.4896 2.80098 13.4883 2.85296L13.3934 6.60242C13.3919 6.66065 13.3677 6.71599 13.326 6.75667C13.2842 6.79734 13.2283 6.82015 13.1701 6.82025Z" fill="#33363A"/>
<path d="M5.83026 6.59676L5.73535 2.84744L7.13456 6.12161" fill="#EAE4C5"/>
<path d="M5.83005 6.82025C5.77177 6.82023 5.7158 6.79744 5.67408 6.75675C5.63236 6.71606 5.60818 6.66068 5.6067 6.60242L5.51179 2.85311C5.51044 2.80113 5.52726 2.7503 5.55934 2.70939C5.59143 2.66847 5.63678 2.64002 5.68758 2.62894C5.73838 2.61786 5.79146 2.62484 5.83767 2.64868C5.88388 2.67251 5.92033 2.71172 5.94075 2.75954L7.33996 6.0337C7.35153 6.06068 7.35766 6.08968 7.35801 6.11903C7.35835 6.14838 7.35291 6.17751 7.342 6.20476C7.33108 6.232 7.3149 6.25683 7.29438 6.27782C7.27386 6.29881 7.2494 6.31555 7.22241 6.32708C7.19543 6.3387 7.16643 6.34488 7.13707 6.34526C7.1077 6.34563 7.07855 6.34021 7.05128 6.32928C7.02402 6.31836 6.99919 6.30215 6.97821 6.2816C6.95723 6.26105 6.94052 6.23655 6.92904 6.20952L5.98828 4.00812L6.05369 6.59109C6.05517 6.65036 6.03306 6.70779 5.99221 6.75076C5.95136 6.79373 5.89513 6.81873 5.83586 6.82025H5.83005Z" fill="#33363A"/>
<path d="M11.8145 7.31208C11.8145 8.39349 10.9374 9.27032 9.85598 9.27032H9.14409C8.06238 9.27032 7.18555 8.39349 7.18555 7.31208V3.8849C7.18555 2.80319 8.06238 1.92621 9.14409 1.92621H9.85598C10.9374 1.92621 11.8145 2.80334 11.8145 3.8849V7.31208Z" fill="#FFD039"/>
<path d="M9.85598 3.05991H9.14409C8.06238 3.05991 7.18555 3.93705 7.18555 5.01875V7.31208C7.18555 8.39349 8.06238 9.27032 9.14409 9.27032H9.85598C10.9374 9.27032 11.8145 8.39349 11.8145 7.31208V5.0186C11.8145 3.9369 10.9374 3.05991 9.85598 3.05991Z" fill="#FFB000"/>
<path d="M11.6369 3.9588C11.6369 4.09438 11.5271 4.20434 11.3917 4.20434H7.43883C7.37375 4.20434 7.31133 4.17849 7.26531 4.13247C7.21929 4.08645 7.19343 4.02403 7.19343 3.95895C7.19343 3.89387 7.21929 3.83145 7.26531 3.78543C7.31133 3.73941 7.37375 3.71355 7.43883 3.71355H11.3917C11.4567 3.71359 11.5191 3.73944 11.565 3.78543C11.611 3.83141 11.6369 3.89377 11.6369 3.9588ZM11.6369 5.25491C11.6369 5.39049 11.5271 5.50045 11.3917 5.50045H7.43883C7.37375 5.50045 7.31133 5.4746 7.26531 5.42858C7.21929 5.38256 7.19343 5.32014 7.19343 5.25506C7.19343 5.18997 7.21929 5.12756 7.26531 5.08154C7.31133 5.03552 7.37375 5.00966 7.43883 5.00966H11.3917C11.527 5.00966 11.6369 5.11962 11.6369 5.25491ZM11.6369 6.67438C11.6369 6.80997 11.5271 6.92008 11.3917 6.92008H7.43883C7.37373 6.92008 7.31129 6.89421 7.26526 6.84818C7.21922 6.80215 7.19336 6.73971 7.19336 6.67461C7.19336 6.6095 7.21922 6.54707 7.26526 6.50103C7.31129 6.455 7.37373 6.42914 7.43883 6.42914H11.3917C11.527 6.42914 11.6369 6.5391 11.6369 6.67438ZM11.6369 8.09401C11.6369 8.22959 11.5271 8.33955 11.3917 8.33955H7.43883C7.37375 8.33955 7.31133 8.3137 7.26531 8.26768C7.21929 8.22166 7.19343 8.15924 7.19343 8.09416C7.19343 8.02907 7.21929 7.96666 7.26531 7.92064C7.31133 7.87462 7.37375 7.84876 7.43883 7.84876H11.3917C11.4567 7.8488 11.5191 7.87465 11.565 7.92064C11.611 7.96662 11.6369 8.02898 11.6369 8.09401Z" fill="#EA7B1F"/>
<path d="M9.85584 9.49367H9.14395C7.94081 9.49367 6.96191 8.51507 6.96191 7.31193V3.8849C6.96191 2.68161 7.94066 1.70272 9.14395 1.70272H9.85584C11.059 1.70272 12.0379 2.68161 12.0379 3.8849V7.31208C12.0379 8.51507 11.0591 9.49367 9.85584 9.49367ZM9.14395 2.14955C8.18725 2.14955 7.4089 2.92805 7.4089 3.88475V7.31193C7.4089 8.26848 8.18725 9.04668 9.14395 9.04668H9.85584C10.8125 9.04668 11.5909 8.26848 11.5909 7.31193V3.8849C11.5909 2.92805 10.8125 2.1497 9.85584 2.1497H9.14395V2.14955Z" fill="#33363A"/>
<path d="M8.18677 3.81353H8.04478C7.98551 3.81353 7.92866 3.78998 7.88675 3.74807C7.84484 3.70616 7.82129 3.64931 7.82129 3.59004C7.82129 3.53076 7.84484 3.47392 7.88675 3.432C7.92866 3.39009 7.98551 3.36654 8.04478 3.36654H8.18677C8.24605 3.36654 8.30289 3.39009 8.34481 3.432C8.38672 3.47392 8.41027 3.53076 8.41027 3.59004C8.41027 3.64931 8.38672 3.70616 8.34481 3.74807C8.30289 3.78998 8.24605 3.81353 8.18677 3.81353ZM10.9548 3.81353H10.813C10.7537 3.81353 10.6968 3.78998 10.6549 3.74807C10.613 3.70616 10.5895 3.64931 10.5895 3.59004C10.5895 3.53076 10.613 3.47392 10.6549 3.432C10.6968 3.39009 10.7537 3.36654 10.813 3.36654H10.9548C11.0141 3.36654 11.0709 3.39009 11.1128 3.432C11.1548 3.47392 11.1783 3.53076 11.1783 3.59004C11.1783 3.64931 11.1548 3.70616 11.1128 3.74807C11.0709 3.78998 11.0141 3.81353 10.9548 3.81353ZM10.121 3.81353H8.87886C8.81958 3.81353 8.76274 3.78998 8.72082 3.74807C8.67891 3.70616 8.65536 3.64931 8.65536 3.59004C8.65536 3.53076 8.67891 3.47392 8.72082 3.432C8.76274 3.39009 8.81958 3.36654 8.87886 3.36654H10.121C10.1803 3.36654 10.2371 3.39009 10.2791 3.432C10.321 3.47392 10.3445 3.53076 10.3445 3.59004C10.3445 3.64931 10.321 3.70616 10.2791 3.74807C10.2371 3.78998 10.1803 3.81353 10.121 3.81353ZM8.18677 5.23315H8.04478C7.98552 5.23314 7.92869 5.20958 7.88679 5.16767C7.84489 5.12576 7.82135 5.06892 7.82135 5.00966C7.82135 4.9504 7.84489 4.89356 7.88679 4.85165C7.92869 4.80974 7.98552 4.78619 8.04478 4.78617H8.18677C8.24604 4.78619 8.30287 4.80974 8.34477 4.85165C8.38666 4.89356 8.4102 4.9504 8.4102 5.00966C8.4102 5.06892 8.38666 5.12576 8.34477 5.16767C8.30287 5.20958 8.24604 5.23314 8.18677 5.23315ZM10.9548 5.23315H10.813C10.7537 5.23314 10.6969 5.20958 10.655 5.16767C10.6131 5.12576 10.5895 5.06892 10.5895 5.00966C10.5895 4.9504 10.6131 4.89356 10.655 4.85165C10.6969 4.80974 10.7537 4.78619 10.813 4.78617H10.9548C11.0141 4.78619 11.0709 4.80974 11.1128 4.85165C11.1547 4.89356 11.1782 4.9504 11.1782 5.00966C11.1782 5.06892 11.1547 5.12576 11.1128 5.16767C11.0709 5.20958 11.0141 5.23314 10.9548 5.23315Z" fill="#33363A"/>
<path d="M10.1209 5.23315H8.8787C8.81944 5.23314 8.76261 5.20958 8.72071 5.16767C8.67881 5.12576 8.65527 5.06892 8.65527 5.00966C8.65527 4.9504 8.67881 4.89356 8.72071 4.85165C8.76261 4.80974 8.81944 4.78619 8.8787 4.78617H10.1209C10.1801 4.78619 10.237 4.80974 10.2789 4.85165C10.3208 4.89356 10.3443 4.9504 10.3443 5.00966C10.3443 5.06892 10.3208 5.12576 10.2789 5.16767C10.237 5.20958 10.1801 5.23314 10.1209 5.23315Z" fill="#33363A"/>
<path d="M8.18671 6.65263H8.04472C7.98545 6.65261 7.92862 6.62906 7.88673 6.58715C7.84483 6.54524 7.82129 6.4884 7.82129 6.42914C7.82129 6.36987 7.84483 6.31304 7.88673 6.27113C7.92862 6.22922 7.98545 6.20566 8.04472 6.20565H8.18671C8.24597 6.20566 8.3028 6.22922 8.3447 6.27113C8.3866 6.31304 8.41014 6.36987 8.41014 6.42914C8.41014 6.4884 8.3866 6.54524 8.3447 6.58715C8.3028 6.62906 8.24597 6.65261 8.18671 6.65263ZM10.9547 6.65263H10.8129C10.7536 6.65261 10.6968 6.62906 10.6549 6.58715C10.613 6.54524 10.5895 6.4884 10.5895 6.42914C10.5895 6.36987 10.613 6.31304 10.6549 6.27113C10.6968 6.22922 10.7536 6.20566 10.8129 6.20565H10.9547C11.014 6.20566 11.0708 6.22922 11.1127 6.27113C11.1546 6.31304 11.1782 6.36987 11.1782 6.42914C11.1782 6.4884 11.1546 6.54524 11.1127 6.58715C11.0708 6.62906 11.014 6.65261 10.9547 6.65263Z" fill="#33363A"/>
<path d="M10.1209 6.65263H8.8787C8.81944 6.65261 8.76261 6.62906 8.72071 6.58715C8.67881 6.54524 8.65527 6.4884 8.65527 6.42914C8.65527 6.36987 8.67881 6.31304 8.72071 6.27113C8.76261 6.22922 8.81944 6.20566 8.8787 6.20565H10.1209C10.1801 6.20566 10.237 6.22922 10.2789 6.27113C10.3208 6.31304 10.3443 6.36987 10.3443 6.42914C10.3443 6.4884 10.3208 6.54524 10.2789 6.58715C10.237 6.62906 10.1801 6.65261 10.1209 6.65263Z" fill="#33363A"/>
<path d="M8.18677 8.07211H8.04478C7.98551 8.07211 7.92866 8.04856 7.88675 8.00665C7.84484 7.96473 7.82129 7.90789 7.82129 7.84861C7.82129 7.78934 7.84484 7.73249 7.88675 7.69058C7.92866 7.64867 7.98551 7.62512 8.04478 7.62512H8.18677C8.24605 7.62512 8.30289 7.64867 8.34481 7.69058C8.38672 7.73249 8.41027 7.78934 8.41027 7.84861C8.41027 7.90789 8.38672 7.96473 8.34481 8.00665C8.30289 8.04856 8.24605 8.07211 8.18677 8.07211ZM10.9548 8.07211H10.813C10.7537 8.07211 10.6968 8.04856 10.6549 8.00665C10.613 7.96473 10.5895 7.90789 10.5895 7.84861C10.5895 7.78934 10.613 7.73249 10.6549 7.69058C10.6968 7.64867 10.7537 7.62512 10.813 7.62512H10.9548C11.0141 7.62512 11.0709 7.64867 11.1128 7.69058C11.1548 7.73249 11.1783 7.78934 11.1783 7.84861C11.1783 7.90789 11.1548 7.96473 11.1128 8.00665C11.0709 8.04856 11.0141 8.07211 10.9548 8.07211Z" fill="#33363A"/>
<path d="M10.1209 8.07211H8.87877C8.81949 8.07211 8.76265 8.04856 8.72073 8.00665C8.67882 7.96473 8.65527 7.90789 8.65527 7.84861C8.65527 7.78934 8.67882 7.73249 8.72073 7.69058C8.76265 7.64867 8.81949 7.62512 8.87877 7.62512H10.1209C10.1802 7.62512 10.2371 7.64867 10.279 7.69058C10.3209 7.73249 10.3444 7.78934 10.3444 7.84861C10.3444 7.90789 10.3209 7.96473 10.279 8.00665C10.2371 8.04856 10.1802 8.07211 10.1209 8.07211Z" fill="#33363A"/>
<path d="M12.6105 12.8766C12.5512 12.8766 12.4944 12.9001 12.4525 12.9421C12.4106 12.984 12.387 13.0408 12.387 13.1001C12.387 13.1594 12.4106 13.2162 12.4525 13.2581C12.4944 13.3 12.5512 13.3236 12.6105 13.3236C12.7748 13.3236 12.9085 13.4572 12.9085 13.6216C12.9085 13.7859 12.7748 13.9196 12.6105 13.9196H6.38951C6.22516 13.9196 6.09152 13.7859 6.09152 13.6216C6.09152 13.4572 6.22516 13.3236 6.38951 13.3236C6.44878 13.3236 6.50563 13.3 6.54754 13.2581C6.58945 13.2162 6.613 13.1594 6.613 13.1001C6.613 13.0408 6.58945 12.984 6.54754 12.9421C6.50563 12.9001 6.44878 12.8766 6.38951 12.8766C5.97873 12.8766 5.64453 13.2108 5.64453 13.6216C5.64453 14.0324 5.97873 14.3666 6.38951 14.3666H6.55742V14.6154C6.55742 14.6746 6.58097 14.7315 6.62288 14.7734C6.6648 14.8153 6.72164 14.8389 6.78092 14.8389C6.84019 14.8389 6.89704 14.8153 6.93895 14.7734C6.98086 14.7315 7.00441 14.6746 7.00441 14.6154V14.3666H11.9957V14.6154C11.9957 14.6746 12.0193 14.7315 12.0612 14.7734C12.1031 14.8153 12.16 14.8389 12.2192 14.8389C12.2785 14.8389 12.3354 14.8153 12.3773 14.7734C12.4192 14.7315 12.4427 14.6746 12.4427 14.6154V14.3666H12.6105C13.0213 14.3666 13.3555 14.0324 13.3555 13.6216C13.3555 13.2108 13.0213 12.8766 12.6105 12.8766Z" fill="#33363A"/>
</svg>
