<svg width="32" height="32" viewBox="0 0 32 32" fill="none" xmlns="http://www.w3.org/2000/svg">
<path d="M8.64072 19.6031C11.1938 18.9375 13.047 14.8344 17.6845 17C22.322 19.1656 22.8938 18.8844 24.6376 18.2594C26.3813 17.6344 28.7188 16.2469 28.7188 16.2469C28.7188 16.2469 30.1188 20.8313 29.7095 22.2219C29.297 23.6125 25.4188 27.7844 25.4188 27.7844C25.4188 27.7844 15.7345 30.5844 13.9688 29.325C12.2032 28.0656 6.1251 27.6469 4.38447 25.2C2.4126 22.4281 2.4126 18.1781 2.4126 18.1781C2.4126 18.1781 5.73135 20.3594 8.64072 19.6031Z" fill="#C7E94E"/>
<path d="M15.9061 30.2C11.8311 30.2 8.32168 29.3531 5.75918 27.7469C2.89356 25.9531 1.37793 23.3062 1.37793 20.0875C1.37793 18.9219 1.5748 17.7187 1.96543 16.5125C2.34355 15.3437 2.89043 14.1969 3.59668 13.1062C5.00293 10.9281 6.91543 9.11874 9.1373 7.86874C9.25293 7.69999 9.40605 7.56562 9.54668 7.44062C9.59043 7.39999 9.6373 7.36249 9.67793 7.32187C9.7873 7.06249 10.0498 6.45937 10.3748 5.84062C11.0717 4.51562 11.6248 3.91562 12.2279 3.83437C12.5967 3.78437 12.9436 3.93437 13.1842 4.24687C13.3061 4.40624 13.4248 4.54687 13.5404 4.66874C13.5717 4.54374 13.6061 4.41562 13.6404 4.28437C13.9967 3.00312 14.4217 2.25937 14.9779 1.94374C15.3217 1.74687 15.7123 1.72499 16.0779 1.87499C16.9592 2.23749 17.4467 2.80312 17.7404 3.38124C18.0373 2.97812 18.3623 2.60312 18.8748 2.60312H18.8873C19.2561 2.60624 19.5779 2.80937 19.8467 3.20624C20.0092 3.44687 20.2436 3.82812 20.5404 4.31249C21.3092 5.56562 22.4686 7.45624 23.2342 8.19999C27.5467 10.8812 30.4373 15.6469 30.4373 20.0875C30.4373 23.3031 28.9217 25.9531 26.0561 27.7469C23.4904 29.3531 19.9811 30.2 15.9061 30.2ZM10.3654 8.62812L10.3311 8.84687L10.0217 9.01562C5.7748 11.3281 2.80918 15.8812 2.80918 20.0906C2.80918 22.825 4.05605 24.9937 6.51855 26.5344C8.85605 27.9969 12.1029 28.7687 15.9061 28.7687C19.7123 28.7687 22.9561 27.9969 25.2936 26.5344C27.7561 24.9937 29.0029 22.825 29.0029 20.0906C29.0029 16.0969 26.3498 11.7875 22.3998 9.36874L22.2686 9.28749L22.2092 9.20312C21.3154 8.32187 20.1654 6.44374 19.3186 5.06249C19.1404 4.76874 18.9748 4.50312 18.8436 4.29374C18.8248 4.31874 18.8061 4.34374 18.7904 4.36562C18.5779 4.65937 18.3154 5.02499 17.9623 5.35312L17.0748 6.16874L16.7811 4.99999C16.5686 4.14374 16.3779 3.58749 15.6248 3.24062C15.5217 3.35624 15.2811 3.70937 15.0123 4.67499C14.8061 5.41562 14.7029 6.10624 14.6998 6.11562L14.5436 7.16562L13.6311 6.62812C13.5592 6.58437 12.9748 6.22812 12.2998 5.44062C12.1436 5.63437 11.8967 5.99687 11.5529 6.66874C11.2029 7.35312 10.9436 7.99062 10.9404 7.99687L10.8936 8.11249L10.8123 8.20624C10.7061 8.32499 10.5904 8.42812 10.4873 8.51874C10.4561 8.54687 10.4029 8.59062 10.3654 8.62812Z" fill="#333333"/>
<path d="M12.9314 9.9625C12.7408 10.3125 12.5564 10.6594 12.3877 11.0063C12.3439 11.0938 12.3033 11.1781 12.2627 11.2656C12.2221 11.3531 12.1814 11.4375 12.1439 11.525C12.1033 11.6094 12.0658 11.6969 12.0283 11.7812L11.9721 11.9094L11.9189 12.0375C11.8471 12.2063 11.8096 12.3938 11.7689 12.5688C11.7564 12.6125 11.7471 12.6562 11.7346 12.6969C11.7221 12.7375 11.7033 12.7781 11.6877 12.8188C11.6721 12.8563 11.6502 12.8969 11.6283 12.9312C11.6064 12.9687 11.5846 13.0031 11.5564 13.0375C11.4564 13.1781 11.3346 13.3125 11.1939 13.45C11.0502 13.5875 10.8939 13.7312 10.6689 13.9L10.6658 13.9031C10.6221 13.9344 10.5596 13.9281 10.5252 13.8875C10.3408 13.6687 10.2564 13.4281 10.2127 13.1906C10.1721 12.9531 10.1846 12.7188 10.2283 12.5C10.2721 12.2781 10.3721 12.0813 10.5096 11.9125C10.5439 11.8719 10.5814 11.8281 10.6158 11.7875L10.7283 11.6687L10.8377 11.55C10.8721 11.5094 10.9064 11.4687 10.9408 11.4312L11.0439 11.3125L11.1471 11.1969C11.2189 11.1219 11.2908 11.0469 11.3627 10.975C11.4377 10.9031 11.5127 10.8312 11.5877 10.7625C11.6658 10.6937 11.7439 10.6281 11.8221 10.5625C11.9814 10.4312 12.1408 10.3063 12.3096 10.1906C12.4752 10.0719 12.6471 9.9625 12.8283 9.8625C12.8627 9.84375 12.9096 9.85625 12.9283 9.89062C12.9471 9.9125 12.9439 9.9375 12.9314 9.9625ZM15.5846 9.32812C15.6908 9.475 15.7908 9.62187 15.8846 9.775C15.9783 9.925 16.0689 10.0813 16.1533 10.2375L16.2783 10.4719C16.3189 10.55 16.3596 10.6313 16.3971 10.7094C16.4346 10.7906 16.4721 10.8719 16.5064 10.9531C16.5408 11.0344 16.5752 11.1156 16.6096 11.2C16.6439 11.2812 16.6814 11.3656 16.7252 11.4469C16.7658 11.5281 16.8127 11.6125 16.8502 11.6969C16.8877 11.7812 16.9158 11.8688 16.9346 11.9594C16.9408 12.0031 16.9471 12.05 16.9471 12.0969C16.9471 12.1438 16.9471 12.1906 16.9408 12.2375C16.9221 12.4281 16.8752 12.6219 16.7814 12.8156C16.7689 12.8406 16.7564 12.8656 16.7439 12.8875C16.7314 12.9125 16.7189 12.9344 16.7033 12.9594C16.6752 13.0063 16.6408 13.0563 16.6064 13.1C16.5689 13.1469 16.5283 13.1906 16.4846 13.2344C16.4627 13.2562 16.4377 13.2781 16.4127 13.2969C16.3846 13.3156 16.3596 13.3375 16.3314 13.3531C16.2877 13.3812 16.2314 13.3719 16.1939 13.3375L16.1877 13.3313C16.1627 13.3063 16.1439 13.2844 16.1189 13.2625C16.1002 13.2406 16.0814 13.2188 16.0596 13.2C16.0189 13.1562 15.9846 13.1188 15.9502 13.0781C15.9158 13.0375 15.8846 13 15.8533 12.9656C15.8377 12.9469 15.8221 12.9281 15.8096 12.9094C15.7971 12.8906 15.7814 12.8719 15.7689 12.8531C15.6627 12.7062 15.5814 12.5625 15.5189 12.4125C15.5033 12.375 15.4908 12.3375 15.4814 12.3C15.4689 12.2625 15.4627 12.225 15.4564 12.1844C15.4439 12.1062 15.4471 12.025 15.4533 11.9438C15.4596 11.8625 15.4721 11.775 15.4814 11.6906C15.4908 11.6063 15.4939 11.5219 15.4908 11.4375L15.4721 10.9312L15.4596 10.4156C15.4533 10.0687 15.4439 9.71875 15.4471 9.3625C15.4471 9.32188 15.4814 9.2875 15.5221 9.2875C15.5471 9.29688 15.5689 9.30937 15.5846 9.32812ZM18.8471 9.14375C18.7877 9.125 18.7283 9.10625 18.6752 9.09375C18.6627 9.09063 18.6502 9.0875 18.6408 9.0875C18.6377 9.0875 18.6314 9.0875 18.6408 9.09062H18.6689C18.6689 9.09062 18.6752 9.09062 18.6814 9.0875C18.6939 9.08437 18.7064 9.07812 18.7158 9.07187C18.7189 9.06875 18.7283 9.0625 18.7346 9.05625C18.7408 9.05 18.7471 9.04063 18.7533 9.03438C18.7596 9.025 18.7627 9.01562 18.7658 9.00937C18.7689 9.00312 18.7689 9 18.7689 8.99375C18.7721 8.98125 18.7721 8.97188 18.7689 8.95938C18.7689 8.95 18.7658 8.94375 18.7658 8.93437C18.7658 8.93125 18.7658 8.92813 18.7627 8.925V8.92188C18.7658 8.92188 18.7689 8.925 18.7721 8.92813L18.8033 8.95C18.8939 9.0125 19.0033 9.08125 19.1064 9.14375C19.3158 9.27188 19.5283 9.40313 19.7377 9.5375L20.0533 9.74063L20.3658 9.94687C20.4689 10.0187 20.5721 10.0875 20.6721 10.1625L20.9752 10.3844C21.0752 10.4594 21.1814 10.5313 21.2877 10.6C21.3939 10.6688 21.5033 10.7375 21.6096 10.8125C21.7158 10.8875 21.8158 10.9687 21.9033 11.0594C21.9939 11.15 22.0752 11.2531 22.1471 11.3656C22.2908 11.5875 22.4158 11.8344 22.4971 12.1187C22.5158 12.1906 22.5346 12.2625 22.5471 12.3375C22.5596 12.4125 22.5689 12.4906 22.5721 12.5719C22.5752 12.6531 22.5721 12.7375 22.5564 12.825C22.5408 12.9094 22.5127 13.0031 22.4564 13.0781C22.4283 13.1156 22.3752 13.1219 22.3377 13.0906C22.3346 13.0906 22.3346 13.0875 22.3314 13.0875L22.3127 13.0688C22.2596 13.0188 22.2064 12.9906 22.1533 12.9594C22.1002 12.9313 22.0471 12.9031 21.9908 12.875L21.8314 12.7937C21.7783 12.7656 21.7252 12.7375 21.6752 12.7094C21.4689 12.5938 21.2721 12.4687 21.0877 12.325C20.9939 12.2531 20.9096 12.1781 20.8283 12.0906C20.7471 12.0062 20.6752 11.9125 20.6064 11.8125C20.5377 11.7125 20.4721 11.6094 20.4033 11.5094C20.3346 11.4094 20.2627 11.3094 20.1846 11.2156L19.7158 10.65L19.4846 10.3625L19.2533 10.0719C19.1002 9.875 18.9439 9.68125 18.7939 9.475L18.6814 9.31875C18.6439 9.26563 18.6064 9.2125 18.5689 9.15312C18.5596 9.1375 18.5502 9.12187 18.5408 9.10312C18.5346 9.09375 18.5314 9.08437 18.5252 9.07187L18.5189 9.05937L18.5127 9.04688C18.5096 9.04063 18.5096 9.0375 18.5064 9.02812C18.5033 9.01562 18.5002 9.00625 18.5002 8.99375C18.5002 8.98125 18.5002 8.96875 18.5033 8.95312C18.5033 8.94687 18.5064 8.94062 18.5064 8.93437C18.5096 8.925 18.5127 8.91562 18.5189 8.90625C18.5252 8.89688 18.5314 8.8875 18.5377 8.88125C18.5439 8.87188 18.5533 8.86875 18.5596 8.86563C18.5721 8.85625 18.5846 8.85 18.6002 8.84688C18.6064 8.84375 18.6158 8.84375 18.6158 8.84375H18.6564L18.6658 8.84688C18.6908 8.85313 18.7002 8.85938 18.7096 8.8625C18.7283 8.875 18.7439 8.88438 18.7596 8.89375C18.8158 8.93438 18.8627 8.97813 18.9096 9.02188C18.9377 9.05 18.9408 9.09688 18.9127 9.125C18.9033 9.14687 18.8752 9.15313 18.8471 9.14375Z" fill="#333333"/>
</svg>
