<svg width="18" height="18" viewBox="0 0 18 18" fill="none" xmlns="http://www.w3.org/2000/svg">
<path d="M10.0019 16.3636H7.99867C6.74917 16.3636 5.72754 15.4435 5.72754 14.3182C5.72754 13.1928 6.74917 12.2727 7.99867 12.2727H10.0019C11.2514 12.2727 12.273 13.1928 12.273 14.3182C12.273 15.4435 11.2514 16.3636 10.0019 16.3636Z" fill="#4AFFF4"/>
<path d="M14.8618 0H11.7211V3.2457H6.27889V0H3.14072C1.40887 0 0 1.37261 0 3.05988V6.47901C0 7.84171 0.920599 9.00124 2.1896 9.3927V12.6731C2.1896 15.6116 4.76575 18 7.92936 18H10.0706C13.2368 18 15.8104 15.6091 15.8104 12.6731V9.39518C17.0794 9.00124 18 7.84418 18 6.48149V3.05988C18 1.37261 16.5911 0 14.8618 0ZM1.64029 6.47901V3.05988C1.64029 2.25465 2.31167 1.59807 3.14072 1.59807H4.64114V6.47901C4.64114 7.28424 3.96977 7.94081 3.14072 7.94081C2.31167 7.94081 1.64029 7.28672 1.64029 6.47901ZM11.4897 14.6577C11.2125 15.4208 10.4725 15.9733 9.59508 15.9733H7.99039C7.11303 15.9733 6.37299 15.4208 6.09579 14.6577C6.02204 14.4545 5.97372 14.2365 5.97372 14.0085C5.97372 13.295 6.43656 12.6186 7.02147 12.2742L9 14.4421L10.7395 12.2742C11.1845 12.6359 11.6143 13.4015 11.6143 14.0085C11.6118 14.2365 11.5634 14.4545 11.4897 14.6577ZM14.1701 12.6756C14.1701 13.0571 14.1065 13.4263 13.987 13.7756H13.2393C13.1147 11.9199 11.5304 10.4457 9.59508 10.4457H7.99039C6.0551 10.4457 4.47076 11.9199 4.34614 13.7756H4.02571C3.90365 13.4288 3.8299 13.0621 3.8299 12.6756V9.46208C5.23114 9.15485 6.27889 7.93586 6.27889 6.47901V4.84377H11.7211V6.47901C11.7211 7.93338 12.7714 9.15238 14.1701 9.46208V12.6756ZM16.3597 6.47901C16.3597 7.28424 15.6883 7.94081 14.8593 7.94081C14.0328 7.94081 13.3589 7.28672 13.3589 6.47901V1.59807H14.8593C15.6858 1.59807 16.3597 2.25217 16.3597 3.05988V6.47901Z" fill="#242529"/>
</svg>
