<svg width="58" height="28" viewBox="0 0 58 28" fill="none" xmlns="http://www.w3.org/2000/svg">
<rect width="28" height="28" rx="4" fill="#FAFAFA"/>
<g clip-path="url(#clip0_631_1448)">
<path d="M12.0142 6.38173C12.427 6.38173 12.8242 6.78478 13.2001 6.91073C13.5974 7.04444 13.5722 7.46881 13.9074 7.72071C14.2581 7.98425 14.9092 8.18771 15.1669 8.55782C15.382 8.86399 14.8181 9.18953 14.9538 9.55383C15.0584 9.83674 13.8435 10.3095 13.8919 10.6196C13.9326 10.8696 13.8202 11.228 13.8202 11.4896C13.8202 11.7241 14.0275 12.4101 13.9946 12.6348C13.9539 12.9158 13.764 13.1406 13.6768 13.4022C13.5489 13.7878 13.9617 14.0068 13.7446 14.3343C13.0122 15.4407 13.3048 15.6287 11.96 15.6287" fill="#B1CC75"/>
<path d="M13.148 11.1021C13.148 11.3366 13.3689 12.3306 13.3475 12.5554C13.3359 12.6833 12.8999 13.7549 12.0144 13.5572C10.9564 13.3208 9.84215 11.3772 9.84215 11.2242C9.84215 10.7882 9.51273 10.3657 9.58443 9.9685C9.65806 9.55576 10.0727 9.4705 10.2103 9.11977C10.3227 8.83104 10.4215 8.023 10.5707 7.7866C10.7258 7.5405 11.3265 7.35448 11.5144 7.17621C11.7198 6.98243 11.9272 6.38173 12.1442 6.38173C12.4135 6.38173 12.6732 6.78478 12.9193 6.91073C13.179 7.04444 13.1635 7.46881 13.3805 7.72071C13.6091 7.98425 13.9056 7.85248 14.0723 8.22259C14.2118 8.52876 14.0258 9.27673 13.8494 9.59258C13.7118 9.8348 13.3456 10.0169 13.239 10.3037C13.1363 10.5731 13.148 10.8405 13.148 11.1021Z" fill="#CEEA96"/>
<path d="M8.65851 9.72242C8.56549 9.72242 8.47442 9.67397 8.42404 9.58871C8.34847 9.45888 8.3911 9.29417 8.52093 9.21666C8.64494 9.14497 8.76896 9.06746 8.82128 8.97832C8.87747 8.88337 8.94529 8.67603 9.00924 8.47644C9.1255 8.11796 9.23402 7.77885 9.41035 7.59477C9.58281 7.4165 9.90642 7.30023 10.3792 7.14327C10.5846 7.07545 10.8172 6.99794 10.9082 6.94175C10.9993 6.88555 11.1388 6.7441 11.2745 6.60652C11.5806 6.29648 11.8713 6 12.191 6C12.753 6 13.063 6.43599 13.2878 6.75378C13.3808 6.88361 13.468 7.00763 13.5455 7.06576C13.6579 7.15102 13.8962 7.24404 14.1249 7.33317C14.5415 7.49594 14.9736 7.66453 15.1732 7.95131C15.2585 8.07339 15.2294 8.24391 15.1054 8.32918C14.9833 8.41444 14.8128 8.38537 14.7275 8.26135C14.6229 8.11021 14.2354 7.95906 13.9272 7.83892C13.6521 7.73041 13.3905 7.62965 13.218 7.49982C13.0746 7.3913 12.9622 7.23435 12.844 7.06964C12.6212 6.75185 12.4546 6.54257 12.193 6.54257C12.0844 6.55613 11.7977 6.84873 11.6601 6.99019C11.4954 7.15877 11.3404 7.31573 11.1931 7.40681C11.0478 7.49594 10.8172 7.57345 10.5498 7.66065C10.2882 7.74785 9.89479 7.87768 9.79984 7.97457C9.7107 8.06564 9.60025 8.41444 9.52468 8.64503C9.44717 8.88531 9.37547 9.11203 9.28634 9.2593C9.16813 9.45695 8.97824 9.57902 8.79609 9.6856C8.75346 9.71079 8.70501 9.72242 8.65851 9.72242Z" fill="#242424"/>
<path d="M17.524 7.25373C17.9212 7.25373 18.8649 7.18784 19.2273 7.34674C19.609 7.51726 19.4094 8.24392 19.7311 8.56365C20.0683 8.89888 20.6399 8.95507 20.8879 9.42595C21.0953 9.81737 21.0933 9.92007 21.2232 10.3813C21.3239 10.7417 21.8103 11.1874 21.8568 11.5807C21.8956 11.8985 21.2794 12.6135 21.2794 12.9488C21.2794 13.2472 21.7212 13.6561 21.6902 13.9409C21.6514 14.2994 21.1767 14.8265 21.0933 15.1578C20.9693 15.6481 21.0778 15.6791 20.8686 16.0937C20.1632 17.5025 18.768 18.1168 17.4717 18.1168" fill="#8AA839"/>
<path d="M20.0626 13.065C20.0626 13.3634 20.3687 13.7723 20.3474 14.0572C20.3203 14.4156 19.9909 14.9427 19.9347 15.2741C19.8494 15.7643 19.923 15.7953 19.7796 16.21C19.2913 17.6187 18.3244 18.233 17.4253 18.233C16.5959 18.233 15.8538 17.4502 15.3616 16.2216C15.2085 15.838 15.4449 15.433 15.3441 14.9737C15.2569 14.5745 14.8248 14.1269 14.7841 13.6812C14.7531 13.3421 15.1116 12.9895 15.1116 12.631C15.1116 12.0768 14.7764 11.54 14.8481 11.0343C14.9236 10.5091 15.3461 10.4006 15.4875 9.95301C15.6038 9.58483 15.7026 8.55589 15.8557 8.25554C16.0146 7.94356 16.4874 7.3448 16.6792 7.12002C16.8885 6.87198 17.2431 7.36805 17.464 7.36805C17.7392 7.36805 18.3942 7.30217 18.6441 7.46106C18.9096 7.63158 18.7701 8.35824 18.9929 8.67797C19.2254 9.0132 19.6227 9.06939 19.7951 9.54027C19.9385 9.93169 19.9385 10.0344 20.0277 10.4956C20.0974 10.856 20.4346 11.3017 20.4675 11.695C20.4889 12.0148 20.0626 12.7317 20.0626 13.065Z" fill="#95B758"/>
<path d="M20.8684 16.1344C20.8277 16.1344 20.7871 16.1247 20.7464 16.1054C20.6127 16.0375 20.5584 15.8748 20.6243 15.7411C20.6669 15.6539 20.7231 15.5434 20.8084 15.4717L20.8374 15.3555C20.8762 15.2004 20.9692 15.0435 21.0758 14.8633C21.2405 14.5842 21.4265 14.2684 21.4149 13.9525C21.4129 13.8808 21.318 13.7181 21.2502 13.5998C21.13 13.3906 21.0041 13.1755 21.0041 12.9507C21.0041 12.7259 21.1397 12.5108 21.2831 12.2841C21.4246 12.0613 21.5835 11.8094 21.5815 11.5846C21.5815 11.4451 21.4265 11.23 21.2889 11.0401C21.1533 10.8521 21.0138 10.6583 20.9576 10.4588C20.8994 10.2495 20.8878 10.1507 20.8801 10.0848C20.8743 10.0286 20.8704 10.0111 20.7735 9.82317C20.6068 9.50732 20.3375 9.25735 20.074 9.01513C19.9868 8.93375 19.8957 8.85042 19.8104 8.76516C19.6108 8.56557 19.5488 8.38343 19.4907 8.20903C19.4364 8.04432 19.3802 7.8738 19.1807 7.61608C19.1748 7.61026 19.1051 7.55988 18.8357 7.55601C18.6226 7.55213 18.3746 7.57926 18.1536 7.60251C17.9773 7.62189 17.8262 7.63739 17.708 7.63739C17.5588 7.63739 17.3611 7.57926 17.1092 7.50563C16.9251 7.45137 16.7158 7.3913 16.5376 7.36029C16.3186 7.32154 16.2508 7.34867 16.2411 7.35254C16.0434 7.51531 15.7353 7.87186 15.4175 8.30592C15.3226 8.43768 15.2141 8.87561 15.1366 9.19728C15.0629 9.49569 14.9951 9.77861 14.9157 9.95494C14.7975 10.2185 14.5843 10.3812 14.3964 10.5246C14.1832 10.6893 14.0495 10.7979 14.0127 10.9781C13.9739 11.1699 14.0708 11.4102 14.1754 11.664C14.2801 11.9198 14.4002 12.2124 14.4002 12.5205C14.4002 12.6465 14.3634 12.7763 14.2878 12.9178C14.2161 13.0495 14.0514 13.0999 13.9197 13.0282C13.7879 12.9565 13.7395 12.7918 13.8092 12.66C13.8402 12.6019 13.8577 12.5554 13.8577 12.5205C13.8577 12.319 13.7685 12.1 13.6736 11.8694C13.5437 11.5516 13.4081 11.2222 13.4817 10.8676C13.5612 10.4801 13.8422 10.265 14.0669 10.0925C14.2239 9.97238 14.3595 9.86774 14.4215 9.73016C14.4816 9.5984 14.5475 9.32905 14.6095 9.06745C14.718 8.62371 14.8207 8.20322 14.9796 7.98425C15.1463 7.75753 15.5668 7.2014 15.902 6.92818C16.2101 6.67627 16.7449 6.83323 17.2623 6.98437C17.4289 7.03281 17.6363 7.09482 17.708 7.09482C17.7971 7.09482 17.9424 7.07932 18.0955 7.06382C18.6768 7.00181 19.3376 6.93399 19.6089 7.28472C19.8647 7.61608 19.9422 7.85054 20.0061 8.03851C20.0546 8.18384 20.0836 8.27297 20.1941 8.38149C20.2716 8.459 20.3549 8.53651 20.4441 8.61789C20.725 8.87755 21.0448 9.17403 21.254 9.56933C21.3819 9.81155 21.4052 9.88324 21.4207 10.0208C21.4265 10.0751 21.4362 10.1448 21.4827 10.3115C21.5137 10.42 21.6242 10.5731 21.7327 10.7223C21.9168 10.9781 22.126 11.2687 22.128 11.5827C22.1299 11.9663 21.9168 12.3035 21.7443 12.5748C21.6668 12.6969 21.5486 12.8829 21.5486 12.9507C21.5486 13.0301 21.6474 13.2026 21.721 13.3286C21.8354 13.5243 21.9516 13.7258 21.9594 13.9351C21.9749 14.4098 21.7365 14.8148 21.5447 15.1404C21.4672 15.2741 21.3858 15.4116 21.3645 15.4892C21.3277 15.6325 21.3102 15.6965 21.2947 15.7372C21.2618 15.8263 21.2075 15.8806 21.1494 15.9096C21.1397 15.9271 21.1262 15.9503 21.1107 15.9852C21.0642 16.0802 20.9673 16.1344 20.8684 16.1344Z" fill="#242424"/>
<path d="M7.93945 9.27285C8.31344 9.1779 8.77462 9.48794 9.14473 9.5267C9.5381 9.56933 9.61948 9.99563 9.98572 10.1681C10.3675 10.3502 11.0088 10.4026 11.3344 10.7107C11.6057 10.9664 11.4642 11.416 11.6774 11.7454C11.844 12.0031 11.8401 12.2589 11.9622 12.5554C12.061 12.7937 11.8963 13.0689 11.9622 13.3286C12.0204 13.5611 12.9427 13.6909 12.9679 13.9215C13.0009 14.2102 12.592 14.5474 12.5784 14.8264C12.5571 15.2372 12.8071 15.526 12.6928 15.898C12.3052 17.1634 11.4041 18.1516 10.1872 18.4578" fill="#8AA839"/>
<path d="M11.3653 13.2491C11.406 13.4816 11.5028 13.7413 11.4466 13.9641C10.8382 16.3844 8.53614 15.9329 8.43732 15.5996C8.36175 15.3458 6.95882 15.1617 6.91037 14.8826C6.8348 14.4505 6.44531 14.1463 6.44531 13.7277C6.44531 13.2937 6.82899 13.0631 6.90068 12.6659C6.95882 12.3403 6.91425 11.5032 7.01695 11.2164C7.12353 10.918 7.66997 10.5227 7.81918 10.2824C7.98389 10.0169 8.07884 9.34843 8.28811 9.27285C8.54971 9.1779 8.86944 9.48794 9.12716 9.5267C9.40038 9.56933 9.45658 9.99563 9.71042 10.1681C9.97589 10.3502 9.87319 10.2514 10.098 10.5595C10.2859 10.8153 10.3731 11.5148 10.5204 11.8442C10.6347 12.102 11.3672 12.1272 11.4525 12.4217C11.5222 12.66 11.3207 12.9895 11.3653 13.2491Z" fill="#95B758"/>
<path d="M12.6928 16.1713C12.6657 16.1713 12.6405 16.1674 12.6134 16.1596C12.47 16.1151 12.3905 15.9639 12.4331 15.8205C12.4467 15.774 12.3208 15.6345 12.2452 15.5512C12.0902 15.3787 11.8983 15.1675 11.8906 14.8827C11.8634 14.8691 11.8247 14.8516 11.7956 14.84C11.6406 14.7741 11.379 14.6617 11.3461 14.3633C11.3267 14.2006 11.379 14.03 11.4294 13.8653C11.4565 13.7743 11.5088 13.6057 11.4953 13.5534C11.4468 13.3557 11.4972 13.1852 11.534 13.0592C11.5612 12.9682 11.5767 12.91 11.5631 12.8751C11.4856 12.6872 11.4875 12.474 11.4895 12.2841C11.4914 12.1349 11.4933 11.9644 11.4488 11.8946C11.3189 11.6931 11.2899 11.4761 11.2647 11.2862C11.2395 11.0982 11.2201 10.98 11.1484 10.9103C11.0108 10.7804 10.5613 10.6913 10.2338 10.6274C9.94701 10.5712 9.67379 10.5188 9.4897 10.4297C9.32112 10.3503 9.1351 10.1875 8.92194 10.0015C8.77274 9.87163 8.61965 9.73793 8.48014 9.64104C8.3193 9.52865 8.25148 9.51896 8.23598 9.51702C8.22242 9.52284 8.16235 9.5519 8.04414 9.69142C7.94338 9.80962 7.84068 9.95495 7.73992 10.0983C7.64303 10.2359 7.55002 10.3677 7.46669 10.4626C7.3543 10.5867 7.1644 10.7165 6.94156 10.8657C6.72841 11.0091 6.40674 11.2261 6.34861 11.3404C6.29048 11.4528 6.27498 11.8268 6.26529 12.0729C6.2556 12.3268 6.24591 12.567 6.20328 12.7337C6.14902 12.941 6.0502 13.0999 5.96106 13.2394C5.85642 13.4041 5.78279 13.5243 5.78279 13.6967C5.78279 13.8731 5.87386 14.0455 5.9785 14.2451C6.0657 14.4118 6.16453 14.5997 6.21684 14.8148C6.24204 14.9001 6.46488 15.1191 6.59664 15.2508C6.79623 15.4485 6.96675 15.6171 7.03845 15.7818C7.09658 15.9193 7.03264 16.0782 6.89506 16.1383C6.75748 16.1964 6.59858 16.1325 6.53851 15.9949C6.50945 15.9271 6.33311 15.7527 6.21491 15.6364C5.97463 15.3981 5.74597 15.1733 5.68978 14.9466C5.65102 14.7935 5.57545 14.6501 5.496 14.497C5.37005 14.2548 5.24022 14.0068 5.23828 13.6967C5.23828 13.3673 5.3778 13.1445 5.49988 12.9488C5.57739 12.8267 5.64327 12.7221 5.67621 12.5942C5.70528 12.4857 5.71303 12.2628 5.72272 12.0497C5.73822 11.6679 5.75178 11.3094 5.86611 11.0885C5.98819 10.8521 6.30404 10.639 6.63734 10.4123C6.80398 10.2999 6.99388 10.172 7.0617 10.0964C7.12565 10.0267 7.20703 9.90845 7.29617 9.7825C7.5442 9.42982 7.80192 9.06359 8.10615 8.98802C8.48014 8.89307 8.88513 9.24768 9.27849 9.58872C9.44707 9.73599 9.62341 9.88907 9.72417 9.93752C9.84625 9.99565 10.0962 10.0441 10.3384 10.0906C10.7957 10.1797 11.2705 10.2727 11.5224 10.5111C11.7394 10.7165 11.7743 10.9897 11.8053 11.2087C11.8247 11.3559 11.8441 11.4955 11.908 11.5943C12.0417 11.8016 12.0378 12.0574 12.0359 12.2841C12.034 12.4275 12.032 12.5767 12.0688 12.662C12.156 12.8751 12.0999 13.067 12.0572 13.2084C12.0282 13.3053 12.0107 13.3654 12.0243 13.4158C12.0727 13.6134 12.0088 13.8285 11.9506 14.0165C11.9255 14.1017 11.8906 14.2161 11.8867 14.2761C11.9158 14.2955 11.9739 14.3207 12.0127 14.3362C12.1657 14.4021 12.4525 14.5242 12.437 14.8536C12.4331 14.9408 12.5494 15.0687 12.6521 15.183C12.8246 15.3729 13.061 15.6345 12.9563 15.9755C12.9156 16.0957 12.8091 16.1713 12.6928 16.1713Z" fill="#242424"/>
<path d="M8.49219 11.013C8.49219 11.013 8.83517 11.8404 8.82354 12.8964L8.49219 11.013Z" fill="white"/>
<path d="M8.8251 13.1658H8.82123C8.67202 13.1639 8.55188 13.0418 8.55382 12.8906C8.56544 11.9024 8.24572 11.1215 8.24184 11.1137C8.18371 10.9761 8.24959 10.8172 8.38911 10.7591C8.52669 10.701 8.68559 10.7669 8.74372 10.9064C8.75922 10.9432 9.10801 11.7977 9.09639 12.8965C9.09445 13.0476 8.97237 13.1658 8.8251 13.1658Z" fill="#242424"/>
<path d="M7.11426 12.6329C7.11426 12.6329 7.86223 12.8751 8.37186 13.16L7.11426 12.6329Z" fill="white"/>
<path d="M8.37158 13.4293C8.32702 13.4293 8.28245 13.4177 8.23982 13.3945C7.75926 13.127 7.03647 12.8906 7.03066 12.8887C6.88727 12.8422 6.80976 12.6891 6.85626 12.5477C6.90277 12.4043 7.05585 12.3268 7.19731 12.3733C7.22831 12.383 7.97628 12.6271 8.50335 12.9216C8.63512 12.9953 8.68162 13.16 8.60799 13.2898C8.55955 13.379 8.46847 13.4293 8.37158 13.4293Z" fill="#242424"/>
<path d="M12.3057 7.92418C12.3057 7.92418 12.4394 9.92781 12.3696 13.2743L12.3057 7.92418Z" fill="white"/>
<path d="M12.369 13.5437H12.3632C12.214 13.5398 12.0939 13.4158 12.0977 13.2666C12.1675 9.97432 12.0357 7.961 12.0338 7.94162C12.0241 7.79241 12.1365 7.66258 12.2857 7.6529C12.4349 7.64321 12.5647 7.7556 12.5744 7.9048C12.5764 7.92418 12.7081 9.95882 12.6384 13.2782C12.6384 13.4274 12.5163 13.5437 12.369 13.5437Z" fill="#242424"/>
<path d="M12.6074 11.5265L13.6306 11.013L12.6074 11.5265Z" fill="white"/>
<path d="M12.6074 11.7978C12.5086 11.7978 12.4117 11.7435 12.3652 11.6485C12.2974 11.5148 12.3516 11.3521 12.4853 11.2843L13.5085 10.7688C13.6422 10.701 13.8049 10.7552 13.8728 10.8889C13.9406 11.0227 13.8863 11.1854 13.7526 11.2532L12.7295 11.7687C12.6907 11.7881 12.6481 11.7978 12.6074 11.7978Z" fill="#242424"/>
<path d="M10.5146 8.85431C10.5146 8.85431 11.6308 9.87163 12.0765 9.90069L10.5146 8.85431Z" fill="white"/>
<path d="M12.0763 10.172H12.0589C11.9039 10.1623 11.6229 10.0906 10.9641 9.5829C10.6249 9.32131 10.3459 9.06746 10.3323 9.05584C10.2219 8.95507 10.2141 8.78261 10.3149 8.67216C10.4157 8.56171 10.5881 8.55396 10.6986 8.65472C10.7005 8.65666 10.9757 8.90663 11.2973 9.15466C11.8825 9.60422 12.0744 9.62941 12.0938 9.63135C12.243 9.64104 12.3573 9.77086 12.3476 9.92007C12.336 10.0615 12.2178 10.172 12.0763 10.172Z" fill="#242424"/>
<path d="M17.3438 8.81168C17.3438 8.81168 18.0433 9.3213 18.8184 11.5768L17.3438 8.81168Z" fill="white"/>
<path d="M18.8161 11.8481C18.7037 11.8481 18.5991 11.7764 18.5603 11.664C17.8376 9.55771 17.1865 9.03258 17.1807 9.02677L17.1845 9.02871L17.5043 8.59077C17.5837 8.64891 18.2968 9.21667 19.0758 11.4877C19.1242 11.6292 19.0487 11.7842 18.9072 11.8326C18.8762 11.8443 18.8452 11.8481 18.8161 11.8481Z" fill="#242424"/>
<path d="M15.6533 11.2048L18.2615 12.5554L15.6533 11.2048Z" fill="white"/>
<path d="M18.2623 12.8267C18.2197 12.8267 18.1771 12.817 18.1383 12.7957L15.5282 11.4451C15.3945 11.3753 15.3441 11.2125 15.4119 11.0788C15.4817 10.9451 15.6444 10.8948 15.7781 10.9626L18.3863 12.3151C18.5201 12.3849 18.5704 12.5477 18.5026 12.6814C18.4542 12.7744 18.3592 12.8267 18.2623 12.8267Z" fill="#242424"/>
<path d="M19.502 12.1698L20.5483 11.4354L19.502 12.1698Z" fill="white"/>
<path d="M19.5041 12.4411C19.4189 12.4411 19.3355 12.4004 19.2813 12.3268C19.196 12.2047 19.2251 12.0342 19.3472 11.9489L20.3916 11.2145C20.5137 11.1292 20.6842 11.1583 20.7695 11.2804C20.8547 11.4025 20.8257 11.573 20.7036 11.6582L19.6591 12.3926C19.6126 12.4256 19.5564 12.4411 19.5041 12.4411Z" fill="#242424"/>
<path d="M16.6113 13.9642C17.4116 13.9642 18.0627 14.6172 18.0627 15.4213C18.0627 16.2255 17.4136 16.8785 16.6113 16.8785" fill="#F7B42F"/>
<path d="M16.4563 14.1444C15.656 14.1444 15.0049 14.7974 15.0049 15.6016C15.0049 16.4057 15.654 17.0587 16.4563 17.0587" fill="white"/>
<path d="M17.3919 15.4213C17.3919 16.0647 17.0411 16.5879 16.609 16.5879C16.1769 16.5879 15.8262 16.0666 15.8262 15.4213C15.8262 14.7761 16.1769 14.1385 16.609 14.1385C17.0411 14.1385 17.3919 14.778 17.3919 15.4213Z" fill="#FFCE61"/>
<path d="M18.2409 15.9794L17.7274 15.805C17.7701 15.6829 17.7895 15.5531 17.7895 15.4213C17.7895 14.7683 17.2604 14.2354 16.6094 14.2354C15.9583 14.2354 15.4293 14.7664 15.4293 15.4213C15.4293 15.5512 15.4506 15.6771 15.4893 15.7973L14.9739 15.9678C14.9158 15.7915 14.8848 15.6074 14.8848 15.4194C14.8848 14.466 15.6579 13.6909 16.6074 13.6909C17.5569 13.6909 18.3301 14.466 18.3301 15.4194C18.332 15.6112 18.301 15.7992 18.2409 15.9794Z" fill="#242424"/>
<path d="M18.7363 16.0317L19.3816 16.1015L19.9125 14.5164L19.4107 11.6427L18.8913 11.5865" fill="#678767"/>
<path d="M18.8332 16.0492L19.2381 14.4486L18.8293 11.6078L17.9999 11.4877L18.2228 14.2529L17.7441 15.9213L18.8332 16.0492Z" fill="#8FAA8F"/>
<path d="M17.8953 16.1441C17.8624 16.1441 17.8294 16.1383 17.7965 16.1267C17.657 16.0724 17.5872 15.9155 17.6415 15.7759L18.2286 14.2587L17.7325 11.5381C17.717 11.4528 17.7422 11.3676 17.8004 11.3036C17.8585 11.2397 17.9438 11.2087 18.029 11.2184L19.4397 11.3734C19.5598 11.3869 19.6567 11.478 19.678 11.5962L20.1799 14.4699C20.1877 14.5145 20.1838 14.559 20.1702 14.6036L19.7207 15.9503C19.6722 16.0918 19.5191 16.1693 19.3777 16.1209C19.2362 16.0724 19.1587 15.9193 19.2072 15.7779L19.6354 14.497L19.1781 11.8908L18.3313 11.7977L18.777 14.2354C18.7867 14.2839 18.7809 14.3362 18.7634 14.3827L18.1492 15.9717C18.1065 16.0782 18.0038 16.1441 17.8953 16.1441Z" fill="#242424"/>
<path d="M13.7474 12.7705C12.889 12.7705 12.1934 13.47 12.1934 14.3304C12.1934 15.1907 12.889 15.8903 13.7474 15.8903" fill="white"/>
<path d="M13.6289 12.7705C14.4873 12.7705 15.183 13.47 15.183 14.3304C15.183 15.1907 14.4873 15.8903 13.6289 15.8903" fill="#FF2929"/>
<path d="M14.4076 14.311C14.4076 15.0357 14.0588 15.6248 13.6286 15.6248C13.1984 15.6248 12.8496 15.0357 12.8496 14.311C12.8496 13.5863 13.1984 13.0515 13.6286 13.0515C14.0588 13.0495 14.4076 13.5844 14.4076 14.311Z" fill="#FF6464"/>
<path d="M13.6291 16.1635C12.6234 16.1635 11.8037 15.3419 11.8037 14.3323C11.8037 13.3228 12.6234 12.5011 13.6291 12.5011C14.6348 12.5011 15.4544 13.3228 15.4544 14.3323C15.4544 15.3419 14.6367 16.1635 13.6291 16.1635ZM13.6291 13.0418C12.9218 13.0418 12.3463 13.6192 12.3463 14.3304C12.3463 15.0415 12.9218 15.619 13.6291 15.619C14.3363 15.619 14.9119 15.0415 14.9119 14.3304C14.9119 13.6192 14.3363 13.0418 13.6291 13.0418Z" fill="#242424"/>
<path d="M8.9126 16.3553C9.3641 16.2953 9.80978 16.1383 10.2206 15.8786C11.7553 14.9098 12.2184 12.8771 11.2553 11.3385L8.72852 12.9333" fill="#FFC840"/>
<path d="M9.79168 15.2586C10.8846 14.4757 11.214 13.0263 10.528 11.7842L6.55176 14.4447C7.23772 15.6868 8.69878 16.0414 9.79168 15.2586Z" fill="#FFEC64"/>
<path d="M10.2223 16.1499C10.1332 16.1499 10.0441 16.1054 9.99175 16.024C9.91231 15.898 9.94912 15.7294 10.077 15.65C11.4044 14.811 11.8578 13.096 11.1602 11.7202L6.08331 14.9253C6.29453 15.2063 6.55225 15.4446 6.84872 15.6345C6.97468 15.7159 7.01149 15.8845 6.93011 16.0104C6.84872 16.1364 6.68014 16.1732 6.55419 16.0918C6.11432 15.807 5.75002 15.4368 5.46905 14.9912C5.3896 14.8652 5.42835 14.6986 5.55431 14.6172L11.1098 11.1099C11.1699 11.0711 11.2455 11.0595 11.3152 11.075C11.385 11.0905 11.447 11.135 11.4858 11.1951C12.5263 12.8577 12.0245 15.0629 10.3657 16.1092C10.3212 16.1364 10.2708 16.1499 10.2223 16.1499Z" fill="#242424"/>
<path d="M13.5645 21.7287C18.1453 21.7287 21.858 19.1147 21.858 15.8922H13.5645" fill="#D3D3D3"/>
<path d="M13.5647 21.7287C17.289 21.7287 20.308 19.1147 20.308 15.8922H6.82129C6.82129 19.1147 9.8403 21.7287 13.5647 21.7287Z" fill="#E8E8E8"/>
<path d="M13.5649 22C11.2938 22 9.15647 21.376 7.54427 20.2405C6.75173 19.6824 6.12777 19.0314 5.68984 18.3028C5.23253 17.5412 5 16.7293 5 15.8922C5 15.743 5.12208 15.6209 5.27128 15.6209H21.8584C22.0076 15.6209 22.1297 15.743 22.1297 15.8922C22.1297 16.7293 21.8972 17.5412 21.4399 18.3047C21.0019 19.0333 20.378 19.6844 19.5854 20.2425C17.9732 21.3741 15.8359 22 13.5649 22ZM5.55226 16.1635C5.75766 19.1069 9.27274 21.4574 13.5649 21.4574C17.857 21.4574 21.372 19.1069 21.5774 16.1635H5.55226Z" fill="#242424"/>
</g>
<path d="M45.28 13.356V14.532H40.864V18.804H39.628V14.532H34.732V13.356H39.628V10.464H37.504C37.016 11.368 36.556 12.12 36.124 12.72L35.128 11.892C35.544 11.34 35.964 10.672 36.388 9.888C36.82 9.096 37.156 8.344 37.396 7.632L38.584 7.98C38.432 8.428 38.256 8.872 38.056 9.312H44.596V10.464H40.864V13.356H45.28ZM47.596 10.872C47.444 11.032 47.268 11.2 47.068 11.376L46.528 10.752C47.136 10.216 47.64 9.572 48.04 8.82L48.796 9.048C48.724 9.224 48.64 9.392 48.544 9.552H49.276V7.764H50.26V8.328H52.048V9.024H50.26V9.552H51.76V10.452C51.32 10.908 50.684 11.38 49.852 11.868C49.02 12.348 48.076 12.768 47.02 13.128L46.66 12.24C47.436 11.992 48.076 11.752 48.58 11.52L47.596 10.872ZM54.484 10.2C54.924 9.92 55.316 9.572 55.66 9.156H52.48V8.292H56.752V9.228C56.328 9.804 55.848 10.288 55.312 10.68C56.04 11.104 56.64 11.46 57.112 11.748L56.62 12.624C56.108 12.272 55.388 11.804 54.46 11.22C54.036 11.452 53.532 11.664 52.948 11.856L52.528 11.076C53.016 10.908 53.368 10.776 53.584 10.68C53.088 10.368 52.68 10.12 52.36 9.936L52.816 9.288C53.184 9.472 53.74 9.776 54.484 10.2ZM48.088 10.284L48.052 10.32L49.372 11.124C49.844 10.868 50.256 10.588 50.608 10.284H48.088ZM56.932 14.868C56.404 14.684 55.868 14.472 55.324 14.232V16.38L55.888 16.068L56.332 16.74C55.828 17.004 55.288 17.264 54.712 17.52L56.728 18.084L56.404 18.888C55.876 18.72 55.2 18.508 54.376 18.252C53.56 17.996 52.728 17.744 51.88 17.496L51.844 18.228L48.28 18.864L47.992 18.012C48.12 17.964 48.204 17.912 48.244 17.856C48.284 17.8 48.304 17.716 48.304 17.604V14.376C47.696 14.648 47.236 14.844 46.924 14.964L46.54 14.016C48.788 13.248 50.44 12.34 51.496 11.292H52.252C52.804 11.836 53.508 12.328 54.364 12.768C55.228 13.208 56.204 13.592 57.292 13.92L56.932 14.868ZM54.184 13.68C53.224 13.176 52.452 12.68 51.868 12.192C51.34 12.656 50.604 13.152 49.66 13.68H51.592C51.48 13.304 51.408 13.064 51.376 12.96L52.216 12.78C52.256 12.876 52.324 13.068 52.42 13.356L52.528 13.68H54.184ZM54.268 14.796V14.328H49.432V14.796H54.268ZM54.268 15.36H49.432V15.84H54.268V15.36ZM49.432 17.736L51.568 17.4L51.004 17.232L50.404 17.064L50.632 16.464H49.432V17.736ZM53.584 17.196C54.088 16.98 54.612 16.736 55.156 16.464H50.932C51.252 16.544 51.768 16.688 52.48 16.896C52.616 16.936 52.776 16.98 52.96 17.028C53.144 17.076 53.352 17.132 53.584 17.196Z" fill="#242424"/>
<defs>
<clipPath id="clip0_631_1448">
<rect width="17.125" height="16" fill="white" transform="translate(5 6)"/>
</clipPath>
</defs>
</svg>
