<svg width="110" height="80" viewBox="0 0 110 80" fill="none" xmlns="http://www.w3.org/2000/svg">
<rect x="0.5" y="0.5" width="79" height="79" rx="15.5" fill="#FAFAFA" stroke="#242424" stroke-dasharray="4 4"/>
<rect x="33" y="39" width="14" height="2" rx="1" fill="#242424"/>
<rect x="39" y="47" width="14" height="2" rx="1" transform="rotate(-90 39 47)" fill="#242424"/>
<g clip-path="url(#clip0_558_565)">
<path d="M80.0998 53.2211C80.0023 53.0755 80.0185 52.9102 80.0185 52.7475C80.0185 44.6484 80.0199 36.5498 80.0226 28.4518C80.0226 28.3078 79.9308 28.1082 80.1713 28.0428C80.3338 27.9749 80.4208 28.1 80.5207 28.1818C80.6207 28.2636 80.7141 28.3733 80.8238 28.4526C81.2667 28.7716 81.7486 28.9492 82.263 28.6686C82.7506 28.4027 83.0407 27.9904 83.0756 27.3941C83.1342 26.3617 82.7912 25.4406 82.3695 24.5358C82.1915 24.1538 82.0046 23.7767 81.8006 23.4078C81.5837 23.0176 81.6519 22.8482 82.0859 22.7223C83.3357 22.3599 84.6123 22.2854 85.9052 22.395C86.4074 22.4376 86.4083 22.4556 86.5472 21.9762C86.5873 21.8456 86.6601 21.7276 86.7585 21.6335C88.0725 20.305 89.5076 19.1409 91.2678 18.448C92.0154 18.1535 92.7931 17.9826 93.6049 18.0276C93.8235 18.0398 94.0389 18.0505 94.2152 18.2043C94.3713 18.3679 94.4225 18.5855 94.4761 18.7941C94.9637 20.687 95.257 22.6045 95.1636 24.5653C95.1358 25.3285 94.9914 26.0829 94.7353 26.8018C94.6744 26.9654 94.6118 27.129 94.559 27.3008C94.3704 27.898 94.4111 27.9871 94.9596 28.1966C95.0149 28.4886 94.7776 28.6326 94.6305 28.8085C94.3136 29.1872 94.03 29.5823 93.8666 30.0519C93.5513 30.9558 94.0348 31.9374 94.8848 32.0741C95.3271 32.1515 95.7817 32.1149 96.2062 31.9677C97.0863 31.6536 97.8518 31.1497 98.5815 30.577C99.0691 30.195 99.1284 30.1991 99.5079 30.7063C99.5485 30.7611 99.5892 30.8151 99.629 30.8699C99.8842 31.2347 99.8728 31.3149 99.4843 31.5243C98.6173 32.0004 97.7453 32.4692 96.9457 33.0581C96.3013 33.5326 95.6674 34.0259 95.1733 34.6656C94.715 35.2603 94.3713 35.9025 94.5736 36.7009C94.7443 37.3725 95.218 37.7758 95.9063 37.8126C96.4874 37.8445 97.0278 37.6792 97.5552 37.4461C98.8919 36.8538 100.069 36.008 101.212 35.1122C101.266 35.0705 101.314 35.0214 101.37 34.9838C101.559 34.8578 101.744 34.668 101.939 34.9838C102.153 35.3307 102.132 35.5736 101.819 35.738C101.133 36.1053 100.478 36.5144 99.9679 37.1123C99.525 37.6293 99.3226 38.2142 99.5615 38.8899C99.8533 39.7129 100.491 40.0352 101.331 39.8102C101.786 39.6743 102.215 39.4619 102.599 39.182C102.843 39.0184 103.025 38.9529 103.151 39.3112C103.242 39.5689 103.43 39.6507 103.65 39.4413C103.817 39.2826 103.979 39.2908 104.168 39.3799C105.76 40.126 107.275 40.9866 108.46 42.3306C108.704 42.603 108.965 42.8672 109.012 43.2591C108.669 44.0395 108.158 44.7103 107.606 45.3418C106.963 46.078 106.262 46.7594 105.412 47.2609C104.956 47.529 104.463 47.7267 103.949 47.8474C103.09 48.0495 102.75 48.4503 102.724 49.3469C102.708 49.8778 102.718 50.4103 102.718 50.9396C102.588 51.5417 102.446 52.138 102.015 52.6108C101.103 53.2666 100.156 53.871 99.178 54.4212C99.0504 54.4923 98.9342 54.5929 98.7717 54.5848C98.575 54.5193 98.4937 54.3353 98.371 54.1929C97.9078 53.6547 97.4381 53.1205 96.7116 52.9397C96.5072 52.8883 96.294 52.8826 96.0871 52.923C95.8802 52.9635 95.6846 53.0492 95.5142 53.174C95.3437 53.2987 95.2025 53.4596 95.1005 53.6453C94.9985 53.831 94.9382 54.0369 94.9238 54.2486C94.8917 54.6994 94.9716 55.1511 95.1563 55.5631C95.2196 55.712 95.3107 55.8552 95.2692 56.0302C95.1969 56.1938 95.0547 56.2282 94.8995 56.2397C94.7925 56.2238 94.6909 56.1826 94.6029 56.1194C93.6431 55.5558 92.8045 55.7595 92.2308 56.692C92.1851 56.7756 92.1255 56.8506 92.0544 56.9137C91.7294 57.0773 91.3791 57.0773 91.0273 57.0405C90.8696 56.7828 91.1223 56.7133 91.2426 56.6037C91.686 56.217 91.9881 55.692 92.1008 55.1124C92.3494 53.8624 91.5709 52.6239 90.3032 52.2665C89.1062 51.9294 87.7532 52.6403 87.355 53.8281C87.0007 54.8834 87.2737 55.7791 88.0571 56.544C88.1928 56.6765 88.4268 56.7493 88.3968 57.0094C88.2928 57.1002 88.1717 57.0814 88.0506 57.0675C85.3055 56.7526 82.8855 55.6719 80.754 53.9213C80.5061 53.7177 80.1867 53.5753 80.0998 53.2211Z" fill="#FEFEFE"/>
<path d="M94.1521 18.2333C93.1623 17.9879 92.218 18.2055 91.3022 18.5605C89.5144 19.2591 88.0695 20.4551 86.7449 21.8114C86.6818 21.8608 86.6401 21.9329 86.6287 22.0126C86.58 22.5509 86.5182 22.6008 85.9932 22.541C84.7421 22.3896 83.4739 22.4773 82.2551 22.7995C82.2291 22.8061 82.2023 22.8094 82.1739 22.8159C81.6757 22.9492 81.6765 22.9484 81.9163 23.3885C82.4111 24.2949 82.8646 25.2193 83.1068 26.2345C83.2067 26.645 83.2374 27.0694 83.1978 27.4902C83.0759 28.7548 81.7952 29.3316 80.7745 28.5798C80.5583 28.4211 80.3682 28.2231 80.1699 28.0432C79.8822 27.6055 80.0732 27.1171 80.0228 26.6525C80.2333 26.5371 80.3129 26.7155 80.4039 26.8366C80.6168 27.118 80.8038 27.4214 81.0654 27.6619C81.3092 27.8902 81.5839 28.0914 81.9382 27.9425C82.2925 27.7937 82.3502 27.4599 82.3445 27.1188C82.3258 26.4243 82.0885 25.7846 81.8236 25.1555C81.6335 24.7035 81.4144 24.2644 81.1678 23.8409C80.924 23.4212 80.9045 23.4229 80.4722 23.6307C80.3341 23.6969 80.1975 23.8311 80.0277 23.6945L80.0366 22.8355C80.1228 22.622 80.3276 22.5607 80.508 22.4772C81.1361 22.1868 81.7846 21.9365 82.4672 21.8359C83.3172 21.714 83.7382 21.1357 84.0502 20.433C84.3623 19.7303 84.277 19.0243 84.0405 18.3241C83.8171 17.6653 83.4617 17.0597 82.9962 16.5448C82.5087 16.0025 81.8927 15.7865 81.167 15.9329C80.82 15.9493 80.5388 16.2225 80.1788 16.1906C79.9367 16.0164 79.9391 15.4094 80.1943 15.3031C81.2369 14.8654 82.5818 14.7959 83.5358 15.825C84.3485 16.6978 84.9116 17.7064 85.0798 18.9081C85.2226 19.8054 85.0144 20.7235 84.4988 21.4694C84.4541 21.5349 84.4175 21.6044 84.3363 21.7336C84.7954 21.7336 85.2034 21.7271 85.6121 21.7336C85.8266 21.7336 85.9079 21.57 86.0241 21.4457C87.4869 19.9078 89.0959 18.5768 91.0966 17.8013C92.2213 17.3645 93.3825 17.2287 94.5608 17.5101C95.9066 17.8332 96.6591 18.7838 97.0654 20.0542C97.5172 21.4841 97.4782 22.9542 97.3547 24.425C97.283 25.2655 97.1532 26.1001 96.9662 26.9224C96.9248 27.1073 96.9744 27.1908 97.1028 27.2955C100.539 30.1128 102.629 33.758 103.579 38.0813C103.633 38.3267 103.748 38.4379 103.966 38.5377C105.658 39.31 107.291 40.1828 108.626 41.5219C110.358 43.2586 110.457 45.2031 108.906 47.1271C107.803 48.4965 106.373 49.4454 104.857 50.2757C104.418 50.5154 103.898 50.6504 103.532 50.9694C103.167 51.2885 103.178 51.8799 102.981 52.3364C101.903 54.8428 100.086 56.6335 97.7155 57.8925C95.0427 59.3118 92.1627 59.7118 89.1885 59.6169C87.3473 59.5654 85.5243 59.2344 83.7812 58.6352C83.7341 58.6189 83.6829 58.6115 83.5626 58.5845C84.0104 59.4746 84.0949 60.3711 84.025 61.284C83.9259 62.57 83.1986 63.469 82.2015 64.1783C81.6807 64.5478 81.0942 64.8131 80.4738 64.9595C80.1341 65.0413 79.9472 65.0143 80.0179 64.6004C80.0282 64.4916 80.0298 64.3822 80.0228 64.2732C80.1317 64.1096 80.308 64.0785 80.4771 64.0277C81.2362 63.8183 81.9179 63.3897 82.438 62.795C83.3595 61.7503 83.3319 60.538 82.8963 59.3109C82.6931 58.7383 82.399 58.1878 81.8057 57.8966C81.3505 57.6597 80.9103 57.3947 80.4876 57.1031C80.3462 57.0024 80.1845 56.9166 80.1309 56.7292C79.9123 56.402 80.0659 56.0445 80.0309 55.7026C80.2154 55.6208 80.3406 55.7419 80.4665 55.8392C82.5932 57.5006 85.0563 58.2745 87.6916 58.6017C89.0331 58.7759 90.3897 58.7981 91.7361 58.668C92.1766 58.6246 92.1725 58.6344 92.0514 58.2181C91.9173 57.7575 91.8158 57.292 92.0376 56.8274C92.3562 55.7157 93.8977 55.2478 94.8599 56.1901C95.0825 56.2139 95.1622 56.4004 95.2589 56.5583C95.4451 56.8727 95.5984 57.2058 95.7164 57.5522C95.7708 57.706 95.8903 57.7739 96.0358 57.6888C96.2137 57.5849 96.0691 57.4785 96.0041 57.3927C95.7755 57.0909 95.5639 56.7766 95.3702 56.4511C95.2887 56.3123 95.2367 56.158 95.2174 55.9979C94.9899 55.4621 94.7786 54.9295 94.8006 54.3226C94.8066 54.0609 94.8767 53.8047 95.0046 53.5768C95.1326 53.3489 95.3144 53.1564 95.534 53.0162C95.7537 52.876 96.0043 52.7926 96.2636 52.7733C96.5229 52.7541 96.783 52.7995 97.0207 52.9057C97.6171 53.1732 98.0446 53.642 98.4517 54.1328C98.5631 54.2669 98.6695 54.406 98.7768 54.5418C99.0945 54.6989 99.1831 55.0367 99.3456 55.3075C99.4886 55.5472 99.5894 55.5823 99.7934 55.3811C100.525 54.658 101.196 53.8882 101.681 52.9695C101.745 52.8206 101.839 52.6867 101.957 52.5761C102.307 52.0893 102.465 51.5249 102.614 50.9563C102.677 50.5956 102.703 50.2307 102.734 49.8659C102.744 49.7301 102.764 49.5952 102.795 49.4626C102.855 49.2172 102.967 49.0127 103.242 49.0111C103.367 49.0043 103.489 49.0469 103.583 49.1297C103.677 49.2126 103.735 49.3291 103.744 49.4544C103.786 49.7612 103.9 49.7686 104.145 49.6426C105.317 49.0364 106.431 48.3427 107.405 47.4437C108.107 46.7893 108.71 46.0629 109.001 45.1188C109.149 44.6387 109.198 44.1576 109.014 43.6783C108.959 43.5335 108.973 43.3862 108.947 43.2423C108.527 42.3694 107.817 41.7657 107.071 41.1972C106.139 40.4888 105.115 39.939 104.064 39.4327C103.983 39.3942 103.857 39.2486 103.777 39.4605C103.753 39.5476 103.695 39.6217 103.617 39.6666C103.539 39.7115 103.447 39.7235 103.36 39.7002C103.145 39.6544 103.066 39.4801 103.027 39.2822C103.015 39.2175 103.002 39.1529 102.984 39.0621C102.556 39.3304 102.171 39.6298 101.713 39.8065C101.276 39.975 100.827 40.0683 100.368 39.921C99.4431 39.6249 99.0531 38.3578 99.5959 37.4252C100.037 36.6661 100.742 36.2112 101.482 35.8039C102.057 35.4873 102.058 35.4906 101.753 34.8459C101.237 35.237 100.734 35.6378 100.209 36.0084C99.1798 36.7381 98.1299 37.4318 96.9061 37.7966C96.7129 37.8582 96.5142 37.9007 96.3129 37.9234C94.8566 38.0567 93.9814 36.8264 94.5592 35.4619C94.9655 34.513 95.7123 33.8668 96.4941 33.2532C97.5001 32.4663 98.6134 31.8536 99.7446 31.2736C99.7365 31.2351 99.7389 31.2032 99.7243 31.1844C99.5187 30.9153 99.3537 30.5022 99.0896 30.4212C98.8117 30.3394 98.5606 30.7525 98.2916 30.939C97.7455 31.3178 97.1938 31.6842 96.5802 31.9444C96.1739 32.1324 95.7329 32.2327 95.2857 32.2389C94.1708 32.2274 93.4418 31.2867 93.7059 30.1938C93.8969 29.4019 94.4495 28.8522 94.959 28.273C95.059 28.0039 95.2784 27.8386 95.4864 27.6677C95.6489 27.536 95.7018 27.4362 95.5571 27.2341C95.2581 26.8177 95.4173 26.4594 95.9179 26.4079C96.1 26.3891 96.1877 26.3326 96.2186 26.1568C96.5355 24.3415 96.7533 22.523 96.3251 20.6947C96.1317 19.8661 95.7668 19.1356 95.0248 18.6546C94.751 18.4779 94.4137 18.4361 94.1521 18.2333Z" fill="#4F3209"/>
<path d="M92.0376 56.827C91.9652 57.4725 92.078 58.1254 92.3626 58.7085C91.1731 58.8865 89.9675 58.9304 88.7683 58.8394C86.831 58.7052 84.949 58.3183 83.1449 57.5608C82.1445 57.1459 81.2092 56.5871 80.3681 55.9018C80.2641 55.82 80.1739 55.7104 80.0268 55.6997C80.0236 54.9744 80.0206 54.2477 80.0179 53.5197C80.0179 53.4133 80.0033 53.3013 80.0992 53.2211C81.1746 54.2131 82.3865 55.0438 83.6975 55.6875C85.0066 56.3343 86.4165 56.7494 87.8655 56.9145C88.0386 56.9333 88.2109 56.9644 88.3831 56.9898C88.488 56.8933 88.6091 56.9137 88.722 56.9554C89.364 57.1951 90.0027 57.1616 90.6439 56.9554C90.7585 56.9178 90.8787 56.8924 90.9828 56.9906C91.3249 56.8679 91.7019 56.9775 92.0376 56.827Z" fill="#D6D9DB"/>
<path d="M80.179 16.1902C80.4675 16.0009 80.7958 15.8816 81.1379 15.8418C81.3898 15.7649 81.5995 15.827 81.7271 16.0634C82.43 17.3666 82.8827 18.7114 82.3431 20.2011C81.9928 21.1598 81.2956 21.802 80.4399 22.2952C80.335 22.3558 80.2197 22.4114 80.101 22.3165C79.9824 22.2216 80.0197 22.094 80.0197 21.9746C80.0197 20.1902 80.0197 18.4055 80.0197 16.6205C80.0141 16.4487 80.0303 16.2974 80.179 16.1902Z" fill="#FEFEFE"/>
<path d="M80.1007 22.3165C81.7788 21.5754 82.8344 19.9589 82.3412 17.9212C82.1935 17.3001 81.9613 16.7025 81.6512 16.1452C81.5302 15.9301 81.3741 15.827 81.1344 15.8418C81.8162 15.6585 82.4289 15.818 82.9165 16.3089C83.7292 17.1269 84.2679 18.1085 84.3533 19.2824C84.4288 20.3262 83.9469 21.1394 83.1562 21.7774C83.0636 21.8328 82.9591 21.8651 82.8515 21.8715C81.8676 22.0433 80.9166 22.3696 80.0333 22.8384C80.0105 22.6585 80 22.4801 80.1007 22.3165Z" fill="#D6D9DB"/>
<path d="M81.8063 57.8054C82.2305 57.9264 82.4808 58.2586 82.6824 58.6087C83.9176 60.7528 83.382 63.2371 80.4533 64.164C80.3111 64.209 80.1648 64.2384 80.021 64.2752C80.021 63.7353 80.021 63.1954 80.0161 62.6547C80.0161 62.505 80.0161 62.3577 80.0974 62.226C80.1049 62.1998 80.1189 62.1759 80.138 62.1565C81.3878 61.2567 81.6292 59.9224 81.682 58.5081C81.6983 58.2741 81.6178 58.0148 81.8063 57.8054Z" fill="#D6D9DB"/>
<path d="M81.8065 57.8054C81.826 58.8803 81.7862 59.9486 81.3189 60.9434C81.0556 61.5013 80.7135 61.997 80.1 62.2277C79.9781 62.1222 80.0187 61.9782 80.0187 61.8473C80.0187 60.2778 80.0187 58.7077 80.0187 57.137C80.0187 56.9947 79.974 56.8336 80.1268 56.728L81.8065 57.8054Z" fill="#FEFEFE"/>
<path d="M80.0246 23.6974C80.1595 23.7121 80.248 23.6156 80.3537 23.5591C81.1021 23.1656 80.9103 23.1975 81.2663 23.8152C81.775 24.6978 82.2057 25.6206 82.4097 26.6317C82.4722 26.9401 82.5031 27.2525 82.4097 27.5601C82.2471 28.1246 81.7595 28.3013 81.2671 27.9822C80.8608 27.7156 80.6024 27.3147 80.3293 26.9262C80.248 26.8133 80.2253 26.6268 80.0205 26.6546C80.0227 25.6686 80.024 24.6828 80.0246 23.6974Z" fill="#B6CDDE"/>
<path d="M90.9834 56.9873C90.5674 57.0601 90.183 57.2393 89.7434 57.2532C89.2558 57.2679 88.8324 57.0945 88.3846 56.9873C87.7841 56.4867 87.2908 55.9321 87.1202 55.1165C86.8203 53.6792 88.0311 52.1331 89.4898 52.075C91.0062 52.0145 92.113 52.9978 92.2585 54.5005C92.3446 55.3824 91.9659 56.1415 91.2752 56.7141C91.172 56.8016 91.046 56.8581 90.9834 56.9873Z" fill="#FECDCD"/>
<path d="M94.1519 18.2329C95.0271 18.3458 95.6365 18.8325 96.0396 19.6015C96.5109 20.5013 96.6434 21.4829 96.6726 22.4801C96.7133 23.8708 96.5312 25.2418 96.2428 26.6218C95.9917 26.5139 95.7202 26.3601 95.552 26.6685C95.3286 27.0775 95.7146 27.2255 95.9778 27.4219L94.9604 28.2735C94.264 28.1622 94.1332 28.0133 94.4217 27.318C95.0002 25.9273 95.1286 24.4761 95.0352 23.0053C94.9312 21.3807 94.7028 19.7757 94.1519 18.2329Z" fill="#D6D9DB"/>
<path d="M88.0013 44.302C87.3203 44.307 86.7246 44.302 86.2086 43.929C86.0892 43.8472 86.0087 43.929 85.9201 43.9904C85.5699 44.2211 85.227 44.4657 84.8637 44.6775C84.6467 44.8051 84.5809 44.9786 84.572 45.2117C84.5574 45.6052 84.5257 45.9978 84.5029 46.3905C84.4891 46.6359 84.3599 46.7676 84.1145 46.7586C83.8691 46.7496 83.7472 46.604 83.7569 46.3602C83.7756 45.9258 83.7902 45.4907 83.8382 45.0587C83.8577 44.8624 83.787 44.7961 83.6171 44.752C83.1986 44.6432 82.7834 44.5221 82.3673 44.4043C82.1235 44.3348 81.9325 44.1998 82.0008 43.9135C82.0691 43.6272 82.3259 43.6034 82.5575 43.6591C83.0556 43.7801 83.5489 43.9225 84.0405 44.0681C84.2087 44.1188 84.3444 44.127 84.4883 44.0051C84.6162 43.9058 84.7521 43.8174 84.8946 43.7409C85.3749 43.4611 85.734 43.1822 85.7731 42.4975C85.8153 41.7612 86.1899 41.0692 86.68 40.4843C87.1838 39.8822 87.8176 39.856 88.3532 40.4286C88.8733 40.9792 89.4096 41.5183 89.7842 42.1923C89.8776 42.3569 89.956 42.5297 90.0183 42.7085C90.2718 43.4685 89.9167 44.0771 89.1244 44.2153C88.755 44.2909 88.3778 44.32 88.0013 44.302Z" fill="#4E3108"/>
<path d="M108.946 43.2419C109.454 44.1515 109.265 45.0358 108.805 45.8817C108.136 47.1087 107.072 47.953 105.944 48.7203C105.322 49.1305 104.679 49.507 104.017 49.8483C103.637 50.0512 103.625 50.0406 103.641 49.6201C103.641 49.5931 103.647 49.5661 103.649 49.5383C103.663 49.2929 103.544 49.1366 103.316 49.1007C103.072 49.0622 102.945 49.2078 102.909 49.4459C102.828 49.9539 102.804 50.4725 102.616 50.9584C102.63 50.2696 102.53 49.5776 102.672 48.8912C102.811 48.2221 103.169 47.8417 103.883 47.737C104.858 47.5938 105.671 47.0556 106.391 46.4191C107.416 45.5138 108.28 44.4393 108.946 43.2419Z" fill="#D6D9DB"/>
<path d="M92.915 50.2115C91.8505 50.1854 91.3149 49.2667 91.8415 48.3366C92.3226 47.4867 93.0605 47.0073 94.0356 46.9459C95.036 46.8829 95.6398 47.773 95.2432 48.7014C94.8824 49.5465 93.8211 50.2344 92.915 50.2115Z" fill="#4F3209"/>
<path d="M87.1659 34.43C87.1513 35.5843 85.6707 36.8416 84.5436 36.6035C83.7886 36.4448 83.4189 35.8967 83.6497 35.0304C83.9073 34.0488 84.984 33.2308 85.9957 33.2062C86.6589 33.1915 87.1741 33.733 87.1659 34.43Z" fill="#4F3209"/>
<path d="M101.956 52.5757C101.812 53.1262 101.458 53.5573 101.144 54.0081C100.73 54.5802 100.256 55.1054 99.7297 55.5746C99.5583 55.7317 99.4713 55.7546 99.3527 55.5214C99.1804 55.1844 98.9708 54.867 98.7773 54.5398C99.8045 53.9279 100.842 53.3332 101.804 52.6166C101.852 52.594 101.904 52.5801 101.956 52.5757Z" fill="#D6D9DB"/>
<path d="M95.2174 55.9975C95.5037 56.5036 95.8258 56.9883 96.1812 57.4479C96.2381 57.5191 96.3681 57.6246 96.3039 57.6745C96.1706 57.7784 95.9927 57.8283 95.8285 57.888C95.6822 57.9412 95.6855 57.8062 95.6587 57.7244C95.5384 57.3645 95.4246 57.0013 95.2125 56.6822C95.1012 56.5137 94.9777 56.355 94.8599 56.1914C94.9704 56.1096 95.1288 56.1186 95.2174 55.9975Z" fill="#D6D8DA"/>
<path d="M96.096 37.1745C95.4508 37.1745 95.0615 36.7033 95.1769 36.1111C95.3126 35.4206 95.7547 34.9192 96.2472 34.4693C97.3556 33.4557 98.6469 32.7187 99.969 32.0332C100.145 31.9415 100.247 31.9407 100.361 32.1264C100.712 32.6904 101.033 33.2728 101.323 33.8713C101.378 33.9883 101.435 34.0872 101.303 34.1911C99.8301 35.3634 98.3592 36.5413 96.5202 37.1025C96.3808 37.137 96.239 37.161 96.096 37.1745Z" fill="#B6CDDE"/>
<path d="M95.359 31.481C94.6821 31.481 94.2969 30.9812 94.461 30.3619C94.6057 29.8171 94.9576 29.4032 95.3362 29.0146C95.5955 28.7576 95.8681 28.5146 96.1529 28.2866C96.6405 27.8865 96.6503 27.8775 97.0964 28.2866C97.5425 28.6956 97.97 29.1349 98.4072 29.5586C98.5031 29.6519 98.5819 29.7361 98.434 29.8506C97.5653 30.5222 96.6885 31.1775 95.5979 31.4491C95.5191 31.4655 95.4393 31.4762 95.359 31.481Z" fill="#B6CDDE"/>
<path d="M95.5488 54.458C95.5488 53.7217 96.1989 53.3324 96.8425 53.6866C97.3415 53.9598 97.6974 54.3925 98.016 54.8515C98.2858 55.2408 98.5174 55.658 98.7799 56.054C98.879 56.2037 98.8546 56.2871 98.7132 56.3812C98.2548 56.6944 97.7792 56.9815 97.2887 57.2409C97.1936 57.2908 97.1067 57.3506 97.0067 57.2287C96.3672 56.4466 95.7715 55.6417 95.5594 54.6199C95.5522 54.5663 95.5487 54.5121 95.5488 54.458Z" fill="#B6CDDE"/>
<path d="M100.821 39.2294C100.372 39.2172 100.027 38.6985 100.131 38.1807C100.213 37.7905 100.448 37.496 100.734 37.24C101.129 36.8849 101.592 36.6338 102.053 36.3802C102.243 36.2755 102.335 36.3074 102.388 36.534C102.477 36.9445 102.591 37.3491 102.729 37.7455C102.859 38.0973 102.729 38.2895 102.454 38.4817C101.812 38.9308 101.169 39.2384 100.821 39.2294Z" fill="#B6CDDE"/>
<path d="M92.7704 57.3129C92.7631 57.0037 92.8606 56.7468 93.1458 56.5996C93.4603 56.436 93.7829 56.3722 94.1023 56.593C94.6053 56.9407 94.7744 57.4929 94.9483 58.0336C94.9873 58.1571 94.9036 58.2029 94.8012 58.2267C94.3136 58.3395 93.826 58.4492 93.3449 58.567C93.32 58.5765 93.2934 58.5807 93.2668 58.5793C93.2402 58.5779 93.2142 58.5709 93.1905 58.5588C93.1667 58.5467 93.1457 58.5298 93.1287 58.5091C93.1118 58.4884 93.0994 58.4643 93.0922 58.4385C92.9272 58.0794 92.7932 57.7129 92.7704 57.3129Z" fill="#B6CDDE"/>
<path d="M82.1251 26.7045C82.1308 26.8681 82.1251 27.0022 81.9764 27.0374C81.8276 27.0726 81.7545 26.9728 81.7326 26.8362C81.5725 25.9511 81.106 25.1952 80.7192 24.4074C80.6518 24.2692 80.5404 24.144 80.7192 24.0262C80.9281 23.8904 80.9728 24.0949 81.0386 24.2111C81.449 24.9128 81.7853 25.6558 82.0422 26.428C82.0779 26.5343 82.1056 26.6357 82.1251 26.7045Z" fill="#FCFDFD"/>
<path d="M86.5009 43.0276C86.4196 42.3772 86.7821 41.8651 87.0324 41.3203C87.1073 41.1753 87.2035 41.0424 87.3176 40.926C87.4435 40.787 87.5996 40.7518 87.7385 40.908C88.2887 41.5232 88.9128 42.0794 89.2557 42.8582C89.3776 43.1355 89.3906 43.3875 89.0225 43.4415C88.2627 43.5527 87.498 43.6713 86.7577 43.3343C86.8473 42.8818 86.9885 42.4412 87.1786 42.0214C87.3842 41.5894 87.5524 41.56 87.9181 41.8529C87.9888 41.9093 88.0433 42.0017 88.1871 41.9649C88.0652 41.6843 87.8848 41.4659 87.5833 41.4397C87.3062 41.416 87.1599 41.6451 87.0429 41.8668C86.9153 42.1081 86.8633 42.3789 86.7601 42.63C86.7008 42.7781 86.6634 42.9458 86.5009 43.0276Z" fill="#FECDCD"/>
<path d="M86.501 43.0276C86.6432 42.6316 86.774 42.2316 86.9325 41.8422C87.0487 41.5543 87.2437 41.2941 87.5826 41.3064C87.9402 41.3195 88.1303 41.6189 88.314 41.8897C88.3717 41.9715 88.3952 42.068 88.2945 42.1416C88.2569 42.1719 88.2092 42.1865 88.1613 42.1823C88.1133 42.1782 88.0688 42.1558 88.0369 42.1195C87.9962 42.0836 87.9556 42.0443 87.9206 42.0058C87.5306 41.6287 87.4461 41.6557 87.2128 42.1694C87.0414 42.5498 87.0593 43.0038 86.7586 43.3319C86.6026 43.2918 86.501 43.2043 86.501 43.0276Z" fill="#FEFCFC"/>
<path d="M100.165 32.8095C100.154 32.9731 100.031 33.0189 99.9209 33.0712C99.5324 33.2561 99.1383 33.4287 98.762 33.6439C98.1794 33.9711 97.6528 34.3613 97.2465 34.9004C97.1652 35.0059 97.097 35.1049 96.9564 34.9944C96.8377 34.9004 96.8475 34.8006 96.9304 34.6787C97.1783 34.323 97.4874 34.0146 97.843 33.7682C98.4532 33.3442 99.1071 32.9876 99.7933 32.7048C99.942 32.6418 100.113 32.5641 100.165 32.8095Z" fill="#FDFDFD"/>
<path d="M96.4153 35.7258C96.4128 35.7639 96.3954 35.7995 96.3669 35.8248C96.3385 35.8501 96.3012 35.863 96.2633 35.8607C96.243 35.8616 96.2227 35.8577 96.2042 35.8493C96.1856 35.8409 96.1692 35.8283 96.1564 35.8124C96.1435 35.7965 96.1345 35.7778 96.1301 35.7578C96.1257 35.7378 96.1259 35.717 96.1309 35.6971C96.1341 35.6771 96.1413 35.658 96.1519 35.6408C96.1626 35.6235 96.1765 35.6086 96.1929 35.5968C96.2092 35.585 96.2278 35.5766 96.2474 35.5721C96.267 35.5675 96.2874 35.567 96.3072 35.5703C96.3844 35.5777 96.4251 35.6284 96.4153 35.7258Z" fill="#F9FBFC"/>
<path d="M95.2297 30.4012C95.0143 30.33 95.0419 30.1795 95.1248 30.0175C95.3897 29.4956 95.8432 29.1471 96.2715 28.7782C96.3984 28.6776 96.532 28.5857 96.6713 28.5033C96.7745 28.4362 96.85 28.4919 96.9151 28.5704C96.9801 28.6489 96.9419 28.7266 96.8769 28.7823C96.6729 28.9573 96.4705 29.1381 96.2552 29.2993C95.9261 29.5447 95.6344 29.8187 95.471 30.2081C95.4263 30.312 95.3719 30.4028 95.2297 30.4012Z" fill="#FCFDFD"/>
<path d="M96.7401 54.1242C97.0083 54.1144 97.1952 54.2649 97.365 54.4514C97.43 54.5201 97.5105 54.5921 97.4341 54.6968C97.3577 54.8015 97.261 54.7885 97.1488 54.7345C96.6019 54.4727 96.5987 54.4743 96.428 55.0674C96.3947 55.1836 96.3468 55.2711 96.2168 55.2695C96.176 55.2676 96.137 55.2526 96.1054 55.2266C96.0738 55.2007 96.0513 55.1652 96.0412 55.1255C95.8925 54.7451 96.3338 54.116 96.7401 54.1242Z" fill="#FCFDFD"/>
<path d="M102.277 37.0248C102.277 37.1696 102.2 37.2301 102.092 37.2768C101.597 37.4903 101.095 37.6931 100.852 38.2396C100.842 38.2619 100.828 38.2817 100.81 38.2979C100.792 38.314 100.77 38.3259 100.747 38.3329C100.724 38.3399 100.699 38.3418 100.675 38.3384C100.652 38.335 100.629 38.3264 100.608 38.3132C100.586 38.3045 100.566 38.2912 100.549 38.2744C100.532 38.2575 100.518 38.2373 100.509 38.2151C100.5 38.1928 100.496 38.1689 100.496 38.1449C100.497 38.1208 100.502 38.0971 100.512 38.0752C100.565 37.9224 100.645 37.7804 100.748 37.6555C101.092 37.3109 101.512 37.0535 101.974 36.9046C102.112 36.8596 102.245 36.8416 102.277 37.0248Z" fill="#FCFDFD"/>
<path d="M93.418 56.7567C93.5375 56.7509 93.6065 56.7869 93.6431 56.8695C93.6646 56.905 93.6714 56.9475 93.6619 56.9879C93.6525 57.0284 93.6276 57.0634 93.5927 57.0855C93.279 57.2491 93.3051 57.4945 93.3953 57.7759C93.4408 57.9158 93.4879 58.1031 93.314 58.1661C93.1125 58.2389 93.0816 58.0254 93.032 57.9011C92.9158 57.6058 92.8589 57.3007 93.0531 57.0094C93.1422 56.8854 93.2711 56.7961 93.418 56.7567Z" fill="#FCFCFD"/>
</g>
<defs>
<clipPath id="clip0_558_565">
<rect width="30" height="50" fill="white" transform="translate(80 15)"/>
</clipPath>
</defs>
</svg>
