<svg width="131" height="80" viewBox="0 0 131 80" fill="none" xmlns="http://www.w3.org/2000/svg">
<path d="M130.117 42.6752C127.845 42.6094 125.572 42.6094 123.3 42.6094C121.557 42.6094 119.792 42.6533 118.049 42.6094C117.806 42.6094 117.431 42.2583 117.387 42.017C117.255 41.1832 117.211 40.3494 117.211 39.5157C117.211 39.2743 117.343 38.9013 117.519 38.8135C118.137 38.5283 118.799 38.2431 119.461 38.1772C121.27 38.0017 123.079 37.9798 124.889 37.8043C125.793 37.7165 126.698 37.4751 127.558 37.1899C127.845 37.1021 128.044 36.6633 128.264 36.3781C127.911 36.3123 127.558 36.1587 127.227 36.2245C126.301 36.4 125.418 36.7291 124.491 36.8608C122.263 37.1899 119.991 37.3874 117.762 37.7384C117.056 37.8481 116.813 37.6945 116.571 37.0582C116.041 35.6759 115.534 34.2717 114.828 32.9552C113.504 30.4539 111.739 28.2598 109.489 26.5265C107.878 25.2758 106.422 23.718 104.26 23.2792C104.083 23.2353 103.907 22.8842 103.84 22.6429C103.598 21.7433 103.465 20.8217 103.156 19.9441C102.539 18.1669 101.877 16.3896 101.193 14.6343C100.862 13.8006 100.531 12.9449 100.023 12.1988C99.0086 10.6849 98.2143 10.5971 97.0009 11.9794C95.6109 13.5592 94.3974 15.2706 93.1839 17.004C92.6765 17.7061 92.3897 18.5618 91.9926 19.3517C92.0808 19.3956 92.169 19.4614 92.2573 19.5053C92.4117 19.4175 92.5882 19.3517 92.6765 19.22C93.3825 18.1888 94.0003 17.1137 94.7504 16.1263C95.655 14.9415 96.6258 13.8225 97.6186 12.7035C98.2143 12.0233 98.788 12.0233 99.1851 12.9229C99.6264 13.9103 100.09 14.8757 100.487 15.863C101.149 17.6183 101.855 19.3517 102.362 21.1509C102.759 22.5112 102.848 23.9374 103.134 25.3197C103.201 25.6049 103.642 26.0218 103.862 25.9999C104.326 25.956 104.767 25.6488 104.502 25.0125C104.458 24.8809 104.436 24.7492 104.37 24.4201C109.886 27.6455 113.725 31.8801 115.534 38.0456C112.158 38.2431 109.489 39.7351 106.885 41.4026C107.326 41.4684 107.746 41.4465 108.099 41.271C110.084 40.1958 112.114 39.2524 114.387 39.011C115.181 38.9233 115.776 38.9671 115.865 39.9545C115.909 40.7005 116.085 41.4465 116.019 42.1925C115.997 42.5216 115.556 42.9824 115.225 43.0701C114.188 43.3554 113.107 43.4431 112.048 43.6626C111.783 43.7284 111.562 43.9697 111.32 44.1233C111.342 44.1891 111.386 44.255 111.408 44.3208C112.908 44.1891 114.387 44.0794 116.152 43.9258C115.754 45.6592 115.556 47.1951 115.07 48.6213C113.261 53.8872 109.819 58.0121 105.407 61.3033C99.8029 65.4941 93.4928 68.0392 86.565 69.0924C81.4905 69.8604 76.4381 69.9701 71.3857 69.0266C65.539 67.9515 60.1115 65.9548 55.4782 62.1371C55.1693 61.8738 54.5957 61.9396 54.1544 61.8518C54.1103 62.0273 54.0441 62.2029 54 62.3784C54.6398 62.8611 55.2576 63.3219 55.8974 63.8265C61.2367 68.0392 67.4805 69.9701 74.1215 70.7161C80.939 71.4621 87.6241 70.738 94.1547 68.5439C99.4719 66.7667 104.304 64.1995 108.474 60.4695C113.283 56.1471 116.593 50.9909 117.255 44.4086C117.321 43.7064 117.652 43.487 118.314 43.509C119.704 43.5528 121.094 43.5967 122.484 43.5528C123.013 43.5309 123.543 43.3115 124.006 43.2018C124.536 43.2896 125.109 43.3993 125.683 43.4431C127.117 43.5748 128.551 43.7284 129.985 43.7942C130.316 43.8161 130.669 43.5309 131 43.3773C130.735 43.136 130.426 42.6752 130.117 42.6752Z" fill="#111F22"/>
<path d="M57.2436 27.3534C57.2218 27.3106 57.2655 27.2251 57.2655 27.1395C57.3745 25.9206 57.6145 24.7017 57.5709 23.5042C57.44 20.104 58.2254 16.9391 59.84 13.9453C60.3854 12.9402 61.0618 12.7691 61.8909 13.5603C63.0036 14.6296 64.0727 15.7416 65.0982 16.8536C67.0618 18.992 69.4836 20.7456 70.4873 23.6111C70.5527 23.8036 70.9236 23.8891 71.1418 24.0388C71.2727 23.8249 71.4255 23.6111 71.5345 23.3759C71.6436 23.1406 71.6654 22.7771 71.84 22.6915C72.8 22.2211 73.76 21.6223 74.8073 21.4299C77.2509 20.9594 79.6291 20.0826 82.2473 20.5959C83.7309 20.8952 85.3455 20.5531 86.9164 20.5745C87.6582 20.5959 88.4218 20.8952 89.1418 20.8739C90.3418 20.8311 90.1455 21.7506 90.32 22.4563C90.4291 22.4777 90.5382 22.4777 90.6255 22.4991C91.0618 21.7079 91.4764 20.938 92 19.9757C89.6436 19.8474 87.6364 19.6977 85.6073 19.6122C85.2582 19.5908 84.9091 19.8046 84.5382 19.9329C79.8909 19.3342 75.3745 19.5266 71.2509 22.2639C70.9454 21.9003 70.6182 21.6223 70.4873 21.2802C70.1382 20.3179 69.5054 19.6763 68.5673 19.27C68.3709 19.1845 68.1745 19.0348 68.0655 18.8637C67.8255 18.5216 67.6509 18.1152 67.3891 17.7731C67.2364 17.5592 66.9745 17.4523 66.8 17.2599C65.2945 15.656 63.8764 13.9666 62.2836 12.4483C61.3891 11.593 59.3382 12.0634 58.9673 13.0043C58.5309 14.1163 58.0291 15.2069 57.6582 16.3189C56.8291 18.7782 56.4145 21.2802 56.6327 23.9105C56.7418 25.1722 56.5673 26.4766 56.4582 27.7383C56.4145 28.166 56.1745 28.5937 56 29C56.8945 28.7862 58.0945 28.7862 57.2436 27.3534Z" fill="#111F22"/>
<path d="M56.0439 29.0439C56.0439 29.0219 56.0658 29.0219 56.0658 29C56.0439 29 56.0439 29 56.0219 29.0219C56.0219 29.0439 56 29.0439 56 29.0658C56 29.0658 56.0219 29.0439 56.0439 29.0439Z" fill="#111F22"/>
<path d="M44.79 43.5612C45.6871 43.3915 46.6065 42.7765 47.4811 43.6884C47.526 43.752 47.8624 43.5612 48.0642 43.4976C48.3558 43.4127 48.6473 43.2431 48.9164 43.2855C51.002 43.4976 53.0877 43.7096 55.1509 43.9853C55.8236 44.0701 56.474 44.3458 57.1244 44.5579C58.5821 45.0245 60.0397 45.5122 61.5199 45.9152C61.9684 46.0424 62.4842 45.9788 62.9551 46C62.9776 45.8728 63 45.7243 63 45.5971C62.0805 45.1517 61.2283 44.5579 60.2416 44.2822C58.4475 43.752 56.5861 43.4976 54.792 42.9886C53.581 42.6493 52.4822 42.7129 51.5627 43.1582C50.4638 42.8189 49.4771 42.5008 48.4006 42.1615C48.7818 41.2284 49.0734 40.4225 49.4098 39.6378C50.1723 37.708 51.159 35.9054 52.527 34.2936C52.7737 33.9967 52.7513 33.509 52.841 33.106C52.7289 33.0636 52.6167 33.0424 52.4822 33C52.0561 33.5302 51.5851 34.0179 51.2263 34.5693C49.791 36.7325 48.3782 38.8744 48.0418 41.5041C48.0194 41.7162 47.7727 42.0343 47.5933 42.0555C46.1804 42.2675 44.7452 42.4584 43.3323 42.5644C42.5698 42.6281 41.7849 42.5008 41 42.4584C41 42.5644 41.0224 42.6705 41.0224 42.7553C42.054 43.031 43.0856 43.3279 44.1172 43.5824C44.3415 43.6248 44.5882 43.6036 44.79 43.5612Z" fill="#111F22"/>
<path d="M59.8157 48.1456C57.5928 48.3118 55.282 47.9793 53.1472 48.829C52.5309 49.0692 51.7827 49.1246 51.1004 49.2908C50.7263 49.3832 50.3741 49.531 50 49.6603C51.2545 50.1221 52.4869 50.1221 53.5433 49.6049C55.326 48.7182 57.2407 48.9399 59.1554 48.9214C60.3219 48.9214 61.4883 48.8106 62.6327 48.829C63.337 48.8475 64.0633 49.0507 64.7675 49.1246C65.1637 49.1615 65.5818 49.1061 65.978 49.0877C65.978 48.9399 66 48.7736 66 48.6259C65.0536 48.4227 64.1293 48.1086 63.1829 48.0347C62.0605 47.9424 60.9381 48.0532 59.8157 48.1456Z" fill="#111F22"/>
<path d="M41 53.6662C41.4396 53.9107 41.9024 54.0818 42.2727 53.9595C43.7073 53.5196 45.1188 52.933 46.5765 52.5419C46.9468 52.4442 47.5253 52.6641 47.8029 52.933C48.4046 53.544 48.5434 53.2507 48.8211 52.6397C49.3533 51.4665 48.5665 50.7332 48.1732 50C46.2063 52.0775 43.4296 52.3953 41 53.6662Z" fill="#111F22"/>
<path d="M54 61.5793C53.5217 61.048 53.0652 60.4945 52.5435 59.9852C52.1739 59.6089 51.6304 59.3653 51.3478 58.9446C50.8261 58.1697 50.4565 57.262 49.9565 56.4871C49.7826 56.2214 49.3261 56.155 49 56C49.7391 58.4354 51.1739 60.1845 52.8261 61.7786C53.0435 62 53.5435 61.9336 53.9348 62C53.9348 61.845 53.9783 61.7122 54 61.5793Z" fill="#111F22"/>
<path d="M84.0465 43C83.7209 43.2677 83.3023 43.4735 83.093 43.7824C82.7442 44.3383 82.4651 44.9559 82.2326 45.553C82.093 45.9236 82.0698 46.3559 82 46.7471C82.1395 46.7677 82.2558 46.7677 82.3954 46.7883C83.5814 45.5118 83.5814 45.5324 85.2093 46.6442C85.7442 47.0148 86.3023 47.2206 87 46.6236C86.3488 46.2324 85.7675 45.8206 85.1628 45.5324C84.4419 45.1824 83.9768 44.8324 84.4651 44.0088C84.5814 43.7824 84.2093 43.3294 84.0465 43Z" fill="#111F22"/>
<path d="M96.5714 37C93.2381 37.6341 90.0952 38.8537 87 41.5854C87.6667 42.0244 88.1429 42.3659 89.1429 43C88.6667 42.0732 88.5238 41.7317 88.3809 41.439C91.2857 40.3658 94.1429 39.2927 97 38.2683C96.8571 37.878 96.7143 37.439 96.5714 37Z" fill="#111F22"/>
<path d="M47.1141 48C47.4585 47.7818 47.932 47.6364 47.9535 47.4424C48.0181 46.3273 47.9966 45.1879 47.9966 44C46.6191 45.0424 47.0496 46.4485 47.1141 48Z" fill="#111F22"/>
<path d="M56 29C54.3404 29.3214 53.6809 30.6714 53 32C53.8298 31.3786 54.617 30.6714 55.3617 29.9429C55.617 29.6643 55.7872 29.3214 56 29Z" fill="#111F22"/>
<path d="M72 41.7618C74.208 42.4109 75.888 43.8713 78 42.2892C76.128 42.4109 74.64 39.7335 72 41.7618Z" fill="#111F22"/>
<rect x="0.5" y="0.5" width="79" height="79" rx="15.5" fill="#FAFAFA" stroke="#242424" stroke-dasharray="4 4"/>
<rect x="33" y="39" width="14" height="2" rx="1" fill="#242424"/>
<rect x="39" y="47" width="14" height="2" rx="1" transform="rotate(-90 39 47)" fill="#242424"/>
</svg>
