<svg width="83" height="79" viewBox="0 0 83 79" fill="none" xmlns="http://www.w3.org/2000/svg">
<g clip-path="url(#clip0_559_672)">
<path d="M55.2212 29.9C55.0756 29.9975 54.9103 29.9813 54.7476 29.9813C46.6484 29.9813 38.5499 29.9799 30.4519 29.9772C30.3079 29.9772 30.1083 30.0691 30.0429 29.8285C29.975 29.666 30.1001 29.579 30.1819 29.4791C30.2637 29.3791 30.3733 29.2857 30.4527 29.176C30.7717 28.7331 30.9492 28.2512 30.6687 27.7368C30.4028 27.2492 29.9905 26.9591 29.3942 26.9242C28.3618 26.8657 27.4407 27.2086 26.5359 27.6303C26.1539 27.8083 25.7768 27.9952 25.4079 28.1992C25.0177 28.4162 24.8483 28.3479 24.7224 27.914C24.36 26.6641 24.2855 25.3875 24.3951 24.0946C24.4377 23.5924 24.4557 23.5916 23.9763 23.4526C23.8457 23.4125 23.7277 23.3398 23.6335 23.2413C22.3051 21.9273 21.141 20.4922 20.4481 18.732C20.1536 17.9844 19.9827 17.2067 20.0276 16.3949C20.0399 16.1763 20.0506 15.9609 20.2043 15.7846C20.3679 15.6286 20.5855 15.5774 20.7941 15.5237C22.6871 15.0361 24.6046 14.7428 26.5654 14.8362C27.3286 14.864 28.083 15.0084 28.8019 15.2645C28.9655 15.3254 29.1291 15.388 29.3009 15.4408C29.8981 15.6294 29.9872 15.5887 30.1967 15.0402C30.4887 14.985 30.6327 15.2222 30.8085 15.3693C31.1873 15.6863 31.5824 15.9699 32.052 16.1332C32.9559 16.4485 33.9375 15.965 34.0741 15.115C34.1516 14.6727 34.115 14.2181 33.9678 13.7936C33.6537 12.9136 33.1498 12.148 32.5771 11.4183C32.1951 10.9307 32.1992 10.8714 32.7064 10.4919C32.7612 10.4513 32.8152 10.4106 32.87 10.3708C33.2348 10.1157 33.315 10.127 33.5244 10.5155C34.0005 11.3825 34.4693 12.2545 35.0582 13.0541C35.5327 13.6986 36.026 14.3324 36.6657 14.8265C37.2604 15.2848 37.9026 15.6286 38.701 15.4262C39.3726 15.2556 39.7759 14.7818 39.8127 14.0935C39.8446 13.5125 39.6793 12.9721 39.4462 12.4447C38.8539 11.1079 38.0081 9.93118 37.1123 8.78781C37.0706 8.73417 37.0215 8.68623 36.9839 8.63016C36.8579 8.44081 36.6681 8.25553 36.9839 8.06131C37.3307 7.84678 37.5737 7.86791 37.7381 8.18077C38.1054 8.86663 38.5144 9.52162 39.1124 10.032C39.6294 10.4748 40.2143 10.6772 40.89 10.4383C41.713 10.1465 42.0353 9.50861 41.8103 8.66916C41.6744 8.21414 41.462 7.78524 41.1821 7.40064C41.0184 7.15685 40.953 6.97482 41.3113 6.84886C41.569 6.75785 41.6508 6.56932 41.4414 6.34991C41.2827 6.1825 41.2909 6.02079 41.38 5.83144C42.1261 4.24031 42.9866 2.72475 44.3307 1.53993C44.6031 1.29614 44.8673 1.03528 45.2592 0.988149C46.0396 1.33108 46.7103 1.84223 47.3419 2.39401C48.0781 3.0368 48.7595 3.7381 49.261 4.58812C49.5291 5.0438 49.7268 5.53687 49.8475 6.05086C50.0496 6.90981 50.4504 7.24949 51.347 7.27631C51.8779 7.29175 52.4104 7.282 52.9397 7.282C53.5418 7.41202 54.1381 7.55342 54.6109 7.98492C55.2667 8.89658 55.8711 9.84367 56.4213 10.8218C56.4924 10.9494 56.593 11.0656 56.5849 11.2281C56.5194 11.4248 56.3354 11.5061 56.193 11.6288C55.6548 12.092 55.1206 12.5617 54.9398 13.2882C54.8883 13.4926 54.8827 13.7058 54.9231 13.9127C54.9636 14.1196 55.0493 14.3152 55.174 14.4856C55.2988 14.6561 55.4597 14.7973 55.6454 14.8993C55.8311 15.0013 56.037 15.0616 56.2486 15.076C56.6995 15.1081 57.1512 15.0282 57.5632 14.8436C57.7121 14.7802 57.8553 14.6892 58.0303 14.7306C58.1939 14.8029 58.2283 14.9451 58.2397 15.1003C58.2239 15.2073 58.1827 15.309 58.1195 15.397C57.5559 16.3567 57.7596 17.1953 58.6921 17.769C58.7757 17.8147 58.8507 17.8743 58.9138 17.9454C59.0774 18.2704 59.0774 18.6207 59.0406 18.9725C58.7829 19.1302 58.7134 18.8775 58.6038 18.7572C58.2171 18.3138 57.6921 18.0117 57.1125 17.8991C55.8625 17.6504 54.624 18.4289 54.2665 19.6966C53.9295 20.8936 54.6404 22.2466 55.8282 22.6448C56.8834 22.9991 57.7792 22.7261 58.5441 21.9427C58.6766 21.807 58.7494 21.573 59.0095 21.603C59.1003 21.7071 59.0815 21.8281 59.0676 21.9492C58.7527 24.6943 57.672 27.1143 55.9214 29.2459C55.7177 29.4937 55.5754 29.8131 55.2212 29.9Z" fill="#FEFEFE"/>
<path d="M20.2332 15.8481C19.9878 16.8379 20.2054 17.7822 20.5604 18.698C21.259 20.4858 22.455 21.9307 23.8113 23.2553C23.8607 23.3185 23.9328 23.3601 24.0125 23.3715C24.5508 23.4203 24.6007 23.482 24.541 24.007C24.3895 25.2581 24.4773 26.5263 24.7995 27.7451C24.806 27.7711 24.8093 27.7979 24.8158 27.8264C24.9492 28.3245 24.9484 28.3237 25.3885 28.084C26.2949 27.5891 27.2192 27.1356 28.2344 26.8935C28.6449 26.7936 29.0694 26.7628 29.4901 26.8024C30.7548 26.9243 31.3315 28.205 30.5797 29.2257C30.421 29.4419 30.2231 29.632 30.0431 29.8303C29.6054 30.118 29.1171 29.927 28.6524 29.9774C28.5371 29.7669 28.7154 29.6873 28.8365 29.5963C29.1179 29.3834 29.4214 29.1965 29.6619 28.9348C29.8901 28.691 30.0914 28.4163 29.9425 28.062C29.7936 27.7077 29.4598 27.65 29.1187 27.6557C28.4242 27.6744 27.7845 27.9117 27.1554 28.1766C26.7034 28.3667 26.2643 28.5858 25.8408 28.8324C25.4212 29.0762 25.4228 29.0957 25.6306 29.528C25.6969 29.6662 25.831 29.8027 25.6944 29.9725L24.8355 29.9636C24.622 29.8774 24.5606 29.6727 24.4772 29.4923C24.1868 28.8641 23.9365 28.2156 23.8358 27.533C23.7139 26.683 23.1356 26.262 22.4329 25.95C21.7302 25.6379 21.0242 25.7233 20.324 25.9597C19.6652 26.1831 19.0596 26.5385 18.5448 27.004C18.0024 27.4916 17.7865 28.1075 17.9329 28.8332C17.9492 29.1802 18.2225 29.4614 18.1906 29.8214C18.0163 30.0635 17.4093 30.0611 17.303 29.8059C16.8653 28.7633 16.7958 27.4184 17.8249 26.4644C18.6977 25.6518 19.7064 25.0886 20.9081 24.9204C21.8054 24.7776 22.7234 24.9858 23.4694 25.5014C23.5348 25.5461 23.6043 25.5827 23.7336 25.6639C23.7336 25.2048 23.727 24.7969 23.7336 24.3881C23.7336 24.1736 23.57 24.0923 23.4456 23.9761C21.9077 22.5134 20.5768 20.9043 19.8013 18.9036C19.3644 17.779 19.2287 16.6177 19.5101 15.4394C19.8332 14.0937 20.7837 13.3412 22.0542 12.9348C23.4841 12.483 24.9541 12.522 26.4249 12.6455C27.2655 12.7172 28.1 12.847 28.9224 13.034C29.1073 13.0754 29.1907 13.0259 29.2954 12.8975C32.1127 9.46165 35.7579 7.37155 40.0812 6.42077C40.3266 6.36714 40.4379 6.25256 40.5377 6.03396C41.3099 4.34206 42.1827 2.70947 43.5219 1.37432C45.2586 -0.358218 47.203 -0.456546 49.1271 1.09396C50.4964 2.19752 51.4454 3.62694 52.2757 5.14331C52.5154 5.58213 52.6503 6.10222 52.9694 6.46791C53.2884 6.83359 53.8798 6.82221 54.3363 7.01887C56.8428 8.09724 58.6335 9.91428 59.8924 12.2847C61.3117 14.9575 61.7117 17.8375 61.6168 20.8117C61.5653 22.6529 61.2344 24.4759 60.6352 26.219C60.6188 26.2661 60.6115 26.3173 60.5845 26.4376C61.4745 25.9898 62.3711 25.9053 63.284 25.9752C64.5699 26.0743 65.469 26.8016 66.1782 27.7987C66.5478 28.3195 66.813 28.906 66.9594 29.5264C67.0412 29.8661 67.0142 30.053 66.6003 29.9823C66.4915 29.9721 66.3821 29.9704 66.2731 29.9774C66.1095 29.8685 66.0784 29.6922 66.0277 29.5231C65.8182 28.764 65.3897 28.0823 64.7949 27.5623C63.7503 26.6407 62.5379 26.6684 61.3109 27.1039C60.7383 27.3071 60.1877 27.6013 59.8965 28.1945C59.6597 28.6497 59.3947 29.0899 59.103 29.5126C59.0024 29.654 58.9165 29.8157 58.7292 29.8693C58.4019 30.0879 58.0445 29.9343 57.7025 29.9693C57.6207 29.7848 57.7418 29.6597 57.8391 29.5337C59.5006 27.407 60.2744 24.9439 60.6016 22.3086C60.7758 20.9671 60.798 19.6105 60.6679 18.2641C60.6246 17.8236 60.6344 17.8277 60.218 17.9488C59.7574 18.0829 59.292 18.1845 58.8273 17.9626C57.7156 17.6441 57.2477 16.1025 58.1901 15.1403C58.2138 14.9177 58.4003 14.838 58.5582 14.7413C58.8727 14.5551 59.2058 14.4018 59.5521 14.2838C59.7059 14.2294 59.7738 14.1099 59.6887 13.9644C59.5848 13.7865 59.4785 13.9311 59.3926 13.9961C59.0909 14.2247 58.7765 14.4363 58.451 14.63C58.3122 14.7115 58.1579 14.7635 57.9978 14.7828C57.462 15.0103 56.9295 15.2216 56.3225 15.1997C56.0608 15.1936 55.8046 15.1236 55.5768 14.9956C55.3489 14.8677 55.1563 14.6858 55.0161 14.4662C54.876 14.2465 54.7926 13.9959 54.7733 13.7366C54.754 13.4773 54.7995 13.2172 54.9057 12.9795C55.1732 12.3831 55.6419 11.9556 56.1327 11.5485C56.2669 11.4372 56.4059 11.3307 56.5417 11.2234C56.6988 10.9057 57.0366 10.8171 57.3074 10.6546C57.5471 10.5116 57.5823 10.4108 57.381 10.2068C56.6579 9.47546 55.8881 8.80423 54.9695 8.31909C54.8206 8.25484 54.6866 8.16078 54.576 8.04279C54.0893 7.69336 53.5248 7.53571 52.9563 7.38618C52.5955 7.32361 52.2307 7.29679 51.8658 7.26591C51.73 7.25613 51.5952 7.23575 51.4626 7.20496C51.2171 7.14564 51.0126 7.0335 51.011 6.75802C51.0042 6.63336 51.0468 6.51102 51.1297 6.41716C51.2125 6.32331 51.3291 6.26539 51.4544 6.25581C51.7611 6.21436 51.7685 6.09978 51.6425 5.85518C51.0364 4.68336 50.3427 3.56924 49.4436 2.59571C48.7892 1.89278 48.0628 1.2898 47.1188 0.998881C46.6386 0.850981 46.1576 0.802224 45.6782 0.985879C45.5334 1.04114 45.3862 1.02732 45.2422 1.05333C44.3694 1.47346 43.7656 2.18289 43.1971 2.9297C42.4887 3.86098 41.939 4.88571 41.4326 5.93644C41.3942 6.01771 41.2485 6.14367 41.4604 6.2233C41.5476 6.24744 41.6216 6.30475 41.6665 6.38281C41.7114 6.46086 41.7235 6.55335 41.7001 6.64019C41.6543 6.85472 41.4801 6.93436 41.2821 6.97336C41.2175 6.98555 41.1528 6.99856 41.062 7.01643C41.3304 7.44469 41.6298 7.82907 41.8064 8.28739C41.975 8.72378 42.0682 9.17316 41.921 9.6323C41.6248 10.5571 40.3577 10.9471 39.4251 10.4043C38.666 9.96304 38.2112 9.25849 37.8038 8.51818C37.4872 7.94365 37.4905 7.94203 36.8459 8.24757C37.2369 8.7636 37.6377 9.2658 38.0083 9.79158C38.738 10.8204 39.4317 11.8703 39.7965 13.0941C39.8581 13.2873 39.9006 13.486 39.9233 13.6873C40.0567 15.1436 38.8263 16.0188 37.4619 15.441C36.5129 15.0347 35.8667 14.2879 35.2532 13.5061C34.4662 12.5001 33.8535 11.3868 33.2735 10.2556C33.2351 10.2637 33.2032 10.2613 33.1844 10.2759C32.9152 10.4815 32.5021 10.6465 32.4211 10.9106C32.3393 11.1885 32.7524 11.4396 32.9389 11.7086C33.3177 12.2547 33.6842 12.8064 33.9443 13.42C34.1323 13.8264 34.2326 14.2673 34.2388 14.7145C34.2273 15.8294 33.2866 16.5584 32.1937 16.2943C31.4019 16.1033 30.8521 15.5507 30.273 15.0412C30.0038 14.9412 29.8386 14.7218 29.6676 14.5138C29.5359 14.3513 29.4361 14.2984 29.2341 14.4431C28.8177 14.7421 28.4594 14.5829 28.4078 14.0823C28.389 13.9003 28.3326 13.8125 28.1567 13.7816C26.3415 13.4647 24.523 13.2469 22.6947 13.6752C21.866 13.8686 21.1355 14.2334 20.6545 14.9754C20.4778 15.2492 20.4361 15.5865 20.2332 15.8481Z" fill="#4F3209"/>
<path d="M58.8271 17.9624C59.4726 18.0348 60.1255 17.922 60.7086 17.6374C60.8866 18.8269 60.9305 20.0325 60.8395 21.2317C60.7053 23.169 60.3184 25.051 59.5609 26.8551C59.146 27.8555 58.5871 28.7908 57.9019 29.6319C57.8201 29.7359 57.7105 29.8261 57.6998 29.9732C56.9745 29.9764 56.2478 29.9794 55.5198 29.9821C55.4134 29.9821 55.3014 29.9967 55.2212 29.9008C56.2132 28.8254 57.0439 27.6135 57.6876 26.3025C58.3344 24.9934 58.7494 23.5835 58.9146 22.1345C58.9334 21.9614 58.9645 21.7891 58.9899 21.6169C58.8934 21.512 58.9138 21.3909 58.9555 21.278C59.1952 20.636 59.1617 19.9973 58.9555 19.3561C58.9179 19.2415 58.8925 19.1213 58.9907 19.0172C58.868 18.6751 58.9776 18.2981 58.8271 17.9624Z" fill="#D6D9DB"/>
<path d="M18.1902 29.8212C18.0008 29.5327 17.8815 29.2045 17.8417 28.8623C17.7648 28.6104 17.827 28.4007 18.0634 28.2732C19.3665 27.5702 20.7114 27.1176 22.201 27.6572C23.1598 28.0074 23.8019 28.7047 24.2952 29.5604C24.3558 29.6652 24.4114 29.7806 24.3165 29.8992C24.2216 30.0179 24.094 29.9805 23.9745 29.9805C22.1901 29.9805 20.4055 29.9805 18.6205 29.9805C18.4487 29.9862 18.2974 29.9699 18.1902 29.8212Z" fill="#FEFEFE"/>
<path d="M24.3165 29.8992C23.5754 28.2211 21.9589 27.1655 19.9212 27.6588C19.3001 27.8065 18.7025 28.0387 18.1452 28.3487C17.9301 28.4698 17.827 28.6258 17.8418 28.8656C17.6585 28.1838 17.818 27.571 18.3089 27.0834C19.1269 26.2708 20.1085 25.732 21.2824 25.6467C22.3262 25.5711 23.1394 26.053 23.7774 26.8437C23.8328 26.9364 23.8651 27.0409 23.8715 27.1485C24.0433 28.1324 24.3696 29.0833 24.8384 29.9667C24.6585 29.9894 24.4801 30 24.3165 29.8992Z" fill="#D6D9DB"/>
<path d="M59.8052 28.1935C59.9262 27.7693 60.2584 27.519 60.6085 27.3175C62.7526 26.0823 65.2369 26.6178 66.1638 29.5465C66.2088 29.6887 66.2382 29.835 66.275 29.9789C65.7351 29.9789 65.1952 29.9789 64.6545 29.9837C64.5048 29.9837 64.3575 29.9837 64.2258 29.9025C64.1996 29.8949 64.1757 29.8809 64.1563 29.8618C63.2565 28.612 61.9223 28.3707 60.5079 28.3178C60.2739 28.3016 60.0146 28.382 59.8052 28.1935Z" fill="#D6D9DB"/>
<path d="M59.8054 28.1935C60.8803 28.174 61.9486 28.2138 62.9434 28.6811C63.5013 28.9444 63.997 29.2865 64.2277 29.9001C64.1222 30.022 63.9782 29.9813 63.8473 29.9813C62.2778 29.9813 60.7077 29.9813 59.137 29.9813C58.9947 29.9813 58.8336 30.026 58.728 29.8732L59.8054 28.1935Z" fill="#FEFEFE"/>
<path d="M25.6974 29.9756C25.7121 29.8407 25.6156 29.7521 25.5592 29.6465C25.1657 28.8981 25.1976 29.0898 25.8152 28.7339C26.6979 28.2252 27.6206 27.7945 28.6317 27.5905C28.9401 27.528 29.2526 27.4971 29.5602 27.5905C30.1246 27.7531 30.3013 28.2406 29.9823 28.7331C29.7156 29.1394 29.3148 29.3978 28.9262 29.6709C28.8133 29.7521 28.6268 29.7749 28.6546 29.9797C27.6686 29.9775 26.6829 29.9762 25.6974 29.9756Z" fill="#B6CDDE"/>
<path d="M58.9872 19.0164C59.06 19.4325 59.2392 19.8169 59.2531 20.2565C59.2678 20.7441 59.0944 21.1675 58.9872 21.6152C58.4866 22.2158 57.932 22.709 57.1164 22.8797C55.6791 23.1796 54.133 21.9687 54.0749 20.5101C54.0144 18.9937 54.9977 17.8869 56.5004 17.7414C57.3822 17.6553 58.1414 18.034 58.714 18.7247C58.8015 18.8279 58.858 18.9539 58.9872 19.0164Z" fill="#FECDCD"/>
<path d="M20.2329 15.848C20.3458 14.9728 20.8325 14.3633 21.6015 13.9602C22.5013 13.4889 23.483 13.3565 24.4802 13.3272C25.8708 13.2866 27.2418 13.4686 28.6219 13.7571C28.5139 14.0082 28.3601 14.2796 28.6685 14.4478C29.0775 14.6713 29.2256 14.2853 29.4219 14.022L30.2735 15.0394C30.1622 15.7358 30.0133 15.8667 29.318 15.5782C27.9274 14.9996 26.4762 14.8712 25.0053 14.9647C23.3807 15.0687 21.7757 15.297 20.2329 15.848Z" fill="#D6D9DB"/>
<path d="M46.3023 21.9988C46.3072 22.6798 46.3023 23.2754 45.9292 23.7915C45.8474 23.9109 45.9292 23.9914 45.9906 24.0799C46.2213 24.4302 46.4659 24.7731 46.6777 25.1364C46.8054 25.3533 46.9788 25.4192 47.2119 25.4281C47.6054 25.4427 47.998 25.4744 48.3907 25.4972C48.6361 25.511 48.7678 25.6402 48.7588 25.8856C48.7498 26.131 48.6042 26.2529 48.3604 26.2432C47.9261 26.2245 47.4909 26.2099 47.0589 26.1619C46.8626 26.1424 46.7964 26.2131 46.7522 26.383C46.6434 26.8015 46.5223 27.2167 46.4045 27.6328C46.335 27.8766 46.2 28.0675 45.9137 27.9993C45.6274 27.931 45.6037 27.6742 45.6593 27.4426C45.7804 26.9445 45.9227 26.4512 46.0683 25.9596C46.119 25.7914 46.1272 25.6556 46.0053 25.5118C45.906 25.3839 45.8176 25.248 45.7411 25.1055C45.4613 24.6252 45.1824 24.266 44.4977 24.227C43.7614 24.1848 43.0694 23.8102 42.4845 23.3201C41.8824 22.8163 41.8562 22.1824 42.4289 21.6469C42.9794 21.1268 43.5185 20.5905 44.1925 20.2159C44.3571 20.1225 44.5299 20.0441 44.7087 19.9818C45.4687 19.7283 46.0773 20.0834 46.2155 20.8757C46.2911 21.2451 46.3202 21.6223 46.3023 21.9988Z" fill="#4E3108"/>
<path d="M45.2417 1.05399C46.1514 0.546092 47.0357 0.735437 47.8815 1.19539C49.1086 1.86419 49.9528 2.92792 50.7201 4.05586C51.1303 4.67804 51.5068 5.32147 51.8482 5.98342C52.051 6.36292 52.0404 6.37511 51.6199 6.35967C51.5929 6.35967 51.5659 6.35317 51.5381 6.35155C51.2927 6.33692 51.1365 6.45638 51.1005 6.68473C51.062 6.92852 51.2076 7.05529 51.4457 7.09104C51.9537 7.17231 52.4723 7.19588 52.9582 7.38441C52.2694 7.36978 51.5774 7.47055 50.8911 7.32833C50.2219 7.18937 49.8415 6.831 49.7368 6.11751C49.5937 5.14235 49.0554 4.32971 48.419 3.60891C47.5136 2.58421 46.4392 1.72021 45.2417 1.05399Z" fill="#D6D9DB"/>
<path d="M52.2116 17.0848C52.1855 18.1494 51.2668 18.6849 50.3367 18.1583C49.4867 17.6772 49.0074 16.9393 48.946 15.9642C48.883 14.9638 49.7731 14.3601 50.7015 14.7566C51.5466 15.1174 52.2345 16.1787 52.2116 17.0848Z" fill="#4F3209"/>
<path d="M36.4301 22.8342C37.5844 22.8488 38.8417 24.3294 38.6037 25.4565C38.445 26.2115 37.8969 26.5812 37.0306 26.3504C36.0489 26.0928 35.2309 25.0161 35.2063 24.0044C35.1916 23.3413 35.7332 22.8261 36.4301 22.8342Z" fill="#4F3209"/>
<path d="M54.5757 8.04345C55.1262 8.1881 55.5573 8.54159 56.0081 8.85608C56.5802 9.26973 57.1054 9.74384 57.5746 10.2701C57.7317 10.4415 57.7546 10.5285 57.5214 10.6471C57.1844 10.8194 56.867 11.0291 56.5398 11.2225C55.9279 10.1953 55.3332 9.15757 54.6166 8.19541C54.594 8.14756 54.5801 8.09611 54.5757 8.04345Z" fill="#D6D9DB"/>
<path d="M57.9976 14.7826C58.5037 14.4963 58.9884 14.1742 59.4479 13.8188C59.5191 13.7619 59.6246 13.6319 59.6745 13.6961C59.7784 13.8294 59.8283 14.0074 59.888 14.1715C59.9412 14.3178 59.8062 14.3145 59.7244 14.3413C59.3645 14.4616 59.0013 14.5754 58.6823 14.7875C58.5137 14.8988 58.355 15.0223 58.1914 15.1402C58.1096 15.0296 58.1186 14.8712 57.9976 14.7826Z" fill="#D6D8DA"/>
<path d="M39.1743 13.9042C39.1743 14.5494 38.7031 14.9387 38.1109 14.8233C37.4205 14.6876 36.919 14.2455 36.4691 13.753C35.4555 12.6446 34.7185 11.3533 34.033 10.0312C33.9413 9.85482 33.9405 9.75324 34.1262 9.63948C34.6902 9.28814 35.2726 8.96696 35.8711 8.67732C35.9881 8.62206 36.0871 8.56517 36.1909 8.69682C37.3632 10.1701 38.5412 11.641 39.1023 13.48C39.1368 13.6194 39.1609 13.7612 39.1743 13.9042Z" fill="#B6CDDE"/>
<path d="M33.4807 14.6412C33.4807 15.3181 32.9809 15.7033 32.3617 15.5392C31.8169 15.3945 31.4029 15.0427 31.0144 14.664C30.7574 14.4047 30.5143 14.1321 30.2863 13.8473C29.8863 13.3597 29.8773 13.3499 30.2863 12.9038C30.6953 12.4577 31.1346 12.0302 31.5584 11.593C31.6516 11.4971 31.7359 11.4183 31.8504 11.5662C32.522 12.4349 33.1772 13.3117 33.4488 14.4023C33.4653 14.4811 33.4759 14.5609 33.4807 14.6412Z" fill="#B6CDDE"/>
<path d="M56.4581 14.4511C55.7219 14.4511 55.3325 13.801 55.6867 13.1574C55.9599 12.6584 56.3927 12.3025 56.8516 11.9839C57.241 11.7141 57.6582 11.4825 58.0541 11.22C58.2038 11.1209 58.2872 11.1453 58.3813 11.2867C58.6946 11.7451 58.9816 12.2207 59.2411 12.7112C59.291 12.8063 59.3507 12.8933 59.2288 12.9932C58.4467 13.6328 57.6418 14.2284 56.6201 14.4405C56.5664 14.4477 56.5123 14.4512 56.4581 14.4511Z" fill="#B6CDDE"/>
<path d="M41.2292 9.1795C41.217 9.62808 40.6983 9.97263 40.1805 9.86862C39.7903 9.78735 39.4958 9.55169 39.2398 9.26646C38.8848 8.87152 38.6336 8.40831 38.38 7.94674C38.2753 7.75658 38.3072 7.66475 38.5338 7.61193C38.9443 7.52324 39.3489 7.40953 39.7453 7.27144C40.0971 7.14142 40.2893 7.27144 40.4816 7.54611C40.9307 8.18809 41.2382 8.83088 41.2292 9.1795Z" fill="#B6CDDE"/>
<path d="M59.3131 17.2294C59.0039 17.2368 58.7471 17.1392 58.5998 16.854C58.4362 16.5395 58.3724 16.2169 58.5933 15.8975C58.9409 15.3945 59.4931 15.2255 60.0338 15.0516C60.1574 15.0126 60.2032 15.0963 60.2269 15.1987C60.3398 15.6863 60.4494 16.1738 60.5672 16.6549C60.5767 16.6798 60.5809 16.7064 60.5795 16.733C60.5781 16.7596 60.5711 16.7856 60.559 16.8094C60.547 16.8332 60.53 16.8542 60.5093 16.8711C60.4886 16.888 60.4646 16.9005 60.4388 16.9076C60.0796 17.0726 59.7132 17.2067 59.3131 17.2294Z" fill="#B6CDDE"/>
<path d="M28.7046 27.875C28.8682 27.8693 29.0024 27.875 29.0376 28.0237C29.0727 28.1724 28.9729 28.2455 28.8363 28.2675C27.9512 28.4275 27.1953 28.894 26.4076 29.2808C26.2693 29.3483 26.1442 29.4596 26.0264 29.2808C25.8906 29.072 26.0951 29.0273 26.2112 28.9614C26.913 28.5511 27.656 28.2147 28.4281 27.9578C28.5345 27.9221 28.6359 27.8945 28.7046 27.875Z" fill="#FCFDFD"/>
<path d="M45.0273 23.4989C44.377 23.5802 43.8649 23.2178 43.3201 22.9675C43.1751 22.8925 43.0422 22.7963 42.9258 22.6822C42.7867 22.5563 42.7516 22.4002 42.9078 22.2613C43.523 21.7111 44.0792 21.087 44.858 20.7441C45.1353 20.6222 45.3873 20.6092 45.4413 20.9773C45.5525 21.7371 45.6711 22.5018 45.3341 23.2421C44.8816 23.1525 44.441 23.0113 44.0212 22.8212C43.5892 22.6156 43.5598 22.4474 43.8526 22.0817C43.9091 22.011 44.0015 21.9565 43.9647 21.8127C43.6841 21.9346 43.4657 22.115 43.4395 22.4165C43.4158 22.6936 43.6449 22.8399 43.8665 22.9569C44.1079 23.0845 44.3786 23.1365 44.6298 23.2397C44.7778 23.299 44.9455 23.3364 45.0273 23.4989Z" fill="#FECDCD"/>
<path d="M45.0277 23.4989C44.6318 23.3567 44.2318 23.2259 43.8424 23.0674C43.5544 22.9512 43.2943 22.7562 43.3066 22.4173C43.3197 22.0598 43.6191 21.8696 43.8898 21.6859C43.9716 21.6282 44.0682 21.6047 44.1418 21.7054C44.172 21.743 44.1866 21.7907 44.1825 21.8386C44.1784 21.8866 44.1559 21.9311 44.1197 21.9631C44.0837 22.0037 44.0444 22.0443 44.006 22.0793C43.6289 22.4693 43.6559 22.5538 44.1696 22.7871C44.55 22.9585 45.004 22.9407 45.332 23.2413C45.2919 23.3974 45.2044 23.4989 45.0277 23.4989Z" fill="#FEFCFC"/>
<path d="M34.8093 9.83531C34.973 9.84588 35.0188 9.96859 35.0711 10.0791C35.256 10.4675 35.4286 10.8617 35.6437 11.2379C35.971 11.8206 36.3612 12.3472 36.9002 12.7535C37.0058 12.8347 37.1048 12.903 36.9943 13.0436C36.9002 13.1622 36.8004 13.1525 36.6786 13.0696C36.3228 12.8216 36.0145 12.5126 35.7681 12.157C35.344 11.5468 34.9875 10.8929 34.7046 10.2067C34.6416 10.058 34.5639 9.88732 34.8093 9.83531Z" fill="#FDFDFD"/>
<path d="M37.726 13.5848C37.7641 13.5873 37.7997 13.6047 37.825 13.6331C37.8502 13.6616 37.8632 13.6989 37.8609 13.7368C37.8618 13.7571 37.8579 13.7774 37.8495 13.7959C37.8411 13.8145 37.8284 13.8309 37.8126 13.8437C37.7967 13.8566 37.778 13.8656 37.758 13.87C37.738 13.8744 37.7172 13.8742 37.6973 13.8692C37.6773 13.866 37.6582 13.8588 37.6409 13.8482C37.6237 13.8375 37.6088 13.8236 37.597 13.8072C37.5852 13.7909 37.5768 13.7723 37.5723 13.7527C37.5677 13.7331 37.5671 13.7127 37.5705 13.6929C37.5779 13.6157 37.6286 13.575 37.726 13.5848Z" fill="#F9FBFC"/>
<path d="M32.401 14.7704C32.3298 14.9858 32.1793 14.9582 32.0173 14.8753C31.4954 14.6103 31.1469 14.1569 30.778 13.7286C30.6774 13.6017 30.5855 13.4681 30.5031 13.3288C30.436 13.2256 30.4917 13.15 30.5702 13.085C30.6487 13.02 30.7265 13.0582 30.7821 13.1232C30.9571 13.3272 31.1379 13.5295 31.2991 13.7449C31.5445 14.074 31.8185 14.3657 32.2079 14.5291C32.3118 14.5738 32.4026 14.6282 32.401 14.7704Z" fill="#FCFDFD"/>
<path d="M56.124 13.2598C56.1142 12.9916 56.2647 12.8047 56.4512 12.6348C56.5199 12.5698 56.5919 12.4894 56.6966 12.5658C56.8013 12.6422 56.7882 12.7389 56.7342 12.851C56.4725 13.3979 56.4741 13.4012 57.0672 13.5718C57.1833 13.6051 57.2709 13.6531 57.2692 13.7831C57.2674 13.8238 57.2523 13.8629 57.2264 13.8945C57.2005 13.9261 57.165 13.9486 57.1253 13.9586C56.7449 14.1073 56.1158 13.6661 56.124 13.2598Z" fill="#FCFDFD"/>
<path d="M39.0248 7.72327C39.1696 7.72327 39.2301 7.79966 39.2768 7.90774C39.4903 8.40264 39.6931 8.90484 40.2396 9.14782C40.2619 9.15759 40.2817 9.17204 40.2979 9.19017C40.314 9.20831 40.3259 9.2297 40.3329 9.25286C40.3399 9.27603 40.3418 9.30044 40.3384 9.32439C40.335 9.34834 40.3264 9.37127 40.3132 9.39161C40.3045 9.41387 40.2912 9.43412 40.2744 9.45115C40.2575 9.46818 40.2373 9.48162 40.2151 9.49066C40.1928 9.49971 40.1689 9.50416 40.1449 9.50376C40.1208 9.50336 40.0971 9.4981 40.0752 9.48831C39.9224 9.43455 39.7804 9.3545 39.6555 9.25184C39.3109 8.90796 39.0535 8.48766 38.9046 8.02557C38.8596 7.88824 38.8416 7.75497 39.0248 7.72327Z" fill="#FCFDFD"/>
<path d="M58.7564 16.5818C58.7507 16.4623 58.7867 16.3932 58.8693 16.3567C58.9048 16.3352 58.9473 16.3284 58.9877 16.3378C59.0281 16.3473 59.0632 16.3721 59.0853 16.4071C59.2489 16.7207 59.4943 16.6947 59.7757 16.6045C59.9156 16.559 60.1029 16.5119 60.1659 16.6858C60.2387 16.8873 60.0252 16.9182 59.9009 16.9678C59.6056 17.084 59.3004 17.1409 59.0092 16.9466C58.8852 16.8575 58.7959 16.7287 58.7564 16.5818Z" fill="#FCFCFD"/>
</g>
<rect x="0.5" y="30.5" width="82" height="48" rx="7.5" fill="#FBFFED"/>
<path d="M21.086 51.152H19.616V50.424H16.368V49.164H19.616V48.17H21.086V49.164H23.9V48.17H25.384V49.164H28.646V50.424H25.384V50.998H23.9V50.424H21.086V51.152ZM28.156 60.602C26.252 59.958 24.614 59.0807 23.242 57.97V60.994H21.744V57.984C20.4093 59.0853 18.776 59.986 16.844 60.686L16.158 59.216C18.0153 58.7027 19.588 57.97 20.876 57.018H16.48V55.716H21.744V55.03H22.472C21.9773 54.2367 21.562 53.63 21.226 53.21L22.066 52.678C20.3207 52.7527 18.6453 52.8087 17.04 52.846L16.886 51.614C18.5007 51.5953 20.372 51.5393 22.5 51.446C24.6373 51.3433 26.4153 51.2313 27.834 51.11L27.96 52.314C26.6907 52.4167 24.8847 52.5287 22.542 52.65C22.822 53.0233 23.2093 53.5787 23.704 54.316L22.584 55.03H23.242V55.716H28.576V57.018H24.096C25.4587 58.0073 27.036 58.7447 28.828 59.23L28.156 60.602ZM24.418 54.82C24.9313 54.2787 25.5613 53.5133 26.308 52.524L27.484 53.378C26.8493 54.218 26.2147 54.988 25.58 55.688L24.418 54.82ZM18.692 52.818C18.916 53.098 19.126 53.3547 19.322 53.588C19.8353 54.2227 20.1293 54.5867 20.204 54.68L19.014 55.59C18.706 55.1233 18.216 54.484 17.544 53.672L18.692 52.818ZM39.93 53.196H42.842V54.358H33.462V53.196H36.29V50.76H33.826V49.556H35.982C35.73 49.136 35.4967 48.7673 35.282 48.45L36.57 48.03L36.794 48.38C36.878 48.52 36.9853 48.6927 37.116 48.898C37.2467 49.094 37.382 49.3133 37.522 49.556H38.67C39.174 48.8467 39.524 48.338 39.72 48.03L41.008 48.45C40.8867 48.646 40.63 49.0147 40.238 49.556H42.52V50.76H39.93V53.196ZM32.384 51.586C32.1413 51.222 31.8613 50.8207 31.544 50.382C31.236 49.934 30.9467 49.528 30.676 49.164L31.866 48.352C32.482 49.1547 33.0653 49.9433 33.616 50.718L32.384 51.586ZM35.212 53.084C34.6707 52.2907 34.2833 51.7447 34.05 51.446L34.946 50.76L36.15 52.342L35.212 53.084ZM38.656 50.76H37.578V53.196H38.656V50.76ZM40.196 52.356C40.7467 51.712 41.1527 51.18 41.414 50.76L42.366 51.446C41.722 52.3327 41.302 52.8927 41.106 53.126L40.196 52.356ZM32.706 58.026L33.63 57.116L34.05 58.544L31.908 60.658L30.998 59.524C31.1287 59.3933 31.2173 59.2627 31.264 59.132C31.3107 59.0013 31.334 58.8333 31.334 58.628V54.022H30.256V52.496H32.706V58.026ZM35.954 61.022H34.54V55.212H41.736V61.022H40.322V60.448H35.954V61.022ZM40.322 57.326V56.388H35.954V57.326H40.322ZM35.954 58.362V59.286H40.322V58.362H35.954Z" fill="#242424"/>
<circle cx="58.5" cy="54.5" r="9" fill="#C7E94E"/>
<rect x="53.3569" y="53.2143" width="10.2857" height="2.57143" rx="1.28571" fill="white"/>
<rect x="57.2144" y="59.6429" width="10.2857" height="2.57143" rx="1.28571" transform="rotate(-90 57.2144 59.6429)" fill="white"/>
<rect x="0.5" y="30.5" width="82" height="48" rx="7.5" stroke="#C7E94E"/>
<defs>
<clipPath id="clip0_559_672">
<rect width="30" height="50" fill="white" transform="translate(17 30) rotate(-90)"/>
</clipPath>
</defs>
</svg>
