<svg width="21" height="10" viewBox="0 0 21 10" fill="none" xmlns="http://www.w3.org/2000/svg">
<g clip-path="url(#clip0_348_1335)">
<path d="M2.71881 9.26235C1.73405 8.89996 0.438938 8.44347 0.155586 7.22884C-0.0204887 6.49666 0.0415211 5.70315 0.0132542 4.91613C0.0213089 3.46741 0.00941086 2.10698 0.0299397 0.678685C0.0315723 0.446239 0.141428 0.205972 0.367985 0.119908C0.96427 0.044589 1.57498 0.0384188 2.17069 0.107887C2.26644 0.1206 2.3246 0.253366 2.43577 0.205972C2.572 0.0627804 2.76281 0.0527277 2.95337 0.0384188C3.45037 0.0183125 3.95033 0.0507593 4.44671 0.0591631C4.58547 0.0929928 4.76412 0.0945892 4.81871 0.267674C4.86208 0.701132 4.83413 1.17837 4.86208 1.60438C4.86919 1.69267 4.96073 1.68523 5.02468 1.68587C6.54277 1.49039 8.2343 1.49757 9.78197 1.61964C9.82182 1.6239 9.85777 1.57613 9.86614 1.54432C9.8623 1.13065 9.89377 0.685813 9.88893 0.284217C9.9172 0.196239 9.97378 0.104322 10.0615 0.0604935C10.6147 -0.0346136 11.2294 0.0192699 11.7971 0.0400677C11.9327 0.0254402 12.0066 0.182249 12.138 0.159217C12.2501 0.072196 12.3693 0.0130997 12.52 0.0260782C13.0877 0.0234718 13.7075 0.00501442 14.2752 0.0618229C14.3699 0.119269 14.4602 0.199483 14.4988 0.304696C14.5116 0.68193 14.4927 1.05922 14.5765 1.42092C14.6234 1.51735 14.7185 1.57448 14.8136 1.5872C16.2035 1.60406 17.6011 1.59172 18.9939 1.68065C19.5336 1.72124 20.1399 1.8872 20.3417 2.44693C20.3448 2.53097 20.3725 2.60374 20.3793 2.68815C20.6366 2.77874 20.9123 3.04209 20.9453 3.32682C21.0083 3.92198 20.706 4.41645 20.2263 4.75736C20.0506 4.87618 19.8594 4.95895 19.6914 5.09794C19.3466 5.52395 18.938 5.88629 18.4714 6.09049C18.3526 6.11326 18.2212 6.12853 18.1183 6.0548C17.9603 5.98177 18.0468 5.60906 17.7994 5.80384C16.9855 6.17363 16.1373 6.45055 15.2737 6.68826C15.1814 6.82363 15.3629 6.91751 15.3662 7.05384C15.5011 7.50092 15.4645 8.07432 15.088 8.38799C14.7079 8.71363 14.1906 8.88182 13.6836 8.71299C13.4619 8.65906 13.2971 8.45225 13.1271 8.29448C12.9334 8.26459 12.8553 8.52044 12.6963 8.5714C12.3927 8.80943 11.9592 8.87012 11.5789 8.76235C11.1785 8.65454 10.7846 8.26656 10.7294 7.83991C10.6835 7.59416 10.7683 7.37884 10.8107 7.15874C10.7554 7.11815 10.7181 7.18214 10.6751 7.20549C10.5302 7.37624 10.347 7.4873 10.179 7.61427C10.1395 7.61847 10.1115 7.60549 10.0843 7.59315C9.82719 7.41427 9.5991 7.16815 9.34239 6.98922C9.30254 6.99278 9.25148 6.97656 9.21932 7.00805C8.99124 7.19475 8.78716 7.44539 8.54718 7.59996C8.51155 7.61592 8.45949 7.61485 8.42385 7.59868C8.16329 7.41587 7.93131 7.16129 7.66654 6.98661C7.6267 6.98985 7.58369 6.97789 7.55216 6.99347C7.34371 7.20416 7.12295 7.41879 6.89934 7.61326C6.82702 7.65741 6.748 7.61618 6.68858 7.5756C6.4566 7.38081 6.22304 7.19023 5.99138 6.99927C5.95154 7.00321 5.89948 6.98278 5.87537 7.01879C5.65887 7.22948 5.45479 7.4847 5.22318 7.65906C5.17886 7.67039 5.11975 7.67007 5.07958 7.65773C4.84308 7.45092 4.59926 7.24767 4.37049 7.04118C4.27153 6.99996 4.20695 7.10023 4.17836 7.16847C4.14941 7.37267 4.23074 7.57789 4.42029 7.68826C4.75249 7.87948 5.14933 7.91523 5.52201 8.00645C6.66321 8.20092 7.86609 8.25581 9.05709 8.33501C9.28328 8.36879 9.49562 8.55161 9.56568 8.77235C9.59426 9.07821 9.50851 9.38214 9.27233 9.60065C8.72041 10.1016 7.89505 9.98182 7.16511 9.97501C5.6207 9.88959 4.15336 9.61204 2.71881 9.26235Z" fill="#231916"/>
<path d="M2.95937 9.02387C2.00967 8.67451 0.737663 8.37387 0.441467 7.18323C0.267286 6.67642 0.320347 6.07052 0.301714 5.51275C0.28787 3.83967 0.258341 2.2052 0.344088 0.524985C0.464893 0.361687 0.683077 0.403549 0.870363 0.385358C1.27484 0.380783 1.74011 0.320091 2.14042 0.416208C2.31713 0.634399 2.22296 0.962645 2.2837 1.22823C2.33545 1.31334 2.43409 1.33408 2.51373 1.29445C2.54584 1.27855 2.57448 1.24286 2.59053 1.211C2.59569 0.973974 2.58632 0.709719 2.60469 0.468442C2.75245 0.293123 3.03806 0.375889 3.25304 0.330145C3.59518 0.308708 3.97144 0.34057 4.31264 0.347379C4.38813 0.375942 4.51536 0.360995 4.52215 0.477219C4.59405 0.90807 4.47425 1.44025 4.60531 1.86264C4.6908 2.09222 4.93009 1.95387 5.09722 1.96365C6.35343 1.79381 7.60454 1.82498 8.91055 1.85227C9.24017 1.85972 9.54063 1.92238 9.85482 1.95679C9.96984 1.93796 10.0891 1.86264 10.142 1.74738C10.2449 1.3386 10.1546 0.844134 10.2015 0.411953C10.2375 0.390889 10.2654 0.351581 10.3053 0.3519C10.8135 0.340569 11.3655 0.309028 11.8693 0.398017C12.0148 0.599612 11.9005 0.908123 11.9579 1.14903C11.9971 1.23376 12.0923 1.26621 12.1758 1.23536C12.3033 1.1802 12.2812 1.03147 12.2738 0.919134C12.2709 0.753868 12.2413 0.565889 12.3062 0.410038C12.3734 0.378549 12.4457 0.354826 12.517 0.343123C13.0169 0.340198 13.5852 0.324932 14.1093 0.377857C14.1922 0.406156 14.2111 0.49089 14.2108 0.571368C14.2744 1.01264 14.0663 1.62078 14.5813 1.82631C14.6797 1.86035 14.7823 1.88023 14.8861 1.88536C16.2805 1.87366 17.6778 1.90552 19.0789 1.98248C19.4353 2.06919 19.9355 2.07823 20.0354 2.52078C20.047 2.5685 20.0268 2.62467 19.9708 2.61626C17.7588 2.57663 15.6431 2.56201 13.47 2.64318C12.6124 2.69935 11.7691 2.80062 11.1361 3.42504C11.0806 3.47663 11.0478 3.56887 11.0873 3.64546C11.1339 3.71759 11.2289 3.7669 11.2964 3.70328C12.1144 2.79584 13.3835 3.01201 14.5164 2.88509C16.3034 2.85685 18.2016 2.84158 19.9766 2.89318C20.2189 2.91137 20.4724 2.95424 20.5936 3.19935C20.7574 3.53802 20.6305 3.94616 20.3937 4.20881C20.137 4.55169 19.7742 4.72504 19.4427 4.94323C19.1651 5.31014 18.793 5.65525 18.3789 5.80041C18.2716 5.82733 18.2722 5.72381 18.2645 5.65525C18.2857 5.53871 18.2748 5.42637 18.2122 5.3335C18.1334 5.27669 18.0611 5.35137 17.9933 5.37924C17.4664 5.71631 16.8692 5.86727 16.2995 6.08743C15.8693 6.22834 15.4317 6.34424 15.0015 6.4728C14.6822 6.67477 15.0732 6.91924 15.079 7.15631C15.1715 7.45727 15.1529 7.8144 14.9758 8.06993C14.7152 8.38068 14.3686 8.54233 13.9641 8.47451C13.5988 8.4511 13.3437 8.08355 13.1795 7.79328C12.8274 7.63355 12.8554 8.11147 12.651 8.25403C12.3873 8.48876 12.0444 8.59392 11.684 8.52286C11.4542 8.4485 11.1934 8.3053 11.0966 8.05562C10.9212 7.65658 11.0918 7.21307 11.2814 6.8735C11.2858 6.77738 11.1956 6.69621 11.1204 6.65983C9.27812 6.57897 7.35687 6.5819 5.52617 6.59036C4.95746 6.67738 4.19705 6.44589 3.90975 7.06924C3.81595 7.36147 3.95992 7.63584 4.17257 7.84201C4.71012 8.20046 5.37225 8.27025 6.02739 8.356C7.00246 8.48908 8.02675 8.52286 9.01498 8.62318C9.11784 8.64392 9.24027 8.72546 9.26301 8.83844C9.29775 8.99919 9.23606 9.1628 9.16405 9.29919C8.67057 9.86057 7.82272 9.65275 7.11137 9.67844C5.67908 9.57679 4.29143 9.36445 2.95942 9.02387" fill="#A1CC56"/>
<path d="M11.7578 7.80124C11.7311 7.70416 11.7318 7.60741 11.7604 7.51198C11.8053 7.424 11.9085 7.36065 12.0075 7.39767C12.1183 7.49055 12.1562 7.62725 12.1193 7.76783C12.0836 7.82757 12.0466 7.91943 11.9669 7.93895C11.8677 7.9623 11.789 7.88113 11.7578 7.80124ZM14.0736 7.72448C14.0344 7.6323 14.071 7.5323 14.1038 7.44757C14.1604 7.37645 14.2314 7.33682 14.3152 7.36964C14.4142 7.42283 14.4322 7.52709 14.4482 7.62352C14.4392 7.73198 14.4017 7.86055 14.2905 7.89916C14.1796 7.91475 14.1086 7.81347 14.0736 7.72448Z" fill="#231916"/>
<path d="M4.61674 6.96734C4.62511 6.91925 4.69738 6.90367 4.75234 6.9118C5.05816 6.89883 5.36889 6.8618 5.67408 6.88031C5.69435 6.8842 5.68567 6.9167 5.67408 6.92835C5.52501 7.09946 5.36089 7.27904 5.18476 7.40601C4.95505 7.36377 4.78992 7.11345 4.61674 6.96734ZM6.20999 6.89728C6.19778 6.8609 6.2341 6.88946 6.23826 6.8651C6.61515 6.86835 6.96856 6.87159 7.33387 6.87484C7.33387 6.89079 7.33387 6.90276 7.33356 6.9151C7.17738 7.05409 7.01673 7.22941 6.8455 7.35212C6.80986 7.34824 6.76549 7.35957 6.73854 7.3434C6.56436 7.1934 6.37165 7.0593 6.20999 6.89728ZM8.41822 7.33005C8.24441 7.20053 8.07507 7.04601 7.91347 6.91186V6.87973C8.26689 6.87095 8.6483 6.87452 8.99335 6.88984C9.01356 6.89367 8.99298 6.91739 8.99298 6.92973C8.82559 7.05633 8.68489 7.23202 8.51302 7.33882C8.48149 7.33457 8.4417 7.34627 8.41822 7.33005ZM10.0742 7.32436C9.92031 7.20255 9.76645 7.05324 9.6209 6.92728C9.62122 6.91526 9.62122 6.90712 9.62122 6.89542C9.95889 6.8701 10.312 6.9175 10.6298 6.90356C10.6689 6.92468 10.6368 6.96494 10.6207 6.97175C10.4726 7.10292 10.3251 7.22271 10.1693 7.33345C10.1375 7.32888 10.1015 7.34058 10.0742 7.32436Z" fill="#15AB4A"/>
<path d="M18.7652 4.27097C18.7494 4.18267 18.8182 4.08299 18.9098 4.07974C19.0088 4.06448 19.0797 4.14921 19.107 4.23426C19.1097 4.31836 19.0341 4.3898 18.9625 4.41671C18.8664 4.43655 18.7841 4.35118 18.7652 4.27097ZM19.7062 4.25128C19.6949 4.16299 19.7637 4.06299 19.8504 4.06006C19.9388 4.04054 19.9972 4.12533 20.0326 4.18602C20.0599 4.28245 19.9796 4.35745 19.9076 4.38538C19.808 4.41299 19.7258 4.3315 19.7062 4.25128Z" fill="#231916"/>
</g>
<defs>
<clipPath id="clip0_348_1335">
<rect width="21" height="10" fill="white" transform="matrix(-1 0 0 -1 21 10)"/>
</clipPath>
</defs>
</svg>
