<svg width="20" height="20" viewBox="0 0 20 20" fill="none" xmlns="http://www.w3.org/2000/svg">
<path d="M5.00005 17.0625C5.00005 17.9385 4.97166 18 6.21712 18H12.6455C13.8496 18 14 17.974 14 17.0625V12H5.00007L5.00005 17.0625Z" fill="#C7FF02"/>
<path d="M11.246 2.33574H8.07055C6.75416 2.33574 6.58943 2.50922 6.57031 3.6582H12.9102C12.8595 2.47109 12.512 2.33574 11.2459 2.33574H11.246Z" fill="#C7FF02"/>
<path d="M17.6432 4.21776C17.2527 3.83298 16.7131 3.59499 16.1171 3.59485H13.8207C13.7499 2.02688 13.1569 1.27705 11.1298 1.27705H7.99101C6.11575 1.27705 5.53115 1.87136 5.46555 3.59485H3.43235C2.24059 3.59485 1.27441 4.5463 1.27441 5.71997C1.27441 5.7197 1.27441 5.72005 1.27441 5.71997V5.84952C1.27486 6.90872 2.06292 7.78657 3.09307 7.94602L3.10516 15.7977C3.10516 17.9325 3.75202 18.2771 5.63661 18.2771H13.4828C15.5153 18.2771 16.1824 17.7674 16.1824 15.7977V7.97094C17.345 7.93562 18.2739 6.99931 18.2744 5.84921V5.72003C18.2744 5.7194 18.2744 5.71858 18.2744 5.7178C18.2744 5.13192 18.0333 4.60149 17.6432 4.21776ZM7.99105 2.30759H11.1298C12.3812 2.30759 12.7246 2.43902 12.7748 3.59487H6.50867C6.5275 2.47643 6.6898 2.30759 7.99105 2.30759ZM15.1366 15.7978C15.1366 17.2065 14.9533 17.2466 13.4833 17.2466H5.63708C4.11688 17.2466 4.15157 17.1516 4.15157 15.7978V7.97397H15.137L15.1366 15.7978ZM17.229 5.84917C17.2286 6.15161 17.1042 6.42542 16.9032 6.6239C16.7024 6.82119 16.4246 6.94349 16.1179 6.94349C16.1178 6.94349 16.1179 6.94349 16.1179 6.94349H3.43283C3.12582 6.94347 2.84797 6.82119 2.64645 6.62343C2.44555 6.4251 2.3213 6.15131 2.32127 5.84893V5.71999C2.32127 5.71993 2.32127 5.72024 2.32127 5.71999C2.32127 5.11561 2.81871 4.62525 3.43252 4.62525C3.43225 4.62525 3.4326 4.62525 3.43252 4.62525H16.1175C16.7314 4.62525 17.2291 5.11534 17.2291 5.71993L17.229 5.84917Z" fill="#242424"/>
</svg>
