<svg width="70" height="28" viewBox="0 0 70 28" fill="none" xmlns="http://www.w3.org/2000/svg">
<rect width="70" height="28" rx="7" fill="#F1F1F1"/>
<path d="M7.75 10.3542H14.4583" stroke="#242424" stroke-width="1.5" stroke-linecap="round" stroke-linejoin="round"/>
<path d="M7.75 14.1458H14.4583" stroke="#242424" stroke-width="1.5" stroke-linecap="round" stroke-linejoin="round"/>
<path d="M16.5 10.3542V17.9375L18.25 15.8958" stroke="#242424" stroke-width="1.5" stroke-linecap="round" stroke-linejoin="round"/>
<path d="M7.75 17.9375H14.4583" stroke="#242424" stroke-width="1.5" stroke-linecap="round" stroke-linejoin="round"/>
<path d="M33.56 15.64C33.4667 16.26 33.3733 16.75 33.28 17.11C33.1867 17.4833 33.0533 17.7533 32.88 17.92C32.7067 18.0933 32.4933 18.18 32.24 18.18C31.72 18.18 31.2933 17.7967 30.96 17.03L30.86 16.79C30.6533 17.03 30.43 17.2533 30.19 17.46L29.56 16.65C29.92 16.35 30.2467 16.03 30.54 15.69C30.3133 14.7633 30.14 13.6433 30.02 12.33L30.01 12.17H24.58V11.27H26.8V10.61H25.01V9.76H26.8V9.06H27.85V9.76H29.51V10.61H27.85V11.27H29.96L29.85 9.08H30.89L30.98 11.27H33.43V12.17H31.03C31.0367 12.19 31.04 12.2167 31.04 12.25C31.1067 13.1433 31.2033 13.93 31.33 14.61C31.7433 13.9433 32.0433 13.2467 32.23 12.52L33.14 12.79C32.8333 13.8833 32.3267 14.91 31.62 15.87C31.72 16.2167 31.8133 16.47 31.9 16.63C32.0267 16.8767 32.14 17 32.24 17C32.3667 17 32.4567 16.8367 32.51 16.51C32.5633 16.27 32.6133 15.9867 32.66 15.66C32.6733 15.6133 32.6967 15.48 32.73 15.26L33.56 15.64ZM32.47 11.12C31.9233 10.52 31.4867 10.0667 31.16 9.76L31.83 9.14C32.49 9.8 32.9267 10.2433 33.14 10.47L32.47 11.12ZM28.28 16.41V16.98H29.72V17.74H26.2V18.21H25.25V14.98C25.05 15.2333 24.8567 15.4633 24.67 15.67L24.41 14.51C24.67 14.23 24.92 13.8933 25.16 13.5C25.4 13.1 25.6033 12.6767 25.77 12.23L26.74 12.39C26.6333 12.6433 26.54 12.8533 26.46 13.02H27.49C27.4367 12.8733 27.36 12.6833 27.26 12.45L28.21 12.29L28.51 13.02H29.66V13.79H28.28V14.37H29.59V15.1H28.28V15.67H29.59V16.41H28.28ZM26.2 14.37H27.34V13.79H26.2V14.37ZM26.2 15.67H27.34V15.1H26.2V15.67ZM27.34 16.41H26.2V16.98H27.34V16.41ZM40.22 12.96V16.59H43.35V17.73H34.62V16.59H35.99V10.73H37.13V16.59H39.04V9.06H40.22V11.82H42.94V12.96H40.22ZM45.56 18.18V9.54H52.5V18.17H51.32V17.54H46.73V18.18H45.56ZM51.32 12.97V10.67H46.73V12.97H51.32ZM46.73 14.08V16.42H51.32V14.08H46.73ZM57.94 15.8L58.24 16.08C58.4867 16.3067 58.7267 16.5367 58.96 16.77L58.3 17.49L58.1 17.29C57.6733 16.8633 57.36 16.56 57.16 16.38L57.73 15.8H55.99L56.82 16.39C56.5733 16.71 56.3033 17.0333 56.01 17.36C55.7167 17.68 55.44 17.9567 55.18 18.19L54.45 17.44C54.7367 17.2267 55.0133 16.9733 55.28 16.68C55.5533 16.38 55.77 16.0867 55.93 15.8H54.53V14.87H55.24V10.89H54.69V9.94H55.24V9.11H56.23V9.94H57.76V9.11H58.75V9.94H59.31V10.89H58.75V14.87H59.32V15.8H57.94ZM59.69 9.46H63.08V16.81C63.08 17.1367 63.04 17.39 62.96 17.57C62.8867 17.75 62.7567 17.8767 62.57 17.95C62.39 18.03 62.1333 18.07 61.8 18.07H60.99L60.78 17.06H61.52C61.7467 17.06 61.8967 17.03 61.97 16.97C62.0433 16.9033 62.08 16.7667 62.08 16.56V15.22H60.63C60.5767 15.86 60.47 16.4 60.31 16.84C60.15 17.2733 59.8867 17.76 59.52 18.3L58.53 17.66C58.9033 17.18 59.1667 16.7567 59.32 16.39C59.4733 16.0233 59.5733 15.6 59.62 15.12C59.6667 14.6333 59.69 13.8833 59.69 12.87V9.46ZM62.08 11.86V10.52H60.69V11.86H62.08ZM57.76 11.67V10.89H56.23V11.67H57.76ZM57.76 12.54H56.23V13.27H57.76V12.54ZM62.08 14.22V12.84H60.69V13.38C60.69 13.7667 60.6867 14.0467 60.68 14.22H62.08ZM57.76 14.13H56.23V14.87H57.76V14.13Z" fill="#242424"/>
</svg>
