<svg width="135" height="50" viewBox="0 0 135 50" fill="none" xmlns="http://www.w3.org/2000/svg">
<path d="M59.4998 49.5L57.602 49.3735C49.3305 48.822 41.7708 44.5014 37.0974 37.6544L23 17L17 9L15 6.5L12.5 4.5C8 2 5.80531 1.08053 0 0.5L118.5 0.5C127.337 0.5 134.5 7.66341 134.5 16.4999L134.5 49.5H59.4998Z" fill="#C7FF02"/>
<path fill-rule="evenodd" clip-rule="evenodd" d="M17.8113 9.15192C13.6974 3.40761 7.06554 0 0 0V1C6.74303 1 13.0722 4.25207 16.9983 9.73418L38.148 39.2653C42.7487 45.6892 50.1652 49.5 58.0666 49.5L134.5 49.5V48.5L58.0666 48.5C50.4877 48.5 43.3739 44.8448 38.961 38.6831L17.8113 9.15192Z" fill="#242424"/>
<g clip-path="url(#clip0_1205_859)">
<path fill-rule="evenodd" clip-rule="evenodd" d="M99.5 30.5C99.5 29.9477 99.9477 29.5 100.5 29.5H112.5C113.052 29.5 113.5 29.9477 113.5 30.5C113.5 31.0523 113.052 31.5 112.5 31.5H100.5C99.9477 31.5 99.5 31.0523 99.5 30.5Z" fill="#242424"/>
<path fill-rule="evenodd" clip-rule="evenodd" d="M109.152 16.5C109.417 16.4999 109.672 16.6054 109.859 16.793L112.207 19.1421C112.598 19.5326 112.598 20.1655 112.207 20.556L105.559 27.207C105.372 27.3946 105.117 27.5 104.852 27.5H102.5C101.948 27.5 101.5 27.0523 101.5 26.5V24.16C101.5 23.895 101.605 23.6408 101.792 23.4533L108.444 16.7933C108.632 16.6056 108.886 16.5001 109.152 16.5ZM109.152 18.9148L103.5 24.5738V25.5H104.438L110.086 19.849L109.152 18.9148Z" fill="#242424"/>
</g>
<path d="M76.156 23.46V29.924C76.156 30.5427 76.0333 30.9693 75.788 31.204C75.5427 31.4493 75.1267 31.572 74.54 31.572H74.108L73.916 30.612V30.868H72.684V28.244H71.852V30.868H70.62V28.244H69.836V31.604H68.396V26.676C68.0867 28.7027 67.58 30.2707 66.876 31.38L65.452 30.1L65.644 29.796L62.572 30.452L62.3 28.628L66.156 27.812L66.22 28.692C66.572 27.892 66.812 26.9747 66.94 25.94C67.0787 24.8947 67.148 23.54 67.148 21.876V20.756C66.8493 21.4813 66.46 22.2867 65.98 23.172C65.5 24.0467 65.068 24.772 64.684 25.348L66.412 24.964L66.444 26.74L62.908 27.348L62.556 25.508C63.1 24.8253 63.6547 23.9933 64.22 23.012L62.604 23.22L62.236 21.46C62.6093 20.916 63.0093 20.2173 63.436 19.364C63.8627 18.5 64.22 17.684 64.508 16.916L66.092 17.62C65.804 18.292 65.4733 18.9747 65.1 19.668C64.7373 20.3507 64.4067 20.9267 64.108 21.396L65.164 21.3L65.868 19.828L67.148 20.564V18.196H70.604L70.204 16.948L72.156 16.756L72.652 18.196H76.012V22.5H68.7L68.684 23.46H76.156ZM74.38 20.964V19.796H68.7V20.964H74.38ZM69.836 25.044V26.708H70.62V25.044H69.836ZM71.852 25.044V26.708H72.684V25.044H71.852ZM73.916 26.708H74.652V25.044H73.916V26.708ZM74.14 29.972C74.364 29.972 74.5027 29.94 74.556 29.876C74.62 29.812 74.652 29.6787 74.652 29.476V28.244H73.916V29.972H74.14ZM83.916 28.324L82.636 28.564V31.556H80.908V28.884L78.444 29.332L78.268 27.524L80.908 27.092V25.396H78.444V23.588C78.7533 22.98 79.1107 21.9827 79.516 20.596H78.428V18.916H79.964C80.156 18.1053 80.2893 17.5027 80.364 17.108L82.076 17.22L81.644 18.916H83.9V20.596H81.196C80.8227 21.9507 80.4813 22.9853 80.172 23.7H81.1V21.236H82.636V23.7H83.82V25.396H82.636V26.804L83.868 26.596L83.916 28.324ZM84.78 17.492H91.804V21.38H84.78V17.492ZM86.492 19.972H90.06V18.996H86.492V19.972ZM91.596 28.404L92.54 28.356V29.908L91.596 29.956V31.508H89.804V30.052L83.82 30.356L83.756 28.788L84.748 28.74V23.444H84.06V21.988H92.396V23.444H91.596V28.404ZM89.804 24.228V23.444H86.508V24.228H89.804ZM89.804 25.604H86.508V26.356H89.804V25.604ZM86.508 27.748V28.66L89.804 28.484V27.748H86.508Z" fill="#242424"/>
<defs>
<clipPath id="clip0_1205_859">
<rect width="16" height="16" fill="white" transform="translate(98.5 16.5)"/>
</clipPath>
</defs>
</svg>
