<svg width="60" height="60" viewBox="0 0 60 60" fill="none" xmlns="http://www.w3.org/2000/svg">
<path d="M13.9416 17C11.2227 17 9 14.7952 9 12.0981V8.90187C9 6.2048 11.2227 4 13.9416 4C16.6605 4 18.8832 6.2048 18.8832 8.90187V12.0981C18.8832 14.7952 16.6605 17 13.9416 17ZM46.0584 17C43.3395 17 41.1168 14.7952 41.1168 12.0981V8.90187C41.1168 6.2048 43.3395 4 46.0584 4C48.7773 4 51 6.2048 51 8.90187V12.0981C51.007 14.7952 48.7773 17 46.0584 17Z" fill="#C7E94E"/>
<path d="M57.3534 42.0653H56.206C56.1215 41.5304 56.0019 41.0025 55.8611 40.4746H57.3604C58.8104 40.4746 60 39.3008 60 37.8699C60 36.439 58.8104 35.2651 57.3604 35.2651H53.9324V28.972C53.9324 28.9442 53.9254 28.9234 53.9254 28.8956V0H51.2858C44.9226 0 39.404 3.54249 36.6025 8.73119C35.4622 8.5367 34.2938 8.41862 33.0971 8.41862H26.8888C25.6922 8.41862 24.5307 8.54364 23.3904 8.73119C20.5889 3.54249 15.0704 0 8.70718 0H6.06757V28.8956C6.06757 28.9234 6.06053 28.9442 6.06053 28.972V35.2651H2.63961C1.18958 35.2651 0 36.439 0 37.8699C0 39.3008 1.18958 40.4746 2.63961 40.4746H4.1389C3.99812 40.9956 3.87846 41.5235 3.79399 42.0653H2.64664C1.19662 42.0653 0.00703884 43.2392 0.00703884 44.6701C0.00703884 46.1009 1.19662 47.2748 2.64664 47.2748H3.86438C5.20178 54.4987 11.6143 60 19.3149 60H40.6851C48.3857 60 54.7982 54.4987 56.1356 47.2748H57.3534C58.8034 47.2748 59.993 46.1009 59.993 44.6701C60 43.2392 58.8104 42.0653 57.3534 42.0653ZM48.6462 5.51517V15.3369C46.7457 13.2253 44.4158 11.5096 41.7832 10.3079C43.3599 7.94628 45.7813 6.18893 48.6462 5.51517ZM11.3538 5.51517C14.2187 6.18893 16.6401 7.95323 18.2098 10.3149C15.5842 11.5096 13.2543 13.2322 11.3538 15.3369V5.51517ZM40.6851 54.7905H32.6396V47.0387H34.8217C36.1028 47.0387 37.1445 46.0037 37.1445 44.7465V44.1283C37.1445 42.8641 36.0957 41.8361 34.8217 41.8361H25.1713C23.8902 41.8361 22.8484 42.871 22.8484 44.1283V44.7465C22.8484 46.0107 23.8972 47.0387 25.1713 47.0387H27.3534V54.7905H19.3149C14.5425 54.7905 10.5092 51.6092 9.27733 47.2818H13.2966C14.7466 47.2818 15.9362 46.1079 15.9362 44.677C15.9362 43.2461 14.7466 42.0722 13.2966 42.0722H9.20695C9.34068 41.5304 9.5237 41.0025 9.74894 40.4816H13.2966C14.7466 40.4816 15.9362 39.3077 15.9362 37.8768C15.9362 36.4459 14.7466 35.2721 13.2966 35.2721H11.3468V28.9789C11.3468 20.5186 18.3224 13.6351 26.8958 13.6351H33.1042C41.6776 13.6351 48.6532 20.5186 48.6532 28.9789V35.2721H46.7105C45.2604 35.2721 44.0709 36.4459 44.0709 37.8768C44.0709 39.3077 45.2604 40.4816 46.7105 40.4816H50.2581C50.4833 40.9956 50.6664 41.5235 50.8001 42.0722H46.7105C45.2604 42.0722 44.0709 43.2461 44.0709 44.677C44.0709 46.1079 45.2604 47.2818 46.7105 47.2818H50.7297C49.4908 51.6022 45.4646 54.7905 40.6851 54.7905Z" fill="#242529"/>
</svg>
