<svg width="60" height="60" viewBox="0 0 60 60" fill="none" xmlns="http://www.w3.org/2000/svg">
<path d="M32.3665 55H25.6335C21.4338 55 18 51.6262 18 47.5C18 43.3738 21.4338 40 25.6335 40H32.3665C36.5662 40 40 43.3738 40 47.5C40 51.6262 36.5662 55 32.3665 55Z" fill="#4AFFF4"/>
<path d="M49.5394 0H39.0704V10.819H20.9296V0H10.4691C4.69624 0 0 4.57536 0 10.1996V21.5967C0 26.139 3.06866 30.0041 7.29867 31.309V42.2436C7.29867 52.0385 15.8858 60 26.4312 60H33.5688C44.1226 60 52.7013 52.0303 52.7013 42.2436V31.3173C56.9313 30.0041 60 26.1473 60 21.605V10.1996C60 4.57536 55.3038 0 49.5394 0ZM5.46765 21.5967V10.1996C5.46765 7.51549 7.70557 5.32691 10.4691 5.32691H15.4705V21.5967C15.4705 24.2808 13.2326 26.4694 10.4691 26.4694C7.70557 26.4694 5.46765 24.2891 5.46765 21.5967ZM38.299 48.8589C37.375 51.4026 34.9082 53.2443 31.9836 53.2443H26.6346C23.7101 53.2443 21.2433 51.4026 20.3193 48.8589C20.0735 48.1817 19.9124 47.4549 19.9124 46.6951C19.9124 44.3166 21.4552 42.0619 23.4049 40.914L30 48.1404L35.7982 40.914C37.2817 42.1198 38.7143 44.6717 38.7143 46.6951C38.7059 47.4549 38.5448 48.1817 38.299 48.8589ZM47.2337 42.2519C47.2337 43.5237 47.0218 44.7543 46.6233 45.9188H44.1311C43.7157 39.733 38.4346 34.819 31.9836 34.819H26.6346C20.1837 34.819 14.9025 39.733 14.4871 45.9188H13.419C13.0122 44.7626 12.7663 43.5403 12.7663 42.2519V31.5403C17.4371 30.5162 20.9296 26.4529 20.9296 21.5967V16.1459H39.0704V21.5967C39.0704 26.4446 42.5714 30.5079 47.2337 31.5403V42.2519ZM54.5324 21.5967C54.5324 24.2808 52.2944 26.4694 49.5309 26.4694C46.7759 26.4694 44.5295 24.2891 44.5295 21.5967V5.32691H49.5309C52.286 5.32691 54.5324 7.50723 54.5324 10.1996V21.5967Z" fill="#242529"/>
</svg>
