<svg width="148" height="98" viewBox="0 0 148 98" fill="none" xmlns="http://www.w3.org/2000/svg">
<path d="M21 8H7C3.68629 8 1 10.6863 1 14V91C1 94.3137 3.68629 97 7 97H141C144.314 97 147 94.3137 147 91V14C147 10.6863 144.314 8 141 8H56.5" stroke="black"/>
<path d="M36.124 11.416C35.788 11.984 35.336 12.428 34.768 12.748C34.208 13.068 33.572 13.228 32.86 13.228C32.028 13.228 31.292 13.024 30.652 12.616C30.012 12.208 29.516 11.64 29.164 10.912C28.812 10.176 28.636 9.332 28.636 8.38C28.636 7.444 28.812 6.616 29.164 5.896C29.524 5.168 30.024 4.608 30.664 4.216C31.312 3.816 32.056 3.616 32.896 3.616C33.608 3.616 34.24 3.78 34.792 4.108C35.352 4.428 35.792 4.868 36.112 5.428L34.972 6.088C34.756 5.72 34.452 5.432 34.06 5.224C33.676 5.008 33.272 4.9 32.848 4.9C32.296 4.9 31.808 5.048 31.384 5.344C30.96 5.632 30.628 6.04 30.388 6.568C30.156 7.088 30.04 7.692 30.04 8.38C30.04 9.076 30.156 9.696 30.388 10.24C30.628 10.784 30.96 11.208 31.384 11.512C31.808 11.808 32.296 11.956 32.848 11.956C33.264 11.956 33.66 11.848 34.036 11.632C34.412 11.416 34.728 11.12 34.984 10.744L36.124 11.416ZM44.917 13.06H43.477L42.505 10.288H39.181L38.209 13.06H36.769L40.141 3.784H41.545L44.917 13.06ZM40.801 5.668L39.637 9.004H42.049L40.873 5.668H40.801ZM47.885 13.06H46.517V5.068H43.745V3.784H50.645V5.068H47.885V13.06Z" fill="#C7E94E"/>
<path d="M57.7475 39.1776C55.0094 39.1776 52.771 36.9688 52.771 34.2667V31.0646C52.771 28.3626 55.0094 26.1537 57.7475 26.1537C60.4857 26.1537 62.7241 28.3626 62.7241 31.0646V34.2667C62.7241 36.9688 60.4857 39.1776 57.7475 39.1776ZM90.0915 39.1776C87.3533 39.1776 85.115 36.9688 85.115 34.2667V31.0646C85.115 28.3626 87.3533 26.1537 90.0915 26.1537C92.8297 26.1537 95.068 28.3626 95.068 31.0646V34.2667C95.0751 36.9688 92.8297 39.1776 90.0915 39.1776Z" fill="#C7E94E"/>
<path d="M101.353 64.0653H100.206C100.122 63.5304 100.002 63.0025 99.8611 62.4746H101.36C102.81 62.4746 104 61.3008 104 59.8699C104 58.439 102.81 57.2651 101.36 57.2651H97.9324V50.972C97.9324 50.9442 97.9254 50.9234 97.9254 50.8956V22H95.2858C88.9226 22 83.404 25.5425 80.6025 30.7312C79.4622 30.5367 78.2938 30.4186 77.0971 30.4186H70.8888C69.6922 30.4186 68.5307 30.5436 67.3904 30.7312C64.5889 25.5425 59.0704 22 52.7072 22H50.0676V50.8956C50.0676 50.9234 50.0605 50.9442 50.0605 50.972V57.2651H46.6396C45.1896 57.2651 44 58.439 44 59.8699C44 61.3008 45.1896 62.4746 46.6396 62.4746H48.1389C47.9981 62.9956 47.8785 63.5235 47.794 64.0653H46.6466C45.1966 64.0653 44.007 65.2392 44.007 66.6701C44.007 68.1009 45.1966 69.2748 46.6466 69.2748H47.8644C49.2018 76.4987 55.6143 82 63.3149 82H84.6851C92.3857 82 98.7982 76.4987 100.136 69.2748H101.353C102.803 69.2748 103.993 68.1009 103.993 66.6701C104 65.2392 102.81 64.0653 101.353 64.0653ZM92.6462 27.5152V37.3369C90.7457 35.2253 88.4158 33.5096 85.7832 32.3079C87.3599 29.9463 89.7813 28.1889 92.6462 27.5152ZM55.3538 27.5152C58.2187 28.1889 60.6401 29.9532 62.2098 32.3149C59.5842 33.5096 57.2543 35.2322 55.3538 37.3369V27.5152ZM84.6851 76.7905H76.6396V69.0387H78.8217C80.1028 69.0387 81.1445 68.0037 81.1445 66.7465V66.1283C81.1445 64.8641 80.0957 63.8361 78.8217 63.8361H69.1713C67.8902 63.8361 66.8484 64.871 66.8484 66.1283V66.7465C66.8484 68.0107 67.8972 69.0387 69.1713 69.0387H71.3534V76.7905H63.3149C58.5425 76.7905 54.5092 73.6092 53.2773 69.2818H57.2966C58.7466 69.2818 59.9362 68.1079 59.9362 66.677C59.9362 65.2461 58.7466 64.0722 57.2966 64.0722H53.2069C53.3407 63.5304 53.5237 63.0025 53.7489 62.4816H57.2966C58.7466 62.4816 59.9362 61.3077 59.9362 59.8768C59.9362 58.4459 58.7466 57.2721 57.2966 57.2721H55.3468V50.9789C55.3468 42.5186 62.3224 35.6351 70.8958 35.6351H77.1042C85.6776 35.6351 92.6532 42.5186 92.6532 50.9789V57.2721H90.7105C89.2604 57.2721 88.0709 58.4459 88.0709 59.8768C88.0709 61.3077 89.2604 62.4816 90.7105 62.4816H94.2581C94.4833 62.9956 94.6664 63.5235 94.8001 64.0722H90.7105C89.2604 64.0722 88.0709 65.2461 88.0709 66.677C88.0709 68.1079 89.2604 69.2818 90.7105 69.2818H94.7297C93.4908 73.6022 89.4646 76.7905 84.6851 76.7905Z" fill="#242529"/>
</svg>
