<svg width="23" height="21" viewBox="0 0 23 21" fill="none" xmlns="http://www.w3.org/2000/svg">
<g clip-path="url(#clip0_987_1633)">
<path d="M20.0557 2.20287L21.0038 0.383242C21.1799 0.0479765 21.6202 -0.0953225 21.9842 0.0669027L22.084 0.112867C22.448 0.275092 22.6036 0.680655 22.4275 1.01592L20.22 5.25" fill="#BABABA"/>
<path d="M19.4969 7.875L18.833 7.27389L20.5782 0.394466C20.6649 0.0493815 20.8871 -0.0981142 21.0687 0.0688621C21.2502 0.235838 21.3288 0.653279 21.2421 0.998363L19.4969 7.875Z" fill="#E2E2E2"/>
<path d="M19.1592 7.875C19.1097 7.875 19.0578 7.86493 19.0108 7.83975L17.8085 7.25307C17.7269 7.21278 17.6626 7.13976 17.6304 7.05164C17.6007 6.96351 17.6057 6.86531 17.6453 6.78222L20.5816 0.557889C20.693 0.321204 20.8884 0.144949 21.1308 0.056821C21.3732 -0.0313066 21.6355 -0.016199 21.868 0.0971079L21.9521 0.139913C22.1846 0.25322 22.3578 0.452136 22.4444 0.698894C22.531 0.945651 22.5161 1.21255 22.4048 1.44924L19.4709 7.67356C19.4115 7.80198 19.2878 7.875 19.1592 7.875ZM18.4195 6.76963L18.9959 7.05164L21.7814 1.14457C21.8457 1.00608 21.7888 0.839898 21.6528 0.774432L21.5687 0.731627C21.5044 0.698894 21.4301 0.696376 21.3609 0.721555C21.2916 0.746734 21.2372 0.797093 21.205 0.862559L18.4195 6.76963Z" fill="#242424"/>
<path d="M18.0378 11.8125C17.9767 11.8125 17.9125 11.8032 17.8545 11.7799C17.6406 11.7032 17.5521 11.5078 17.6529 11.345L19.1619 8.95396C19.2566 8.8051 19.1741 8.62601 18.9755 8.5539C18.78 8.4818 18.5448 8.5446 18.4501 8.69578C18.3493 8.8586 18.0927 8.92605 17.8789 8.84929C17.6651 8.77254 17.5765 8.57716 17.6773 8.41435C17.9767 7.94219 18.722 7.74216 19.3451 7.96777C19.6445 8.07709 19.8705 8.27014 19.9836 8.50971C20.0966 8.74928 20.0752 9.00746 19.9316 9.23772L18.4226 11.6288C18.3493 11.7427 18.1966 11.8125 18.0378 11.8125Z" fill="#242424"/>
<path d="M17.424 10.5C17.3752 10.5 17.324 10.4897 17.2777 10.4638C17.107 10.3785 17.0363 10.1614 17.1168 9.98042L18.1214 7.76251C18.197 7.59707 18.1311 7.39802 17.9726 7.31789C17.8141 7.23775 17.6288 7.30755 17.5532 7.47557L17.0387 8.61296C16.9583 8.79391 16.7535 8.86888 16.5828 8.78357C16.4121 8.69827 16.3414 8.48113 16.4218 8.30018L16.9363 7.16279C17.0509 6.90946 17.2533 6.71817 17.5045 6.62253C17.7556 6.52947 18.0263 6.54498 18.2677 6.66647C18.7627 6.9198 18.9724 7.55054 18.7359 8.07787L17.7312 10.2932C17.6727 10.425 17.5508 10.5 17.424 10.5Z" fill="#242424"/>
<path d="M19.0193 11.8125C18.8716 11.8125 18.7321 11.7399 18.6692 11.6182C18.5844 11.4566 18.6664 11.267 18.8525 11.1898L20.5021 8.25164L18.0071 7.22623L17.118 8.81117C17.0277 8.97505 16.7979 9.04295 16.6064 8.96569C16.4149 8.88843 16.3356 8.69178 16.4259 8.5279L17.3287 6.91954C17.4135 6.76737 17.5639 6.65499 17.7472 6.59881C17.9333 6.54262 18.133 6.55198 18.3108 6.62456L20.8605 7.67104C21.2271 7.82088 21.3803 8.1978 21.2052 8.51151L19.5391 11.4824C19.4653 11.6158 19.3367 11.7235 19.1753 11.7844C19.126 11.8031 19.0713 11.8125 19.0193 11.8125Z" fill="#242424"/>
<path d="M6.61133 6.5625C7.96066 6.5625 9.05577 7.44281 9.05577 8.53125C9.05577 9.61969 7.96066 10.5 6.61133 10.5" fill="#FF4040"/>
<path d="M5.38867 9.1875C5.38867 9.5356 5.45306 9.86944 5.56766 10.1156C5.68227 10.3617 5.83771 10.5 5.99978 10.5C6.16186 10.5 6.3173 10.3617 6.4319 10.1156C6.54651 9.86944 6.61089 9.5356 6.61089 9.1875C6.61089 8.8394 6.54651 8.50556 6.4319 8.25942C6.3173 8.01328 6.16186 7.875 5.99978 7.875C5.83771 7.875 5.68227 8.01328 5.56766 8.25942C5.45306 8.50556 5.38867 8.8394 5.38867 9.1875Z" fill="#FF6464"/>
<path d="M6.02092 10.5C5.98522 10.5 5.94677 10.4955 5.91106 10.4865C5.41668 10.3649 4.97174 10.1128 4.66137 9.77509C4.33728 9.42389 4.16699 9.0074 4.16699 8.56614C4.16699 7.46076 5.26287 6.5625 6.61144 6.5625C7.96 6.5625 9.05588 7.46076 9.05588 8.56614C9.05588 9.03892 8.85263 9.49818 8.4791 9.85838C8.34177 9.99121 8.10008 10.0092 7.93803 9.89665C7.77598 9.78409 7.75401 9.58598 7.89134 9.45315C8.14677 9.20551 8.28684 8.89258 8.28684 8.5684C8.28684 7.81196 7.53428 7.19511 6.61144 7.19511C5.68859 7.19511 4.93603 7.81196 4.93603 8.5684C4.93603 9.17174 5.42767 9.71205 6.13079 9.8854C6.33403 9.93493 6.44939 10.1105 6.38896 10.2771C6.33953 10.4122 6.18847 10.5 6.02092 10.5Z" fill="#242424"/>
<path d="M11.5 11.8125H16.3889C16.3889 8.91252 14.2005 6.5625 11.5 6.5625V11.8125Z" fill="#FFCA55"/>
<path d="M7.83301 14.4375C7.83301 9.13291 9.69107 6.5625 11.985 6.5625C14.2789 6.5625 16.3886 9.91291 16.3886 14.4375" fill="#FFE59C"/>
<path d="M17.2763 11.8125C17.1107 11.8125 16.9692 11.6895 16.9452 11.5174C16.6045 9.08299 14.5342 7.24857 12.1304 7.24857C10.7006 7.24857 9.34996 7.89037 8.42395 9.00676C8.304 9.15184 8.09289 9.16906 7.95135 9.04611C7.80981 8.92316 7.79301 8.70676 7.91296 8.56168C8.96852 7.29037 10.5039 6.5625 12.1304 6.5625C13.469 6.5625 14.7621 7.05922 15.7697 7.96168C16.7677 8.8543 17.4202 10.0838 17.6073 11.4215C17.6337 11.6109 17.5066 11.783 17.3218 11.81C17.3074 11.81 17.2907 11.8125 17.2763 11.8125Z" fill="#242424"/>
<path d="M16.0197 11.8125C15.8527 11.8125 15.704 11.6829 15.6649 11.4944C15.3257 9.84817 14.0419 8.69666 12.5416 8.69666C11.3805 8.69666 10.3055 9.40936 9.73934 10.5579C9.64019 10.7582 9.41841 10.8289 9.24359 10.717C9.06616 10.605 9.00354 10.3547 9.10269 10.1574C9.79674 8.74967 11.117 7.875 12.5442 7.875C13.4392 7.875 14.3133 8.22251 15.01 8.85569C15.6962 9.47709 16.1815 10.3488 16.3798 11.3118C16.4242 11.5327 16.3041 11.7565 16.1058 11.8066C16.0745 11.8096 16.0458 11.8125 16.0197 11.8125Z" fill="#242424"/>
<path d="M13.5456 13.125C13.3265 13.125 13.1472 12.9304 13.1472 12.6926C13.1472 11.9607 12.598 11.3647 11.9236 11.3647C11.5593 11.3647 11.215 11.5407 10.9817 11.8465C10.8422 12.0287 10.5889 12.0565 10.4211 11.9021C10.2532 11.7507 10.2275 11.4759 10.3698 11.2937C10.754 10.7903 11.3231 10.5 11.9236 10.5C13.0391 10.5 13.944 11.4851 13.944 12.6926C13.944 12.9304 13.7647 13.125 13.5456 13.125Z" fill="#242424"/>
<path d="M16.3887 17.0625H21.2776C21.2776 14.1717 19.0898 11.824 16.3887 11.8125V17.0625Z" fill="#FFCA55"/>
<path d="M12.7227 15.75C12.7227 13.5749 14.0904 11.8125 15.7782 11.8125C17.466 11.8125 18.8338 13.5749 18.8338 15.75" fill="#FFE59C"/>
<path d="M20.9383 15.75C20.7513 15.75 20.5984 15.593 20.5984 15.4012C20.5984 13.0839 18.7603 11.1977 16.5022 11.1977C15.2663 11.1977 14.1081 11.7633 13.3263 12.7475C13.2073 12.897 12.9936 12.9194 12.8479 12.7973C12.7023 12.6752 12.6804 12.456 12.7994 12.3065C13.7123 11.1603 15.0599 10.5 16.5022 10.5C19.1367 10.5 21.2782 12.6977 21.2782 15.4012C21.2782 15.593 21.1277 15.75 20.9383 15.75Z" fill="#242424"/>
<path d="M18.4981 17.0625C18.3135 17.0625 18.1624 16.8895 18.1624 16.6781C18.1624 15.1432 17.0715 13.8938 15.7312 13.8938C14.6307 13.8938 13.6645 14.7423 13.3816 15.9587C13.3336 16.1646 13.149 16.2854 12.9716 16.2305C12.7918 16.1756 12.6863 15.9642 12.7342 15.761C13.0963 14.2096 14.3286 13.125 15.7312 13.125C17.4407 13.125 18.8338 14.7176 18.8338 16.6781C18.8338 16.8895 18.6851 17.0625 18.4981 17.0625Z" fill="#242424"/>
<path d="M18.4174 17.0625C18.1901 17.0625 18.0041 16.8452 18.0041 16.5796C18.0041 15.9311 17.5524 15.4033 16.9974 15.4033C16.4424 15.4033 15.9936 15.9311 15.9936 16.5796C15.9936 16.8452 15.8076 17.0625 15.5803 17.0625C15.353 17.0625 15.167 16.8452 15.167 16.5796C15.167 15.3999 15.9877 14.4375 17.0003 14.4375C18.0129 14.4375 18.8337 15.3964 18.8337 16.5796C18.8307 16.8452 18.6477 17.0625 18.4174 17.0625Z" fill="#242424"/>
<path d="M7.83301 15.75H13.9441C13.9441 12.8502 11.3049 10.5 8.04851 10.5C7.97667 10.5 7.90484 10.5024 7.83567 10.5047V15.75H7.83301Z" fill="#FFCA55"/>
<path d="M4.16699 15.75C4.16699 12.8901 5.93528 10.5 8.44477 10.5C10.9543 10.5 12.7225 12.8901 12.7225 15.75" fill="#FFE59C"/>
<path d="M13.5843 17.0625C13.3846 17.0625 13.2212 16.8969 13.2212 16.6944C13.2212 14.0862 11.3899 11.833 8.8687 11.3361C8.5315 11.2704 8.18392 11.2362 7.83375 11.2362C4.8638 11.2362 2.44893 13.684 2.44893 16.6944C2.44893 16.8969 2.28552 17.0625 2.08579 17.0625C1.88607 17.0625 1.72266 16.8969 1.72266 16.6944C1.72266 15.0406 2.35815 13.4842 3.51241 12.3142C4.66667 11.1442 6.20222 10.5 7.83375 10.5C8.22802 10.5 8.62228 10.5394 9.00617 10.6131C11.8672 11.1757 13.9448 13.7339 13.9448 16.6944C13.9474 16.8969 13.784 17.0625 13.5843 17.0625Z" fill="#242424"/>
<path d="M11.167 15.75C10.9837 15.75 10.8337 15.6023 10.8337 15.4219C10.8337 13.793 9.48842 12.4687 7.83366 12.4687C6.1789 12.4687 4.83366 13.793 4.83366 15.4219C4.83366 15.6023 4.68366 15.75 4.50033 15.75C4.31699 15.75 4.16699 15.6023 4.16699 15.4219C4.16699 13.432 5.81223 11.8125 7.83366 11.8125C9.85509 11.8125 11.5003 13.432 11.5003 15.4219C11.5003 15.6023 11.3503 15.75 11.167 15.75Z" fill="#242424"/>
<path d="M9.92299 17.0625C9.72774 17.0625 9.56799 16.8709 9.56799 16.6367C9.56799 15.8945 9.06338 15.2892 8.44466 15.2892C7.82594 15.2892 7.32133 15.8945 7.32133 16.6367C7.32133 16.8709 7.16158 17.0625 6.96633 17.0625C6.77108 17.0625 6.61133 16.8709 6.61133 16.6367C6.61133 15.423 7.4329 14.4375 8.44466 14.4375C9.45642 14.4375 10.278 15.423 10.278 16.6367C10.278 16.8709 10.1208 17.0625 9.92299 17.0625Z" fill="#242424"/>
<path d="M6.77049 6.44136C7.37077 6.61321 8.0097 6.60515 8.62362 6.3984C8.55995 6.17018 8.47809 5.94732 8.37805 5.72715C7.97332 4.83572 7.34121 4.18326 6.61133 3.81273M9.42398 5.85334C9.60589 5.72715 9.77869 5.58484 9.93786 5.4318C11.3044 4.12688 11.8342 1.94932 11.2885 0C11.0679 0.0993458 10.8519 0.220172 10.6427 0.367848C10.3221 0.590705 10.0379 0.853837 9.78779 1.15187" fill="#74B232"/>
<path d="M5.38867 4.21553C5.44374 4.398 5.50983 4.57578 5.59244 4.75122C6.27809 6.20157 7.75678 6.86592 9.09779 6.43082C9.04272 6.24836 8.97663 6.07057 8.89402 5.89513C8.20837 4.44478 6.73243 3.78043 5.38867 4.21553ZM11.3227 1.3125C11.1382 1.39204 10.9592 1.49028 10.783 1.60491C9.32909 2.57571 8.71504 4.54303 9.22721 6.28579C9.4117 6.20625 9.59068 6.108 9.76692 5.99338C11.2208 5.02492 11.8321 3.05526 11.3227 1.3125Z" fill="#94CC62"/>
<path d="M8.70016 7.875C8.07686 7.875 7.45082 7.75132 6.86852 7.50945C5.86249 7.08894 5.02321 6.32487 4.50653 5.35741C4.38077 5.11829 4.27142 4.86818 4.18668 4.61257C4.15387 4.51363 4.16207 4.40369 4.21128 4.31024C4.26049 4.2168 4.34524 4.14808 4.44365 4.1206C5.47156 3.82377 6.58421 3.88973 7.57657 4.30475C8.58261 4.72526 9.42188 5.48933 9.93857 6.45679C10.0643 6.69591 10.1737 6.94602 10.2584 7.20163C10.2912 7.30057 10.283 7.41051 10.2338 7.50396C10.1846 7.59741 10.0999 7.66612 10.0014 7.6936C9.57771 7.81453 9.1403 7.875 8.70016 7.875ZM5.06969 4.76099C5.10523 4.83795 5.1435 4.91491 5.18177 4.98911C5.99371 6.51451 7.70779 7.33355 9.37541 7.04496C9.33987 6.96801 9.30159 6.89105 9.26332 6.81684C8.45139 5.29145 6.7373 4.4724 5.06969 4.76099Z" fill="#242424"/>
<path d="M9.60012 6.5625C9.55109 6.5625 9.50439 6.54986 9.46002 6.52711C9.38064 6.48667 9.31759 6.41085 9.28957 6.31985C8.96035 5.24311 8.97903 4.0602 9.34328 2.99104C9.71219 1.90418 10.4243 0.984142 11.3466 0.395217C11.5731 0.251146 11.8136 0.124767 12.0611 0.0236638C12.1452 -0.0117223 12.2362 -0.0066671 12.318 0.0337741C12.3974 0.0742153 12.4604 0.150043 12.4884 0.241035C12.8176 1.31778 12.799 2.50069 12.4347 3.56985C12.0658 4.65671 11.3536 5.57675 10.4314 6.16567C10.2049 6.30974 9.96437 6.43612 9.71686 6.53722C9.67717 6.55492 9.63748 6.5625 9.60012 6.5625ZM11.9654 0.840071C11.8673 0.890622 11.7739 0.946229 11.6805 1.00436C10.1698 1.96737 9.42266 3.90349 9.8126 5.72334C9.91066 5.67279 10.0041 5.61719 10.0975 5.55905C11.6082 4.59605 12.3553 2.65992 11.9654 0.840071Z" fill="#242424"/>
<path d="M12.7227 17.0625H21.7709C22.1722 17.0625 22.5004 17.3578 22.5004 17.7188C22.5004 18.0797 22.1722 18.375 21.7709 18.375H12.7227" fill="#AAAAAA"/>
<path d="M20.5201 18.375H3.70191C3.28524 18.375 2.94434 18.0797 2.94434 17.7188C2.94434 17.3578 3.28524 17.0625 3.70191 17.0625H20.5201C20.9368 17.0625 21.2777 17.3578 21.2777 17.7188C21.2777 18.0797 20.9368 18.375 20.5201 18.375Z" fill="#CCCCCC"/>
<path d="M21.405 18.375H1.59502C0.990271 18.375 0.5 17.7874 0.5 17.0625C0.5 16.3376 0.990271 15.75 1.59502 15.75H21.405C22.0097 15.75 22.5 16.3376 22.5 17.0625C22.5 17.7874 22.0097 18.375 21.405 18.375ZM1.59502 16.5852C1.37602 16.5852 1.19683 16.8 1.19683 17.0625C1.19683 17.325 1.37602 17.5398 1.59502 17.5398H21.405C21.624 17.5398 21.8032 17.325 21.8032 17.0625C21.8032 16.8 21.624 16.5852 21.405 16.5852H1.59502Z" fill="#242424"/>
<path d="M12.7227 18.375H21.2782V18.9C21.2782 20.055 20.4054 21 19.3387 21H12.7227" fill="#D8D8D8"/>
<path d="M16.9102 21H6.09049C5.03257 21 4.16699 20.055 4.16699 18.9V18.375H18.8337V18.9C18.8337 20.055 17.9681 21 16.9102 21Z" fill="#EFEFEF"/>
<path d="M18.9155 21H4.08541C2.78338 21 1.72266 19.7019 1.72266 18.1084V17.4932C1.72266 17.2563 1.88101 17.0625 2.07456 17.0625H20.9263C21.1199 17.0625 21.2782 17.2563 21.2782 17.4932V18.1084C21.2782 19.7019 20.2175 21 18.9155 21ZM2.42646 17.9238V18.1084C2.42646 19.2281 3.17047 20.1387 4.08541 20.1387H18.9155C19.8304 20.1387 20.5744 19.2281 20.5744 18.1084V17.9238H2.42646Z" fill="#242424"/>
</g>
<defs>
<clipPath id="clip0_987_1633">
<rect width="22" height="21" fill="white" transform="translate(0.5)"/>
</clipPath>
</defs>
</svg>
