<svg width="393" height="852" viewBox="0 0 393 852" fill="none" xmlns="http://www.w3.org/2000/svg">
<g clip-path="url(#clip0_987_477)">
<rect width="393" height="852" fill="#FEFDEB"/>
<g filter="url(#filter0_f_987_477)">
<path d="M123.761 13.5412L133.06 5.4096L214.857 96.0244L199.559 107.95L123.761 13.5412Z" fill="#FEFAA1"/>
</g>
<g filter="url(#filter1_f_987_477)">
<path d="M393 178C343.46 167.949 240 147 240 96C240.001 70.5409 300 51 393 79L393 178Z" fill="#DEF3FE"/>
</g>
<g filter="url(#filter2_f_987_477)">
<path d="M300.5 138C286 80.5 178.333 69.1667 129 70.5L56.5 138H300.5Z" fill="#13DDE2"/>
</g>
<g filter="url(#filter3_f_987_477)">
<path d="M0 148L122.397 148C231.539 35.291 52.2915 31.8704 0 65.899V148Z" fill="#D7FF4B"/>
</g>
<path fill-rule="evenodd" clip-rule="evenodd" d="M101.693 38.8793C102.002 38.4623 102.585 38.3483 103.031 38.6301C103.498 38.9252 103.637 39.5429 103.341 40.0097C103.269 40.1237 103.156 40.2445 103.113 40.2903C103.11 40.2943 103.107 40.2977 103.104 40.3004C103.074 40.3324 103.046 40.3629 103.016 40.3945C102.969 40.4447 102.919 40.4978 102.858 40.5643C102.671 40.7675 102.446 41.0217 102.233 41.3047C102.017 41.5909 101.829 41.8841 101.704 42.1616C101.576 42.4453 101.541 42.6507 101.552 42.7847C101.566 42.9685 101.726 43.2794 102.156 43.6613C102.557 44.0165 103.04 44.297 103.345 44.4364C103.847 44.6662 104.068 45.2596 103.838 45.7618C103.608 46.264 103.015 46.4849 102.513 46.2551C102.064 46.0497 101.405 45.668 100.829 45.1575C100.284 44.6736 99.6335 43.9152 99.5577 42.9397C99.5117 42.3492 99.6754 41.7946 99.8807 41.3393C100.089 40.878 100.369 40.4533 100.637 40.0995C100.906 39.7425 101.18 39.4345 101.387 39.2098C101.451 39.1402 101.517 39.0698 101.569 39.0136C101.596 38.9845 101.62 38.9592 101.638 38.9398C101.668 38.9074 101.685 38.8882 101.693 38.8793Z" fill="white"/>
<path d="M104.024 46.9594C103.811 47.8144 109.446 49.9323 113.511 49.3126C114.902 49.1007 114.139 47.4207 115.009 46.763C116.162 45.8914 116.01 46.8533 118.491 46.0477C119.467 45.731 126.232 50.5729 127.148 50.8001C128.505 51.1365 124.679 46.1613 122.491 44.1975C123.75 43.2466 124.471 41.6074 124.673 40.7914C125.213 38.6144 123.837 36.3205 121.667 35.7824C118.424 35.215 118.575 36.6018 115.48 36.9323C113.844 37.107 112.589 35.8994 110.089 36.7794C105.498 38.816 102.675 43.3166 104.024 46.9594Z" fill="white"/>
<path opacity="0.969" fill-rule="evenodd" clip-rule="evenodd" d="M131.435 50.5364C131.204 50.4694 131.1 50.5577 131.123 50.8013C131.137 50.8236 131.15 50.846 131.163 50.8683C131.662 51.0049 132.024 51.3038 132.249 51.7649C132.296 51.9382 132.348 52.1096 132.405 52.2791C132.546 52.3695 132.665 52.3483 132.762 52.2155C132.655 51.3862 132.212 50.8265 131.435 50.5364Z" fill="#221F20"/>
<path opacity="0.975" fill-rule="evenodd" clip-rule="evenodd" d="M129.191 54.391C129.138 54.3574 129.082 54.3307 129.021 54.3109C128.998 54.305 128.989 54.2901 128.995 54.2662C128.983 54.2632 128.971 54.2603 128.959 54.2573C128.288 53.8326 128.091 53.2514 128.368 52.5137C128.506 52.162 128.754 51.9257 129.113 51.8046C129.85 51.6021 130.49 51.7735 131.032 52.3186C131.548 53.0361 131.5 53.7149 130.887 54.3551C130.661 54.5474 130.403 54.648 130.111 54.657C129.925 54.8808 129.98 55.0149 130.276 55.0593C131.208 54.8156 131.705 54.2102 131.769 53.243C131.666 52.2472 131.124 51.6311 130.143 51.3947C129.163 51.1655 128.438 51.4926 127.966 52.376C127.645 53.4186 127.964 54.1949 128.924 54.7049C129.129 54.7014 129.218 54.5968 129.191 54.391ZM128.959 54.2573C128.288 53.8326 128.091 53.2514 128.368 52.5137C128.229 53.2095 128.426 53.7907 128.959 54.2573Z" fill="#231F20"/>
<path opacity="0.993" fill-rule="evenodd" clip-rule="evenodd" d="M124.881 38.4535C125.226 38.3702 125.565 38.2768 125.898 38.1733C125.61 38.4076 125.289 38.5814 124.935 38.695C124.851 38.6215 124.833 38.541 124.881 38.4535ZM102.242 37.1163C101.712 36.699 101.394 36.435 101.21 36.2721C101.125 36.1959 101.046 36.1221 100.988 36.0562C100.972 36.038 100.949 36.0109 100.925 35.9777L100.925 35.9776C100.91 35.9562 100.856 35.8801 100.819 35.7706C100.801 35.7163 100.767 35.5953 100.785 35.4401C100.807 35.2562 100.903 35.0498 101.104 34.9108C101.275 34.7918 101.445 34.7772 101.526 34.7763C101.613 34.7754 101.682 34.7899 101.718 34.7989C101.907 34.8457 102.061 34.9599 102.161 35.1095C102.173 35.1208 102.188 35.1343 102.206 35.1504C102.356 35.2834 102.647 35.5257 103.17 35.938C103.941 36.5456 104.138 37.3844 104.099 38.0958C104.061 38.7849 103.806 39.4171 103.578 39.8045C103.369 40.1619 102.909 40.2817 102.552 40.0722C102.195 39.8627 102.075 39.4032 102.284 39.0459C102.421 38.813 102.579 38.411 102.601 38.0136C102.622 37.6384 102.524 37.3384 102.242 37.1163ZM119.849 38.8785C119.165 39.0382 118.475 39.1205 117.779 39.1257C117.818 39.2459 117.901 39.3173 118.029 39.3398C118.54 39.4006 119.033 39.3456 119.51 39.1748C119.516 39.1509 119.531 39.1419 119.555 39.1478C119.561 39.1239 119.575 39.1149 119.599 39.1208C119.684 39.0397 119.767 38.9589 119.849 38.8785ZM124.134 48.9538C124.48 48.2783 125.033 47.9844 125.793 48.0723C125.904 48.1733 125.988 48.2954 126.043 48.4386C126.037 48.4625 126.046 48.4774 126.07 48.4833C126.247 48.7017 126.403 48.937 126.539 49.1891C126.649 49.2535 126.752 49.2472 126.847 49.1704L126.999 49.4743C126.978 49.5337 126.969 49.5949 126.973 49.6578C127.165 49.9158 127.251 50.2034 127.232 50.5208C127.092 50.4725 126.954 50.4191 126.817 50.3608C126.752 50.3016 126.691 50.2422 126.634 50.1823C126.64 50.1584 126.631 50.1435 126.607 50.1376C126.512 49.5421 126.182 49.3461 125.616 49.5495C125.408 49.557 125.209 49.5963 125.018 49.6675C124.699 49.4517 124.405 49.2139 124.134 48.9538ZM111.461 46.8752C110.821 46.7603 110.194 46.7948 109.578 46.9786C109.569 47.1546 109.59 47.3246 109.641 47.4886C109.665 47.4945 109.674 47.5094 109.668 47.5333C109.67 47.8456 109.736 48.1408 109.865 48.4188C109.91 48.4425 109.907 48.4545 109.856 48.4546C109.975 48.7739 109.875 48.8696 109.557 48.7418C109.414 48.5215 109.258 48.3116 109.088 48.1121C109.06 48.0463 109.063 47.9836 109.097 47.9241C109.17 47.891 109.246 47.8654 109.325 47.8474C109.293 47.6601 109.25 47.4782 109.195 47.3018C108.851 47.9914 109.02 48.5339 109.7 48.9294C109.949 49.0417 110.201 49.1485 110.455 49.2496C110.567 49.7291 110.853 50.0535 111.313 50.2229C111.773 50.2123 111.902 49.9972 111.7 49.5774C111.573 49.4254 111.43 49.2885 111.271 49.1669C111.262 49.115 111.249 49.0673 111.231 49.0238C111.174 48.9896 111.135 48.942 111.115 48.8809C110.967 49.0315 110.839 49.0125 110.731 48.8237C110.689 48.2363 110.84 47.7033 111.184 47.225C111.14 47.2012 111.143 47.1893 111.193 47.1891C111.314 47.1147 111.403 47.0101 111.461 46.8752ZM128.958 54.2573C128.425 53.7907 128.228 53.2095 128.367 52.5136C128.505 52.1619 128.753 51.9256 129.112 51.8046C129.849 51.6021 130.489 51.7734 131.031 52.3186C131.548 53.036 131.499 53.7148 130.886 54.3551C130.661 54.5473 130.402 54.648 130.11 54.657C129.783 54.6348 129.477 54.546 129.19 54.3909C129.137 54.3573 129.081 54.3306 129.021 54.3108C129.027 54.2869 129.018 54.272 128.994 54.2661L128.958 54.2573ZM123.874 38.926C123.725 38.8719 123.656 38.7661 123.668 38.6088C123.938 38.6283 124.202 38.6052 124.462 38.5396C124.504 38.6343 124.537 38.7311 124.561 38.8302C124.338 38.9002 124.109 38.9321 123.874 38.926ZM126.188 50.2998C126.107 50.3188 126.027 50.3369 125.947 50.3541C125.931 50.2335 125.874 50.1307 125.777 50.0458C125.824 49.8454 125.945 49.7929 126.139 49.8882C126.242 50.0125 126.259 50.1497 126.188 50.2998ZM122.433 42.9798C122.52 42.9467 122.609 42.9435 122.701 42.9701C122.582 43.1712 122.414 43.2373 122.197 43.1684C122.293 43.1254 122.372 43.0626 122.433 42.9798Z" fill="#C5FD02"/>
<path opacity="0.972" fill-rule="evenodd" clip-rule="evenodd" d="M126.396 52.5188C126.246 52.5029 126.148 52.5673 126.101 52.712C125.796 53.4365 125.931 54.0656 126.505 54.5994C126.612 54.5804 126.695 54.525 126.755 54.4332C126.671 54.2272 126.561 54.0351 126.424 53.8568C126.292 53.488 126.323 53.1343 126.516 52.796C126.541 52.6689 126.501 52.5765 126.396 52.5188Z" fill="#221F20"/>
<path opacity="0.971" fill-rule="evenodd" clip-rule="evenodd" d="M117.045 36.8141C118.422 35.3506 120.075 34.9241 122.005 35.5345C122.341 35.6802 122.662 35.8613 122.969 36.0779C123 36.1494 123.02 36.224 123.028 36.3015C122.952 36.4427 122.845 36.4669 122.706 36.374C122.305 36.0966 121.866 35.9053 121.39 35.8002C119.661 35.4456 118.246 35.9565 117.144 37.333C116.962 37.4019 116.845 37.3411 116.791 37.1504C116.88 37.0421 116.964 36.93 117.045 36.8141ZM123.3 36.6543C123.329 36.4606 123.442 36.3872 123.639 36.4341C124.291 36.7279 124.954 37.0125 125.625 37.2881C125.791 37.4221 125.785 37.5474 125.608 37.664C124.849 37.3992 124.102 37.0999 123.367 36.766C123.33 36.7378 123.307 36.7005 123.3 36.6543ZM123.668 38.6088C123.937 38.6283 124.202 38.6052 124.462 38.5396C124.504 38.6343 124.536 38.7311 124.56 38.8302C124.788 39.7543 124.617 40.5991 124.045 41.3644C124.025 41.542 124.104 41.6313 124.282 41.6323C125 40.7689 125.218 39.7898 124.935 38.695C124.851 38.6215 124.833 38.541 124.881 38.4535C125.226 38.3702 125.565 38.2768 125.898 38.1733C126.18 38.0897 126.453 37.9801 126.719 37.8445C126.8 37.6429 126.733 37.5312 126.518 37.5094C125.641 37.9102 124.719 38.1633 123.752 38.2685C123.631 38.3587 123.603 38.4722 123.668 38.6088ZM102.517 35.8726C102.175 35.6737 102.186 35.6766 102.186 35.6766C102.186 35.6766 102.178 35.3499 102.391 35.3091C102.847 35.5329 103.224 35.8482 103.521 36.2548C104.312 37.5198 104.243 38.7387 103.315 39.9114C103.058 40.171 102.794 40.4223 102.522 40.6653C102.029 41.1117 101.765 41.6673 101.729 42.3321C101.734 43.5296 102.306 44.3053 103.445 44.6591C104.042 42.7336 104.92 40.9487 106.081 39.3044C108.439 36.2717 111.452 35.3523 115.122 36.5462C115.833 36.6002 116.463 36.4016 117.013 35.9505C117.192 35.935 117.286 36.0153 117.294 36.1914C117.191 36.32 117.069 36.4292 116.929 36.519C116.132 36.9419 115.289 37.056 114.399 36.8614C113.689 36.7146 112.975 36.5882 112.257 36.4822C111.503 36.4272 110.771 36.5246 110.062 36.7745C108.407 37.4217 107.086 38.4947 106.099 39.9935C105.124 41.4624 104.379 43.0395 103.865 44.7251C104.115 44.7285 104.362 44.701 104.605 44.6425C104.814 44.7478 104.838 44.8805 104.677 45.0406C104.37 45.1139 104.059 45.1446 103.745 45.1326C103.67 45.695 103.774 46.2213 104.054 46.7115C104.031 46.9591 103.907 47.0235 103.684 46.9049C103.36 46.3442 103.251 45.7403 103.356 45.0934C102.44 44.7866 101.806 44.1856 101.454 43.2905C101.14 42.181 101.392 41.2168 102.209 40.3977C102.521 40.1175 102.821 39.8244 103.11 39.5182C103.525 38.9856 103.706 38.384 103.652 37.7133C103.593 36.9841 102.876 36.0975 102.517 35.8726ZM117.779 39.1257C118.476 39.1206 119.166 39.0382 119.849 38.8785C120.071 38.8397 120.288 38.7795 120.501 38.6978C120.624 38.5078 120.578 38.3886 120.362 38.3402C119.355 38.6385 118.338 38.7665 117.31 38.7242C117.146 38.8012 117.12 38.9086 117.231 39.0466C117.408 39.1122 117.591 39.1386 117.779 39.1257ZM119.555 39.1478C119.561 39.1239 119.576 39.115 119.6 39.1209L119.881 39.0575C120.121 39.0882 120.173 39.2088 120.037 39.4195C119.443 39.6972 118.818 39.7959 118.164 39.7154C117.951 39.6483 117.906 39.5231 118.029 39.3398C118.54 39.4006 119.034 39.3457 119.51 39.1748C119.516 39.1509 119.531 39.1419 119.555 39.1478ZM102.885 37.9033C102.886 37.5449 102.777 37.22 102.558 36.9286C102.324 36.6178 102.098 36.4543 101.872 36.2912C101.758 36.2093 101.645 36.1276 101.531 36.0274C101.385 35.8622 101.352 35.5317 101.454 35.343C101.513 35.2499 101.619 35.223 101.725 35.1962C101.78 35.1822 101.835 35.1682 101.882 35.1449C101.961 34.9255 101.882 34.8109 101.646 34.801C101.375 34.8229 101.183 34.9592 101.071 35.2097C100.915 35.5844 100.962 35.9319 101.21 36.252C101.334 36.3631 101.465 36.4602 101.595 36.5574C101.856 36.7517 102.117 36.9461 102.326 37.2515C102.534 37.619 102.548 37.9964 102.368 38.3835C102.268 38.6101 102.141 38.8192 101.985 39.011C101.52 39.4473 101.047 39.8751 100.567 40.2946C99.5262 41.5447 99.4193 42.8681 100.246 44.2648C100.539 44.6675 100.899 44.9976 101.327 45.2554C101.573 45.3472 101.683 45.2604 101.657 44.995C100.452 44.2921 99.9524 43.2493 100.159 41.8665C100.319 41.2681 100.628 40.7616 101.085 40.347C101.597 39.956 102.06 39.5134 102.476 39.0187C102.715 38.6838 102.851 38.312 102.885 37.9033ZM123.438 40.8335C123.53 40.7887 123.625 40.7869 123.723 40.8282C123.757 40.9034 123.775 40.9839 123.777 41.0697C123.687 41.3394 123.531 41.5606 123.31 41.7333C123.142 41.7348 123.048 41.6545 123.028 41.4924C123.213 41.305 123.35 41.0854 123.438 40.8335ZM120.877 40.6927C120.779 40.6514 120.684 40.6531 120.592 40.6979C120.526 40.8053 120.472 40.9188 120.432 41.0384C120.339 41.1381 120.256 41.2442 120.182 41.3568C120.21 41.5474 120.319 41.6187 120.508 41.5708C120.706 41.3879 120.848 41.1697 120.936 40.9163C120.928 40.8376 120.908 40.763 120.877 40.6927ZM116.683 40.413C116.686 40.1728 116.799 40.0994 117.022 40.1928C117.324 41.11 117.849 41.8738 118.595 42.4843C119.401 42.3457 120.209 42.3242 121.018 42.4197C121.092 42.6002 121.039 42.7137 120.857 42.7602C120.281 42.7409 119.707 42.7633 119.135 42.8275L119.671 43.1124C119.726 43.2642 119.676 43.3658 119.519 43.4171C119.157 43.3056 118.819 43.1394 118.506 42.9186C118.059 42.9716 117.616 43.0518 117.177 43.1593C117.007 43.0752 116.974 42.9529 117.078 42.7926C117.405 42.7104 117.734 42.6335 118.064 42.5618C117.414 41.969 116.954 41.2527 116.683 40.413ZM124.984 42.4718C124.626 42.3965 124.265 42.3766 123.9 42.412C123.787 42.4533 123.735 42.5355 123.744 42.6585C123.762 42.7399 123.813 42.7905 123.896 42.8103C124.223 42.7937 124.548 42.8107 124.868 42.8614C125.191 42.9775 125.505 43.1124 125.81 43.2661C125.983 43.1822 126.012 43.0627 125.899 42.9079C125.609 42.719 125.304 42.5737 124.984 42.4718ZM122.196 43.1683C122.414 43.2373 122.582 43.1712 122.7 42.9701C122.75 42.6408 122.896 42.5882 123.137 42.8123C122.988 43.4913 122.585 43.7147 121.929 43.4823C121.889 43.4111 121.842 43.3993 121.786 43.4469C121.606 43.4649 121.524 43.3876 121.54 43.2148C121.718 43.0291 121.921 42.8705 122.151 42.7389C122.358 42.6869 122.452 42.7672 122.432 42.9798C122.371 43.0625 122.293 43.1254 122.196 43.1683ZM124.119 43.208C123.94 43.1354 123.813 43.1864 123.74 43.3612C123.726 43.4395 123.747 43.5081 123.803 43.5668C124.571 43.7705 125.298 44.0714 125.985 44.4695C126.046 44.4868 126.099 44.4747 126.146 44.4332C126.251 44.2601 126.214 44.1304 126.034 44.0442C125.42 43.6967 124.782 43.4179 124.119 43.208ZM121.018 43.0282C121.081 43.025 121.142 43.0338 121.201 43.0546C121.292 43.1861 121.281 43.31 121.166 43.4261C120.359 43.8834 119.653 44.4626 119.048 45.1635C118.816 45.1314 118.752 45.0078 118.856 44.7926C119.476 44.0826 120.196 43.4944 121.018 43.0282ZM125.793 48.0724C125.905 48.1734 125.988 48.2955 126.044 48.4387C126.067 48.4446 126.076 48.4594 126.07 48.4833C126.247 48.7018 126.404 48.9371 126.54 49.1891C126.649 49.2535 126.752 49.2473 126.847 49.1704C126.871 49.0944 126.871 49.0183 126.847 48.9422C125.778 47.1116 124.404 45.5475 122.724 44.2499C122.504 44.1443 122.387 44.2102 122.372 44.4478C123.444 45.3 124.407 46.2551 125.262 47.313C125.459 47.5538 125.636 47.8069 125.793 48.0724ZM109.325 47.8475C109.293 47.6602 109.25 47.4783 109.195 47.3019C109.009 45.3643 109.51 43.6251 110.697 42.0846C110.883 42.0493 110.985 42.1251 111.001 42.312C109.952 43.6931 109.478 45.2487 109.578 46.9787C109.569 47.1547 109.59 47.3247 109.641 47.4887C109.635 47.5126 109.644 47.5275 109.668 47.5334C109.67 47.8457 109.736 48.1409 109.865 48.4189L109.856 48.4547C109.975 48.774 109.875 48.8697 109.558 48.7419C109.414 48.5216 109.258 48.3117 109.088 48.1122C109.06 48.0464 109.063 47.9837 109.097 47.9242C109.17 47.8911 109.246 47.8655 109.325 47.8475ZM111.461 46.8753C111.403 47.0101 111.314 47.1148 111.193 47.1892L111.184 47.225C110.84 47.7034 110.689 48.2363 110.731 48.8238C110.839 49.0126 110.967 49.0316 111.115 48.881C111.061 48.1858 111.29 47.596 111.8 47.1115L112.326 46.6716C112.963 46.2962 113.591 45.9067 114.208 45.5031C114.63 45.1939 114.971 44.8096 115.233 44.3503C115.208 44.1734 115.106 44.0976 114.929 44.1229C114.68 44.5004 114.382 44.8324 114.038 45.1187C113.406 45.5313 112.764 45.9298 112.112 46.3142C111.88 46.4852 111.663 46.6722 111.461 46.8753ZM124.134 48.9539C124.404 49.2139 124.699 49.4518 125.018 49.6675C125.047 49.7079 125.06 49.7556 125.058 49.8106C124.974 49.9807 124.852 50.0139 124.693 49.91C123.141 48.6708 121.468 47.6221 119.674 46.764C119.214 46.525 118.732 46.4309 118.228 46.4814C117.87 46.5373 117.513 46.6009 117.158 46.6722C116.565 46.7797 116.027 46.6588 115.542 46.3096C115.429 46.094 115.496 45.9775 115.743 45.96C115.994 46.1629 116.281 46.2785 116.604 46.3067C117.245 46.2354 117.885 46.1532 118.522 46.06C118.855 46.0865 119.179 46.1543 119.495 46.2633C121.134 47.0024 122.68 47.8993 124.134 48.9539ZM115.065 46.2482C114.983 46.2215 114.898 46.2068 114.811 46.2041C114.773 46.2359 114.739 46.2718 114.708 46.3118C114.763 47.4796 114.209 48.0837 113.046 48.1241C112.869 48.3228 112.909 48.4659 113.167 48.5534C113.372 48.5012 113.579 48.4828 113.787 48.498C113.943 48.6563 114.036 48.844 114.064 49.0611C114.01 49.175 113.921 49.2289 113.797 49.2229L112.503 48.94C112.328 48.9377 112.25 49.0259 112.267 49.2046L112.307 49.2716C112.777 49.4136 113.253 49.5317 113.735 49.6258C114.382 49.598 114.594 49.2767 114.372 48.662L114.144 48.2823C114.81 47.892 115.138 47.3079 115.128 46.5299C115.128 46.4296 115.107 46.3357 115.065 46.2482ZM126.973 49.6578C126.969 49.5949 126.978 49.5337 126.999 49.4743C127.068 49.439 127.142 49.4194 127.222 49.4155C127.455 49.6691 127.595 49.9701 127.643 50.3183C127.705 50.6204 127.628 50.8802 127.411 51.0976C127.029 51.266 126.752 51.1593 126.581 50.7776C126.585 50.5367 126.696 50.4693 126.916 50.5753C127.079 50.8687 127.184 50.8505 127.232 50.5208C127.251 50.2034 127.165 49.9158 126.973 49.6578ZM125.617 49.5496C125.348 49.84 125.338 50.1354 125.586 50.4357C125.745 50.5418 125.865 50.5146 125.948 50.3542C125.931 50.2336 125.874 50.1308 125.778 50.0459C125.824 49.8455 125.945 49.793 126.139 49.8883C126.243 50.0125 126.259 50.1497 126.188 50.2999C126.047 50.5506 126.115 50.6816 126.394 50.6931C126.453 50.6541 126.498 50.6018 126.528 50.5362C126.575 50.4217 126.611 50.3038 126.634 50.1823C126.611 50.1764 126.602 50.1616 126.608 50.1377C126.513 49.5422 126.182 49.3462 125.617 49.5496ZM125.287 50.9511C125.256 50.7109 125.36 50.6226 125.599 50.6862C125.724 50.998 125.934 51.0691 126.229 50.8994C126.27 50.8843 126.306 50.8932 126.336 50.9259C126.491 51.1165 126.455 51.2597 126.229 51.3558C125.806 51.4707 125.492 51.3358 125.287 50.9511ZM111.231 49.0239C111.249 49.0675 111.262 49.1152 111.272 49.167C111.431 49.2886 111.574 49.4255 111.7 49.5776C111.903 49.9973 111.773 50.2125 111.313 50.223C110.714 50.1998 110.266 49.9176 109.969 49.3763C109.722 49.2717 109.608 49.351 109.626 49.6144C110.077 50.3582 110.733 50.6921 111.594 50.6161C112.082 50.4418 112.262 50.0998 112.133 49.5899C111.986 49.2362 111.735 49.0027 111.378 48.8893C111.318 48.9226 111.269 48.9675 111.231 49.0239ZM103.685 47.3613C103.758 47.2204 103.873 47.1664 104.028 47.1993C104.273 47.3465 104.531 47.4801 104.8 47.6C106.088 48.1654 107.431 48.505 108.83 48.6185C109.072 48.6776 109.115 48.8087 108.96 49.012C107.121 48.8859 105.386 48.3923 103.756 47.5312C103.722 47.4788 103.698 47.4222 103.685 47.3613Z" fill="#221F20"/>
<path opacity="0.964" fill-rule="evenodd" clip-rule="evenodd" d="M125.406 52.6915C125.307 52.6502 125.212 52.652 125.12 52.6968C124.807 53.2838 124.894 53.7997 125.381 54.2444C125.507 54.2544 125.59 54.1989 125.63 54.0782C125.513 53.8912 125.418 53.6901 125.344 53.4748C125.33 53.2641 125.373 53.0656 125.473 52.8793C125.458 52.8132 125.436 52.7506 125.406 52.6915Z" fill="#221F20"/>
<path d="M330.667 58.0789C330.667 58.8153 331.264 59.4123 332 59.4123C332.736 59.4123 333.333 58.8153 333.333 58.0789C333.333 57.3426 332.736 56.7456 332 56.7456C331.264 56.7456 330.667 57.3426 330.667 58.0789ZM363.413 62.2342C363.542 62.2825 363.686 62.2168 363.734 62.0875C363.783 61.9581 363.717 61.8141 363.587 61.7658L363.413 62.2342ZM332.014 58.3285C338.202 57.9704 352.961 58.3312 363.413 62.2342L363.587 61.7658C353.039 57.8266 338.198 57.4698 331.986 57.8294L332.014 58.3285Z" fill="url(#paint0_linear_987_477)"/>
<path d="M344.5 51L347.052 52.349L346.944 49.4642L344.5 51ZM369.407 55.2321C369.535 55.2834 369.681 55.2211 369.732 55.0929C369.783 54.9647 369.721 54.8192 369.593 54.7679L369.407 55.2321ZM346.754 51.1659C352.665 51.0475 360.617 51.7159 369.407 55.2321L369.593 54.7679C360.724 51.2204 352.702 50.5466 346.744 50.666L346.754 51.1659Z" fill="url(#paint1_linear_987_477)"/>
<path d="M186.222 59.1384C185.307 60.8585 184 60.5 182 60C176.689 59.1384 178.478 57.2265 179.393 55.5063C180.308 53.7862 182.578 53.2047 184.464 54.2077C186.35 55.2106 187.137 57.4182 186.222 59.1384Z" fill="white"/>
<path opacity="0.976" fill-rule="evenodd" clip-rule="evenodd" d="M177.426 39.1862C177.426 39.1687 177.426 39.1512 177.426 39.1337C177.496 39.0637 177.496 38.9937 177.426 38.9237C177.426 38.8712 177.426 38.8187 177.426 38.7662C177.147 38.8115 176.867 38.8202 176.586 38.7925C176.453 38.6483 176.453 38.5083 176.586 38.3725C176.806 38.2949 177.034 38.2511 177.269 38.2412C177.077 37.691 176.692 37.3497 176.114 37.2175C175.832 37.182 175.552 37.1907 175.274 37.2437C175.239 37.2437 175.221 37.2612 175.221 37.2962C175.186 37.2962 175.151 37.2962 175.116 37.2962C175.081 37.2962 175.064 37.3137 175.064 37.3487C175.046 37.3487 175.029 37.3487 175.011 37.3487C174.959 37.3397 174.924 37.3572 174.906 37.4012C174.871 37.4012 174.854 37.4187 174.854 37.4537C174.836 37.4537 174.819 37.4537 174.801 37.4537C174.766 37.4537 174.749 37.4712 174.749 37.5062C174.697 37.4972 174.662 37.5147 174.644 37.5587C174.609 37.5587 174.591 37.5762 174.591 37.6112C174.556 37.6112 174.539 37.6287 174.539 37.6637C174.504 37.6637 174.486 37.6812 174.486 37.7162C174.451 37.7162 174.434 37.7337 174.434 37.7687C174.399 37.7687 174.381 37.7862 174.381 37.8212C174.346 37.8212 174.329 37.8387 174.329 37.8737C174.294 37.8737 174.276 37.8912 174.276 37.9262C174.241 37.9962 174.206 38.0662 174.171 38.1362C174.136 38.1362 174.119 38.1537 174.119 38.1887C173.733 39.2453 174.03 40.0415 175.011 40.5775C175.352 40.6892 175.702 40.7329 176.061 40.7087C176.359 40.8073 176.394 40.9736 176.166 41.2075C174.853 41.3692 173.952 40.8355 173.462 39.6062C173.213 38.328 173.66 37.3918 174.801 36.7975C176.224 36.3543 177.257 36.8006 177.899 38.1362C179.298 37.9305 180.698 37.9392 182.099 38.1625C182.392 38.443 182.339 38.6268 181.941 38.7137C180.63 38.5349 179.318 38.5174 178.004 38.6612C178.012 38.9418 178.004 39.2218 177.977 39.5012C177.802 39.7112 177.627 39.7112 177.452 39.5012C177.426 39.3976 177.418 39.2926 177.426 39.1862Z" fill="#231F20"/>
<path opacity="0.967" fill-rule="evenodd" clip-rule="evenodd" d="M180.681 36.7187C182.559 36.6675 184.432 36.7462 186.299 36.955C186.529 37.0766 186.581 37.2428 186.456 37.4537C186.354 37.485 186.249 37.5025 186.141 37.5062C185.373 37.4207 184.603 37.3594 183.831 37.3225C182.431 37.2984 181.031 37.2984 179.631 37.3225C179.497 37.1689 179.497 37.0114 179.631 36.85C179.985 36.7928 180.335 36.749 180.681 36.7187Z" fill="#221F20"/>
<path opacity="0.995" fill-rule="evenodd" clip-rule="evenodd" d="M177.426 38.9237C177.426 38.9937 177.426 39.0638 177.426 39.1337C177.426 39.1512 177.426 39.1688 177.426 39.1862C177.23 39.9248 176.775 40.4323 176.061 40.7087C175.702 40.7329 175.352 40.6892 175.011 40.5775C174.031 40.0416 173.733 39.2453 174.119 38.1887C174.154 38.1887 174.171 38.1713 174.171 38.1362C174.206 38.0663 174.241 37.9962 174.276 37.9262C174.311 37.9262 174.329 37.9088 174.329 37.8737C174.364 37.8737 174.381 37.8563 174.381 37.8212C174.416 37.8212 174.434 37.8038 174.434 37.7687C174.469 37.7687 174.486 37.7513 174.486 37.7162C174.521 37.7162 174.539 37.6988 174.539 37.6637C174.574 37.6637 174.591 37.6463 174.591 37.6112C174.626 37.6112 174.644 37.5938 174.644 37.5587C174.696 37.5678 174.731 37.5502 174.749 37.5062C174.784 37.5062 174.801 37.4888 174.801 37.4537C174.819 37.4537 174.836 37.4537 174.854 37.4537C174.889 37.4537 174.906 37.4363 174.906 37.4012C174.958 37.4103 174.993 37.3927 175.011 37.3487C175.029 37.3487 175.046 37.3487 175.064 37.3487C175.099 37.3487 175.116 37.3313 175.116 37.2962C175.151 37.2962 175.186 37.2962 175.221 37.2962C175.256 37.2962 175.274 37.2788 175.274 37.2437C175.552 37.1908 175.832 37.182 176.114 37.2175C176.692 37.3497 177.077 37.691 177.269 38.2412C177.034 38.2512 176.807 38.2949 176.586 38.3725C176.453 38.5083 176.453 38.6483 176.586 38.7925C176.867 38.8203 177.147 38.8115 177.426 38.7662C177.426 38.8187 177.426 38.8712 177.426 38.9237Z" fill="#13DDE2"/>
<path opacity="0.977" fill-rule="evenodd" clip-rule="evenodd" d="M178.949 39.2912C180.85 39.2135 182.74 39.3272 184.619 39.6325C184.805 39.768 184.823 39.9255 184.671 40.105C184.599 40.1509 184.52 40.1772 184.435 40.1837C182.631 39.9095 180.819 39.7957 179.001 39.8425C178.875 39.8027 178.822 39.7152 178.844 39.58C178.838 39.4656 178.873 39.3693 178.949 39.2912Z" fill="#221F20"/>
<path opacity="0.966" fill-rule="evenodd" clip-rule="evenodd" d="M177.374 39.7637C177.678 39.78 177.792 39.9375 177.715 40.2362C177.604 40.606 177.368 40.8598 177.006 40.9975C176.62 41.1011 176.489 40.9698 176.613 40.6037C176.936 40.4556 177.146 40.2106 177.243 39.8687C177.295 39.839 177.339 39.804 177.374 39.7637Z" fill="#221F20"/>
<path opacity="0.979" fill-rule="evenodd" clip-rule="evenodd" d="M183.621 55.7762C183.699 56.0725 183.778 56.3701 183.857 56.6687C183.863 57.2464 183.863 57.8239 183.857 58.4012C184.086 58.8925 184.445 59.0062 184.934 58.7425C185.948 58.0345 186.307 57.0807 186.01 55.8812C185.847 55.4644 185.558 55.1844 185.144 55.0412C185.106 54.9938 185.054 54.9763 184.986 54.9887C184.655 54.8906 184.585 54.6893 184.776 54.385C185.628 54.4651 186.214 54.9114 186.535 55.7237C186.894 57.0965 186.518 58.2252 185.406 59.11C184.985 59.3937 184.53 59.4812 184.041 59.3725C183.656 59.2323 183.42 58.961 183.332 58.5587C183.323 57.981 183.323 57.4035 183.332 56.8262C183.188 56.432 183.074 56.0295 182.991 55.6187C182.996 55.1191 183.232 54.7866 183.7 54.6212C183.927 54.7125 183.988 54.87 183.884 55.0937C183.584 55.2483 183.496 55.4758 183.621 55.7762Z" fill="#231F20"/>
<path opacity="0.969" fill-rule="evenodd" clip-rule="evenodd" d="M178.161 55.8287C178.187 55.6183 178.1 55.522 177.899 55.54C177.77 55.6843 177.77 55.8331 177.899 55.9862C177.908 56.2832 177.768 56.397 177.479 56.3275C177.114 55.875 177.149 55.455 177.584 55.0675C178.182 54.8711 178.568 55.0724 178.739 55.6712C178.622 56.0112 178.429 56.0637 178.161 55.8287Z" fill="#231F20"/>
<path opacity="0.97" fill-rule="evenodd" clip-rule="evenodd" d="M180.471 58.1912C180.447 58.2415 180.412 58.2853 180.366 58.3225C179.592 58.475 178.909 58.8076 178.319 59.32C178.055 59.3889 177.932 59.2839 177.951 59.005C177.957 58.9214 177.974 58.8426 178.004 58.7687C178.121 58.8232 178.244 58.8319 178.371 58.795C178.965 58.2383 179.665 58.037 180.471 58.1912Z" fill="#CDCED0"/>
<path d="M209.883 63.9042C207.738 66.5851 203.628 65.4681 201.84 64.5745C201.84 68.5957 199.16 70.6064 196.479 71.9468C196.479 73.2872 198.17 72.6595 197.5 74C196.83 75.3404 195.809 74.6277 195.809 73.2872C195.809 71.9468 193.798 72.617 193.128 71.9468C192.458 71.2766 194.468 70.6064 195.139 69.9362C195.809 69.266 195.139 69.266 194.468 67.9255C193.932 66.8532 194.692 65.6915 195.139 65.2447C194.022 65.0213 191.624 65.1035 191.117 67.2553C190.729 68.9027 191.117 69.5 190 71C191 72 191.229 73.3472 190.5 74C189.301 75.0727 188.66 72.617 187.766 71.2766V67.9255C187.766 65.9149 185.755 65.2447 185.085 63.234C184.549 61.6255 187.213 59.1702 189 58.5C192.248 59.1496 203.294 60.8889 201.39 62.4193C202.325 62.0148 204.986 62.68 209.883 63.9042Z" fill="white"/>
<path fill-rule="evenodd" clip-rule="evenodd" d="M184.986 54.9887C185.023 55.0362 185.076 55.0537 185.144 55.0412C185.558 55.1844 185.847 55.4644 186.01 55.8812C186.307 57.0807 185.948 58.0344 184.934 58.7425C184.445 59.0062 184.086 58.8925 183.857 58.4012C183.863 57.8239 183.863 57.2464 183.857 56.6687C183.778 56.37 183.699 56.0725 183.621 55.7762C183.914 55.2445 184.369 54.982 184.986 54.9887ZM178.161 55.8287C178.083 55.8944 177.995 55.9469 177.899 55.9862C177.77 55.8331 177.77 55.6843 177.899 55.54C178.099 55.522 178.187 55.6182 178.161 55.8287ZM184.986 61.7087C184.954 61.8861 185.024 61.9911 185.196 62.0237C185.54 61.5122 185.899 61.0047 186.272 60.5012C186.781 59.904 187.368 59.4053 188.031 59.005C187.951 58.9165 187.864 58.8377 187.769 58.7687C186.586 59.5135 185.659 60.4935 184.986 61.7087Z" fill="#13DDE2"/>
<path opacity="0.964" fill-rule="evenodd" clip-rule="evenodd" d="M209.556 63.4412C209.835 63.4173 209.967 63.5398 209.95 63.8087C208.893 64.9454 207.589 65.6367 206.039 65.8825C204.385 66.1165 202.845 65.8015 201.419 64.9375C201.274 64.691 201.336 64.5073 201.602 64.3862C203.746 65.643 205.925 65.7043 208.139 64.57C208.653 64.2432 209.126 63.8669 209.556 63.4412Z" fill="#221F20"/>
<path opacity="0.971" fill-rule="evenodd" clip-rule="evenodd" d="M182.309 53.2037C182.806 53.2439 183.278 53.3751 183.726 53.5975C183.905 53.8608 183.844 54.0446 183.543 54.1487C182.481 53.6022 181.51 53.7334 180.629 54.5425C180.315 54.5373 180.219 54.3886 180.34 54.0962C180.888 53.5495 181.544 53.252 182.309 53.2037ZM180.471 54.8837C180.712 54.823 180.852 54.9105 180.891 55.1462C180.819 55.3701 180.758 55.5976 180.708 55.8287C180.383 56.0119 180.217 55.9157 180.209 55.54C180.21 55.2813 180.298 55.0626 180.471 54.8837ZM178.371 58.795C178.965 58.2383 179.665 58.037 180.471 58.1912C180.769 58.1999 181.067 58.1912 181.364 58.165C181.642 58.077 181.695 57.9108 181.521 57.6662C181.269 57.6007 181.015 57.6007 180.76 57.6662C179.71 57.6356 178.826 57.2418 178.109 56.485C177.757 56.3293 177.591 56.4431 177.61 56.8262C177.979 57.2307 178.408 57.5544 178.896 57.7975C178.567 57.9223 178.279 58.106 178.03 58.3487C177.944 58.4919 177.935 58.6318 178.004 58.7687C178.121 58.8232 178.244 58.8319 178.371 58.795ZM185.196 62.0237C185.54 61.5122 185.899 61.0047 186.273 60.5012C186.782 59.904 187.368 59.4053 188.031 59.005C187.952 58.9165 187.864 58.8378 187.769 58.7687C186.586 59.5135 185.659 60.4935 184.986 61.7087C184.837 61.981 184.679 62.2522 184.514 62.5225C184.146 62.592 184.015 62.4432 184.12 62.0762C184.849 60.5412 185.925 59.3074 187.349 58.375C187.118 58.2059 187.083 58.0047 187.244 57.7712C187.328 57.7195 187.415 57.7108 187.506 57.745C187.636 57.8312 187.759 57.9275 187.874 58.0337C188.031 57.9107 188.206 57.8669 188.399 57.9025C188.628 58.1388 188.593 58.3313 188.294 58.48L188.451 58.6375C188.662 58.5944 188.872 58.5331 189.081 58.4537C189.33 58.4952 189.417 58.6353 189.344 58.8737C189.23 58.957 189.107 59.027 188.976 59.0837C188.924 59.4604 188.723 59.5828 188.373 59.4512C187.113 60.2466 186.16 61.3142 185.511 62.6537C185.357 62.7217 185.226 62.6867 185.118 62.5487C185.081 62.3639 185.108 62.1888 185.196 62.0237ZM181.416 58.69C181.016 58.63 180.613 58.6038 180.209 58.6112C180.079 58.6541 179.939 58.6804 179.789 58.69C179.556 58.8238 179.521 58.9988 179.684 59.215C180.261 59.1822 180.839 59.1822 181.416 59.215C181.696 59.04 181.696 58.865 181.416 58.69ZM181.731 59.3987C181.82 59.3903 181.908 59.399 181.994 59.425C182.154 59.5679 182.329 59.6904 182.519 59.7925C182.953 59.9748 183.373 60.1848 183.779 60.4225C184.058 60.6292 184.189 60.9004 184.173 61.2362C184.064 61.3742 183.933 61.4092 183.779 61.3412C183.651 61.1343 183.493 60.9505 183.306 60.79L181.784 60.0025C181.527 59.8152 181.51 59.6139 181.731 59.3987ZM185.275 63.2837C185.163 63.1904 185.032 63.1553 184.881 63.1787C184.803 63.2748 184.768 63.3886 184.776 63.52C184.945 64.9524 185.636 66.0462 186.85 66.8012C187.123 66.7043 187.193 66.5293 187.06 66.2762C186.022 65.5498 185.427 64.5523 185.275 63.2837ZM195.329 64.8587C195.582 64.8931 195.679 65.0332 195.617 65.2787C195.303 65.498 195.005 65.7431 194.725 66.0137C194.371 66.538 194.301 67.098 194.515 67.6937C194.827 68.2295 195.124 68.7719 195.407 69.3212C195.513 69.5312 195.505 69.7325 195.381 69.925C195.2 69.9839 195.051 69.9402 194.935 69.7937C194.889 69.4919 194.784 69.212 194.62 68.9537C193.736 67.9808 193.596 66.9133 194.2 65.7512C194.509 65.3626 194.885 65.0651 195.329 64.8587ZM201.655 65.4887C201.561 65.3979 201.447 65.3629 201.314 65.3837C201.208 65.4372 201.138 65.5247 201.104 65.6462C201.143 65.8548 201.178 66.0648 201.209 66.2762C201.125 67.109 200.836 67.8615 200.343 68.5337C199.677 69.4164 198.934 70.2302 198.111 70.975C197.655 71.3211 197.157 71.5924 196.615 71.7887C196.095 71.521 195.544 71.4072 194.961 71.4475C194.821 71.605 194.821 71.7625 194.961 71.92C195.218 71.9935 195.48 72.0376 195.749 72.0512C195.734 72.1966 195.769 72.3279 195.854 72.445C196.069 72.4702 196.279 72.4439 196.484 72.3662C197.028 72.6844 197.264 73.1569 197.193 73.7837C197.005 74.315 196.655 74.4898 196.143 74.3087C196.194 73.5091 195.852 72.9579 195.119 72.655C194.563 72.5206 194.02 72.3452 193.491 72.13C193.208 71.9525 193.174 71.7425 193.386 71.5C193.83 71.2141 194.258 70.9078 194.673 70.5812C194.786 70.2411 194.673 70.0923 194.331 70.135C193.8 70.5085 193.284 70.9023 192.783 71.3162C192.547 71.9919 192.766 72.4733 193.439 72.76C193.892 72.8891 194.347 73.0114 194.804 73.1275C195.129 73.2424 195.348 73.4614 195.46 73.7837C195.462 74.0914 195.515 74.389 195.618 74.6762C196.077 75.1151 196.575 75.1587 197.114 74.8075C197.982 73.9669 198.017 73.0918 197.219 72.1825C198.214 71.6617 199.081 70.9704 199.818 70.1087C200.503 69.3533 201.063 68.5133 201.498 67.5887C201.741 66.9031 201.794 66.2031 201.655 65.4887ZM190.919 66.8537C191.069 66.8304 191.2 66.8654 191.312 66.9587C191.543 68.3735 191.219 69.6423 190.341 70.765C191.078 71.6674 191.297 72.6733 190.997 73.7837C190.844 74.0357 190.634 74.2284 190.367 74.3612C190.326 74.6652 190.16 74.7791 189.869 74.7025C189.739 74.588 189.687 74.4568 189.711 74.3087C189.573 74.2315 189.442 74.1439 189.317 74.0462C189.062 73.6057 188.835 73.1511 188.635 72.6812C188.212 72.2586 187.792 71.8386 187.375 71.4212C187.11 71.0008 187.022 70.5458 187.112 70.0562C187.24 69.5906 187.398 69.1356 187.585 68.6912C187.672 68.3958 187.69 68.0982 187.637 67.7987C187.797 67.6144 187.972 67.597 188.162 67.7462C188.246 68.0415 188.246 68.3391 188.162 68.6387C187.995 69.1249 187.837 69.6149 187.69 70.1087C187.605 70.5183 187.692 70.8858 187.952 71.2112C188.292 71.5556 188.642 71.8885 189.002 72.2087C189.261 72.6728 189.506 73.1453 189.737 73.6262C189.772 73.6892 189.798 73.6892 189.816 73.6262C189.619 73.3144 189.689 73.1044 190.026 72.9962C190.106 72.9978 190.168 73.033 190.21 73.1012L190.42 73.6262C190.687 72.7353 190.521 71.9305 189.921 71.2112C189.797 71.3258 189.657 71.4133 189.501 71.4737C189.246 71.4383 189.15 71.2983 189.212 71.0537L189.501 70.765C189.32 70.6719 189.198 70.5319 189.134 70.345C189.133 70.1613 189.22 70.065 189.396 70.0562C189.594 70.0964 189.769 70.1839 189.921 70.3187C190.655 69.4065 190.935 68.3653 190.761 67.195C190.779 67.0631 190.831 66.9494 190.919 66.8537ZM190.971 58.7425C190.622 58.6852 190.272 58.6415 189.921 58.6112C189.714 58.7952 189.714 58.9789 189.921 59.1625C190.431 59.2329 190.939 59.3204 191.444 59.425C193.776 60.0455 196.139 60.518 198.531 60.8425C199.76 61.0588 200.845 61.5662 201.786 62.365L201.051 62.7325C200.821 62.9713 200.856 63.155 201.156 63.2837C201.494 63.1052 201.844 62.9739 202.206 62.89C202.466 63.3008 202.632 63.747 202.705 64.2287C202.752 64.3268 202.831 64.3793 202.941 64.3862C203.146 64.3652 203.251 64.2514 203.256 64.045C203.184 63.6104 203.044 63.1992 202.836 62.8112C202.847 62.7804 202.865 62.7542 202.889 62.7325C203.398 62.6958 203.905 62.7133 204.411 62.785C205.371 62.9561 206.334 63.1136 207.299 63.2575C206.673 63.4981 206.025 63.6381 205.356 63.6775C205.216 63.835 205.216 63.9925 205.356 64.15C206.466 64.2116 207.481 63.9316 208.401 63.31C208.94 63.2476 209.465 63.1251 209.976 62.9425C210.525 62.7249 210.963 62.3749 211.289 61.8925C211.261 61.634 211.121 61.529 210.869 61.5775C210.462 62.0687 209.955 62.3837 209.346 62.5225C209.772 62.0829 210.113 61.5842 210.37 61.0262C210.405 60.9387 210.405 60.8512 210.37 60.7637C210.195 60.5537 210.02 60.5537 209.845 60.7637C209.503 61.5432 208.987 62.1819 208.296 62.68C207.839 62.7138 207.384 62.6963 206.931 62.6275C205.905 62.4292 204.872 62.2717 203.834 62.155C203.374 62.1159 202.919 62.1421 202.469 62.2337C202.251 62.042 202.041 61.8408 201.839 61.63C200.778 60.8911 199.605 60.4186 198.321 60.2125C196.899 59.9958 195.481 59.7508 194.069 59.4775C193.042 59.2077 192.01 58.9627 190.971 58.7425Z" fill="#221F1F"/>
<path d="M32.06 94.66L34.84 90.64L32.28 87.82L36.16 83.04L37.86 83.58L34.44 87.82L35.76 89.3L37.84 86.32L39.62 86.82L35.06 93.38L39.14 92.98L39.3 93.76L32.06 94.66ZM32.7 99.42L31.84 98.42L39.14 95.86L39.8 96.86L32.7 99.42ZM43.66 95.46L42.82 90L44.7 89.84L45.54 95.3L43.66 95.46ZM48.72 99.68L43.28 99.1L43.48 98.14L46.88 98.52L47.48 86.86H42.76L42.18 93.04L40.26 92.96L41.22 82.56L43.14 82.64L42.84 85.9H49.46L48.72 99.68ZM68.34 92L60.64 84.7L53.56 91.92L52.2 91.24L60.72 82.56L62.08 83.24L61.64 83.68L69.66 91.32L68.34 92ZM65.54 90.46V91.42H56.18V90.46H65.54ZM57.74 94.42H53.52V93.46H68.44V94.42H59.66L57.06 98.62L63.96 97.66L62.92 96.14L64.5 95.58L67.38 99.76L65.8 100.32L64.6 98.58L54.26 99.98L57.74 94.42ZM82.44 88.22H80.44L79.98 90.82H83.32L82.24 99.48L79.1 99.02L79.42 98.06L80.48 98.24L81.28 91.78H79.8L78.32 100.1L76.44 99.94L78.54 88.22H76.4V87.26H79.2V82.42H81.12V87.26H82.44V88.22ZM89.98 85.82V86.78H85.02L84.6 88.78H89.44L87.76 92.1V93.94H89.66V94.9H87.76V99.6L83.36 98.94L83.64 97.98L85.84 98.32V94.9H83.9V93.94H85.84V92.06L87.04 89.74H84.54V89.04L84.34 89.98L82.46 89.78L83.96 82.68L85.84 82.88L85.22 85.82H89.98ZM73.8 83.42L76.68 86.38L75.32 87.06L72.44 84.1L73.8 83.42ZM73.58 88.92L76.7 91.54L75.48 92.26L72.36 89.64L73.58 88.92ZM72.26 98.62L75.38 94.5L76.9 95.06L73.78 99.18L72.26 98.62ZM99.66 83.32H109.38V84.28H99.66V83.32ZM96.68 95.74L98.4 94.84L99.3 95.72L93.36 98.86L92.46 97.98L94.76 96.76V90.9H92.54V89.94H94.76V84.88H92.36V83.92H99.06V84.88H96.68V89.94H98.9V90.9H96.68V95.74ZM109.54 89.52V90.48H106.02V98.52H106.94V94.9H108.86V99.48H104.1V90.48H104.04L101.08 99.88L99.24 99.6L102.12 90.48H99.44V89.52H109.54Z" fill="#242424"/>
<path d="M29.118 108.169L32.169 110.882L34.8816 107.831L31.8305 105.118L29.118 108.169ZM108.404 106.387C108.066 107.821 108.954 109.257 110.387 109.595C111.82 109.934 113.257 109.046 113.595 107.613C113.934 106.179 113.046 104.743 111.613 104.405C110.179 104.066 108.743 104.954 108.404 106.387ZM60.6728 109.555L60.1825 109.457L60.6728 109.555ZM57.8841 110.984L57.6772 111.439L57.8841 110.984ZM59.901 111.485L60.129 111.93L59.901 111.485ZM48.6141 107.024L48.6434 107.523L48.6141 107.024ZM49.1027 107.025L49.1941 106.533L49.1027 107.025ZM60.8629 108.604L60.3726 108.506L60.8629 108.604ZM61.3703 107.223L61.0533 106.836L61.3703 107.223ZM48.5847 106.525L31.9705 107.501L32.0291 108.499L48.6434 107.523L48.5847 106.525ZM60.3726 108.506L60.1825 109.457L61.1631 109.653L61.3532 108.702L60.3726 108.506ZM58.091 110.528L49.7657 106.745L49.3519 107.655L57.6772 111.439L58.091 110.528ZM62.8242 107.496L111 107.5L111 106.5L62.8243 106.496L62.8242 107.496ZM60.1825 109.457C60.0655 110.042 59.9872 110.427 59.8914 110.698C59.8 110.955 59.7246 111.013 59.6731 111.04L60.129 111.93C60.5074 111.736 60.7039 111.399 60.834 111.032C60.9595 110.677 61.0522 110.207 61.1631 109.653L60.1825 109.457ZM57.6772 111.439C58.192 111.673 58.6273 111.872 58.9883 111.977C59.3621 112.086 59.7506 112.123 60.129 111.93L59.6731 111.04C59.6215 111.066 59.5306 111.093 59.2679 111.017C58.9924 110.937 58.6342 110.775 58.091 110.528L57.6772 111.439ZM48.6434 107.523C48.9128 107.508 48.965 107.508 49.0112 107.516L49.1941 106.533C49.0006 106.497 48.807 106.512 48.5847 106.525L48.6434 107.523ZM49.7657 106.745C49.563 106.653 49.3876 106.569 49.1941 106.533L49.0112 107.516C49.0574 107.525 49.1062 107.544 49.3519 107.655L49.7657 106.745ZM61.3532 108.702C61.4326 108.305 61.4841 108.052 61.5453 107.867C61.6022 107.695 61.6497 107.64 61.6873 107.61L61.0533 106.836C60.8143 107.032 60.6852 107.283 60.5959 107.553C60.511 107.809 60.4471 108.134 60.3726 108.506L61.3532 108.702ZM62.8243 106.496C62.4444 106.496 62.114 106.495 61.8457 106.528C61.5637 106.563 61.2923 106.64 61.0533 106.836L61.6873 107.61C61.7248 107.579 61.7878 107.543 61.9675 107.521C62.1608 107.497 62.4191 107.496 62.8242 107.496L62.8243 106.496Z" fill="#242424"/>
<path opacity="0.995" fill-rule="evenodd" clip-rule="evenodd" d="M112.906 106.79C112.906 106.875 112.906 106.96 112.906 107.045C112.906 107.067 112.906 107.088 112.906 107.109C112.668 108.008 112.114 108.626 111.245 108.962C110.808 108.992 110.382 108.939 109.967 108.803C108.773 108.15 108.411 107.181 108.88 105.895C108.923 105.895 108.944 105.874 108.944 105.831C108.987 105.746 109.03 105.661 109.072 105.575C109.115 105.575 109.136 105.554 109.136 105.512C109.179 105.512 109.2 105.49 109.2 105.448C109.243 105.448 109.264 105.426 109.264 105.384C109.306 105.384 109.328 105.362 109.328 105.32C109.37 105.32 109.392 105.299 109.392 105.256C109.434 105.256 109.456 105.235 109.456 105.192C109.498 105.192 109.519 105.171 109.519 105.128C109.583 105.139 109.625 105.118 109.647 105.064C109.69 105.064 109.711 105.043 109.711 105C109.732 105 109.754 105 109.775 105C109.818 105 109.839 104.979 109.839 104.936C109.902 104.947 109.945 104.926 109.967 104.873C109.988 104.873 110.009 104.873 110.031 104.873C110.073 104.873 110.095 104.851 110.095 104.809C110.137 104.809 110.18 104.809 110.222 104.809C110.265 104.809 110.286 104.787 110.286 104.745C110.625 104.68 110.966 104.67 111.309 104.713C112.012 104.874 112.481 105.289 112.715 105.959C112.429 105.971 112.152 106.024 111.884 106.119C111.722 106.284 111.722 106.454 111.884 106.63C112.226 106.664 112.567 106.653 112.906 106.598C112.906 106.662 112.906 106.726 112.906 106.79Z" fill="#13DDE2"/>
<path opacity="0.969" fill-rule="evenodd" clip-rule="evenodd" d="M31.239 103.787C31.0219 103.89 31.0028 104.026 31.1817 104.192C31.2066 104.2 31.2315 104.208 31.2563 104.216C31.7197 103.987 32.1886 103.97 32.663 104.165C32.8133 104.263 32.9662 104.357 33.1218 104.445C33.2868 104.419 33.3616 104.324 33.3463 104.161C32.715 103.612 32.0126 103.488 31.239 103.787Z" fill="#221F20"/>
<path opacity="0.964" fill-rule="evenodd" clip-rule="evenodd" d="M28.2941 109.404C28.1931 109.438 28.1231 109.503 28.0841 109.598C28.24 110.244 28.6477 110.572 29.307 110.581C29.4079 110.505 29.4333 110.408 29.3832 110.291C29.1716 110.229 28.9666 110.142 28.7684 110.03C28.618 109.882 28.5182 109.705 28.469 109.5C28.4142 109.46 28.3559 109.428 28.2941 109.404Z" fill="#221F20"/>
<path opacity="0.976" fill-rule="evenodd" clip-rule="evenodd" d="M112.906 107.109C112.906 107.088 112.906 107.067 112.906 107.045C112.991 106.96 112.991 106.875 112.906 106.79C112.906 106.726 112.906 106.662 112.906 106.598C112.567 106.653 112.226 106.664 111.884 106.63C111.722 106.454 111.722 106.284 111.884 106.119C112.152 106.024 112.429 105.971 112.714 105.959C112.481 105.289 112.012 104.874 111.308 104.713C110.965 104.67 110.624 104.68 110.286 104.745C110.243 104.745 110.222 104.766 110.222 104.809C110.179 104.809 110.137 104.809 110.094 104.809C110.052 104.809 110.03 104.83 110.03 104.873C110.009 104.873 109.988 104.873 109.966 104.873C109.903 104.862 109.861 104.883 109.839 104.936C109.796 104.936 109.775 104.958 109.775 105C109.754 105 109.732 105 109.711 105C109.668 105 109.647 105.022 109.647 105.064C109.584 105.053 109.541 105.075 109.519 105.128C109.477 105.128 109.455 105.149 109.455 105.192C109.413 105.192 109.391 105.213 109.391 105.256C109.349 105.256 109.327 105.277 109.327 105.32C109.285 105.32 109.264 105.341 109.264 105.384C109.221 105.384 109.2 105.405 109.2 105.448C109.157 105.448 109.136 105.469 109.136 105.512C109.093 105.512 109.072 105.533 109.072 105.575C109.029 105.661 108.987 105.746 108.944 105.831C108.901 105.831 108.88 105.852 108.88 105.895C108.411 107.181 108.773 108.15 109.966 108.803C110.381 108.939 110.807 108.992 111.245 108.962C111.607 109.082 111.65 109.285 111.372 109.569C109.774 109.766 108.677 109.117 108.081 107.62C107.778 106.065 108.322 104.925 109.711 104.202C111.443 103.662 112.7 104.205 113.481 105.831C115.185 105.581 116.889 105.591 118.593 105.863C118.95 106.205 118.886 106.428 118.402 106.534C116.806 106.316 115.209 106.295 113.609 106.47C113.62 106.812 113.609 107.152 113.577 107.493C113.364 107.748 113.151 107.748 112.938 107.493C112.906 107.366 112.896 107.239 112.906 107.109Z" fill="#231F20"/>
<path opacity="0.967" fill-rule="evenodd" clip-rule="evenodd" d="M116.868 104.106C119.154 104.043 121.434 104.139 123.706 104.393C123.986 104.541 124.05 104.744 123.897 105C123.773 105.038 123.646 105.06 123.514 105.064C122.579 104.96 121.642 104.886 120.702 104.841C118.998 104.811 117.294 104.811 115.59 104.841C115.426 104.654 115.426 104.462 115.59 104.265C116.021 104.196 116.447 104.143 116.868 104.106Z" fill="#221F20"/>
<path opacity="0.977" fill-rule="evenodd" clip-rule="evenodd" d="M114.759 107.237C117.074 107.142 119.375 107.281 121.661 107.652C121.888 107.817 121.91 108.009 121.725 108.227C121.637 108.283 121.541 108.315 121.437 108.323C119.241 107.99 117.037 107.851 114.823 107.908C114.669 107.86 114.605 107.753 114.632 107.588C114.625 107.449 114.668 107.332 114.759 107.237Z" fill="#221F20"/>
<rect x="31.8311" y="105.833" width="3.10971" height="3.10027" transform="rotate(41.1624 31.8311 105.833)" fill="#C6FD04"/>
</g>
<defs>
<filter id="filter0_f_987_477" x="75.7607" y="-42.5904" width="187.096" height="198.54" filterUnits="userSpaceOnUse" color-interpolation-filters="sRGB">
<feFlood flood-opacity="0" result="BackgroundImageFix"/>
<feBlend mode="normal" in="SourceGraphic" in2="BackgroundImageFix" result="shape"/>
<feGaussianBlur stdDeviation="24" result="effect1_foregroundBlur_987_477"/>
</filter>
<filter id="filter1_f_987_477" x="238" y="63.286" width="157" height="116.714" filterUnits="userSpaceOnUse" color-interpolation-filters="sRGB">
<feFlood flood-opacity="0" result="BackgroundImageFix"/>
<feBlend mode="normal" in="SourceGraphic" in2="BackgroundImageFix" result="shape"/>
<feGaussianBlur stdDeviation="1" result="effect1_foregroundBlur_987_477"/>
</filter>
<filter id="filter2_f_987_477" x="54.5" y="68.3992" width="248" height="71.6008" filterUnits="userSpaceOnUse" color-interpolation-filters="sRGB">
<feFlood flood-opacity="0" result="BackgroundImageFix"/>
<feBlend mode="normal" in="SourceGraphic" in2="BackgroundImageFix" result="shape"/>
<feGaussianBlur stdDeviation="1" result="effect1_foregroundBlur_987_477"/>
</filter>
<filter id="filter3_f_987_477" x="-2" y="45" width="161" height="105" filterUnits="userSpaceOnUse" color-interpolation-filters="sRGB">
<feFlood flood-opacity="0" result="BackgroundImageFix"/>
<feBlend mode="normal" in="SourceGraphic" in2="BackgroundImageFix" result="shape"/>
<feGaussianBlur stdDeviation="1" result="effect1_foregroundBlur_987_477"/>
</filter>
<linearGradient id="paint0_linear_987_477" x1="333.5" y1="60" x2="363.5" y2="63" gradientUnits="userSpaceOnUse">
<stop stop-color="#14DEE3"/>
<stop offset="1" stop-color="#14DEE3" stop-opacity="0"/>
</linearGradient>
<linearGradient id="paint1_linear_987_477" x1="341.5" y1="50" x2="370" y2="55" gradientUnits="userSpaceOnUse">
<stop stop-color="#4993FC"/>
<stop offset="1" stop-color="#4993FC" stop-opacity="0"/>
</linearGradient>
<clipPath id="clip0_987_477">
<rect width="393" height="852" fill="white"/>
</clipPath>
</defs>
</svg>
