<svg width="16" height="16" viewBox="0 0 16 16" fill="none" xmlns="http://www.w3.org/2000/svg">
<g clip-path="url(#clip0_1024_2585)">
<path d="M8 15C9.93298 15 11.683 14.2165 12.9497 12.9497C14.2165 11.683 15 9.93298 15 8C15 6.06702 14.2165 4.31702 12.9497 3.05025C11.683 1.7835 9.93298 1 8 1C6.06702 1 4.31702 1.7835 3.05025 3.05025C1.7835 4.31702 1 6.06702 1 8C1 9.93298 1.7835 11.683 3.05025 12.9497C4.31702 14.2165 6.06702 15 8 15Z" stroke="#13DDE2" stroke-width="1.5" stroke-linejoin="round"/>
<path fill-rule="evenodd" clip-rule="evenodd" d="M8 3C8.55228 3 9 3.44772 9 4C9 4.55228 8.55228 5 8 5C7.44772 5 7 4.55228 7 4C7 3.44772 7.44772 3 8 3Z" fill="#13DDE2"/>
<path d="M8.16667 11.3333V6.66667H7.83333H7.5" stroke="#13DDE2" stroke-width="1.5" stroke-linecap="round" stroke-linejoin="round"/>
<path d="M7 12H9.33333" stroke="#13DDE2" stroke-width="1.5" stroke-linecap="round" stroke-linejoin="round"/>
</g>
<defs>
<clipPath id="clip0_1024_2585">
<rect width="16" height="16" fill="white"/>
</clipPath>
</defs>
</svg>
