<svg width="58" height="28" viewBox="0 0 58 28" fill="none" xmlns="http://www.w3.org/2000/svg">
<rect width="28" height="28" rx="4" fill="#FAFAFA"/>
<g clip-path="url(#clip0_631_1449)">
<path d="M20.7285 7.91052L21.3731 6.56495C21.4929 6.31703 21.7922 6.21107 22.0397 6.33103L22.1075 6.36502C22.355 6.48498 22.4608 6.78488 22.341 7.0328L20.8403 10.1638" fill="#BABABA"/>
<path d="M20.2516 11.9392L19.7627 11.5074L21.0479 6.56495C21.1118 6.31703 21.2754 6.21107 21.4092 6.33103C21.5429 6.45099 21.6007 6.75089 21.5369 6.99881L20.2516 11.9392Z" fill="#E2E2E2"/>
<path d="M19.9733 12.2531C19.9334 12.2531 19.8915 12.2451 19.8536 12.2251L18.8837 11.7593C18.8178 11.7273 18.7659 11.6693 18.74 11.5993C18.7161 11.5294 18.72 11.4514 18.752 11.3854L21.1209 6.44299C21.2107 6.25505 21.3683 6.1151 21.5639 6.04512C21.7595 5.97514 21.971 5.98714 22.1586 6.07711L22.2265 6.1111C22.4141 6.20107 22.5538 6.35902 22.6236 6.55496C22.6935 6.75089 22.6815 6.96282 22.5917 7.15076L20.2248 12.0932C20.1769 12.1951 20.0771 12.2531 19.9733 12.2531ZM19.3766 11.3754L19.8416 11.5993L22.0888 6.90884C22.1407 6.79888 22.0948 6.66692 21.985 6.61494L21.9172 6.58095C21.8653 6.55496 21.8054 6.55296 21.7495 6.57295C21.6936 6.59294 21.6497 6.63293 21.6238 6.68491L19.3766 11.3754Z" fill="#242424"/>
<path d="M19.2493 15.1302C19.2094 15.1302 19.1675 15.1222 19.1296 15.1022C18.9899 15.0362 18.932 14.8683 18.9978 14.7283L19.9837 12.673C20.0456 12.545 19.9917 12.3911 19.862 12.3291C19.7343 12.2671 19.5806 12.3211 19.5187 12.4511C19.4529 12.591 19.2852 12.649 19.1455 12.583C19.0058 12.517 18.9479 12.3491 19.0138 12.2091C19.2094 11.8033 19.6963 11.6313 20.1035 11.8253C20.299 11.9192 20.4467 12.0852 20.5206 12.2911C20.5944 12.497 20.5804 12.719 20.4866 12.9169L19.5008 14.9723C19.4529 15.0702 19.3531 15.1302 19.2493 15.1302Z" fill="#242424"/>
<path d="M18.4392 14.3205C18.3993 14.3205 18.3573 14.3125 18.3194 14.2925C18.1797 14.2265 18.1219 14.0585 18.1877 13.9186L19.0099 12.2031C19.0718 12.0752 19.0179 11.9212 18.8882 11.8593C18.7585 11.7973 18.6068 11.8513 18.5449 11.9812L18.1238 12.8609C18.058 13.0009 17.8904 13.0589 17.7507 12.9929C17.611 12.9269 17.5531 12.759 17.6189 12.619L18.04 11.7393C18.1338 11.5434 18.2995 11.3954 18.505 11.3214C18.7106 11.2494 18.9321 11.2614 19.1297 11.3554C19.5348 11.5513 19.7064 12.0392 19.5129 12.4471L18.6906 14.1605C18.6427 14.2625 18.5429 14.3205 18.4392 14.3205Z" fill="#242424"/>
<path d="M19.3712 15.2242C19.2634 15.2242 19.1617 15.1622 19.1158 15.0582C19.0539 14.9203 19.1138 14.7583 19.2495 14.6923L20.4529 12.1832L18.6328 11.3074L17.9842 12.661C17.9183 12.801 17.7507 12.8589 17.611 12.793C17.4713 12.727 17.4134 12.559 17.4793 12.4191L18.1379 11.0455C18.1997 10.9156 18.3095 10.8196 18.4432 10.7716C18.5789 10.7236 18.7246 10.7316 18.8543 10.7936L20.7143 11.6873C20.9817 11.8153 21.0935 12.1372 20.9658 12.4051L19.7504 14.9423C19.6965 15.0562 19.6027 15.1482 19.485 15.2002C19.449 15.2162 19.4091 15.2242 19.3712 15.2242Z" fill="#242424"/>
<path d="M9.43262 11.4454C10.2588 11.4454 10.9294 12.0712 10.9294 12.8449C10.9294 13.6187 10.2588 14.2445 9.43262 14.2445" fill="#FF4040"/>
<path d="M8.75391 12.9249C8.75391 13.2431 8.8275 13.5482 8.95849 13.7732C9.08948 13.9981 9.26715 14.1245 9.4524 14.1245C9.63766 14.1245 9.81532 13.9981 9.94631 13.7732C10.0773 13.5482 10.1509 13.2431 10.1509 12.9249C10.1509 12.6068 10.0773 12.3016 9.94631 12.0767C9.81532 11.8517 9.63766 11.7253 9.4524 11.7253C9.26715 11.7253 9.08948 11.8517 8.95849 12.0767C8.8275 12.3016 8.75391 12.6068 8.75391 12.9249Z" fill="#FF6464"/>
<path d="M9.02288 14.6424C8.99694 14.6424 8.969 14.6384 8.94305 14.6304C8.58383 14.5224 8.26052 14.2985 8.03501 13.9986C7.79951 13.6867 7.67578 13.3168 7.67578 12.9249C7.67578 11.9432 8.47207 11.1455 9.45196 11.1455C10.4318 11.1455 11.2281 11.9432 11.2281 12.9249C11.2281 13.3448 11.0805 13.7526 10.809 14.0725C10.7093 14.1905 10.5336 14.2065 10.4159 14.1065C10.2981 14.0066 10.2822 13.8306 10.382 13.7127C10.5676 13.4927 10.6693 13.2148 10.6693 12.9269C10.6693 12.2551 10.1225 11.7073 9.45196 11.7073C8.7814 11.7073 8.23458 12.2551 8.23458 12.9269C8.23458 13.4627 8.59181 13.9426 9.10271 14.0965C9.25039 14.1405 9.33421 14.2965 9.29031 14.4444C9.25438 14.5644 9.14462 14.6424 9.02288 14.6424Z" fill="#242424"/>
<path d="M14.2461 15.3641H18.5708C18.5708 12.9709 16.635 11.0315 14.2461 11.0315V15.3641Z" fill="#FFCA55"/>
<path d="M10.917 16.8037C10.917 12.9829 12.4058 11.1315 14.2438 11.1315C16.0819 11.1315 17.7722 13.5447 17.7722 16.8037" fill="#FFE59C"/>
<path d="M18.5266 14.8823C18.3889 14.8823 18.2712 14.7823 18.2512 14.6424C17.9679 12.663 16.2456 11.1715 14.2459 11.1715C13.0564 11.1715 11.9328 11.6933 11.1625 12.601C11.0627 12.719 10.8871 12.733 10.7693 12.633C10.6516 12.533 10.6376 12.3571 10.7374 12.2391C11.6155 11.2055 12.8928 10.6136 14.2459 10.6136C15.3595 10.6136 16.4351 11.0175 17.2733 11.7513C18.1036 12.477 18.6464 13.4767 18.8021 14.5644C18.824 14.7183 18.7182 14.8583 18.5646 14.8803C18.5526 14.8803 18.5386 14.8823 18.5266 14.8823Z" fill="#242424"/>
<path d="M16.9067 14.8823C16.7789 14.8823 16.6652 14.7943 16.6352 14.6663C16.3758 13.5487 15.3939 12.767 14.2464 12.767C13.3583 12.767 12.5361 13.2508 12.103 14.0306C12.0272 14.1665 11.8575 14.2145 11.7238 14.1385C11.5881 14.0625 11.5402 13.8926 11.616 13.7586C12.1469 12.8029 13.1567 12.2091 14.2484 12.2091C14.9329 12.2091 15.6015 12.4451 16.1343 12.8749C16.6592 13.2968 17.0304 13.8886 17.1821 14.5424C17.216 14.6923 17.1242 14.8443 16.9725 14.8783C16.9486 14.8803 16.9266 14.8823 16.9067 14.8823Z" fill="#242424"/>
<path d="M15.3839 15.5041C15.2302 15.5041 15.1045 15.3781 15.1045 15.2242C15.1045 14.7503 14.7193 14.3644 14.2463 14.3644C13.9909 14.3644 13.7494 14.4784 13.5857 14.6763C13.4879 14.7943 13.3103 14.8123 13.1926 14.7123C13.0748 14.6144 13.0569 14.4364 13.1567 14.3185C13.4261 13.9926 13.8252 13.8046 14.2463 13.8046C15.0286 13.8046 15.6633 14.4424 15.6633 15.2242C15.6633 15.3781 15.5375 15.5041 15.3839 15.5041Z" fill="#242424"/>
<path d="M17.6689 18.3352H21.2991C21.2991 16.3238 19.6746 14.6903 17.6689 14.6823V18.3352Z" fill="#FFCA55"/>
<path d="M15.0049 18.4351C15.0049 16.5278 16.1903 14.9823 17.6532 14.9823C19.116 14.9823 20.3015 16.5278 20.3015 18.4351" fill="#FFE59C"/>
<path d="M21.2986 18.6151C21.1449 18.6151 21.0192 18.4891 21.0192 18.3352C21.0192 16.4758 19.5084 14.9623 17.6524 14.9623C16.6366 14.9623 15.6846 15.4161 15.042 16.2059C14.9442 16.3258 14.7686 16.3438 14.6489 16.2458C14.5291 16.1479 14.5112 15.9719 14.609 15.852C15.3593 14.9323 16.467 14.4024 17.6524 14.4024C19.8177 14.4024 21.578 16.1659 21.578 18.3352C21.578 18.4891 21.4542 18.6151 21.2986 18.6151Z" fill="#242424"/>
<path d="M19.9557 18.6151C19.8021 18.6151 19.6763 18.4891 19.6763 18.3352C19.6763 17.2175 18.7683 16.3078 17.6527 16.3078C16.7367 16.3078 15.9324 16.9256 15.6969 17.8113C15.657 17.9613 15.5033 18.0493 15.3556 18.0093C15.206 17.9693 15.1181 17.8153 15.1581 17.6674C15.4594 16.5377 16.4852 15.748 17.6527 15.748C19.0756 15.748 20.2351 16.9076 20.2351 18.3352C20.2351 18.4891 20.1114 18.6151 19.9557 18.6151Z" fill="#242424"/>
<path d="M18.6123 18.6151C18.4586 18.6151 18.3329 18.4891 18.3329 18.3352C18.3329 17.9593 18.0276 17.6534 17.6524 17.6534C17.2772 17.6534 16.9738 17.9593 16.9738 18.3352C16.9738 18.4891 16.8481 18.6151 16.6944 18.6151C16.5408 18.6151 16.415 18.4891 16.415 18.3352C16.415 17.6514 16.9698 17.0936 17.6544 17.0936C18.3389 17.0936 18.8937 17.6494 18.8937 18.3352C18.8917 18.4891 18.768 18.6151 18.6123 18.6151Z" fill="#242424"/>
<path d="M10.8496 18.3232H15.4337C15.4337 15.876 13.454 13.8926 11.0113 13.8926C10.9574 13.8926 10.9035 13.8946 10.8516 13.8966V18.3232H10.8496Z" fill="#FFCA55"/>
<path d="M7.78418 18.4231C7.78418 16.0859 9.11731 14.1325 11.0092 14.1325C12.9012 14.1325 14.2343 16.0859 14.2343 18.4231" fill="#FFE59C"/>
<path d="M15.432 18.6031C15.2783 18.6031 15.1526 18.4771 15.1526 18.3232C15.1526 16.3398 13.7437 14.6264 11.8038 14.2485C11.5444 14.1985 11.277 14.1725 11.0075 14.1725C8.72246 14.1725 6.86446 16.0339 6.86446 18.3232C6.86446 18.4771 6.73873 18.6031 6.58506 18.6031C6.43139 18.6031 6.30566 18.4771 6.30566 18.3232C6.30566 17.0656 6.79461 15.882 7.6827 14.9922C8.57079 14.1025 9.75225 13.6127 11.0075 13.6127C11.3109 13.6127 11.6142 13.6427 11.9096 13.6987C14.1109 14.1265 15.7094 16.0719 15.7094 18.3232C15.7114 18.4771 15.5857 18.6031 15.432 18.6031Z" fill="#242424"/>
<path d="M13.8029 18.6031C13.6492 18.6031 13.5235 18.4771 13.5235 18.3232C13.5235 16.9336 12.3959 15.804 11.0089 15.804C9.62192 15.804 8.49434 16.9336 8.49434 18.3232C8.49434 18.4771 8.36861 18.6031 8.21495 18.6031C8.06128 18.6031 7.93555 18.4771 7.93555 18.3232C7.93555 16.6257 9.31458 15.2442 11.0089 15.2442C12.7033 15.2442 14.0823 16.6257 14.0823 18.3232C14.0823 18.4771 13.9566 18.6031 13.8029 18.6031Z" fill="#242424"/>
<path d="M12.1728 18.6031C12.0191 18.6031 11.8934 18.4771 11.8934 18.3232C11.8934 17.8353 11.4963 17.4375 11.0093 17.4375C10.5223 17.4375 10.1252 17.8353 10.1252 18.3232C10.1252 18.4771 9.99947 18.6031 9.8458 18.6031C9.69214 18.6031 9.56641 18.4771 9.56641 18.3232C9.56641 17.5254 10.213 16.8776 11.0093 16.8776C11.8056 16.8776 12.4522 17.5254 12.4522 18.3232C12.4522 18.4771 12.3285 18.6031 12.1728 18.6031Z" fill="#242424"/>
<path d="M10.1426 11.2195C10.6695 11.3474 11.2303 11.3414 11.7691 11.1875C11.7132 11.0175 11.6414 10.8516 11.5536 10.6876C11.1984 10.0238 10.6436 9.538 10.0029 9.26209M12.4716 10.7816C12.6313 10.6876 12.7829 10.5817 12.9226 10.4677C14.1221 9.49602 14.5871 7.87454 14.1081 6.423C13.9145 6.49698 13.7249 6.58695 13.5413 6.69692C13.2599 6.86286 13.0105 7.0588 12.7909 7.28073" fill="#74B232"/>
<path d="M8.86719 9.40404C8.9071 9.55999 8.955 9.71194 9.01487 9.86189C9.5118 11.1015 10.5835 11.6693 11.5554 11.2974C11.5155 11.1415 11.4676 10.9895 11.4077 10.8396C10.9108 9.59998 9.84109 9.03216 8.86719 9.40404ZM13.1679 6.92284C13.0342 6.99081 12.9045 7.07479 12.7768 7.17276C11.723 8.00249 11.278 9.68395 11.6492 11.1735C11.7829 11.1055 11.9126 11.0215 12.0404 10.9236C13.0941 10.0958 13.5371 8.41236 13.1679 6.92284Z" fill="#94CC62"/>
<path d="M10.8972 11.5893C10.4421 11.5893 9.98513 11.4994 9.56005 11.3234C8.82563 11.0175 8.21295 10.4617 7.83576 9.75793C7.74395 9.58398 7.66413 9.40204 7.60226 9.2161C7.57831 9.14412 7.5843 9.06415 7.62022 8.99617C7.65614 8.92819 7.71801 8.87821 7.78986 8.85822C8.54024 8.64229 9.35249 8.69027 10.0769 8.99217C10.8114 9.29808 11.424 9.8539 11.8012 10.5577C11.893 10.7316 11.9729 10.9136 12.0347 11.0995C12.0587 11.1715 12.0527 11.2514 12.0168 11.3194C11.9808 11.3874 11.919 11.4374 11.8471 11.4574C11.5378 11.5454 11.2185 11.5893 10.8972 11.5893ZM8.24687 9.32407C8.27282 9.38005 8.30076 9.43603 8.3287 9.49001C8.92142 10.5997 10.1727 11.1955 11.3901 10.9855C11.3642 10.9296 11.3362 10.8736 11.3083 10.8196C10.7156 9.70994 9.46425 9.11413 8.24687 9.32407Z" fill="#242424"/>
<path d="M11.9048 11.3334C11.8629 11.3334 11.823 11.3234 11.7851 11.3054C11.7172 11.2734 11.6633 11.2135 11.6394 11.1415C11.358 10.2898 11.374 9.35406 11.6853 8.50833C12.0006 7.64861 12.6093 6.92084 13.3976 6.45499C13.5912 6.34103 13.7967 6.24106 14.0083 6.16108C14.0801 6.13309 14.158 6.13709 14.2278 6.16908C14.2957 6.20107 14.3495 6.26105 14.3735 6.33303C14.6549 7.18475 14.6389 8.12045 14.3276 8.96618C14.0123 9.82591 13.4036 10.5537 12.6153 11.0195C12.4217 11.1335 12.2161 11.2335 12.0046 11.3134C11.9707 11.3274 11.9367 11.3334 11.9048 11.3334ZM13.9265 6.80688C13.8426 6.84686 13.7628 6.89085 13.683 6.93683C12.3918 7.69859 11.7531 9.2301 12.0864 10.6696C12.1702 10.6296 12.2501 10.5857 12.3299 10.5397C13.6211 9.77792 14.2597 8.24641 13.9265 6.80688Z" fill="#242424"/>
<path d="M14.3379 18.5211H21.7639C22.0932 18.5211 22.3626 18.791 22.3626 19.1209C22.3626 19.4508 22.0932 19.7207 21.7639 19.7207H14.3379" fill="#AAAAAA"/>
<path d="M20.4663 19.7207H7.17488C6.84559 19.7207 6.57617 19.4508 6.57617 19.1209C6.57617 18.791 6.84559 18.5211 7.17488 18.5211H20.4663C20.7956 18.5211 21.065 18.791 21.065 19.1209C21.065 19.4508 20.7956 19.7207 20.4663 19.7207Z" fill="#CCCCCC"/>
<path d="M21.7639 20.0006H5.87811C5.39315 20.0006 5 19.6068 5 19.1209C5 18.6351 5.39315 18.2412 5.87811 18.2412H21.7639C22.2489 18.2412 22.642 18.6351 22.642 19.1209C22.642 19.6068 22.2489 20.0006 21.7639 20.0006ZM5.87811 18.801C5.70249 18.801 5.5588 18.945 5.5588 19.1209C5.5588 19.2969 5.70249 19.4408 5.87811 19.4408H21.7639C21.9395 19.4408 22.0832 19.2969 22.0832 19.1209C22.0832 18.945 21.9395 18.801 21.7639 18.801H5.87811Z" fill="#242424"/>
<path d="M14.3379 19.7207H21.3807V20.1206C21.3807 21.0003 20.6623 21.7201 19.7842 21.7201H14.3379" fill="#D8D8D8"/>
<path d="M18.3868 21.7201H9.40613C8.52802 21.7201 7.80957 21.0003 7.80957 20.1206V19.7207H19.9834V20.1206C19.9834 21.0003 19.2649 21.7201 18.3868 21.7201Z" fill="#EFEFEF"/>
<path d="M19.7844 22H8.00975C6.97598 22 6.13379 21.1563 6.13379 20.1206V19.7207C6.13379 19.5668 6.25952 19.4408 6.41319 19.4408H21.381C21.5346 19.4408 21.6604 19.5668 21.6604 19.7207V20.1206C21.6604 21.1563 20.8182 22 19.7844 22ZM6.69259 20.0006V20.1206C6.69259 20.8484 7.28331 21.4402 8.00975 21.4402H19.7844C20.5108 21.4402 21.1016 20.8484 21.1016 20.1206V20.0006H6.69259Z" fill="#242424"/>
</g>
<path d="M45.268 15.828C45.268 16.028 45.264 16.292 45.256 16.62C45.248 16.948 45.24 17.22 45.232 17.436C45.2 17.884 45.088 18.192 44.896 18.36C44.712 18.536 44.388 18.624 43.924 18.624H42.868C42.468 18.624 42.176 18.528 41.992 18.336C41.808 18.152 41.716 17.832 41.716 17.376L41.704 15.684C41.44 16.276 41.06 16.82 40.564 17.316C40.076 17.804 39.416 18.324 38.584 18.876L37.924 17.94C38.756 17.436 39.408 16.944 39.88 16.464C40.352 15.976 40.708 15.428 40.948 14.82H39.064V11.808L38.92 11.952L38.332 11.064C38.812 10.584 39.252 10.06 39.652 9.492C40.052 8.916 40.38 8.324 40.636 7.716L41.656 7.98C41.512 8.316 41.396 8.568 41.308 8.736H44.056V9.684L43.084 11.004H44.752V14.82H42.7L42.712 17.028C42.712 17.252 42.756 17.4 42.844 17.472C42.932 17.544 43.076 17.58 43.276 17.58H43.72C43.944 17.58 44.092 17.544 44.164 17.472C44.236 17.4 44.276 17.244 44.284 17.004C44.3 16.7 44.308 16.24 44.308 15.624L45.268 15.828ZM38.236 8.7V17.328H36.112V18.168H35.128V8.7H38.236ZM42.796 9.684H40.768C40.48 10.14 40.16 10.58 39.808 11.004H41.812L42.796 9.684ZM37.276 12.444V9.792H36.112V12.444H37.276ZM40.036 13.812H41.236C41.332 13.284 41.392 12.688 41.416 12.024H40.036V13.812ZM43.768 13.812V12.024H42.4C42.376 12.72 42.324 13.316 42.244 13.812H43.768ZM36.112 13.512V16.224H37.276V13.512H36.112ZM47.596 10.872C47.444 11.032 47.268 11.2 47.068 11.376L46.528 10.752C47.136 10.216 47.64 9.572 48.04 8.82L48.796 9.048C48.724 9.224 48.64 9.392 48.544 9.552H49.276V7.764H50.26V8.328H52.048V9.024H50.26V9.552H51.76V10.452C51.32 10.908 50.684 11.38 49.852 11.868C49.02 12.348 48.076 12.768 47.02 13.128L46.66 12.24C47.436 11.992 48.076 11.752 48.58 11.52L47.596 10.872ZM54.484 10.2C54.924 9.92 55.316 9.572 55.66 9.156H52.48V8.292H56.752V9.228C56.328 9.804 55.848 10.288 55.312 10.68C56.04 11.104 56.64 11.46 57.112 11.748L56.62 12.624C56.108 12.272 55.388 11.804 54.46 11.22C54.036 11.452 53.532 11.664 52.948 11.856L52.528 11.076C53.016 10.908 53.368 10.776 53.584 10.68C53.088 10.368 52.68 10.12 52.36 9.936L52.816 9.288C53.184 9.472 53.74 9.776 54.484 10.2ZM48.088 10.284L48.052 10.32L49.372 11.124C49.844 10.868 50.256 10.588 50.608 10.284H48.088ZM56.932 14.868C56.404 14.684 55.868 14.472 55.324 14.232V16.38L55.888 16.068L56.332 16.74C55.828 17.004 55.288 17.264 54.712 17.52L56.728 18.084L56.404 18.888C55.876 18.72 55.2 18.508 54.376 18.252C53.56 17.996 52.728 17.744 51.88 17.496L51.844 18.228L48.28 18.864L47.992 18.012C48.12 17.964 48.204 17.912 48.244 17.856C48.284 17.8 48.304 17.716 48.304 17.604V14.376C47.696 14.648 47.236 14.844 46.924 14.964L46.54 14.016C48.788 13.248 50.44 12.34 51.496 11.292H52.252C52.804 11.836 53.508 12.328 54.364 12.768C55.228 13.208 56.204 13.592 57.292 13.92L56.932 14.868ZM54.184 13.68C53.224 13.176 52.452 12.68 51.868 12.192C51.34 12.656 50.604 13.152 49.66 13.68H51.592C51.48 13.304 51.408 13.064 51.376 12.96L52.216 12.78C52.256 12.876 52.324 13.068 52.42 13.356L52.528 13.68H54.184ZM54.268 14.796V14.328H49.432V14.796H54.268ZM54.268 15.36H49.432V15.84H54.268V15.36ZM49.432 17.736L51.568 17.4L51.004 17.232L50.404 17.064L50.632 16.464H49.432V17.736ZM53.584 17.196C54.088 16.98 54.612 16.736 55.156 16.464H50.932C51.252 16.544 51.768 16.688 52.48 16.896C52.616 16.936 52.776 16.98 52.96 17.028C53.144 17.076 53.352 17.132 53.584 17.196Z" fill="#242424"/>
<defs>
<clipPath id="clip0_631_1449">
<rect width="17.6552" height="16" fill="white" transform="translate(5 6)"/>
</clipPath>
</defs>
</svg>
