<svg width="352" height="18" viewBox="0 0 352 18" fill="none" xmlns="http://www.w3.org/2000/svg">
<path d="M324.812 13.123C339.839 13.6598 348.199 11.4216 351 10.2286V17H1.0267C0.523804 13.5 7.15634 5.87559 17.8339 1.93874C31.1807 -2.98231 44.5276 13.123 71.2214 11.5572C97.9151 9.99138 99.8924 6.18874 122.137 3.9519C144.382 1.71506 162.178 11.7808 195.298 13.123C228.418 14.4651 227.429 10.2151 251.651 8.42559C275.873 6.63611 306.027 12.4519 324.812 13.123Z" fill="#C7E94E"/>
<path d="M324.812 13.123C339.839 13.6598 348.199 11.4216 351 10.2286V17H1.0267C0.523804 13.5 7.15634 5.87559 17.8339 1.93874C31.1807 -2.98231 44.5276 13.123 71.2214 11.5572C97.9151 9.99138 99.8924 6.18874 122.137 3.9519C144.382 1.71506 162.178 11.7808 195.298 13.123C228.418 14.4651 227.429 10.2151 251.651 8.42559C275.873 6.63611 306.027 12.4519 324.812 13.123Z" stroke="#242424" stroke-linecap="round" stroke-linejoin="round"/>
<path d="M324.812 13.123C339.839 13.6598 348.199 11.4216 351 10.2286V17H1.0267C0.523804 13.5 7.15634 5.87559 17.8339 1.93874C31.1807 -2.98231 44.5276 13.123 71.2214 11.5572C97.9151 9.99138 99.8924 6.18874 122.137 3.9519C144.382 1.71506 162.178 11.7808 195.298 13.123C228.418 14.4651 227.429 10.2151 251.651 8.42559C275.873 6.63611 306.027 12.4519 324.812 13.123Z" stroke="black" stroke-opacity="0.2" stroke-linecap="round" stroke-linejoin="round"/>
</svg>
